G04 #@! TF.GenerationSoftware,KiCad,Pcbnew,8.0.9-8.0.9-0~ubuntu20.04.1*
G04 #@! TF.CreationDate,2025-08-07T15:34:15-05:00*
G04 #@! TF.ProjectId,PLATO_JUNCTION_BOARD,504c4154-4f5f-44a5-954e-4354494f4e5f,rev?*
G04 #@! TF.SameCoordinates,Original*
G04 #@! TF.FileFunction,Legend,Bot*
G04 #@! TF.FilePolarity,Positive*
%FSLAX46Y46*%
G04 Gerber Fmt 4.6, Leading zero omitted, Abs format (unit mm)*
G04 Created by KiCad (PCBNEW 8.0.9-8.0.9-0~ubuntu20.04.1) date 2025-08-07 15:34:15*
%MOMM*%
%LPD*%
G01*
G04 APERTURE LIST*
G04 Aperture macros list*
%AMRoundRect*
0 Rectangle with rounded corners*
0 $1 Rounding radius*
0 $2 $3 $4 $5 $6 $7 $8 $9 X,Y pos of 4 corners*
0 Add a 4 corners polygon primitive as box body*
4,1,4,$2,$3,$4,$5,$6,$7,$8,$9,$2,$3,0*
0 Add four circle primitives for the rounded corners*
1,1,$1+$1,$2,$3*
1,1,$1+$1,$4,$5*
1,1,$1+$1,$6,$7*
1,1,$1+$1,$8,$9*
0 Add four rect primitives between the rounded corners*
20,1,$1+$1,$2,$3,$4,$5,0*
20,1,$1+$1,$4,$5,$6,$7,0*
20,1,$1+$1,$6,$7,$8,$9,0*
20,1,$1+$1,$8,$9,$2,$3,0*%
G04 Aperture macros list end*
%ADD10C,0.100000*%
%ADD11C,0.200000*%
%ADD12C,0.150000*%
%ADD13C,0.153000*%
%ADD14C,0.120000*%
%ADD15C,0.127000*%
%ADD16RoundRect,0.250000X-0.550000X0.550000X-0.550000X-0.550000X0.550000X-0.550000X0.550000X0.550000X0*%
%ADD17C,1.600000*%
%ADD18RoundRect,0.102000X1.460000X-0.370000X1.460000X0.370000X-1.460000X0.370000X-1.460000X-0.370000X0*%
%ADD19RoundRect,0.250000X0.475000X-0.337500X0.475000X0.337500X-0.475000X0.337500X-0.475000X-0.337500X0*%
%ADD20RoundRect,0.250000X-0.337500X-0.475000X0.337500X-0.475000X0.337500X0.475000X-0.337500X0.475000X0*%
%ADD21RoundRect,0.250000X0.450000X-0.350000X0.450000X0.350000X-0.450000X0.350000X-0.450000X-0.350000X0*%
%ADD22RoundRect,0.250000X-0.475000X0.337500X-0.475000X-0.337500X0.475000X-0.337500X0.475000X0.337500X0*%
%ADD23R,0.850000X0.949992*%
%ADD24R,0.850000X0.949986*%
%ADD25RoundRect,0.150000X-0.587500X-0.150000X0.587500X-0.150000X0.587500X0.150000X-0.587500X0.150000X0*%
%ADD26RoundRect,0.250000X-0.450000X0.350000X-0.450000X-0.350000X0.450000X-0.350000X0.450000X0.350000X0*%
%ADD27O,1.500000X2.300000*%
%ADD28RoundRect,0.250000X0.500000X0.900000X-0.500000X0.900000X-0.500000X-0.900000X0.500000X-0.900000X0*%
%ADD29RoundRect,0.250000X-0.350000X-0.450000X0.350000X-0.450000X0.350000X0.450000X-0.350000X0.450000X0*%
%ADD30RoundRect,0.102000X1.025000X1.750000X-1.025000X1.750000X-1.025000X-1.750000X1.025000X-1.750000X0*%
%ADD31RoundRect,0.102000X-0.450000X-0.200000X0.450000X-0.200000X0.450000X0.200000X-0.450000X0.200000X0*%
%ADD32RoundRect,0.102000X-0.200000X0.450000X-0.200000X-0.450000X0.200000X-0.450000X0.200000X0.450000X0*%
%ADD33RoundRect,0.250000X0.337500X0.475000X-0.337500X0.475000X-0.337500X-0.475000X0.337500X-0.475000X0*%
G04 APERTURE END LIST*
D10*
X142200000Y-113300000D02*
X143300000Y-113300000D01*
X134300000Y-121100000D02*
X133900000Y-120700000D01*
X133900000Y-120700000D02*
X133500000Y-121100000D01*
X123800000Y-116100000D02*
X123400000Y-116500000D01*
X142200000Y-107000000D02*
X143300000Y-107000000D01*
X101600000Y-116800000D02*
X101900000Y-117100000D01*
X101300000Y-117100000D02*
X101600000Y-116800000D01*
X133500000Y-121100000D02*
X133900000Y-120700000D01*
X105400000Y-118400000D02*
X105400000Y-115500000D01*
X133900000Y-122800000D02*
X133900000Y-120700000D01*
X123800000Y-116100000D02*
X123400000Y-115700000D01*
X142200000Y-112000000D02*
X143300000Y-112000000D01*
X123200000Y-116100000D02*
X123800000Y-116100000D01*
X101900000Y-117100000D02*
X101600000Y-116800000D01*
X105100000Y-115200000D02*
X105400000Y-115200000D01*
X116600000Y-122700000D02*
X123200000Y-116100000D01*
X101600000Y-117900000D02*
X101600000Y-116800000D01*
X105400000Y-115500000D02*
X105100000Y-115200000D01*
X105100000Y-115200000D02*
X105100000Y-115500000D01*
X142200000Y-108300000D02*
X143300000Y-108300000D01*
D11*
G36*
X135025680Y-101181504D02*
G01*
X134828306Y-101181504D01*
X134889985Y-100885443D01*
X135025680Y-101181504D01*
G37*
G36*
X129901572Y-100991028D02*
G01*
X129656251Y-100991028D01*
X129588352Y-100959075D01*
X129556316Y-100930598D01*
X129516103Y-100866258D01*
X129504038Y-100769738D01*
X129524711Y-100714610D01*
X129542342Y-100694460D01*
X129593421Y-100667219D01*
X129861096Y-100667219D01*
X129901572Y-100991028D01*
G37*
G36*
X139023321Y-101778330D02*
G01*
X128388993Y-101778330D01*
X128388993Y-101547710D01*
X128500104Y-101547710D01*
X128500104Y-101586728D01*
X128515036Y-101622776D01*
X128542626Y-101650366D01*
X128578674Y-101665298D01*
X128598183Y-101667219D01*
X129074374Y-101667219D01*
X129093883Y-101665298D01*
X129099675Y-101662898D01*
X129105898Y-101662121D01*
X129117551Y-101655494D01*
X129129931Y-101650366D01*
X129134364Y-101645932D01*
X129139815Y-101642833D01*
X129148043Y-101632253D01*
X129157521Y-101622776D01*
X129159920Y-101616983D01*
X129163770Y-101612034D01*
X129167323Y-101599112D01*
X129172453Y-101586728D01*
X129172453Y-101580456D01*
X129174115Y-101574412D01*
X129173602Y-101554815D01*
X129073063Y-100750502D01*
X129302014Y-100750502D01*
X129302527Y-100770098D01*
X129320384Y-100912956D01*
X129324710Y-100932076D01*
X129325752Y-100933909D01*
X129326101Y-100935990D01*
X129334812Y-100953552D01*
X129394336Y-101048790D01*
X129398370Y-101054023D01*
X129399394Y-101056134D01*
X129403036Y-101060075D01*
X129406305Y-101064315D01*
X129408209Y-101065673D01*
X129412699Y-101070531D01*
X129466271Y-101118150D01*
X129471701Y-101122097D01*
X129473293Y-101123846D01*
X129477846Y-101126562D01*
X129482128Y-101129675D01*
X129484358Y-101130448D01*
X129490127Y-101133891D01*
X129591317Y-101181510D01*
X129606309Y-101186841D01*
X129416254Y-101517372D01*
X129408195Y-101535242D01*
X129403171Y-101573935D01*
X129413336Y-101611606D01*
X129437143Y-101642520D01*
X129470968Y-101661969D01*
X129509661Y-101666993D01*
X129547332Y-101656828D01*
X129578246Y-101633021D01*
X129589636Y-101617066D01*
X129834607Y-101191028D01*
X129926572Y-101191028D01*
X129975146Y-101579622D01*
X129979472Y-101598742D01*
X129998760Y-101632660D01*
X130029559Y-101656615D01*
X130067181Y-101666960D01*
X130105898Y-101662121D01*
X130139815Y-101642833D01*
X130163770Y-101612034D01*
X130174115Y-101574412D01*
X130173602Y-101554815D01*
X130060439Y-100649515D01*
X130290691Y-100649515D01*
X130293286Y-100688447D01*
X130310582Y-100723422D01*
X130339946Y-100749116D01*
X130376908Y-100761616D01*
X130415840Y-100759021D01*
X130450815Y-100741725D01*
X130465107Y-100728308D01*
X130489353Y-100700597D01*
X130585317Y-100667219D01*
X130648051Y-100667219D01*
X130761843Y-100703632D01*
X130842431Y-100775267D01*
X130889023Y-100849813D01*
X130952796Y-101019876D01*
X130967642Y-101138647D01*
X130946844Y-101305034D01*
X130921654Y-101372208D01*
X130867726Y-101433840D01*
X130771763Y-101467219D01*
X130709032Y-101467219D01*
X130595239Y-101430805D01*
X130557477Y-101397239D01*
X130541619Y-101385714D01*
X130504756Y-101372925D01*
X130465806Y-101375216D01*
X130430696Y-101392238D01*
X130404774Y-101421401D01*
X130391985Y-101458264D01*
X130394276Y-101497214D01*
X130411298Y-101532324D01*
X130424603Y-101546721D01*
X130478175Y-101594340D01*
X130494033Y-101605866D01*
X130495197Y-101606269D01*
X130496139Y-101607067D01*
X130514134Y-101614842D01*
X130662943Y-101662461D01*
X130671501Y-101664299D01*
X130673912Y-101665298D01*
X130678044Y-101665704D01*
X130682109Y-101666578D01*
X130684711Y-101666361D01*
X130693421Y-101667219D01*
X130788659Y-101667219D01*
X130799882Y-101666113D01*
X130802454Y-101666263D01*
X130805275Y-101665582D01*
X130808168Y-101665298D01*
X130810549Y-101664311D01*
X130821511Y-101661669D01*
X130958416Y-101614050D01*
X130976211Y-101605826D01*
X130980900Y-101601650D01*
X130986530Y-101598867D01*
X131000822Y-101585450D01*
X131084155Y-101490211D01*
X131092483Y-101478561D01*
X131093881Y-101477066D01*
X131094603Y-101475595D01*
X131095556Y-101474264D01*
X131096211Y-101472325D01*
X131102530Y-101459474D01*
X131138245Y-101364236D01*
X131138927Y-101361677D01*
X131139514Y-101360646D01*
X131141258Y-101352934D01*
X131143296Y-101345295D01*
X131143255Y-101344108D01*
X131143840Y-101341526D01*
X131167649Y-101151050D01*
X131167745Y-101147354D01*
X131168162Y-101145841D01*
X131167973Y-101138647D01*
X131168162Y-101131454D01*
X131167745Y-101129940D01*
X131167649Y-101126244D01*
X131149792Y-100983387D01*
X131149207Y-100980804D01*
X131149248Y-100979619D01*
X131147212Y-100971984D01*
X131145466Y-100964267D01*
X131144878Y-100963234D01*
X131144197Y-100960678D01*
X131072769Y-100770202D01*
X131072665Y-100769991D01*
X131072646Y-100769875D01*
X131068331Y-100761175D01*
X131064120Y-100752610D01*
X131064040Y-100752525D01*
X131063936Y-100752314D01*
X131004412Y-100657076D01*
X131000374Y-100651838D01*
X130999353Y-100649732D01*
X130995719Y-100645800D01*
X130992443Y-100641550D01*
X130990532Y-100640187D01*
X130986048Y-100635335D01*
X130901325Y-100560026D01*
X131325823Y-100560026D01*
X131326336Y-100579622D01*
X131451336Y-101579622D01*
X131455662Y-101598742D01*
X131474950Y-101632660D01*
X131505749Y-101656615D01*
X131543371Y-101666960D01*
X131582088Y-101662121D01*
X131616005Y-101642833D01*
X131639960Y-101612034D01*
X131650305Y-101574412D01*
X131649792Y-101554815D01*
X131598366Y-101143409D01*
X131968238Y-101143409D01*
X132022765Y-101579622D01*
X132027091Y-101598742D01*
X132046379Y-101632660D01*
X132077178Y-101656615D01*
X132114800Y-101666960D01*
X132153517Y-101662121D01*
X132187434Y-101642833D01*
X132211389Y-101612034D01*
X132221734Y-101574412D01*
X132221221Y-101554815D01*
X132172714Y-101166757D01*
X132452485Y-101166757D01*
X132452485Y-101205775D01*
X132467417Y-101241823D01*
X132495007Y-101269413D01*
X132531055Y-101284345D01*
X132550564Y-101286266D01*
X133312469Y-101286266D01*
X133331978Y-101284345D01*
X133368026Y-101269413D01*
X133395616Y-101241823D01*
X133410548Y-101205775D01*
X133410548Y-101166757D01*
X133395616Y-101130709D01*
X133368026Y-101103119D01*
X133331978Y-101088187D01*
X133312469Y-101086266D01*
X132550564Y-101086266D01*
X132531055Y-101088187D01*
X132495007Y-101103119D01*
X132467417Y-101130709D01*
X132452485Y-101166757D01*
X132172714Y-101166757D01*
X132105448Y-100628633D01*
X133570568Y-100628633D01*
X133583386Y-100665485D01*
X133609332Y-100694627D01*
X133644454Y-100711622D01*
X133683407Y-100713882D01*
X133702464Y-100709288D01*
X133823412Y-100667219D01*
X134022258Y-100667219D01*
X134090156Y-100699171D01*
X134122191Y-100727646D01*
X134162405Y-100791988D01*
X134168518Y-100840890D01*
X134147845Y-100896017D01*
X134130215Y-100916166D01*
X134067601Y-100949560D01*
X133894624Y-100994200D01*
X133891935Y-100995183D01*
X133890671Y-100995307D01*
X133883503Y-100998268D01*
X133876214Y-101000935D01*
X133875198Y-101001699D01*
X133872554Y-101002792D01*
X133783267Y-101050412D01*
X133771132Y-101058503D01*
X133769361Y-101059379D01*
X133768239Y-101060431D01*
X133766957Y-101061287D01*
X133765699Y-101062815D01*
X133755069Y-101072796D01*
X133713402Y-101120415D01*
X133705067Y-101132071D01*
X133703675Y-101133562D01*
X133702955Y-101135025D01*
X133702000Y-101136362D01*
X133701342Y-101138306D01*
X133695026Y-101151154D01*
X133659312Y-101246392D01*
X133654261Y-101265333D01*
X133654416Y-101269902D01*
X133653204Y-101274311D01*
X133653717Y-101293908D01*
X133665622Y-101389146D01*
X133669948Y-101408266D01*
X133670990Y-101410099D01*
X133671339Y-101412180D01*
X133680050Y-101429741D01*
X133739573Y-101524980D01*
X133743607Y-101530213D01*
X133744631Y-101532324D01*
X133748273Y-101536265D01*
X133751542Y-101540505D01*
X133753447Y-101541863D01*
X133757936Y-101546721D01*
X133811508Y-101594340D01*
X133816939Y-101598287D01*
X133818531Y-101600037D01*
X133823084Y-101602754D01*
X133827366Y-101605866D01*
X133829596Y-101606639D01*
X133835365Y-101610082D01*
X133936555Y-101657701D01*
X133955026Y-101664270D01*
X133957416Y-101664382D01*
X133959626Y-101665298D01*
X133979135Y-101667219D01*
X134217231Y-101667219D01*
X134228454Y-101666113D01*
X134231026Y-101666263D01*
X134233847Y-101665582D01*
X134236740Y-101665298D01*
X134239121Y-101664311D01*
X134250083Y-101661669D01*
X134386987Y-101614050D01*
X134404782Y-101605826D01*
X134433924Y-101579880D01*
X134440488Y-101566314D01*
X134545806Y-101566314D01*
X134553072Y-101604650D01*
X134574455Y-101637287D01*
X134606699Y-101659257D01*
X134644897Y-101667215D01*
X134683233Y-101659949D01*
X134715870Y-101638566D01*
X134737840Y-101606322D01*
X134743700Y-101587614D01*
X134786640Y-101381504D01*
X135117347Y-101381504D01*
X135221563Y-101608885D01*
X135231437Y-101625819D01*
X135260031Y-101652368D01*
X135296608Y-101665953D01*
X135335599Y-101664508D01*
X135371069Y-101648251D01*
X135397618Y-101619657D01*
X135411203Y-101583080D01*
X135409758Y-101544089D01*
X135403376Y-101525554D01*
X134967828Y-100575269D01*
X135325889Y-100575269D01*
X135336556Y-100612801D01*
X135347159Y-100629289D01*
X135702057Y-101077580D01*
X135462635Y-101519591D01*
X135455032Y-101537660D01*
X135450993Y-101576468D01*
X135462112Y-101613869D01*
X135486696Y-101644167D01*
X135521005Y-101662751D01*
X135559813Y-101666790D01*
X135597214Y-101655671D01*
X135627512Y-101631087D01*
X135638493Y-101614847D01*
X135837108Y-101248171D01*
X136138827Y-101629289D01*
X136152442Y-101643393D01*
X136186524Y-101662388D01*
X136225281Y-101666895D01*
X136262813Y-101656227D01*
X136293405Y-101632008D01*
X136312400Y-101597926D01*
X136316907Y-101559169D01*
X136306239Y-101521637D01*
X136295636Y-101505149D01*
X135940737Y-101056856D01*
X136180160Y-100614847D01*
X136187763Y-100596778D01*
X136191802Y-100557970D01*
X136188752Y-100547710D01*
X136327485Y-100547710D01*
X136327485Y-100586728D01*
X136342417Y-100622776D01*
X136370007Y-100650366D01*
X136406055Y-100665298D01*
X136425564Y-100667219D01*
X136813477Y-100667219D01*
X136848000Y-100943409D01*
X136627945Y-100943409D01*
X136608436Y-100945330D01*
X136572388Y-100960262D01*
X136544798Y-100987852D01*
X136529866Y-101023900D01*
X136529866Y-101062918D01*
X136544798Y-101098966D01*
X136572388Y-101126556D01*
X136608436Y-101141488D01*
X136627945Y-101143409D01*
X136873000Y-101143409D01*
X136913477Y-101467219D01*
X136550564Y-101467219D01*
X136531055Y-101469140D01*
X136495007Y-101484072D01*
X136467417Y-101511662D01*
X136452485Y-101547710D01*
X136452485Y-101586728D01*
X136467417Y-101622776D01*
X136495007Y-101650366D01*
X136531055Y-101665298D01*
X136550564Y-101667219D01*
X137026755Y-101667219D01*
X137046264Y-101665298D01*
X137052056Y-101662898D01*
X137058279Y-101662121D01*
X137069932Y-101655494D01*
X137082312Y-101650366D01*
X137086745Y-101645932D01*
X137092196Y-101642833D01*
X137100424Y-101632253D01*
X137109902Y-101622776D01*
X137112301Y-101616983D01*
X137116151Y-101612034D01*
X137119704Y-101599112D01*
X137124834Y-101586728D01*
X137124834Y-101580456D01*
X137126496Y-101574412D01*
X137125983Y-101554815D01*
X137000983Y-100554816D01*
X136999834Y-100549737D01*
X136999834Y-100547710D01*
X137137009Y-100547710D01*
X137137009Y-100586728D01*
X137151941Y-100622776D01*
X137179531Y-100650366D01*
X137215579Y-100665298D01*
X137235088Y-100667219D01*
X137432525Y-100667219D01*
X137546575Y-101579622D01*
X137550901Y-101598742D01*
X137570189Y-101632660D01*
X137600988Y-101656615D01*
X137638610Y-101666960D01*
X137677327Y-101662121D01*
X137711244Y-101642833D01*
X137735199Y-101612034D01*
X137745544Y-101574412D01*
X137745031Y-101554815D01*
X137634081Y-100667219D01*
X137806517Y-100667219D01*
X137826026Y-100665298D01*
X137862074Y-100650366D01*
X137889664Y-100622776D01*
X137904596Y-100586728D01*
X137904596Y-100560026D01*
X138040109Y-100560026D01*
X138040622Y-100579623D01*
X138141813Y-101389146D01*
X138146139Y-101408266D01*
X138147181Y-101410099D01*
X138147530Y-101412180D01*
X138156241Y-101429741D01*
X138215764Y-101524980D01*
X138219798Y-101530213D01*
X138220822Y-101532324D01*
X138224464Y-101536265D01*
X138227733Y-101540505D01*
X138229638Y-101541863D01*
X138234127Y-101546721D01*
X138287699Y-101594340D01*
X138293130Y-101598287D01*
X138294722Y-101600037D01*
X138299275Y-101602754D01*
X138303557Y-101605866D01*
X138305787Y-101606639D01*
X138311556Y-101610082D01*
X138412746Y-101657701D01*
X138431217Y-101664270D01*
X138433607Y-101664382D01*
X138435817Y-101665298D01*
X138455326Y-101667219D01*
X138645802Y-101667219D01*
X138665311Y-101665298D01*
X138669851Y-101663417D01*
X138674743Y-101662940D01*
X138692861Y-101655454D01*
X138782147Y-101607835D01*
X138794284Y-101599741D01*
X138796054Y-101598867D01*
X138797174Y-101597815D01*
X138798457Y-101596960D01*
X138799714Y-101595430D01*
X138810346Y-101585450D01*
X138852013Y-101537830D01*
X138860344Y-101526176D01*
X138861739Y-101524684D01*
X138862460Y-101523217D01*
X138863414Y-101521883D01*
X138864070Y-101519941D01*
X138870388Y-101507092D01*
X138906102Y-101411854D01*
X138911153Y-101392913D01*
X138910997Y-101388343D01*
X138912210Y-101383935D01*
X138911697Y-101364339D01*
X138810507Y-100554816D01*
X138806181Y-100535695D01*
X138786893Y-100501778D01*
X138756094Y-100477823D01*
X138718472Y-100467478D01*
X138679755Y-100472317D01*
X138645838Y-100491605D01*
X138621883Y-100522404D01*
X138611538Y-100560026D01*
X138612051Y-100579622D01*
X138710185Y-101364699D01*
X138689512Y-101419826D01*
X138671881Y-101439976D01*
X138620802Y-101467219D01*
X138477680Y-101467219D01*
X138409781Y-101435266D01*
X138377743Y-101406787D01*
X138337533Y-101342450D01*
X138239078Y-100554815D01*
X138234752Y-100535695D01*
X138215464Y-100501778D01*
X138184665Y-100477823D01*
X138147043Y-100467478D01*
X138108326Y-100472317D01*
X138074409Y-100491605D01*
X138050454Y-100522404D01*
X138040109Y-100560026D01*
X137904596Y-100560026D01*
X137904596Y-100547710D01*
X137889664Y-100511662D01*
X137862074Y-100484072D01*
X137826026Y-100469140D01*
X137806517Y-100467219D01*
X137235088Y-100467219D01*
X137215579Y-100469140D01*
X137179531Y-100484072D01*
X137151941Y-100511662D01*
X137137009Y-100547710D01*
X136999834Y-100547710D01*
X136998823Y-100545269D01*
X136996657Y-100535695D01*
X136990030Y-100524041D01*
X136984902Y-100511662D01*
X136980468Y-100507228D01*
X136977369Y-100501778D01*
X136966789Y-100493549D01*
X136957312Y-100484072D01*
X136951519Y-100481672D01*
X136946570Y-100477823D01*
X136933648Y-100474269D01*
X136921264Y-100469140D01*
X136911493Y-100468177D01*
X136908948Y-100467478D01*
X136906937Y-100467729D01*
X136901755Y-100467219D01*
X136425564Y-100467219D01*
X136406055Y-100469140D01*
X136370007Y-100484072D01*
X136342417Y-100511662D01*
X136327485Y-100547710D01*
X136188752Y-100547710D01*
X136180683Y-100520569D01*
X136156099Y-100490271D01*
X136121790Y-100471687D01*
X136082982Y-100467647D01*
X136045581Y-100478767D01*
X136015283Y-100503351D01*
X136004302Y-100519591D01*
X135805686Y-100886265D01*
X135503969Y-100505149D01*
X135490353Y-100491045D01*
X135456271Y-100472050D01*
X135417514Y-100467544D01*
X135379982Y-100478211D01*
X135349390Y-100502430D01*
X135330395Y-100536512D01*
X135325889Y-100575269D01*
X134967828Y-100575269D01*
X134945041Y-100525553D01*
X134935167Y-100508619D01*
X134929623Y-100503471D01*
X134925482Y-100497151D01*
X134915462Y-100490323D01*
X134906573Y-100482070D01*
X134899487Y-100479438D01*
X134893238Y-100475180D01*
X134881358Y-100472705D01*
X134869996Y-100468485D01*
X134862445Y-100468764D01*
X134855040Y-100467222D01*
X134843121Y-100469480D01*
X134831005Y-100469930D01*
X134824131Y-100473080D01*
X134816704Y-100474488D01*
X134806561Y-100481133D01*
X134795535Y-100486187D01*
X134790389Y-100491728D01*
X134784067Y-100495871D01*
X134777239Y-100505892D01*
X134768986Y-100514781D01*
X134766353Y-100521868D01*
X134762097Y-100528116D01*
X134756237Y-100546823D01*
X134547904Y-101546824D01*
X134545806Y-101566314D01*
X134440488Y-101566314D01*
X134450919Y-101544758D01*
X134453179Y-101505805D01*
X134440361Y-101468953D01*
X134414415Y-101439811D01*
X134379293Y-101422816D01*
X134340340Y-101420556D01*
X134321283Y-101425150D01*
X134200335Y-101467219D01*
X134001489Y-101467219D01*
X133933590Y-101435266D01*
X133901552Y-101406787D01*
X133861341Y-101342450D01*
X133855228Y-101293546D01*
X133875901Y-101238419D01*
X133893532Y-101218270D01*
X133956145Y-101184876D01*
X134129123Y-101140237D01*
X134131811Y-101139253D01*
X134133076Y-101139130D01*
X134140238Y-101136170D01*
X134147533Y-101133502D01*
X134148549Y-101132736D01*
X134151194Y-101131644D01*
X134240480Y-101084025D01*
X134252614Y-101075933D01*
X134254386Y-101075058D01*
X134255507Y-101074005D01*
X134256790Y-101073150D01*
X134258047Y-101071621D01*
X134268678Y-101061641D01*
X134310345Y-101014022D01*
X134318679Y-101002365D01*
X134320072Y-101000875D01*
X134320791Y-100999411D01*
X134321747Y-100998075D01*
X134322404Y-100996130D01*
X134328721Y-100983283D01*
X134364435Y-100888045D01*
X134369486Y-100869104D01*
X134369330Y-100864534D01*
X134370543Y-100860126D01*
X134370030Y-100840529D01*
X134358125Y-100745291D01*
X134353799Y-100726171D01*
X134352755Y-100724335D01*
X134352407Y-100722256D01*
X134343697Y-100704695D01*
X134284173Y-100609457D01*
X134280137Y-100604222D01*
X134279115Y-100602113D01*
X134275475Y-100598175D01*
X134272204Y-100593931D01*
X134270296Y-100592570D01*
X134265810Y-100587716D01*
X134212239Y-100540097D01*
X134206806Y-100536148D01*
X134205216Y-100534401D01*
X134200664Y-100531685D01*
X134196381Y-100528572D01*
X134194150Y-100527798D01*
X134188382Y-100524356D01*
X134087192Y-100476737D01*
X134068722Y-100470168D01*
X134066330Y-100470055D01*
X134064121Y-100469140D01*
X134044612Y-100467219D01*
X133806516Y-100467219D01*
X133795292Y-100468324D01*
X133792721Y-100468175D01*
X133789899Y-100468855D01*
X133787007Y-100469140D01*
X133784625Y-100470126D01*
X133773664Y-100472769D01*
X133636760Y-100520388D01*
X133618965Y-100528612D01*
X133589823Y-100554558D01*
X133572828Y-100589680D01*
X133570568Y-100628633D01*
X132105448Y-100628633D01*
X132096221Y-100554816D01*
X132091895Y-100535695D01*
X132072607Y-100501778D01*
X132041808Y-100477823D01*
X132004186Y-100467478D01*
X131965469Y-100472317D01*
X131931552Y-100491605D01*
X131907597Y-100522404D01*
X131897252Y-100560026D01*
X131897765Y-100579622D01*
X131943238Y-100943409D01*
X131573366Y-100943409D01*
X131524792Y-100554816D01*
X131520466Y-100535695D01*
X131501178Y-100501778D01*
X131470379Y-100477823D01*
X131432757Y-100467478D01*
X131394040Y-100472317D01*
X131360123Y-100491605D01*
X131336168Y-100522404D01*
X131325823Y-100560026D01*
X130901325Y-100560026D01*
X130878905Y-100540097D01*
X130863048Y-100528572D01*
X130861882Y-100528167D01*
X130860941Y-100527371D01*
X130842946Y-100519595D01*
X130694136Y-100471977D01*
X130685579Y-100470139D01*
X130683168Y-100469140D01*
X130679033Y-100468732D01*
X130674970Y-100467860D01*
X130672367Y-100468076D01*
X130663659Y-100467219D01*
X130568421Y-100467219D01*
X130557197Y-100468324D01*
X130554626Y-100468175D01*
X130551804Y-100468855D01*
X130548912Y-100469140D01*
X130546530Y-100470126D01*
X130535569Y-100472769D01*
X130398665Y-100520388D01*
X130380870Y-100528612D01*
X130376181Y-100532785D01*
X130370552Y-100535570D01*
X130356260Y-100548987D01*
X130314593Y-100596606D01*
X130303191Y-100612553D01*
X130290691Y-100649515D01*
X130060439Y-100649515D01*
X130048602Y-100554816D01*
X130047453Y-100549737D01*
X130047453Y-100547710D01*
X130046442Y-100545269D01*
X130044276Y-100535695D01*
X130037649Y-100524041D01*
X130032521Y-100511662D01*
X130028087Y-100507228D01*
X130024988Y-100501778D01*
X130014408Y-100493549D01*
X130004931Y-100484072D01*
X129999138Y-100481672D01*
X129994189Y-100477823D01*
X129981267Y-100474269D01*
X129968883Y-100469140D01*
X129959112Y-100468177D01*
X129956567Y-100467478D01*
X129954556Y-100467729D01*
X129949374Y-100467219D01*
X129568421Y-100467219D01*
X129548912Y-100469140D01*
X129544371Y-100471020D01*
X129539480Y-100471498D01*
X129521362Y-100478984D01*
X129432077Y-100526603D01*
X129419946Y-100534692D01*
X129418171Y-100535570D01*
X129417045Y-100536626D01*
X129415767Y-100537479D01*
X129414513Y-100539003D01*
X129403879Y-100548987D01*
X129362212Y-100596606D01*
X129353877Y-100608262D01*
X129352485Y-100609753D01*
X129351765Y-100611216D01*
X129350810Y-100612553D01*
X129350152Y-100614497D01*
X129343836Y-100627345D01*
X129308122Y-100722583D01*
X129303071Y-100741524D01*
X129303226Y-100746093D01*
X129302014Y-100750502D01*
X129073063Y-100750502D01*
X129048602Y-100554816D01*
X129044276Y-100535695D01*
X129024988Y-100501778D01*
X128994189Y-100477823D01*
X128956567Y-100467478D01*
X128917850Y-100472317D01*
X128883933Y-100491605D01*
X128859978Y-100522404D01*
X128849633Y-100560026D01*
X128850146Y-100579622D01*
X128961096Y-101467219D01*
X128598183Y-101467219D01*
X128578674Y-101469140D01*
X128542626Y-101484072D01*
X128515036Y-101511662D01*
X128500104Y-101547710D01*
X128388993Y-101547710D01*
X128388993Y-100356108D01*
X139023321Y-100356108D01*
X139023321Y-101778330D01*
G37*
D12*
G36*
X111407953Y-122964077D02*
G01*
X111438360Y-122994484D01*
X111476853Y-123071471D01*
X111520237Y-123245005D01*
X111520237Y-123464632D01*
X111476853Y-123638166D01*
X111438359Y-123715153D01*
X111407952Y-123745561D01*
X111339437Y-123779819D01*
X111279609Y-123779819D01*
X111211093Y-123745561D01*
X111180686Y-123715153D01*
X111142192Y-123638166D01*
X111098809Y-123464632D01*
X111098809Y-123245005D01*
X111142192Y-123071471D01*
X111180686Y-122994484D01*
X111211093Y-122964077D01*
X111279609Y-122929819D01*
X111339437Y-122929819D01*
X111407953Y-122964077D01*
G37*
G36*
X115027001Y-122964077D02*
G01*
X115057408Y-122994484D01*
X115095901Y-123071471D01*
X115139285Y-123245005D01*
X115139285Y-123464632D01*
X115095901Y-123638166D01*
X115057407Y-123715153D01*
X115027000Y-123745561D01*
X114958485Y-123779819D01*
X114898657Y-123779819D01*
X114830141Y-123745561D01*
X114799734Y-123715153D01*
X114761240Y-123638166D01*
X114717857Y-123464632D01*
X114717857Y-123245005D01*
X114761240Y-123071471D01*
X114799734Y-122994484D01*
X114830141Y-122964077D01*
X114898657Y-122929819D01*
X114958485Y-122929819D01*
X115027001Y-122964077D01*
G37*
G36*
X117014990Y-123494104D02*
G01*
X116746914Y-123494104D01*
X116880952Y-123091989D01*
X117014990Y-123494104D01*
G37*
G36*
X118305158Y-124040930D02*
G01*
X109694841Y-124040930D01*
X109694841Y-123140533D01*
X109805952Y-123140533D01*
X109805952Y-123378628D01*
X109806681Y-123386033D01*
X109806541Y-123388008D01*
X109807131Y-123390605D01*
X109807393Y-123393260D01*
X109808151Y-123395091D01*
X109809801Y-123402345D01*
X109857420Y-123545202D01*
X109863414Y-123558627D01*
X109865179Y-123560662D01*
X109866211Y-123563153D01*
X109875538Y-123574518D01*
X109970776Y-123669756D01*
X109976526Y-123674476D01*
X109977825Y-123675973D01*
X109980079Y-123677392D01*
X109982141Y-123679084D01*
X109983973Y-123679842D01*
X109990268Y-123683805D01*
X110044047Y-123710694D01*
X110044047Y-123779819D01*
X109880952Y-123779819D01*
X109866320Y-123781260D01*
X109839284Y-123792459D01*
X109818592Y-123813151D01*
X109807393Y-123840187D01*
X109807393Y-123869451D01*
X109818592Y-123896487D01*
X109839284Y-123917179D01*
X109866320Y-123928378D01*
X109880952Y-123929819D01*
X110119047Y-123929819D01*
X110133679Y-123928378D01*
X110160715Y-123917179D01*
X110181407Y-123896487D01*
X110192606Y-123869451D01*
X110194047Y-123854819D01*
X110194047Y-123664342D01*
X110193317Y-123656936D01*
X110193458Y-123654961D01*
X110192982Y-123653535D01*
X110192606Y-123649710D01*
X110188004Y-123638602D01*
X110184204Y-123627200D01*
X110182438Y-123625164D01*
X110181407Y-123622674D01*
X110172909Y-123614176D01*
X110165031Y-123605092D01*
X110161776Y-123603043D01*
X110160715Y-123601982D01*
X110158887Y-123601224D01*
X110152588Y-123597260D01*
X110068236Y-123555084D01*
X109994123Y-123480971D01*
X109955952Y-123366457D01*
X109955952Y-123152703D01*
X109994123Y-123038189D01*
X110064323Y-122967990D01*
X110178836Y-122929819D01*
X110344972Y-122929819D01*
X110459485Y-122967990D01*
X110529685Y-123038190D01*
X110567856Y-123152703D01*
X110567856Y-123366458D01*
X110529685Y-123480971D01*
X110455572Y-123555084D01*
X110371220Y-123597260D01*
X110364920Y-123601224D01*
X110363093Y-123601982D01*
X110362031Y-123603043D01*
X110358777Y-123605092D01*
X110350898Y-123614176D01*
X110342401Y-123622674D01*
X110341369Y-123625164D01*
X110339604Y-123627200D01*
X110335803Y-123638602D01*
X110331202Y-123649710D01*
X110330825Y-123653535D01*
X110330350Y-123654961D01*
X110330490Y-123656936D01*
X110329761Y-123664342D01*
X110329761Y-123854819D01*
X110331202Y-123869451D01*
X110342401Y-123896487D01*
X110363093Y-123917179D01*
X110390129Y-123928378D01*
X110404761Y-123929819D01*
X110642856Y-123929819D01*
X110657488Y-123928378D01*
X110684524Y-123917179D01*
X110705216Y-123896487D01*
X110716415Y-123869451D01*
X110716415Y-123840187D01*
X110705216Y-123813151D01*
X110684524Y-123792459D01*
X110657488Y-123781260D01*
X110642856Y-123779819D01*
X110479761Y-123779819D01*
X110479761Y-123710694D01*
X110533540Y-123683805D01*
X110539839Y-123679840D01*
X110541667Y-123679083D01*
X110543723Y-123677394D01*
X110545983Y-123675973D01*
X110547282Y-123674474D01*
X110553032Y-123669756D01*
X110648270Y-123574518D01*
X110657598Y-123563153D01*
X110658629Y-123560662D01*
X110660394Y-123558628D01*
X110666388Y-123545202D01*
X110714007Y-123402346D01*
X110715656Y-123395090D01*
X110716415Y-123393260D01*
X110716676Y-123390606D01*
X110717267Y-123388009D01*
X110717126Y-123386034D01*
X110717856Y-123378628D01*
X110717856Y-123235771D01*
X110948809Y-123235771D01*
X110948809Y-123473866D01*
X110949060Y-123476419D01*
X110948898Y-123477512D01*
X110949707Y-123482985D01*
X110950250Y-123488498D01*
X110950672Y-123489519D01*
X110951048Y-123492056D01*
X110998667Y-123682532D01*
X110999052Y-123683611D01*
X110999091Y-123684151D01*
X111001418Y-123690232D01*
X111003614Y-123696378D01*
X111003936Y-123696813D01*
X111004346Y-123697883D01*
X111051965Y-123793121D01*
X111055928Y-123799417D01*
X111056686Y-123801247D01*
X111058375Y-123803305D01*
X111059797Y-123805564D01*
X111061295Y-123806863D01*
X111066013Y-123812612D01*
X111113632Y-123860232D01*
X111119381Y-123864950D01*
X111120682Y-123866450D01*
X111122941Y-123867872D01*
X111124998Y-123869560D01*
X111126825Y-123870317D01*
X111133125Y-123874282D01*
X111228363Y-123921901D01*
X111242094Y-123927156D01*
X111244783Y-123927347D01*
X111247272Y-123928378D01*
X111261904Y-123929819D01*
X111357142Y-123929819D01*
X111371774Y-123928378D01*
X111374263Y-123927346D01*
X111376951Y-123927156D01*
X111390683Y-123921901D01*
X111485921Y-123874282D01*
X111492220Y-123870317D01*
X111494048Y-123869560D01*
X111496104Y-123867872D01*
X111498364Y-123866450D01*
X111499664Y-123864950D01*
X111505414Y-123860232D01*
X111553032Y-123812613D01*
X111557750Y-123806863D01*
X111559249Y-123805564D01*
X111560670Y-123803305D01*
X111562360Y-123801247D01*
X111563117Y-123799417D01*
X111567081Y-123793121D01*
X111614700Y-123697883D01*
X111615109Y-123696813D01*
X111615432Y-123696378D01*
X111617624Y-123690241D01*
X111619955Y-123684152D01*
X111619993Y-123683611D01*
X111620379Y-123682532D01*
X111667998Y-123492056D01*
X111668373Y-123489519D01*
X111668796Y-123488498D01*
X111669338Y-123482985D01*
X111670148Y-123477512D01*
X111669985Y-123476419D01*
X111670237Y-123473866D01*
X111670237Y-123235771D01*
X111669985Y-123233217D01*
X111670148Y-123232125D01*
X111669338Y-123226651D01*
X111668796Y-123221139D01*
X111668373Y-123220117D01*
X111667998Y-123217581D01*
X111624926Y-123045295D01*
X111901190Y-123045295D01*
X111901190Y-123140533D01*
X111901919Y-123147938D01*
X111901779Y-123149913D01*
X111902369Y-123152510D01*
X111902631Y-123155165D01*
X111903389Y-123156996D01*
X111905039Y-123164250D01*
X111952658Y-123307107D01*
X111958652Y-123320532D01*
X111960417Y-123322567D01*
X111961449Y-123325058D01*
X111970776Y-123336423D01*
X112414171Y-123779819D01*
X111976190Y-123779819D01*
X111961558Y-123781260D01*
X111934522Y-123792459D01*
X111913830Y-123813151D01*
X111902631Y-123840187D01*
X111902631Y-123869451D01*
X111913830Y-123896487D01*
X111934522Y-123917179D01*
X111961558Y-123928378D01*
X111976190Y-123929819D01*
X112595237Y-123929819D01*
X112609869Y-123928378D01*
X112617787Y-123925098D01*
X112636905Y-123917180D01*
X112657597Y-123896487D01*
X112668796Y-123869451D01*
X112668796Y-123840188D01*
X112668796Y-123840187D01*
X112855012Y-123840187D01*
X112855012Y-123869451D01*
X112866211Y-123896487D01*
X112886903Y-123917179D01*
X112913939Y-123928378D01*
X112928571Y-123929819D01*
X113499999Y-123929819D01*
X113514631Y-123928378D01*
X113541667Y-123917179D01*
X113562359Y-123896487D01*
X113573558Y-123869451D01*
X113573558Y-123840187D01*
X113562359Y-123813151D01*
X113541667Y-123792459D01*
X113514631Y-123781260D01*
X113499999Y-123779819D01*
X113289285Y-123779819D01*
X113289285Y-123235771D01*
X114567857Y-123235771D01*
X114567857Y-123473866D01*
X114568108Y-123476419D01*
X114567946Y-123477512D01*
X114568755Y-123482985D01*
X114569298Y-123488498D01*
X114569720Y-123489519D01*
X114570096Y-123492056D01*
X114617715Y-123682532D01*
X114618100Y-123683611D01*
X114618139Y-123684151D01*
X114620466Y-123690232D01*
X114622662Y-123696378D01*
X114622984Y-123696813D01*
X114623394Y-123697883D01*
X114671013Y-123793121D01*
X114674976Y-123799417D01*
X114675734Y-123801247D01*
X114677423Y-123803305D01*
X114678845Y-123805564D01*
X114680343Y-123806863D01*
X114685061Y-123812612D01*
X114732680Y-123860232D01*
X114738429Y-123864950D01*
X114739730Y-123866450D01*
X114741989Y-123867872D01*
X114744046Y-123869560D01*
X114745873Y-123870317D01*
X114752173Y-123874282D01*
X114847411Y-123921901D01*
X114861142Y-123927156D01*
X114863831Y-123927347D01*
X114866320Y-123928378D01*
X114880952Y-123929819D01*
X114976190Y-123929819D01*
X114990822Y-123928378D01*
X114993311Y-123927346D01*
X114995999Y-123927156D01*
X115009731Y-123921901D01*
X115104969Y-123874282D01*
X115111268Y-123870317D01*
X115113096Y-123869560D01*
X115115152Y-123867872D01*
X115117412Y-123866450D01*
X115118712Y-123864950D01*
X115124462Y-123860232D01*
X115172080Y-123812613D01*
X115176798Y-123806863D01*
X115178297Y-123805564D01*
X115179718Y-123803305D01*
X115181408Y-123801247D01*
X115182165Y-123799417D01*
X115186129Y-123793121D01*
X115233748Y-123697883D01*
X115234157Y-123696813D01*
X115234480Y-123696378D01*
X115236672Y-123690241D01*
X115239003Y-123684152D01*
X115239041Y-123683611D01*
X115239427Y-123682532D01*
X115287046Y-123492056D01*
X115287421Y-123489519D01*
X115287844Y-123488498D01*
X115288386Y-123482985D01*
X115289196Y-123477512D01*
X115289033Y-123476419D01*
X115289285Y-123473866D01*
X115289285Y-123235771D01*
X115289033Y-123233217D01*
X115289196Y-123232125D01*
X115288386Y-123226651D01*
X115287844Y-123221139D01*
X115287421Y-123220117D01*
X115287046Y-123217581D01*
X115239427Y-123027105D01*
X115239041Y-123026025D01*
X115239003Y-123025485D01*
X115236672Y-123019395D01*
X115234480Y-123013259D01*
X115234157Y-123012823D01*
X115233748Y-123011754D01*
X115186129Y-122916516D01*
X115182164Y-122910216D01*
X115181407Y-122908389D01*
X115179718Y-122906332D01*
X115178297Y-122904073D01*
X115176798Y-122902773D01*
X115172080Y-122897024D01*
X115129875Y-122854819D01*
X115567857Y-122854819D01*
X115567857Y-123854819D01*
X115568227Y-123858582D01*
X115568040Y-123860058D01*
X115568561Y-123861968D01*
X115569298Y-123869451D01*
X115573115Y-123878666D01*
X115575740Y-123888290D01*
X115578667Y-123892070D01*
X115580497Y-123896487D01*
X115587547Y-123903537D01*
X115593657Y-123911427D01*
X115597810Y-123913800D01*
X115601189Y-123917179D01*
X115610401Y-123920995D01*
X115619066Y-123925946D01*
X115623809Y-123926548D01*
X115628225Y-123928378D01*
X115638199Y-123928378D01*
X115648096Y-123929636D01*
X115652708Y-123928378D01*
X115657489Y-123928378D01*
X115666704Y-123924560D01*
X115676328Y-123921936D01*
X115680108Y-123919008D01*
X115684525Y-123917179D01*
X115691575Y-123910128D01*
X115699465Y-123904019D01*
X115703817Y-123897886D01*
X115705217Y-123896487D01*
X115705786Y-123895112D01*
X115707975Y-123892029D01*
X116139285Y-123137235D01*
X116139285Y-123854819D01*
X116140726Y-123869451D01*
X116151925Y-123896487D01*
X116172617Y-123917179D01*
X116199653Y-123928378D01*
X116228917Y-123928378D01*
X116255953Y-123917179D01*
X116276645Y-123896487D01*
X116287844Y-123869451D01*
X116289285Y-123854819D01*
X116289285Y-123845439D01*
X116473208Y-123845439D01*
X116475283Y-123874629D01*
X116488369Y-123900802D01*
X116510476Y-123919976D01*
X116538239Y-123929230D01*
X116567429Y-123927155D01*
X116593602Y-123914069D01*
X116612776Y-123891962D01*
X116618770Y-123878536D01*
X116696914Y-123644104D01*
X117064990Y-123644104D01*
X117143134Y-123878536D01*
X117149128Y-123891961D01*
X117168302Y-123914068D01*
X117194475Y-123927155D01*
X117223665Y-123929230D01*
X117251427Y-123919976D01*
X117273535Y-123900802D01*
X117286621Y-123874628D01*
X117288696Y-123845438D01*
X117285436Y-123831102D01*
X116986878Y-122935426D01*
X117426441Y-122935426D01*
X117426441Y-122964688D01*
X117437640Y-122991725D01*
X117458332Y-123012417D01*
X117485369Y-123023616D01*
X117514631Y-123023616D01*
X117541668Y-123012417D01*
X117553033Y-123003090D01*
X117588133Y-122967990D01*
X117702646Y-122929819D01*
X117773544Y-122929819D01*
X117888057Y-122967990D01*
X117962170Y-123042103D01*
X118000663Y-123119090D01*
X118044047Y-123292624D01*
X118044047Y-123417013D01*
X118000663Y-123590547D01*
X117962169Y-123667534D01*
X117888057Y-123741647D01*
X117773544Y-123779819D01*
X117702646Y-123779819D01*
X117588133Y-123741648D01*
X117553034Y-123706548D01*
X117541668Y-123697220D01*
X117514632Y-123686021D01*
X117485369Y-123686021D01*
X117458333Y-123697219D01*
X117437640Y-123717912D01*
X117426441Y-123744948D01*
X117426441Y-123774211D01*
X117437639Y-123801247D01*
X117446966Y-123812612D01*
X117494585Y-123860232D01*
X117505951Y-123869560D01*
X117508439Y-123870590D01*
X117510476Y-123872357D01*
X117523902Y-123878351D01*
X117666758Y-123925970D01*
X117674013Y-123927619D01*
X117675844Y-123928378D01*
X117678497Y-123928639D01*
X117681095Y-123929230D01*
X117683069Y-123929089D01*
X117690476Y-123929819D01*
X117785714Y-123929819D01*
X117793119Y-123929089D01*
X117795094Y-123929230D01*
X117797691Y-123928639D01*
X117800346Y-123928378D01*
X117802177Y-123927619D01*
X117809431Y-123925970D01*
X117952288Y-123878351D01*
X117965713Y-123872357D01*
X117967748Y-123870591D01*
X117970239Y-123869560D01*
X117981604Y-123860233D01*
X118076843Y-123764993D01*
X118081560Y-123759244D01*
X118083059Y-123757945D01*
X118084480Y-123755686D01*
X118086170Y-123753628D01*
X118086927Y-123751798D01*
X118090891Y-123745502D01*
X118138510Y-123650264D01*
X118138919Y-123649194D01*
X118139242Y-123648759D01*
X118141434Y-123642622D01*
X118143765Y-123636533D01*
X118143803Y-123635992D01*
X118144189Y-123634913D01*
X118191808Y-123444437D01*
X118192183Y-123441900D01*
X118192606Y-123440879D01*
X118193148Y-123435366D01*
X118193958Y-123429893D01*
X118193795Y-123428800D01*
X118194047Y-123426247D01*
X118194047Y-123283390D01*
X118193795Y-123280836D01*
X118193958Y-123279744D01*
X118193148Y-123274270D01*
X118192606Y-123268758D01*
X118192183Y-123267736D01*
X118191808Y-123265200D01*
X118144189Y-123074724D01*
X118143803Y-123073644D01*
X118143765Y-123073104D01*
X118141428Y-123066997D01*
X118139242Y-123060878D01*
X118138919Y-123060442D01*
X118138510Y-123059373D01*
X118090891Y-122964135D01*
X118086928Y-122957840D01*
X118086170Y-122956008D01*
X118084478Y-122953946D01*
X118083059Y-122951692D01*
X118081562Y-122950393D01*
X118076842Y-122944643D01*
X117981604Y-122849405D01*
X117970239Y-122840078D01*
X117967748Y-122839046D01*
X117965713Y-122837281D01*
X117952288Y-122831287D01*
X117809431Y-122783668D01*
X117802177Y-122782018D01*
X117800346Y-122781260D01*
X117797691Y-122780998D01*
X117795094Y-122780408D01*
X117793119Y-122780548D01*
X117785714Y-122779819D01*
X117690476Y-122779819D01*
X117683069Y-122780548D01*
X117681095Y-122780408D01*
X117678497Y-122780998D01*
X117675844Y-122781260D01*
X117674013Y-122782018D01*
X117666758Y-122783668D01*
X117523902Y-122831287D01*
X117510476Y-122837281D01*
X117508439Y-122839047D01*
X117505951Y-122840078D01*
X117494586Y-122849405D01*
X117446967Y-122897024D01*
X117437640Y-122908389D01*
X117426441Y-122935426D01*
X116986878Y-122935426D01*
X116952103Y-122831102D01*
X116946109Y-122817676D01*
X116942597Y-122813627D01*
X116940202Y-122808836D01*
X116933098Y-122802674D01*
X116926935Y-122795569D01*
X116922141Y-122793172D01*
X116918094Y-122789662D01*
X116909172Y-122786688D01*
X116900762Y-122782483D01*
X116895417Y-122782103D01*
X116890332Y-122780408D01*
X116880952Y-122781074D01*
X116871572Y-122780408D01*
X116866486Y-122782103D01*
X116861142Y-122782483D01*
X116852734Y-122786687D01*
X116843809Y-122789662D01*
X116839758Y-122793175D01*
X116834969Y-122795570D01*
X116828810Y-122802670D01*
X116821702Y-122808836D01*
X116819305Y-122813629D01*
X116815795Y-122817677D01*
X116809801Y-122831102D01*
X116476468Y-123831102D01*
X116473208Y-123845439D01*
X116289285Y-123845439D01*
X116289285Y-122854819D01*
X116288914Y-122851055D01*
X116289102Y-122849580D01*
X116288580Y-122847669D01*
X116287844Y-122840187D01*
X116284026Y-122830971D01*
X116281402Y-122821348D01*
X116278474Y-122817567D01*
X116276645Y-122813151D01*
X116269594Y-122806100D01*
X116263485Y-122798211D01*
X116259331Y-122795837D01*
X116255953Y-122792459D01*
X116246740Y-122788642D01*
X116238076Y-122783692D01*
X116233332Y-122783089D01*
X116228917Y-122781260D01*
X116218943Y-122781260D01*
X116209046Y-122780002D01*
X116204434Y-122781260D01*
X116199653Y-122781260D01*
X116190436Y-122785077D01*
X116180815Y-122787702D01*
X116177035Y-122790628D01*
X116172617Y-122792459D01*
X116165565Y-122799510D01*
X116157677Y-122805619D01*
X116153322Y-122811753D01*
X116151925Y-122813151D01*
X116151356Y-122814523D01*
X116149167Y-122817608D01*
X115717857Y-123572402D01*
X115717857Y-122854819D01*
X115716416Y-122840187D01*
X115705217Y-122813151D01*
X115684525Y-122792459D01*
X115657489Y-122781260D01*
X115628225Y-122781260D01*
X115601189Y-122792459D01*
X115580497Y-122813151D01*
X115569298Y-122840187D01*
X115567857Y-122854819D01*
X115129875Y-122854819D01*
X115124461Y-122849405D01*
X115118711Y-122844686D01*
X115117412Y-122843188D01*
X115115152Y-122841766D01*
X115113096Y-122840078D01*
X115111268Y-122839320D01*
X115104969Y-122835356D01*
X115009731Y-122787737D01*
X114995999Y-122782482D01*
X114993311Y-122782291D01*
X114990822Y-122781260D01*
X114976190Y-122779819D01*
X114880952Y-122779819D01*
X114866320Y-122781260D01*
X114863831Y-122782290D01*
X114861142Y-122782482D01*
X114847411Y-122787737D01*
X114752173Y-122835356D01*
X114745873Y-122839320D01*
X114744046Y-122840078D01*
X114741989Y-122841766D01*
X114739730Y-122843188D01*
X114738430Y-122844686D01*
X114732681Y-122849405D01*
X114685062Y-122897024D01*
X114680343Y-122902773D01*
X114678845Y-122904073D01*
X114677423Y-122906332D01*
X114675735Y-122908389D01*
X114674977Y-122910216D01*
X114671013Y-122916516D01*
X114623394Y-123011754D01*
X114622984Y-123012823D01*
X114622662Y-123013259D01*
X114620466Y-123019404D01*
X114618139Y-123025486D01*
X114618100Y-123026025D01*
X114617715Y-123027105D01*
X114570096Y-123217581D01*
X114569720Y-123220117D01*
X114569298Y-123221139D01*
X114568755Y-123226651D01*
X114567946Y-123232125D01*
X114568108Y-123233217D01*
X114567857Y-123235771D01*
X113289285Y-123235771D01*
X113289285Y-123083504D01*
X113351728Y-123145947D01*
X113357478Y-123150667D01*
X113358777Y-123152164D01*
X113361031Y-123153583D01*
X113363093Y-123155275D01*
X113364925Y-123156033D01*
X113371220Y-123159996D01*
X113466458Y-123207615D01*
X113480189Y-123212870D01*
X113509379Y-123214944D01*
X113537141Y-123205690D01*
X113559248Y-123186517D01*
X113572336Y-123160342D01*
X113574410Y-123131152D01*
X113565156Y-123103391D01*
X113545983Y-123081283D01*
X113533540Y-123073451D01*
X113449188Y-123031275D01*
X113367807Y-122949894D01*
X113276689Y-122813216D01*
X113276654Y-122813173D01*
X113276645Y-122813151D01*
X113276593Y-122813099D01*
X113267373Y-122801841D01*
X113261203Y-122797709D01*
X113255953Y-122792459D01*
X113249163Y-122789646D01*
X113243058Y-122785558D01*
X113235777Y-122784101D01*
X113228917Y-122781260D01*
X113221569Y-122781260D01*
X113214364Y-122779819D01*
X113207080Y-122781260D01*
X113199653Y-122781260D01*
X113192864Y-122784072D01*
X113185656Y-122785498D01*
X113179477Y-122789617D01*
X113172617Y-122792459D01*
X113167421Y-122797654D01*
X113161307Y-122801731D01*
X113157175Y-122807900D01*
X113151925Y-122813151D01*
X113149112Y-122819940D01*
X113145024Y-122826046D01*
X113143567Y-122833326D01*
X113140726Y-122840187D01*
X113139300Y-122854663D01*
X113139285Y-122854740D01*
X113139290Y-122854766D01*
X113139285Y-122854819D01*
X113139285Y-123779819D01*
X112928571Y-123779819D01*
X112913939Y-123781260D01*
X112886903Y-123792459D01*
X112866211Y-123813151D01*
X112855012Y-123840187D01*
X112668796Y-123840187D01*
X112657598Y-123813151D01*
X112648270Y-123801786D01*
X112089361Y-123242876D01*
X112051190Y-123128362D01*
X112051190Y-123063000D01*
X112085448Y-122994484D01*
X112115855Y-122964077D01*
X112184371Y-122929819D01*
X112387056Y-122929819D01*
X112455572Y-122964077D01*
X112494585Y-123003090D01*
X112505950Y-123012417D01*
X112532986Y-123023616D01*
X112562249Y-123023616D01*
X112589285Y-123012417D01*
X112609978Y-122991724D01*
X112621177Y-122964688D01*
X112621177Y-122935425D01*
X112609978Y-122908389D01*
X112600651Y-122897024D01*
X112553032Y-122849405D01*
X112547282Y-122844686D01*
X112545983Y-122843188D01*
X112543723Y-122841766D01*
X112541667Y-122840078D01*
X112539839Y-122839320D01*
X112533540Y-122835356D01*
X112438302Y-122787737D01*
X112424570Y-122782482D01*
X112421882Y-122782291D01*
X112419393Y-122781260D01*
X112404761Y-122779819D01*
X112166666Y-122779819D01*
X112152034Y-122781260D01*
X112149545Y-122782290D01*
X112146856Y-122782482D01*
X112133125Y-122787737D01*
X112037887Y-122835356D01*
X112031587Y-122839320D01*
X112029760Y-122840078D01*
X112027703Y-122841766D01*
X112025444Y-122843188D01*
X112024144Y-122844686D01*
X112018395Y-122849405D01*
X111970776Y-122897024D01*
X111966057Y-122902773D01*
X111964559Y-122904073D01*
X111963137Y-122906332D01*
X111961449Y-122908389D01*
X111960691Y-122910216D01*
X111956727Y-122916516D01*
X111909108Y-123011754D01*
X111903853Y-123025486D01*
X111903662Y-123028173D01*
X111902631Y-123030663D01*
X111901190Y-123045295D01*
X111624926Y-123045295D01*
X111620379Y-123027105D01*
X111619993Y-123026025D01*
X111619955Y-123025485D01*
X111617624Y-123019395D01*
X111615432Y-123013259D01*
X111615109Y-123012823D01*
X111614700Y-123011754D01*
X111567081Y-122916516D01*
X111563116Y-122910216D01*
X111562359Y-122908389D01*
X111560670Y-122906332D01*
X111559249Y-122904073D01*
X111557750Y-122902773D01*
X111553032Y-122897024D01*
X111505413Y-122849405D01*
X111499663Y-122844686D01*
X111498364Y-122843188D01*
X111496104Y-122841766D01*
X111494048Y-122840078D01*
X111492220Y-122839320D01*
X111485921Y-122835356D01*
X111390683Y-122787737D01*
X111376951Y-122782482D01*
X111374263Y-122782291D01*
X111371774Y-122781260D01*
X111357142Y-122779819D01*
X111261904Y-122779819D01*
X111247272Y-122781260D01*
X111244783Y-122782290D01*
X111242094Y-122782482D01*
X111228363Y-122787737D01*
X111133125Y-122835356D01*
X111126825Y-122839320D01*
X111124998Y-122840078D01*
X111122941Y-122841766D01*
X111120682Y-122843188D01*
X111119382Y-122844686D01*
X111113633Y-122849405D01*
X111066014Y-122897024D01*
X111061295Y-122902773D01*
X111059797Y-122904073D01*
X111058375Y-122906332D01*
X111056687Y-122908389D01*
X111055929Y-122910216D01*
X111051965Y-122916516D01*
X111004346Y-123011754D01*
X111003936Y-123012823D01*
X111003614Y-123013259D01*
X111001418Y-123019404D01*
X110999091Y-123025486D01*
X110999052Y-123026025D01*
X110998667Y-123027105D01*
X110951048Y-123217581D01*
X110950672Y-123220117D01*
X110950250Y-123221139D01*
X110949707Y-123226651D01*
X110948898Y-123232125D01*
X110949060Y-123233217D01*
X110948809Y-123235771D01*
X110717856Y-123235771D01*
X110717856Y-123140533D01*
X110717126Y-123133126D01*
X110717267Y-123131152D01*
X110716676Y-123128554D01*
X110716415Y-123125901D01*
X110715656Y-123124070D01*
X110714007Y-123116815D01*
X110666388Y-122973959D01*
X110660394Y-122960533D01*
X110658629Y-122958498D01*
X110657598Y-122956008D01*
X110648270Y-122944643D01*
X110553032Y-122849405D01*
X110541667Y-122840078D01*
X110539176Y-122839046D01*
X110537141Y-122837281D01*
X110523716Y-122831287D01*
X110380859Y-122783668D01*
X110373605Y-122782018D01*
X110371774Y-122781260D01*
X110369119Y-122780998D01*
X110366522Y-122780408D01*
X110364547Y-122780548D01*
X110357142Y-122779819D01*
X110166666Y-122779819D01*
X110159259Y-122780548D01*
X110157285Y-122780408D01*
X110154687Y-122780998D01*
X110152034Y-122781260D01*
X110150203Y-122782018D01*
X110142948Y-122783668D01*
X110000092Y-122831287D01*
X109986666Y-122837281D01*
X109984631Y-122839045D01*
X109982141Y-122840077D01*
X109970776Y-122849405D01*
X109875538Y-122944643D01*
X109866211Y-122956008D01*
X109865179Y-122958498D01*
X109863414Y-122960534D01*
X109857420Y-122973959D01*
X109809801Y-123116816D01*
X109808151Y-123124069D01*
X109807393Y-123125901D01*
X109807131Y-123128555D01*
X109806541Y-123131153D01*
X109806681Y-123133127D01*
X109805952Y-123140533D01*
X109694841Y-123140533D01*
X109694841Y-122668708D01*
X118305158Y-122668708D01*
X118305158Y-124040930D01*
G37*
D10*
G36*
X105904719Y-119733530D02*
G01*
X104011195Y-119733530D01*
X104011195Y-118572419D01*
X104122306Y-118572419D01*
X104122306Y-119572419D01*
X104126112Y-119591553D01*
X104153172Y-119618613D01*
X104191440Y-119618613D01*
X104218500Y-119591553D01*
X104222306Y-119572419D01*
X104222306Y-119098609D01*
X104693734Y-119098609D01*
X104693734Y-119572419D01*
X104697540Y-119591553D01*
X104724600Y-119618613D01*
X104762868Y-119618613D01*
X104789928Y-119591553D01*
X104793734Y-119572419D01*
X104793734Y-119553285D01*
X105126112Y-119553285D01*
X105126112Y-119591553D01*
X105153172Y-119618613D01*
X105172306Y-119622419D01*
X105743734Y-119622419D01*
X105762868Y-119618613D01*
X105789928Y-119591553D01*
X105789928Y-119553285D01*
X105762868Y-119526225D01*
X105743734Y-119522419D01*
X105508020Y-119522419D01*
X105508020Y-118737557D01*
X105511656Y-118743011D01*
X105515152Y-118746515D01*
X105517903Y-118750631D01*
X105613141Y-118845869D01*
X105619800Y-118850319D01*
X105626135Y-118855235D01*
X105721373Y-118902854D01*
X105740189Y-118908007D01*
X105776494Y-118895905D01*
X105793608Y-118861677D01*
X105781506Y-118825373D01*
X105766094Y-118813411D01*
X105678112Y-118769420D01*
X105592117Y-118683425D01*
X105499623Y-118544684D01*
X105485842Y-118530875D01*
X105480794Y-118529865D01*
X105477154Y-118526225D01*
X105462592Y-118526225D01*
X105448317Y-118523370D01*
X105444034Y-118526225D01*
X105438886Y-118526225D01*
X105428589Y-118536521D01*
X105416476Y-118544597D01*
X105415466Y-118549644D01*
X105411826Y-118553285D01*
X105408020Y-118572419D01*
X105408020Y-119522419D01*
X105172306Y-119522419D01*
X105153172Y-119526225D01*
X105126112Y-119553285D01*
X104793734Y-119553285D01*
X104793734Y-118572419D01*
X104789928Y-118553285D01*
X104762868Y-118526225D01*
X104724600Y-118526225D01*
X104697540Y-118553285D01*
X104693734Y-118572419D01*
X104693734Y-118998609D01*
X104222306Y-118998609D01*
X104222306Y-118572419D01*
X104218500Y-118553285D01*
X104191440Y-118526225D01*
X104153172Y-118526225D01*
X104126112Y-118553285D01*
X104122306Y-118572419D01*
X104011195Y-118572419D01*
X104011195Y-118412259D01*
X105904719Y-118412259D01*
X105904719Y-119733530D01*
G37*
G36*
X102304719Y-118933530D02*
G01*
X100510239Y-118933530D01*
X100510239Y-118753285D01*
X100621350Y-118753285D01*
X100621350Y-118791553D01*
X100648410Y-118818613D01*
X100667544Y-118822419D01*
X101143734Y-118822419D01*
X101162868Y-118818613D01*
X101189928Y-118791553D01*
X101193734Y-118772419D01*
X101193734Y-118753285D01*
X101526112Y-118753285D01*
X101526112Y-118791553D01*
X101553172Y-118818613D01*
X101572306Y-118822419D01*
X102143734Y-118822419D01*
X102162868Y-118818613D01*
X102189928Y-118791553D01*
X102189928Y-118753285D01*
X102162868Y-118726225D01*
X102143734Y-118722419D01*
X101908020Y-118722419D01*
X101908020Y-117937557D01*
X101911656Y-117943011D01*
X101915152Y-117946515D01*
X101917903Y-117950631D01*
X102013141Y-118045869D01*
X102019800Y-118050319D01*
X102026135Y-118055235D01*
X102121373Y-118102854D01*
X102140189Y-118108007D01*
X102176494Y-118095905D01*
X102193608Y-118061677D01*
X102181506Y-118025373D01*
X102166094Y-118013411D01*
X102078112Y-117969420D01*
X101992117Y-117883425D01*
X101899623Y-117744684D01*
X101885842Y-117730875D01*
X101880794Y-117729865D01*
X101877154Y-117726225D01*
X101862592Y-117726225D01*
X101848317Y-117723370D01*
X101844034Y-117726225D01*
X101838886Y-117726225D01*
X101828589Y-117736521D01*
X101816476Y-117744597D01*
X101815466Y-117749644D01*
X101811826Y-117753285D01*
X101808020Y-117772419D01*
X101808020Y-118722419D01*
X101572306Y-118722419D01*
X101553172Y-118726225D01*
X101526112Y-118753285D01*
X101193734Y-118753285D01*
X101193734Y-117772419D01*
X101189928Y-117753285D01*
X101162868Y-117726225D01*
X101124600Y-117726225D01*
X101097540Y-117753285D01*
X101093734Y-117772419D01*
X101093734Y-118722419D01*
X100667544Y-118722419D01*
X100648410Y-118726225D01*
X100621350Y-118753285D01*
X100510239Y-118753285D01*
X100510239Y-117612259D01*
X102304719Y-117612259D01*
X102304719Y-118933530D01*
G37*
D13*
X111170771Y-99069663D02*
X111075533Y-99069663D01*
X111075533Y-99069663D02*
X110980295Y-99117282D01*
X110980295Y-99117282D02*
X110932676Y-99164901D01*
X110932676Y-99164901D02*
X110885057Y-99260139D01*
X110885057Y-99260139D02*
X110837438Y-99450615D01*
X110837438Y-99450615D02*
X110837438Y-99688710D01*
X110837438Y-99688710D02*
X110885057Y-99879186D01*
X110885057Y-99879186D02*
X110932676Y-99974424D01*
X110932676Y-99974424D02*
X110980295Y-100022044D01*
X110980295Y-100022044D02*
X111075533Y-100069663D01*
X111075533Y-100069663D02*
X111170771Y-100069663D01*
X111170771Y-100069663D02*
X111266009Y-100022044D01*
X111266009Y-100022044D02*
X111313628Y-99974424D01*
X111313628Y-99974424D02*
X111361247Y-99879186D01*
X111361247Y-99879186D02*
X111408866Y-99688710D01*
X111408866Y-99688710D02*
X111408866Y-99450615D01*
X111408866Y-99450615D02*
X111361247Y-99260139D01*
X111361247Y-99260139D02*
X111313628Y-99164901D01*
X111313628Y-99164901D02*
X111266009Y-99117282D01*
X111266009Y-99117282D02*
X111170771Y-99069663D01*
X110266009Y-99498234D02*
X110361247Y-99450615D01*
X110361247Y-99450615D02*
X110408866Y-99402996D01*
X110408866Y-99402996D02*
X110456485Y-99307758D01*
X110456485Y-99307758D02*
X110456485Y-99260139D01*
X110456485Y-99260139D02*
X110408866Y-99164901D01*
X110408866Y-99164901D02*
X110361247Y-99117282D01*
X110361247Y-99117282D02*
X110266009Y-99069663D01*
X110266009Y-99069663D02*
X110075533Y-99069663D01*
X110075533Y-99069663D02*
X109980295Y-99117282D01*
X109980295Y-99117282D02*
X109932676Y-99164901D01*
X109932676Y-99164901D02*
X109885057Y-99260139D01*
X109885057Y-99260139D02*
X109885057Y-99307758D01*
X109885057Y-99307758D02*
X109932676Y-99402996D01*
X109932676Y-99402996D02*
X109980295Y-99450615D01*
X109980295Y-99450615D02*
X110075533Y-99498234D01*
X110075533Y-99498234D02*
X110266009Y-99498234D01*
X110266009Y-99498234D02*
X110361247Y-99545853D01*
X110361247Y-99545853D02*
X110408866Y-99593472D01*
X110408866Y-99593472D02*
X110456485Y-99688710D01*
X110456485Y-99688710D02*
X110456485Y-99879186D01*
X110456485Y-99879186D02*
X110408866Y-99974424D01*
X110408866Y-99974424D02*
X110361247Y-100022044D01*
X110361247Y-100022044D02*
X110266009Y-100069663D01*
X110266009Y-100069663D02*
X110075533Y-100069663D01*
X110075533Y-100069663D02*
X109980295Y-100022044D01*
X109980295Y-100022044D02*
X109932676Y-99974424D01*
X109932676Y-99974424D02*
X109885057Y-99879186D01*
X109885057Y-99879186D02*
X109885057Y-99688710D01*
X109885057Y-99688710D02*
X109932676Y-99593472D01*
X109932676Y-99593472D02*
X109980295Y-99545853D01*
X109980295Y-99545853D02*
X110075533Y-99498234D01*
X108742200Y-99022044D02*
X109599342Y-100307758D01*
X108456485Y-99164901D02*
X108408866Y-99117282D01*
X108408866Y-99117282D02*
X108313628Y-99069663D01*
X108313628Y-99069663D02*
X108075533Y-99069663D01*
X108075533Y-99069663D02*
X107980295Y-99117282D01*
X107980295Y-99117282D02*
X107932676Y-99164901D01*
X107932676Y-99164901D02*
X107885057Y-99260139D01*
X107885057Y-99260139D02*
X107885057Y-99355377D01*
X107885057Y-99355377D02*
X107932676Y-99498234D01*
X107932676Y-99498234D02*
X108504104Y-100069663D01*
X108504104Y-100069663D02*
X107885057Y-100069663D01*
X107266009Y-99069663D02*
X107170771Y-99069663D01*
X107170771Y-99069663D02*
X107075533Y-99117282D01*
X107075533Y-99117282D02*
X107027914Y-99164901D01*
X107027914Y-99164901D02*
X106980295Y-99260139D01*
X106980295Y-99260139D02*
X106932676Y-99450615D01*
X106932676Y-99450615D02*
X106932676Y-99688710D01*
X106932676Y-99688710D02*
X106980295Y-99879186D01*
X106980295Y-99879186D02*
X107027914Y-99974424D01*
X107027914Y-99974424D02*
X107075533Y-100022044D01*
X107075533Y-100022044D02*
X107170771Y-100069663D01*
X107170771Y-100069663D02*
X107266009Y-100069663D01*
X107266009Y-100069663D02*
X107361247Y-100022044D01*
X107361247Y-100022044D02*
X107408866Y-99974424D01*
X107408866Y-99974424D02*
X107456485Y-99879186D01*
X107456485Y-99879186D02*
X107504104Y-99688710D01*
X107504104Y-99688710D02*
X107504104Y-99450615D01*
X107504104Y-99450615D02*
X107456485Y-99260139D01*
X107456485Y-99260139D02*
X107408866Y-99164901D01*
X107408866Y-99164901D02*
X107361247Y-99117282D01*
X107361247Y-99117282D02*
X107266009Y-99069663D01*
X106551723Y-99164901D02*
X106504104Y-99117282D01*
X106504104Y-99117282D02*
X106408866Y-99069663D01*
X106408866Y-99069663D02*
X106170771Y-99069663D01*
X106170771Y-99069663D02*
X106075533Y-99117282D01*
X106075533Y-99117282D02*
X106027914Y-99164901D01*
X106027914Y-99164901D02*
X105980295Y-99260139D01*
X105980295Y-99260139D02*
X105980295Y-99355377D01*
X105980295Y-99355377D02*
X106027914Y-99498234D01*
X106027914Y-99498234D02*
X106599342Y-100069663D01*
X106599342Y-100069663D02*
X105980295Y-100069663D01*
X105075533Y-99069663D02*
X105551723Y-99069663D01*
X105551723Y-99069663D02*
X105599342Y-99545853D01*
X105599342Y-99545853D02*
X105551723Y-99498234D01*
X105551723Y-99498234D02*
X105456485Y-99450615D01*
X105456485Y-99450615D02*
X105218390Y-99450615D01*
X105218390Y-99450615D02*
X105123152Y-99498234D01*
X105123152Y-99498234D02*
X105075533Y-99545853D01*
X105075533Y-99545853D02*
X105027914Y-99641091D01*
X105027914Y-99641091D02*
X105027914Y-99879186D01*
X105027914Y-99879186D02*
X105075533Y-99974424D01*
X105075533Y-99974424D02*
X105123152Y-100022044D01*
X105123152Y-100022044D02*
X105218390Y-100069663D01*
X105218390Y-100069663D02*
X105456485Y-100069663D01*
X105456485Y-100069663D02*
X105551723Y-100022044D01*
X105551723Y-100022044D02*
X105599342Y-99974424D01*
X140075533Y-98969663D02*
X140075533Y-99683948D01*
X140075533Y-99683948D02*
X140123152Y-99826805D01*
X140123152Y-99826805D02*
X140218390Y-99922044D01*
X140218390Y-99922044D02*
X140361247Y-99969663D01*
X140361247Y-99969663D02*
X140456485Y-99969663D01*
X139170771Y-99969663D02*
X139170771Y-99445853D01*
X139170771Y-99445853D02*
X139218390Y-99350615D01*
X139218390Y-99350615D02*
X139313628Y-99302996D01*
X139313628Y-99302996D02*
X139504104Y-99302996D01*
X139504104Y-99302996D02*
X139599342Y-99350615D01*
X139170771Y-99922044D02*
X139266009Y-99969663D01*
X139266009Y-99969663D02*
X139504104Y-99969663D01*
X139504104Y-99969663D02*
X139599342Y-99922044D01*
X139599342Y-99922044D02*
X139646961Y-99826805D01*
X139646961Y-99826805D02*
X139646961Y-99731567D01*
X139646961Y-99731567D02*
X139599342Y-99636329D01*
X139599342Y-99636329D02*
X139504104Y-99588710D01*
X139504104Y-99588710D02*
X139266009Y-99588710D01*
X139266009Y-99588710D02*
X139170771Y-99541091D01*
X138266009Y-99922044D02*
X138361247Y-99969663D01*
X138361247Y-99969663D02*
X138551723Y-99969663D01*
X138551723Y-99969663D02*
X138646961Y-99922044D01*
X138646961Y-99922044D02*
X138694580Y-99874424D01*
X138694580Y-99874424D02*
X138742199Y-99779186D01*
X138742199Y-99779186D02*
X138742199Y-99493472D01*
X138742199Y-99493472D02*
X138694580Y-99398234D01*
X138694580Y-99398234D02*
X138646961Y-99350615D01*
X138646961Y-99350615D02*
X138551723Y-99302996D01*
X138551723Y-99302996D02*
X138361247Y-99302996D01*
X138361247Y-99302996D02*
X138266009Y-99350615D01*
X137694580Y-99969663D02*
X137789818Y-99922044D01*
X137789818Y-99922044D02*
X137837437Y-99874424D01*
X137837437Y-99874424D02*
X137885056Y-99779186D01*
X137885056Y-99779186D02*
X137885056Y-99493472D01*
X137885056Y-99493472D02*
X137837437Y-99398234D01*
X137837437Y-99398234D02*
X137789818Y-99350615D01*
X137789818Y-99350615D02*
X137694580Y-99302996D01*
X137694580Y-99302996D02*
X137551723Y-99302996D01*
X137551723Y-99302996D02*
X137456485Y-99350615D01*
X137456485Y-99350615D02*
X137408866Y-99398234D01*
X137408866Y-99398234D02*
X137361247Y-99493472D01*
X137361247Y-99493472D02*
X137361247Y-99779186D01*
X137361247Y-99779186D02*
X137408866Y-99874424D01*
X137408866Y-99874424D02*
X137456485Y-99922044D01*
X137456485Y-99922044D02*
X137551723Y-99969663D01*
X137551723Y-99969663D02*
X137694580Y-99969663D01*
X136932675Y-99969663D02*
X136932675Y-98969663D01*
X136932675Y-99350615D02*
X136837437Y-99302996D01*
X136837437Y-99302996D02*
X136646961Y-99302996D01*
X136646961Y-99302996D02*
X136551723Y-99350615D01*
X136551723Y-99350615D02*
X136504104Y-99398234D01*
X136504104Y-99398234D02*
X136456485Y-99493472D01*
X136456485Y-99493472D02*
X136456485Y-99779186D01*
X136456485Y-99779186D02*
X136504104Y-99874424D01*
X136504104Y-99874424D02*
X136551723Y-99922044D01*
X136551723Y-99922044D02*
X136646961Y-99969663D01*
X136646961Y-99969663D02*
X136837437Y-99969663D01*
X136837437Y-99969663D02*
X136932675Y-99922044D01*
X135408865Y-98969663D02*
X134837437Y-98969663D01*
X135123151Y-99969663D02*
X135123151Y-98969663D01*
X134361246Y-99969663D02*
X134456484Y-99922044D01*
X134456484Y-99922044D02*
X134504103Y-99874424D01*
X134504103Y-99874424D02*
X134551722Y-99779186D01*
X134551722Y-99779186D02*
X134551722Y-99493472D01*
X134551722Y-99493472D02*
X134504103Y-99398234D01*
X134504103Y-99398234D02*
X134456484Y-99350615D01*
X134456484Y-99350615D02*
X134361246Y-99302996D01*
X134361246Y-99302996D02*
X134218389Y-99302996D01*
X134218389Y-99302996D02*
X134123151Y-99350615D01*
X134123151Y-99350615D02*
X134075532Y-99398234D01*
X134075532Y-99398234D02*
X134027913Y-99493472D01*
X134027913Y-99493472D02*
X134027913Y-99779186D01*
X134027913Y-99779186D02*
X134075532Y-99874424D01*
X134075532Y-99874424D02*
X134123151Y-99922044D01*
X134123151Y-99922044D02*
X134218389Y-99969663D01*
X134218389Y-99969663D02*
X134361246Y-99969663D01*
X133599341Y-99969663D02*
X133599341Y-99302996D01*
X133599341Y-99398234D02*
X133551722Y-99350615D01*
X133551722Y-99350615D02*
X133456484Y-99302996D01*
X133456484Y-99302996D02*
X133313627Y-99302996D01*
X133313627Y-99302996D02*
X133218389Y-99350615D01*
X133218389Y-99350615D02*
X133170770Y-99445853D01*
X133170770Y-99445853D02*
X133170770Y-99969663D01*
X133170770Y-99445853D02*
X133123151Y-99350615D01*
X133123151Y-99350615D02*
X133027913Y-99302996D01*
X133027913Y-99302996D02*
X132885056Y-99302996D01*
X132885056Y-99302996D02*
X132789817Y-99350615D01*
X132789817Y-99350615D02*
X132742198Y-99445853D01*
X132742198Y-99445853D02*
X132742198Y-99969663D01*
X131837437Y-99922044D02*
X131932675Y-99969663D01*
X131932675Y-99969663D02*
X132123151Y-99969663D01*
X132123151Y-99969663D02*
X132218389Y-99922044D01*
X132218389Y-99922044D02*
X132266008Y-99874424D01*
X132266008Y-99874424D02*
X132313627Y-99779186D01*
X132313627Y-99779186D02*
X132313627Y-99493472D01*
X132313627Y-99493472D02*
X132266008Y-99398234D01*
X132266008Y-99398234D02*
X132218389Y-99350615D01*
X132218389Y-99350615D02*
X132123151Y-99302996D01*
X132123151Y-99302996D02*
X131932675Y-99302996D01*
X131932675Y-99302996D02*
X131837437Y-99350615D01*
X131504103Y-99302996D02*
X130980294Y-99302996D01*
X130980294Y-99302996D02*
X131504103Y-99969663D01*
X131504103Y-99969663D02*
X130980294Y-99969663D01*
X130218389Y-99922044D02*
X130313627Y-99969663D01*
X130313627Y-99969663D02*
X130504103Y-99969663D01*
X130504103Y-99969663D02*
X130599341Y-99922044D01*
X130599341Y-99922044D02*
X130646960Y-99826805D01*
X130646960Y-99826805D02*
X130646960Y-99445853D01*
X130646960Y-99445853D02*
X130599341Y-99350615D01*
X130599341Y-99350615D02*
X130504103Y-99302996D01*
X130504103Y-99302996D02*
X130313627Y-99302996D01*
X130313627Y-99302996D02*
X130218389Y-99350615D01*
X130218389Y-99350615D02*
X130170770Y-99445853D01*
X130170770Y-99445853D02*
X130170770Y-99541091D01*
X130170770Y-99541091D02*
X130646960Y-99636329D01*
X129789817Y-99922044D02*
X129694579Y-99969663D01*
X129694579Y-99969663D02*
X129504103Y-99969663D01*
X129504103Y-99969663D02*
X129408865Y-99922044D01*
X129408865Y-99922044D02*
X129361246Y-99826805D01*
X129361246Y-99826805D02*
X129361246Y-99779186D01*
X129361246Y-99779186D02*
X129408865Y-99683948D01*
X129408865Y-99683948D02*
X129504103Y-99636329D01*
X129504103Y-99636329D02*
X129646960Y-99636329D01*
X129646960Y-99636329D02*
X129742198Y-99588710D01*
X129742198Y-99588710D02*
X129789817Y-99493472D01*
X129789817Y-99493472D02*
X129789817Y-99445853D01*
X129789817Y-99445853D02*
X129742198Y-99350615D01*
X129742198Y-99350615D02*
X129646960Y-99302996D01*
X129646960Y-99302996D02*
X129504103Y-99302996D01*
X129504103Y-99302996D02*
X129408865Y-99350615D01*
X129027912Y-99302996D02*
X128504103Y-99302996D01*
X128504103Y-99302996D02*
X129027912Y-99969663D01*
X129027912Y-99969663D02*
X128504103Y-99969663D01*
X128218388Y-99302996D02*
X127980293Y-99969663D01*
X127742198Y-99302996D02*
X127980293Y-99969663D01*
X127980293Y-99969663D02*
X128075531Y-100207758D01*
X128075531Y-100207758D02*
X128123150Y-100255377D01*
X128123150Y-100255377D02*
X128218388Y-100302996D01*
X127361245Y-99302996D02*
X127361245Y-99969663D01*
X127361245Y-99398234D02*
X127313626Y-99350615D01*
X127313626Y-99350615D02*
X127218388Y-99302996D01*
X127218388Y-99302996D02*
X127075531Y-99302996D01*
X127075531Y-99302996D02*
X126980293Y-99350615D01*
X126980293Y-99350615D02*
X126932674Y-99445853D01*
X126932674Y-99445853D02*
X126932674Y-99969663D01*
D12*
X131433333Y-103454819D02*
X131433333Y-104169104D01*
X131433333Y-104169104D02*
X131480952Y-104311961D01*
X131480952Y-104311961D02*
X131576190Y-104407200D01*
X131576190Y-104407200D02*
X131719047Y-104454819D01*
X131719047Y-104454819D02*
X131814285Y-104454819D01*
X131004761Y-103550057D02*
X130957142Y-103502438D01*
X130957142Y-103502438D02*
X130861904Y-103454819D01*
X130861904Y-103454819D02*
X130623809Y-103454819D01*
X130623809Y-103454819D02*
X130528571Y-103502438D01*
X130528571Y-103502438D02*
X130480952Y-103550057D01*
X130480952Y-103550057D02*
X130433333Y-103645295D01*
X130433333Y-103645295D02*
X130433333Y-103740533D01*
X130433333Y-103740533D02*
X130480952Y-103883390D01*
X130480952Y-103883390D02*
X131052380Y-104454819D01*
X131052380Y-104454819D02*
X130433333Y-104454819D01*
X127859580Y-105083333D02*
X127907200Y-105035714D01*
X127907200Y-105035714D02*
X127954819Y-104892857D01*
X127954819Y-104892857D02*
X127954819Y-104797619D01*
X127954819Y-104797619D02*
X127907200Y-104654762D01*
X127907200Y-104654762D02*
X127811961Y-104559524D01*
X127811961Y-104559524D02*
X127716723Y-104511905D01*
X127716723Y-104511905D02*
X127526247Y-104464286D01*
X127526247Y-104464286D02*
X127383390Y-104464286D01*
X127383390Y-104464286D02*
X127192914Y-104511905D01*
X127192914Y-104511905D02*
X127097676Y-104559524D01*
X127097676Y-104559524D02*
X127002438Y-104654762D01*
X127002438Y-104654762D02*
X126954819Y-104797619D01*
X126954819Y-104797619D02*
X126954819Y-104892857D01*
X126954819Y-104892857D02*
X127002438Y-105035714D01*
X127002438Y-105035714D02*
X127050057Y-105083333D01*
X126954819Y-105416667D02*
X126954819Y-106035714D01*
X126954819Y-106035714D02*
X127335771Y-105702381D01*
X127335771Y-105702381D02*
X127335771Y-105845238D01*
X127335771Y-105845238D02*
X127383390Y-105940476D01*
X127383390Y-105940476D02*
X127431009Y-105988095D01*
X127431009Y-105988095D02*
X127526247Y-106035714D01*
X127526247Y-106035714D02*
X127764342Y-106035714D01*
X127764342Y-106035714D02*
X127859580Y-105988095D01*
X127859580Y-105988095D02*
X127907200Y-105940476D01*
X127907200Y-105940476D02*
X127954819Y-105845238D01*
X127954819Y-105845238D02*
X127954819Y-105559524D01*
X127954819Y-105559524D02*
X127907200Y-105464286D01*
X127907200Y-105464286D02*
X127859580Y-105416667D01*
X111554166Y-118609580D02*
X111601785Y-118657200D01*
X111601785Y-118657200D02*
X111744642Y-118704819D01*
X111744642Y-118704819D02*
X111839880Y-118704819D01*
X111839880Y-118704819D02*
X111982737Y-118657200D01*
X111982737Y-118657200D02*
X112077975Y-118561961D01*
X112077975Y-118561961D02*
X112125594Y-118466723D01*
X112125594Y-118466723D02*
X112173213Y-118276247D01*
X112173213Y-118276247D02*
X112173213Y-118133390D01*
X112173213Y-118133390D02*
X112125594Y-117942914D01*
X112125594Y-117942914D02*
X112077975Y-117847676D01*
X112077975Y-117847676D02*
X111982737Y-117752438D01*
X111982737Y-117752438D02*
X111839880Y-117704819D01*
X111839880Y-117704819D02*
X111744642Y-117704819D01*
X111744642Y-117704819D02*
X111601785Y-117752438D01*
X111601785Y-117752438D02*
X111554166Y-117800057D01*
X111173213Y-117800057D02*
X111125594Y-117752438D01*
X111125594Y-117752438D02*
X111030356Y-117704819D01*
X111030356Y-117704819D02*
X110792261Y-117704819D01*
X110792261Y-117704819D02*
X110697023Y-117752438D01*
X110697023Y-117752438D02*
X110649404Y-117800057D01*
X110649404Y-117800057D02*
X110601785Y-117895295D01*
X110601785Y-117895295D02*
X110601785Y-117990533D01*
X110601785Y-117990533D02*
X110649404Y-118133390D01*
X110649404Y-118133390D02*
X111220832Y-118704819D01*
X111220832Y-118704819D02*
X110601785Y-118704819D01*
X123204819Y-112833333D02*
X122728628Y-112500000D01*
X123204819Y-112261905D02*
X122204819Y-112261905D01*
X122204819Y-112261905D02*
X122204819Y-112642857D01*
X122204819Y-112642857D02*
X122252438Y-112738095D01*
X122252438Y-112738095D02*
X122300057Y-112785714D01*
X122300057Y-112785714D02*
X122395295Y-112833333D01*
X122395295Y-112833333D02*
X122538152Y-112833333D01*
X122538152Y-112833333D02*
X122633390Y-112785714D01*
X122633390Y-112785714D02*
X122681009Y-112738095D01*
X122681009Y-112738095D02*
X122728628Y-112642857D01*
X122728628Y-112642857D02*
X122728628Y-112261905D01*
X122204819Y-113166667D02*
X122204819Y-113785714D01*
X122204819Y-113785714D02*
X122585771Y-113452381D01*
X122585771Y-113452381D02*
X122585771Y-113595238D01*
X122585771Y-113595238D02*
X122633390Y-113690476D01*
X122633390Y-113690476D02*
X122681009Y-113738095D01*
X122681009Y-113738095D02*
X122776247Y-113785714D01*
X122776247Y-113785714D02*
X123014342Y-113785714D01*
X123014342Y-113785714D02*
X123109580Y-113738095D01*
X123109580Y-113738095D02*
X123157200Y-113690476D01*
X123157200Y-113690476D02*
X123204819Y-113595238D01*
X123204819Y-113595238D02*
X123204819Y-113309524D01*
X123204819Y-113309524D02*
X123157200Y-113214286D01*
X123157200Y-113214286D02*
X123109580Y-113166667D01*
X121859580Y-103083333D02*
X121907200Y-103035714D01*
X121907200Y-103035714D02*
X121954819Y-102892857D01*
X121954819Y-102892857D02*
X121954819Y-102797619D01*
X121954819Y-102797619D02*
X121907200Y-102654762D01*
X121907200Y-102654762D02*
X121811961Y-102559524D01*
X121811961Y-102559524D02*
X121716723Y-102511905D01*
X121716723Y-102511905D02*
X121526247Y-102464286D01*
X121526247Y-102464286D02*
X121383390Y-102464286D01*
X121383390Y-102464286D02*
X121192914Y-102511905D01*
X121192914Y-102511905D02*
X121097676Y-102559524D01*
X121097676Y-102559524D02*
X121002438Y-102654762D01*
X121002438Y-102654762D02*
X120954819Y-102797619D01*
X120954819Y-102797619D02*
X120954819Y-102892857D01*
X120954819Y-102892857D02*
X121002438Y-103035714D01*
X121002438Y-103035714D02*
X121050057Y-103083333D01*
X121288152Y-103940476D02*
X121954819Y-103940476D01*
X120907200Y-103702381D02*
X121621485Y-103464286D01*
X121621485Y-103464286D02*
X121621485Y-104083333D01*
X108338094Y-119154819D02*
X108338094Y-118154819D01*
X108338094Y-118154819D02*
X108099999Y-118154819D01*
X108099999Y-118154819D02*
X107957142Y-118202438D01*
X107957142Y-118202438D02*
X107861904Y-118297676D01*
X107861904Y-118297676D02*
X107814285Y-118392914D01*
X107814285Y-118392914D02*
X107766666Y-118583390D01*
X107766666Y-118583390D02*
X107766666Y-118726247D01*
X107766666Y-118726247D02*
X107814285Y-118916723D01*
X107814285Y-118916723D02*
X107861904Y-119011961D01*
X107861904Y-119011961D02*
X107957142Y-119107200D01*
X107957142Y-119107200D02*
X108099999Y-119154819D01*
X108099999Y-119154819D02*
X108338094Y-119154819D01*
X106861904Y-118154819D02*
X107338094Y-118154819D01*
X107338094Y-118154819D02*
X107385713Y-118631009D01*
X107385713Y-118631009D02*
X107338094Y-118583390D01*
X107338094Y-118583390D02*
X107242856Y-118535771D01*
X107242856Y-118535771D02*
X107004761Y-118535771D01*
X107004761Y-118535771D02*
X106909523Y-118583390D01*
X106909523Y-118583390D02*
X106861904Y-118631009D01*
X106861904Y-118631009D02*
X106814285Y-118726247D01*
X106814285Y-118726247D02*
X106814285Y-118964342D01*
X106814285Y-118964342D02*
X106861904Y-119059580D01*
X106861904Y-119059580D02*
X106909523Y-119107200D01*
X106909523Y-119107200D02*
X107004761Y-119154819D01*
X107004761Y-119154819D02*
X107242856Y-119154819D01*
X107242856Y-119154819D02*
X107338094Y-119107200D01*
X107338094Y-119107200D02*
X107385713Y-119059580D01*
G36*
X131307953Y-122964077D02*
G01*
X131338360Y-122994484D01*
X131376853Y-123071471D01*
X131420237Y-123245005D01*
X131420237Y-123464632D01*
X131376853Y-123638166D01*
X131338359Y-123715153D01*
X131307952Y-123745561D01*
X131239437Y-123779819D01*
X131179609Y-123779819D01*
X131111093Y-123745561D01*
X131080686Y-123715153D01*
X131042192Y-123638166D01*
X130998809Y-123464632D01*
X130998809Y-123245005D01*
X131042192Y-123071471D01*
X131080686Y-122994484D01*
X131111093Y-122964077D01*
X131179609Y-122929819D01*
X131239437Y-122929819D01*
X131307953Y-122964077D01*
G37*
G36*
X136914990Y-123494104D02*
G01*
X136646914Y-123494104D01*
X136780952Y-123091989D01*
X136914990Y-123494104D01*
G37*
G36*
X138205158Y-124040930D02*
G01*
X129594841Y-124040930D01*
X129594841Y-123140533D01*
X129705952Y-123140533D01*
X129705952Y-123378628D01*
X129706681Y-123386033D01*
X129706541Y-123388008D01*
X129707131Y-123390605D01*
X129707393Y-123393260D01*
X129708151Y-123395091D01*
X129709801Y-123402345D01*
X129757420Y-123545202D01*
X129763414Y-123558627D01*
X129765179Y-123560662D01*
X129766211Y-123563153D01*
X129775538Y-123574518D01*
X129870776Y-123669756D01*
X129876526Y-123674476D01*
X129877825Y-123675973D01*
X129880079Y-123677392D01*
X129882141Y-123679084D01*
X129883973Y-123679842D01*
X129890268Y-123683805D01*
X129944047Y-123710694D01*
X129944047Y-123779819D01*
X129780952Y-123779819D01*
X129766320Y-123781260D01*
X129739284Y-123792459D01*
X129718592Y-123813151D01*
X129707393Y-123840187D01*
X129707393Y-123869451D01*
X129718592Y-123896487D01*
X129739284Y-123917179D01*
X129766320Y-123928378D01*
X129780952Y-123929819D01*
X130019047Y-123929819D01*
X130033679Y-123928378D01*
X130060715Y-123917179D01*
X130081407Y-123896487D01*
X130092606Y-123869451D01*
X130094047Y-123854819D01*
X130094047Y-123664342D01*
X130093317Y-123656936D01*
X130093458Y-123654961D01*
X130092982Y-123653535D01*
X130092606Y-123649710D01*
X130088004Y-123638602D01*
X130084204Y-123627200D01*
X130082438Y-123625164D01*
X130081407Y-123622674D01*
X130072909Y-123614176D01*
X130065031Y-123605092D01*
X130061776Y-123603043D01*
X130060715Y-123601982D01*
X130058887Y-123601224D01*
X130052588Y-123597260D01*
X129968236Y-123555084D01*
X129894123Y-123480971D01*
X129855952Y-123366457D01*
X129855952Y-123152703D01*
X129894123Y-123038189D01*
X129964323Y-122967990D01*
X130078836Y-122929819D01*
X130244972Y-122929819D01*
X130359485Y-122967990D01*
X130429685Y-123038190D01*
X130467856Y-123152703D01*
X130467856Y-123366458D01*
X130429685Y-123480971D01*
X130355572Y-123555084D01*
X130271220Y-123597260D01*
X130264920Y-123601224D01*
X130263093Y-123601982D01*
X130262031Y-123603043D01*
X130258777Y-123605092D01*
X130250898Y-123614176D01*
X130242401Y-123622674D01*
X130241369Y-123625164D01*
X130239604Y-123627200D01*
X130235803Y-123638602D01*
X130231202Y-123649710D01*
X130230825Y-123653535D01*
X130230350Y-123654961D01*
X130230490Y-123656936D01*
X130229761Y-123664342D01*
X130229761Y-123854819D01*
X130231202Y-123869451D01*
X130242401Y-123896487D01*
X130263093Y-123917179D01*
X130290129Y-123928378D01*
X130304761Y-123929819D01*
X130542856Y-123929819D01*
X130557488Y-123928378D01*
X130584524Y-123917179D01*
X130605216Y-123896487D01*
X130616415Y-123869451D01*
X130616415Y-123840187D01*
X130605216Y-123813151D01*
X130584524Y-123792459D01*
X130557488Y-123781260D01*
X130542856Y-123779819D01*
X130379761Y-123779819D01*
X130379761Y-123710694D01*
X130433540Y-123683805D01*
X130439839Y-123679840D01*
X130441667Y-123679083D01*
X130443723Y-123677394D01*
X130445983Y-123675973D01*
X130447282Y-123674474D01*
X130453032Y-123669756D01*
X130548270Y-123574518D01*
X130557598Y-123563153D01*
X130558629Y-123560662D01*
X130560394Y-123558628D01*
X130566388Y-123545202D01*
X130614007Y-123402346D01*
X130615656Y-123395090D01*
X130616415Y-123393260D01*
X130616676Y-123390606D01*
X130617267Y-123388009D01*
X130617126Y-123386034D01*
X130617856Y-123378628D01*
X130617856Y-123235771D01*
X130848809Y-123235771D01*
X130848809Y-123473866D01*
X130849060Y-123476419D01*
X130848898Y-123477512D01*
X130849707Y-123482985D01*
X130850250Y-123488498D01*
X130850672Y-123489519D01*
X130851048Y-123492056D01*
X130898667Y-123682532D01*
X130899052Y-123683611D01*
X130899091Y-123684151D01*
X130901418Y-123690232D01*
X130903614Y-123696378D01*
X130903936Y-123696813D01*
X130904346Y-123697883D01*
X130951965Y-123793121D01*
X130955928Y-123799417D01*
X130956686Y-123801247D01*
X130958375Y-123803305D01*
X130959797Y-123805564D01*
X130961295Y-123806863D01*
X130966013Y-123812612D01*
X131013632Y-123860232D01*
X131019381Y-123864950D01*
X131020682Y-123866450D01*
X131022941Y-123867872D01*
X131024998Y-123869560D01*
X131026825Y-123870317D01*
X131033125Y-123874282D01*
X131128363Y-123921901D01*
X131142094Y-123927156D01*
X131144783Y-123927347D01*
X131147272Y-123928378D01*
X131161904Y-123929819D01*
X131257142Y-123929819D01*
X131271774Y-123928378D01*
X131274263Y-123927346D01*
X131276951Y-123927156D01*
X131290683Y-123921901D01*
X131385921Y-123874282D01*
X131392220Y-123870317D01*
X131394048Y-123869560D01*
X131396104Y-123867872D01*
X131398364Y-123866450D01*
X131399664Y-123864950D01*
X131405414Y-123860232D01*
X131453032Y-123812613D01*
X131457750Y-123806863D01*
X131459249Y-123805564D01*
X131460670Y-123803305D01*
X131462360Y-123801247D01*
X131463117Y-123799417D01*
X131467081Y-123793121D01*
X131514700Y-123697883D01*
X131515109Y-123696813D01*
X131515432Y-123696378D01*
X131517624Y-123690241D01*
X131519955Y-123684152D01*
X131519993Y-123683611D01*
X131520379Y-123682532D01*
X131567998Y-123492056D01*
X131568373Y-123489519D01*
X131568796Y-123488498D01*
X131569338Y-123482985D01*
X131570148Y-123477512D01*
X131569985Y-123476419D01*
X131570237Y-123473866D01*
X131570237Y-123235771D01*
X131569985Y-123233217D01*
X131570148Y-123232125D01*
X131569338Y-123226651D01*
X131568796Y-123221139D01*
X131568373Y-123220117D01*
X131567998Y-123217581D01*
X131524926Y-123045295D01*
X131801190Y-123045295D01*
X131801190Y-123140533D01*
X131801919Y-123147938D01*
X131801779Y-123149913D01*
X131802369Y-123152510D01*
X131802631Y-123155165D01*
X131803389Y-123156996D01*
X131805039Y-123164250D01*
X131852658Y-123307107D01*
X131858652Y-123320532D01*
X131860417Y-123322567D01*
X131861449Y-123325058D01*
X131870776Y-123336423D01*
X132314171Y-123779819D01*
X131876190Y-123779819D01*
X131861558Y-123781260D01*
X131834522Y-123792459D01*
X131813830Y-123813151D01*
X131802631Y-123840187D01*
X131802631Y-123869451D01*
X131813830Y-123896487D01*
X131834522Y-123917179D01*
X131861558Y-123928378D01*
X131876190Y-123929819D01*
X132495237Y-123929819D01*
X132509869Y-123928378D01*
X132517787Y-123925098D01*
X132536905Y-123917180D01*
X132557597Y-123896487D01*
X132568796Y-123869451D01*
X132568796Y-123840188D01*
X132568796Y-123840187D01*
X132755012Y-123840187D01*
X132755012Y-123869451D01*
X132766211Y-123896487D01*
X132786903Y-123917179D01*
X132813939Y-123928378D01*
X132828571Y-123929819D01*
X133399999Y-123929819D01*
X133414631Y-123928378D01*
X133441667Y-123917179D01*
X133462359Y-123896487D01*
X133473558Y-123869451D01*
X133473558Y-123840187D01*
X134469298Y-123840187D01*
X134469298Y-123869451D01*
X134480497Y-123896487D01*
X134501189Y-123917179D01*
X134528225Y-123928378D01*
X134542857Y-123929819D01*
X135114285Y-123929819D01*
X135128917Y-123928378D01*
X135155953Y-123917179D01*
X135176645Y-123896487D01*
X135187844Y-123869451D01*
X135187844Y-123840187D01*
X135176645Y-123813151D01*
X135155953Y-123792459D01*
X135128917Y-123781260D01*
X135114285Y-123779819D01*
X134903571Y-123779819D01*
X134903571Y-123083504D01*
X134966014Y-123145947D01*
X134971764Y-123150667D01*
X134973063Y-123152164D01*
X134975317Y-123153583D01*
X134977379Y-123155275D01*
X134979211Y-123156033D01*
X134985506Y-123159996D01*
X135080744Y-123207615D01*
X135094475Y-123212870D01*
X135123665Y-123214944D01*
X135151427Y-123205690D01*
X135173534Y-123186517D01*
X135186622Y-123160342D01*
X135188696Y-123131152D01*
X135179442Y-123103391D01*
X135160269Y-123081283D01*
X135147826Y-123073451D01*
X135063474Y-123031275D01*
X134982093Y-122949894D01*
X134918710Y-122854819D01*
X135467857Y-122854819D01*
X135467857Y-123854819D01*
X135468227Y-123858582D01*
X135468040Y-123860058D01*
X135468561Y-123861968D01*
X135469298Y-123869451D01*
X135473115Y-123878666D01*
X135475740Y-123888290D01*
X135478667Y-123892070D01*
X135480497Y-123896487D01*
X135487547Y-123903537D01*
X135493657Y-123911427D01*
X135497810Y-123913800D01*
X135501189Y-123917179D01*
X135510401Y-123920995D01*
X135519066Y-123925946D01*
X135523809Y-123926548D01*
X135528225Y-123928378D01*
X135538199Y-123928378D01*
X135548096Y-123929636D01*
X135552708Y-123928378D01*
X135557489Y-123928378D01*
X135566704Y-123924560D01*
X135576328Y-123921936D01*
X135580108Y-123919008D01*
X135584525Y-123917179D01*
X135591575Y-123910128D01*
X135599465Y-123904019D01*
X135603817Y-123897886D01*
X135605217Y-123896487D01*
X135605786Y-123895112D01*
X135607975Y-123892029D01*
X136039285Y-123137235D01*
X136039285Y-123854819D01*
X136040726Y-123869451D01*
X136051925Y-123896487D01*
X136072617Y-123917179D01*
X136099653Y-123928378D01*
X136128917Y-123928378D01*
X136155953Y-123917179D01*
X136176645Y-123896487D01*
X136187844Y-123869451D01*
X136189285Y-123854819D01*
X136189285Y-123845439D01*
X136373208Y-123845439D01*
X136375283Y-123874629D01*
X136388369Y-123900802D01*
X136410476Y-123919976D01*
X136438239Y-123929230D01*
X136467429Y-123927155D01*
X136493602Y-123914069D01*
X136512776Y-123891962D01*
X136518770Y-123878536D01*
X136596914Y-123644104D01*
X136964990Y-123644104D01*
X137043134Y-123878536D01*
X137049128Y-123891961D01*
X137068302Y-123914068D01*
X137094475Y-123927155D01*
X137123665Y-123929230D01*
X137151427Y-123919976D01*
X137173535Y-123900802D01*
X137186621Y-123874628D01*
X137188696Y-123845438D01*
X137185436Y-123831102D01*
X136886878Y-122935426D01*
X137326441Y-122935426D01*
X137326441Y-122964688D01*
X137337640Y-122991725D01*
X137358332Y-123012417D01*
X137385369Y-123023616D01*
X137414631Y-123023616D01*
X137441668Y-123012417D01*
X137453033Y-123003090D01*
X137488133Y-122967990D01*
X137602646Y-122929819D01*
X137673544Y-122929819D01*
X137788057Y-122967990D01*
X137862170Y-123042103D01*
X137900663Y-123119090D01*
X137944047Y-123292624D01*
X137944047Y-123417013D01*
X137900663Y-123590547D01*
X137862169Y-123667534D01*
X137788057Y-123741647D01*
X137673544Y-123779819D01*
X137602646Y-123779819D01*
X137488133Y-123741648D01*
X137453034Y-123706548D01*
X137441668Y-123697220D01*
X137414632Y-123686021D01*
X137385369Y-123686021D01*
X137358333Y-123697219D01*
X137337640Y-123717912D01*
X137326441Y-123744948D01*
X137326441Y-123774211D01*
X137337639Y-123801247D01*
X137346966Y-123812612D01*
X137394585Y-123860232D01*
X137405951Y-123869560D01*
X137408439Y-123870590D01*
X137410476Y-123872357D01*
X137423902Y-123878351D01*
X137566758Y-123925970D01*
X137574013Y-123927619D01*
X137575844Y-123928378D01*
X137578497Y-123928639D01*
X137581095Y-123929230D01*
X137583069Y-123929089D01*
X137590476Y-123929819D01*
X137685714Y-123929819D01*
X137693119Y-123929089D01*
X137695094Y-123929230D01*
X137697691Y-123928639D01*
X137700346Y-123928378D01*
X137702177Y-123927619D01*
X137709431Y-123925970D01*
X137852288Y-123878351D01*
X137865713Y-123872357D01*
X137867748Y-123870591D01*
X137870239Y-123869560D01*
X137881604Y-123860233D01*
X137976843Y-123764993D01*
X137981560Y-123759244D01*
X137983059Y-123757945D01*
X137984480Y-123755686D01*
X137986170Y-123753628D01*
X137986927Y-123751798D01*
X137990891Y-123745502D01*
X138038510Y-123650264D01*
X138038919Y-123649194D01*
X138039242Y-123648759D01*
X138041434Y-123642622D01*
X138043765Y-123636533D01*
X138043803Y-123635992D01*
X138044189Y-123634913D01*
X138091808Y-123444437D01*
X138092183Y-123441900D01*
X138092606Y-123440879D01*
X138093148Y-123435366D01*
X138093958Y-123429893D01*
X138093795Y-123428800D01*
X138094047Y-123426247D01*
X138094047Y-123283390D01*
X138093795Y-123280836D01*
X138093958Y-123279744D01*
X138093148Y-123274270D01*
X138092606Y-123268758D01*
X138092183Y-123267736D01*
X138091808Y-123265200D01*
X138044189Y-123074724D01*
X138043803Y-123073644D01*
X138043765Y-123073104D01*
X138041428Y-123066997D01*
X138039242Y-123060878D01*
X138038919Y-123060442D01*
X138038510Y-123059373D01*
X137990891Y-122964135D01*
X137986928Y-122957840D01*
X137986170Y-122956008D01*
X137984478Y-122953946D01*
X137983059Y-122951692D01*
X137981562Y-122950393D01*
X137976842Y-122944643D01*
X137881604Y-122849405D01*
X137870239Y-122840078D01*
X137867748Y-122839046D01*
X137865713Y-122837281D01*
X137852288Y-122831287D01*
X137709431Y-122783668D01*
X137702177Y-122782018D01*
X137700346Y-122781260D01*
X137697691Y-122780998D01*
X137695094Y-122780408D01*
X137693119Y-122780548D01*
X137685714Y-122779819D01*
X137590476Y-122779819D01*
X137583069Y-122780548D01*
X137581095Y-122780408D01*
X137578497Y-122780998D01*
X137575844Y-122781260D01*
X137574013Y-122782018D01*
X137566758Y-122783668D01*
X137423902Y-122831287D01*
X137410476Y-122837281D01*
X137408439Y-122839047D01*
X137405951Y-122840078D01*
X137394586Y-122849405D01*
X137346967Y-122897024D01*
X137337640Y-122908389D01*
X137326441Y-122935426D01*
X136886878Y-122935426D01*
X136852103Y-122831102D01*
X136846109Y-122817676D01*
X136842597Y-122813627D01*
X136840202Y-122808836D01*
X136833098Y-122802674D01*
X136826935Y-122795569D01*
X136822141Y-122793172D01*
X136818094Y-122789662D01*
X136809172Y-122786688D01*
X136800762Y-122782483D01*
X136795417Y-122782103D01*
X136790332Y-122780408D01*
X136780952Y-122781074D01*
X136771572Y-122780408D01*
X136766486Y-122782103D01*
X136761142Y-122782483D01*
X136752734Y-122786687D01*
X136743809Y-122789662D01*
X136739758Y-122793175D01*
X136734969Y-122795570D01*
X136728810Y-122802670D01*
X136721702Y-122808836D01*
X136719305Y-122813629D01*
X136715795Y-122817677D01*
X136709801Y-122831102D01*
X136376468Y-123831102D01*
X136373208Y-123845439D01*
X136189285Y-123845439D01*
X136189285Y-122854819D01*
X136188914Y-122851055D01*
X136189102Y-122849580D01*
X136188580Y-122847669D01*
X136187844Y-122840187D01*
X136184026Y-122830971D01*
X136181402Y-122821348D01*
X136178474Y-122817567D01*
X136176645Y-122813151D01*
X136169594Y-122806100D01*
X136163485Y-122798211D01*
X136159331Y-122795837D01*
X136155953Y-122792459D01*
X136146740Y-122788642D01*
X136138076Y-122783692D01*
X136133332Y-122783089D01*
X136128917Y-122781260D01*
X136118943Y-122781260D01*
X136109046Y-122780002D01*
X136104434Y-122781260D01*
X136099653Y-122781260D01*
X136090436Y-122785077D01*
X136080815Y-122787702D01*
X136077035Y-122790628D01*
X136072617Y-122792459D01*
X136065565Y-122799510D01*
X136057677Y-122805619D01*
X136053322Y-122811753D01*
X136051925Y-122813151D01*
X136051356Y-122814523D01*
X136049167Y-122817608D01*
X135617857Y-123572402D01*
X135617857Y-122854819D01*
X135616416Y-122840187D01*
X135605217Y-122813151D01*
X135584525Y-122792459D01*
X135557489Y-122781260D01*
X135528225Y-122781260D01*
X135501189Y-122792459D01*
X135480497Y-122813151D01*
X135469298Y-122840187D01*
X135467857Y-122854819D01*
X134918710Y-122854819D01*
X134890975Y-122813216D01*
X134890940Y-122813173D01*
X134890931Y-122813151D01*
X134890879Y-122813099D01*
X134881659Y-122801841D01*
X134875489Y-122797709D01*
X134870239Y-122792459D01*
X134863449Y-122789646D01*
X134857344Y-122785558D01*
X134850063Y-122784101D01*
X134843203Y-122781260D01*
X134835855Y-122781260D01*
X134828650Y-122779819D01*
X134821366Y-122781260D01*
X134813939Y-122781260D01*
X134807150Y-122784072D01*
X134799942Y-122785498D01*
X134793763Y-122789617D01*
X134786903Y-122792459D01*
X134781707Y-122797654D01*
X134775593Y-122801731D01*
X134771461Y-122807900D01*
X134766211Y-122813151D01*
X134763398Y-122819940D01*
X134759310Y-122826046D01*
X134757853Y-122833326D01*
X134755012Y-122840187D01*
X134753586Y-122854663D01*
X134753571Y-122854740D01*
X134753576Y-122854766D01*
X134753571Y-122854819D01*
X134753571Y-123779819D01*
X134542857Y-123779819D01*
X134528225Y-123781260D01*
X134501189Y-123792459D01*
X134480497Y-123813151D01*
X134469298Y-123840187D01*
X133473558Y-123840187D01*
X133462359Y-123813151D01*
X133441667Y-123792459D01*
X133414631Y-123781260D01*
X133399999Y-123779819D01*
X133189285Y-123779819D01*
X133189285Y-123083504D01*
X133251728Y-123145947D01*
X133257478Y-123150667D01*
X133258777Y-123152164D01*
X133261031Y-123153583D01*
X133263093Y-123155275D01*
X133264925Y-123156033D01*
X133271220Y-123159996D01*
X133366458Y-123207615D01*
X133380189Y-123212870D01*
X133409379Y-123214944D01*
X133437141Y-123205690D01*
X133459248Y-123186517D01*
X133472336Y-123160342D01*
X133474410Y-123131152D01*
X133465156Y-123103391D01*
X133445983Y-123081283D01*
X133433540Y-123073451D01*
X133349188Y-123031275D01*
X133267807Y-122949894D01*
X133176689Y-122813216D01*
X133176654Y-122813173D01*
X133176645Y-122813151D01*
X133176593Y-122813099D01*
X133167373Y-122801841D01*
X133161203Y-122797709D01*
X133155953Y-122792459D01*
X133149163Y-122789646D01*
X133143058Y-122785558D01*
X133135777Y-122784101D01*
X133128917Y-122781260D01*
X133121569Y-122781260D01*
X133114364Y-122779819D01*
X133107080Y-122781260D01*
X133099653Y-122781260D01*
X133092864Y-122784072D01*
X133085656Y-122785498D01*
X133079477Y-122789617D01*
X133072617Y-122792459D01*
X133067421Y-122797654D01*
X133061307Y-122801731D01*
X133057175Y-122807900D01*
X133051925Y-122813151D01*
X133049112Y-122819940D01*
X133045024Y-122826046D01*
X133043567Y-122833326D01*
X133040726Y-122840187D01*
X133039300Y-122854663D01*
X133039285Y-122854740D01*
X133039290Y-122854766D01*
X133039285Y-122854819D01*
X133039285Y-123779819D01*
X132828571Y-123779819D01*
X132813939Y-123781260D01*
X132786903Y-123792459D01*
X132766211Y-123813151D01*
X132755012Y-123840187D01*
X132568796Y-123840187D01*
X132557598Y-123813151D01*
X132548270Y-123801786D01*
X131989361Y-123242876D01*
X131951190Y-123128362D01*
X131951190Y-123063000D01*
X131985448Y-122994484D01*
X132015855Y-122964077D01*
X132084371Y-122929819D01*
X132287056Y-122929819D01*
X132355572Y-122964077D01*
X132394585Y-123003090D01*
X132405950Y-123012417D01*
X132432986Y-123023616D01*
X132462249Y-123023616D01*
X132489285Y-123012417D01*
X132509978Y-122991724D01*
X132521177Y-122964688D01*
X132521177Y-122935425D01*
X132509978Y-122908389D01*
X132500651Y-122897024D01*
X132453032Y-122849405D01*
X132447282Y-122844686D01*
X132445983Y-122843188D01*
X132443723Y-122841766D01*
X132441667Y-122840078D01*
X132439839Y-122839320D01*
X132433540Y-122835356D01*
X132338302Y-122787737D01*
X132324570Y-122782482D01*
X132321882Y-122782291D01*
X132319393Y-122781260D01*
X132304761Y-122779819D01*
X132066666Y-122779819D01*
X132052034Y-122781260D01*
X132049545Y-122782290D01*
X132046856Y-122782482D01*
X132033125Y-122787737D01*
X131937887Y-122835356D01*
X131931587Y-122839320D01*
X131929760Y-122840078D01*
X131927703Y-122841766D01*
X131925444Y-122843188D01*
X131924144Y-122844686D01*
X131918395Y-122849405D01*
X131870776Y-122897024D01*
X131866057Y-122902773D01*
X131864559Y-122904073D01*
X131863137Y-122906332D01*
X131861449Y-122908389D01*
X131860691Y-122910216D01*
X131856727Y-122916516D01*
X131809108Y-123011754D01*
X131803853Y-123025486D01*
X131803662Y-123028173D01*
X131802631Y-123030663D01*
X131801190Y-123045295D01*
X131524926Y-123045295D01*
X131520379Y-123027105D01*
X131519993Y-123026025D01*
X131519955Y-123025485D01*
X131517624Y-123019395D01*
X131515432Y-123013259D01*
X131515109Y-123012823D01*
X131514700Y-123011754D01*
X131467081Y-122916516D01*
X131463116Y-122910216D01*
X131462359Y-122908389D01*
X131460670Y-122906332D01*
X131459249Y-122904073D01*
X131457750Y-122902773D01*
X131453032Y-122897024D01*
X131405413Y-122849405D01*
X131399663Y-122844686D01*
X131398364Y-122843188D01*
X131396104Y-122841766D01*
X131394048Y-122840078D01*
X131392220Y-122839320D01*
X131385921Y-122835356D01*
X131290683Y-122787737D01*
X131276951Y-122782482D01*
X131274263Y-122782291D01*
X131271774Y-122781260D01*
X131257142Y-122779819D01*
X131161904Y-122779819D01*
X131147272Y-122781260D01*
X131144783Y-122782290D01*
X131142094Y-122782482D01*
X131128363Y-122787737D01*
X131033125Y-122835356D01*
X131026825Y-122839320D01*
X131024998Y-122840078D01*
X131022941Y-122841766D01*
X131020682Y-122843188D01*
X131019382Y-122844686D01*
X131013633Y-122849405D01*
X130966014Y-122897024D01*
X130961295Y-122902773D01*
X130959797Y-122904073D01*
X130958375Y-122906332D01*
X130956687Y-122908389D01*
X130955929Y-122910216D01*
X130951965Y-122916516D01*
X130904346Y-123011754D01*
X130903936Y-123012823D01*
X130903614Y-123013259D01*
X130901418Y-123019404D01*
X130899091Y-123025486D01*
X130899052Y-123026025D01*
X130898667Y-123027105D01*
X130851048Y-123217581D01*
X130850672Y-123220117D01*
X130850250Y-123221139D01*
X130849707Y-123226651D01*
X130848898Y-123232125D01*
X130849060Y-123233217D01*
X130848809Y-123235771D01*
X130617856Y-123235771D01*
X130617856Y-123140533D01*
X130617126Y-123133126D01*
X130617267Y-123131152D01*
X130616676Y-123128554D01*
X130616415Y-123125901D01*
X130615656Y-123124070D01*
X130614007Y-123116815D01*
X130566388Y-122973959D01*
X130560394Y-122960533D01*
X130558629Y-122958498D01*
X130557598Y-122956008D01*
X130548270Y-122944643D01*
X130453032Y-122849405D01*
X130441667Y-122840078D01*
X130439176Y-122839046D01*
X130437141Y-122837281D01*
X130423716Y-122831287D01*
X130280859Y-122783668D01*
X130273605Y-122782018D01*
X130271774Y-122781260D01*
X130269119Y-122780998D01*
X130266522Y-122780408D01*
X130264547Y-122780548D01*
X130257142Y-122779819D01*
X130066666Y-122779819D01*
X130059259Y-122780548D01*
X130057285Y-122780408D01*
X130054687Y-122780998D01*
X130052034Y-122781260D01*
X130050203Y-122782018D01*
X130042948Y-122783668D01*
X129900092Y-122831287D01*
X129886666Y-122837281D01*
X129884631Y-122839045D01*
X129882141Y-122840077D01*
X129870776Y-122849405D01*
X129775538Y-122944643D01*
X129766211Y-122956008D01*
X129765179Y-122958498D01*
X129763414Y-122960534D01*
X129757420Y-122973959D01*
X129709801Y-123116816D01*
X129708151Y-123124069D01*
X129707393Y-123125901D01*
X129707131Y-123128555D01*
X129706541Y-123131153D01*
X129706681Y-123133127D01*
X129705952Y-123140533D01*
X129594841Y-123140533D01*
X129594841Y-122668708D01*
X138205158Y-122668708D01*
X138205158Y-124040930D01*
G37*
X108088094Y-113054819D02*
X108088094Y-112054819D01*
X108088094Y-112054819D02*
X107849999Y-112054819D01*
X107849999Y-112054819D02*
X107707142Y-112102438D01*
X107707142Y-112102438D02*
X107611904Y-112197676D01*
X107611904Y-112197676D02*
X107564285Y-112292914D01*
X107564285Y-112292914D02*
X107516666Y-112483390D01*
X107516666Y-112483390D02*
X107516666Y-112626247D01*
X107516666Y-112626247D02*
X107564285Y-112816723D01*
X107564285Y-112816723D02*
X107611904Y-112911961D01*
X107611904Y-112911961D02*
X107707142Y-113007200D01*
X107707142Y-113007200D02*
X107849999Y-113054819D01*
X107849999Y-113054819D02*
X108088094Y-113054819D01*
X106659523Y-112388152D02*
X106659523Y-113054819D01*
X106897618Y-112007200D02*
X107135713Y-112721485D01*
X107135713Y-112721485D02*
X106516666Y-112721485D01*
X138166666Y-120104819D02*
X138499999Y-119628628D01*
X138738094Y-120104819D02*
X138738094Y-119104819D01*
X138738094Y-119104819D02*
X138357142Y-119104819D01*
X138357142Y-119104819D02*
X138261904Y-119152438D01*
X138261904Y-119152438D02*
X138214285Y-119200057D01*
X138214285Y-119200057D02*
X138166666Y-119295295D01*
X138166666Y-119295295D02*
X138166666Y-119438152D01*
X138166666Y-119438152D02*
X138214285Y-119533390D01*
X138214285Y-119533390D02*
X138261904Y-119581009D01*
X138261904Y-119581009D02*
X138357142Y-119628628D01*
X138357142Y-119628628D02*
X138738094Y-119628628D01*
X137309523Y-119438152D02*
X137309523Y-120104819D01*
X137547618Y-119057200D02*
X137785713Y-119771485D01*
X137785713Y-119771485D02*
X137166666Y-119771485D01*
X113261904Y-106852319D02*
X113261904Y-107661842D01*
X113261904Y-107661842D02*
X113214285Y-107757080D01*
X113214285Y-107757080D02*
X113166666Y-107804700D01*
X113166666Y-107804700D02*
X113071428Y-107852319D01*
X113071428Y-107852319D02*
X112880952Y-107852319D01*
X112880952Y-107852319D02*
X112785714Y-107804700D01*
X112785714Y-107804700D02*
X112738095Y-107757080D01*
X112738095Y-107757080D02*
X112690476Y-107661842D01*
X112690476Y-107661842D02*
X112690476Y-106852319D01*
X111690476Y-107852319D02*
X112261904Y-107852319D01*
X111976190Y-107852319D02*
X111976190Y-106852319D01*
X111976190Y-106852319D02*
X112071428Y-106995176D01*
X112071428Y-106995176D02*
X112166666Y-107090414D01*
X112166666Y-107090414D02*
X112261904Y-107138033D01*
X111616666Y-120704819D02*
X111949999Y-120228628D01*
X112188094Y-120704819D02*
X112188094Y-119704819D01*
X112188094Y-119704819D02*
X111807142Y-119704819D01*
X111807142Y-119704819D02*
X111711904Y-119752438D01*
X111711904Y-119752438D02*
X111664285Y-119800057D01*
X111664285Y-119800057D02*
X111616666Y-119895295D01*
X111616666Y-119895295D02*
X111616666Y-120038152D01*
X111616666Y-120038152D02*
X111664285Y-120133390D01*
X111664285Y-120133390D02*
X111711904Y-120181009D01*
X111711904Y-120181009D02*
X111807142Y-120228628D01*
X111807142Y-120228628D02*
X112188094Y-120228628D01*
X111235713Y-119800057D02*
X111188094Y-119752438D01*
X111188094Y-119752438D02*
X111092856Y-119704819D01*
X111092856Y-119704819D02*
X110854761Y-119704819D01*
X110854761Y-119704819D02*
X110759523Y-119752438D01*
X110759523Y-119752438D02*
X110711904Y-119800057D01*
X110711904Y-119800057D02*
X110664285Y-119895295D01*
X110664285Y-119895295D02*
X110664285Y-119990533D01*
X110664285Y-119990533D02*
X110711904Y-120133390D01*
X110711904Y-120133390D02*
X111283332Y-120704819D01*
X111283332Y-120704819D02*
X110664285Y-120704819D01*
X116666666Y-103454819D02*
X117142856Y-103454819D01*
X117142856Y-103454819D02*
X117142856Y-102454819D01*
X115809523Y-103454819D02*
X116380951Y-103454819D01*
X116095237Y-103454819D02*
X116095237Y-102454819D01*
X116095237Y-102454819D02*
X116190475Y-102597676D01*
X116190475Y-102597676D02*
X116285713Y-102692914D01*
X116285713Y-102692914D02*
X116380951Y-102740533D01*
X129738095Y-121681009D02*
X130071428Y-121681009D01*
X130071428Y-122204819D02*
X130071428Y-121204819D01*
X130071428Y-121204819D02*
X129595238Y-121204819D01*
X128738095Y-122204819D02*
X129214285Y-122204819D01*
X129214285Y-122204819D02*
X129214285Y-121204819D01*
X128452380Y-121300057D02*
X128404761Y-121252438D01*
X128404761Y-121252438D02*
X128309523Y-121204819D01*
X128309523Y-121204819D02*
X128071428Y-121204819D01*
X128071428Y-121204819D02*
X127976190Y-121252438D01*
X127976190Y-121252438D02*
X127928571Y-121300057D01*
X127928571Y-121300057D02*
X127880952Y-121395295D01*
X127880952Y-121395295D02*
X127880952Y-121490533D01*
X127880952Y-121490533D02*
X127928571Y-121633390D01*
X127928571Y-121633390D02*
X128499999Y-122204819D01*
X128499999Y-122204819D02*
X127880952Y-122204819D01*
X142733333Y-103754819D02*
X142733333Y-104469104D01*
X142733333Y-104469104D02*
X142780952Y-104611961D01*
X142780952Y-104611961D02*
X142876190Y-104707200D01*
X142876190Y-104707200D02*
X143019047Y-104754819D01*
X143019047Y-104754819D02*
X143114285Y-104754819D01*
X142352380Y-103754819D02*
X141733333Y-103754819D01*
X141733333Y-103754819D02*
X142066666Y-104135771D01*
X142066666Y-104135771D02*
X141923809Y-104135771D01*
X141923809Y-104135771D02*
X141828571Y-104183390D01*
X141828571Y-104183390D02*
X141780952Y-104231009D01*
X141780952Y-104231009D02*
X141733333Y-104326247D01*
X141733333Y-104326247D02*
X141733333Y-104564342D01*
X141733333Y-104564342D02*
X141780952Y-104659580D01*
X141780952Y-104659580D02*
X141828571Y-104707200D01*
X141828571Y-104707200D02*
X141923809Y-104754819D01*
X141923809Y-104754819D02*
X142209523Y-104754819D01*
X142209523Y-104754819D02*
X142304761Y-104707200D01*
X142304761Y-104707200D02*
X142352380Y-104659580D01*
X119359580Y-103083333D02*
X119407200Y-103035714D01*
X119407200Y-103035714D02*
X119454819Y-102892857D01*
X119454819Y-102892857D02*
X119454819Y-102797619D01*
X119454819Y-102797619D02*
X119407200Y-102654762D01*
X119407200Y-102654762D02*
X119311961Y-102559524D01*
X119311961Y-102559524D02*
X119216723Y-102511905D01*
X119216723Y-102511905D02*
X119026247Y-102464286D01*
X119026247Y-102464286D02*
X118883390Y-102464286D01*
X118883390Y-102464286D02*
X118692914Y-102511905D01*
X118692914Y-102511905D02*
X118597676Y-102559524D01*
X118597676Y-102559524D02*
X118502438Y-102654762D01*
X118502438Y-102654762D02*
X118454819Y-102797619D01*
X118454819Y-102797619D02*
X118454819Y-102892857D01*
X118454819Y-102892857D02*
X118502438Y-103035714D01*
X118502438Y-103035714D02*
X118550057Y-103083333D01*
X119454819Y-104035714D02*
X119454819Y-103464286D01*
X119454819Y-103750000D02*
X118454819Y-103750000D01*
X118454819Y-103750000D02*
X118597676Y-103654762D01*
X118597676Y-103654762D02*
X118692914Y-103559524D01*
X118692914Y-103559524D02*
X118740533Y-103464286D01*
X124366666Y-117659580D02*
X124414285Y-117707200D01*
X124414285Y-117707200D02*
X124557142Y-117754819D01*
X124557142Y-117754819D02*
X124652380Y-117754819D01*
X124652380Y-117754819D02*
X124795237Y-117707200D01*
X124795237Y-117707200D02*
X124890475Y-117611961D01*
X124890475Y-117611961D02*
X124938094Y-117516723D01*
X124938094Y-117516723D02*
X124985713Y-117326247D01*
X124985713Y-117326247D02*
X124985713Y-117183390D01*
X124985713Y-117183390D02*
X124938094Y-116992914D01*
X124938094Y-116992914D02*
X124890475Y-116897676D01*
X124890475Y-116897676D02*
X124795237Y-116802438D01*
X124795237Y-116802438D02*
X124652380Y-116754819D01*
X124652380Y-116754819D02*
X124557142Y-116754819D01*
X124557142Y-116754819D02*
X124414285Y-116802438D01*
X124414285Y-116802438D02*
X124366666Y-116850057D01*
X123461904Y-116754819D02*
X123938094Y-116754819D01*
X123938094Y-116754819D02*
X123985713Y-117231009D01*
X123985713Y-117231009D02*
X123938094Y-117183390D01*
X123938094Y-117183390D02*
X123842856Y-117135771D01*
X123842856Y-117135771D02*
X123604761Y-117135771D01*
X123604761Y-117135771D02*
X123509523Y-117183390D01*
X123509523Y-117183390D02*
X123461904Y-117231009D01*
X123461904Y-117231009D02*
X123414285Y-117326247D01*
X123414285Y-117326247D02*
X123414285Y-117564342D01*
X123414285Y-117564342D02*
X123461904Y-117659580D01*
X123461904Y-117659580D02*
X123509523Y-117707200D01*
X123509523Y-117707200D02*
X123604761Y-117754819D01*
X123604761Y-117754819D02*
X123842856Y-117754819D01*
X123842856Y-117754819D02*
X123938094Y-117707200D01*
X123938094Y-117707200D02*
X123985713Y-117659580D01*
X122931009Y-107761904D02*
X122931009Y-107428571D01*
X123454819Y-107428571D02*
X122454819Y-107428571D01*
X122454819Y-107428571D02*
X122454819Y-107904761D01*
X123454819Y-108761904D02*
X123454819Y-108285714D01*
X123454819Y-108285714D02*
X122454819Y-108285714D01*
X123454819Y-109619047D02*
X123454819Y-109047619D01*
X123454819Y-109333333D02*
X122454819Y-109333333D01*
X122454819Y-109333333D02*
X122597676Y-109238095D01*
X122597676Y-109238095D02*
X122692914Y-109142857D01*
X122692914Y-109142857D02*
X122740533Y-109047619D01*
X125166666Y-122859580D02*
X125214285Y-122907200D01*
X125214285Y-122907200D02*
X125357142Y-122954819D01*
X125357142Y-122954819D02*
X125452380Y-122954819D01*
X125452380Y-122954819D02*
X125595237Y-122907200D01*
X125595237Y-122907200D02*
X125690475Y-122811961D01*
X125690475Y-122811961D02*
X125738094Y-122716723D01*
X125738094Y-122716723D02*
X125785713Y-122526247D01*
X125785713Y-122526247D02*
X125785713Y-122383390D01*
X125785713Y-122383390D02*
X125738094Y-122192914D01*
X125738094Y-122192914D02*
X125690475Y-122097676D01*
X125690475Y-122097676D02*
X125595237Y-122002438D01*
X125595237Y-122002438D02*
X125452380Y-121954819D01*
X125452380Y-121954819D02*
X125357142Y-121954819D01*
X125357142Y-121954819D02*
X125214285Y-122002438D01*
X125214285Y-122002438D02*
X125166666Y-122050057D01*
X124309523Y-121954819D02*
X124499999Y-121954819D01*
X124499999Y-121954819D02*
X124595237Y-122002438D01*
X124595237Y-122002438D02*
X124642856Y-122050057D01*
X124642856Y-122050057D02*
X124738094Y-122192914D01*
X124738094Y-122192914D02*
X124785713Y-122383390D01*
X124785713Y-122383390D02*
X124785713Y-122764342D01*
X124785713Y-122764342D02*
X124738094Y-122859580D01*
X124738094Y-122859580D02*
X124690475Y-122907200D01*
X124690475Y-122907200D02*
X124595237Y-122954819D01*
X124595237Y-122954819D02*
X124404761Y-122954819D01*
X124404761Y-122954819D02*
X124309523Y-122907200D01*
X124309523Y-122907200D02*
X124261904Y-122859580D01*
X124261904Y-122859580D02*
X124214285Y-122764342D01*
X124214285Y-122764342D02*
X124214285Y-122526247D01*
X124214285Y-122526247D02*
X124261904Y-122431009D01*
X124261904Y-122431009D02*
X124309523Y-122383390D01*
X124309523Y-122383390D02*
X124404761Y-122335771D01*
X124404761Y-122335771D02*
X124595237Y-122335771D01*
X124595237Y-122335771D02*
X124690475Y-122383390D01*
X124690475Y-122383390D02*
X124738094Y-122431009D01*
X124738094Y-122431009D02*
X124785713Y-122526247D01*
D11*
X128640000Y-104775001D02*
X128640000Y-106280001D01*
X128640000Y-104775001D02*
X134360000Y-104775001D01*
X128640000Y-118115001D02*
X128640000Y-116610001D01*
X134360000Y-104775001D02*
X134360000Y-106280001D01*
X134360000Y-116610001D02*
X134360000Y-118115001D01*
X134360000Y-118115001D02*
X128640000Y-118115001D01*
X129885000Y-118765001D02*
G75*
G02*
X129685000Y-118765001I-100000J0D01*
G01*
X129685000Y-118765001D02*
G75*
G02*
X129885000Y-118765001I100000J0D01*
G01*
D14*
X125085000Y-104021247D02*
X125085000Y-104543753D01*
X126555000Y-104021247D02*
X126555000Y-104543753D01*
X114511253Y-117515000D02*
X113988747Y-117515000D01*
X114511253Y-118985000D02*
X113988747Y-118985000D01*
X123765000Y-112772936D02*
X123765000Y-113227064D01*
X125235000Y-112772936D02*
X125235000Y-113227064D01*
X123084999Y-104543753D02*
X123084999Y-104021247D01*
X124554999Y-104543753D02*
X124554999Y-104021247D01*
X106950000Y-114740000D02*
X107600000Y-114739999D01*
X106950000Y-117860000D02*
X107600000Y-117860001D01*
X108250000Y-114740000D02*
X107600000Y-114739999D01*
X108250000Y-117860000D02*
X107600000Y-117860001D01*
X106677500Y-118139999D02*
X106197500Y-118140000D01*
X106437500Y-117810000D01*
X106677500Y-118139999D01*
G36*
X106677500Y-118139999D02*
G01*
X106197500Y-118140000D01*
X106437500Y-117810000D01*
X106677500Y-118139999D01*
G37*
X106700000Y-108640000D02*
X107350000Y-108639999D01*
X106700000Y-111760000D02*
X107350000Y-111760001D01*
X108000000Y-108640000D02*
X107350000Y-108639999D01*
X108000000Y-111760000D02*
X107350000Y-111760001D01*
X106427500Y-112039999D02*
X105947500Y-112040000D01*
X106187500Y-111710000D01*
X106427500Y-112039999D01*
G36*
X106427500Y-112039999D02*
G01*
X105947500Y-112040000D01*
X106187500Y-111710000D01*
X106427500Y-112039999D01*
G37*
X135265000Y-121077064D02*
X135265000Y-120622936D01*
X136735000Y-121077064D02*
X136735000Y-120622936D01*
X109846999Y-117017500D02*
X109847000Y-108397500D01*
X109846999Y-117017500D02*
X121568000Y-117017500D01*
X109847000Y-108397500D02*
X121567999Y-108397500D01*
X120568000Y-117257500D02*
X121808000Y-117257500D01*
X121568000Y-117017500D02*
X121567999Y-108397500D01*
X121808000Y-117257500D02*
X121808000Y-116017500D01*
X114477064Y-119515000D02*
X114022936Y-119515000D01*
X114477064Y-120985000D02*
X114022936Y-120985000D01*
D15*
X127837500Y-118800001D02*
X129837500Y-118800001D01*
X129837500Y-120640001D02*
X127837500Y-120640001D01*
D11*
X127087500Y-119300001D02*
G75*
G02*
X126887500Y-119300001I-100000J0D01*
G01*
X126887500Y-119300001D02*
G75*
G02*
X127087500Y-119300001I100000J0D01*
G01*
X135675000Y-104775001D02*
X135675000Y-106280001D01*
X135675000Y-104775001D02*
X141395000Y-104775001D01*
X135675000Y-118115001D02*
X135675000Y-116610001D01*
X141395000Y-104775001D02*
X141395000Y-106280001D01*
X141395000Y-116610001D02*
X141395000Y-118115001D01*
X141395000Y-118115001D02*
X135675000Y-118115001D01*
X136920001Y-118765002D02*
G75*
G02*
X136719999Y-118765002I-100001J0D01*
G01*
X136719999Y-118765002D02*
G75*
G02*
X136920001Y-118765002I100001J0D01*
G01*
D14*
X119515000Y-105738747D02*
X119515000Y-106261253D01*
X120985000Y-105738747D02*
X120985000Y-106261253D01*
X125223753Y-118044999D02*
X124701247Y-118044999D01*
X125223753Y-119514999D02*
X124701247Y-119514999D01*
D15*
X123899999Y-109332500D02*
X123899999Y-107332500D01*
X125739999Y-107332500D02*
X125739999Y-109332500D01*
D11*
X125339999Y-106482500D02*
G75*
G02*
X125139999Y-106482500I-100000J0D01*
G01*
X125139999Y-106482500D02*
G75*
G02*
X125339999Y-106482500I100000J0D01*
G01*
D14*
X124701247Y-120015000D02*
X125223753Y-120015000D01*
X124701247Y-121485000D02*
X125223753Y-121485000D01*
%LPC*%
D16*
X104110331Y-117040001D03*
D17*
X104110331Y-114270001D03*
X104110331Y-111500000D03*
X104110331Y-108730001D03*
X104110331Y-105960001D03*
X101570331Y-115655001D03*
X101570331Y-112885001D03*
D16*
X101570331Y-110115001D03*
D17*
X101570331Y-107345001D03*
D18*
X129785000Y-115890001D03*
X133215000Y-115890001D03*
X129785000Y-114620001D03*
X133215000Y-114620001D03*
X129785000Y-113350001D03*
X133215000Y-113350001D03*
X129785000Y-112080001D03*
X133215000Y-112080001D03*
X129785000Y-110810001D03*
X133215000Y-110810001D03*
X129785000Y-109540001D03*
X133215000Y-109540001D03*
X129785000Y-108270001D03*
X133215000Y-108270001D03*
X129785000Y-107000001D03*
X133215000Y-107000001D03*
D19*
X125820000Y-105320000D03*
X125820000Y-103245000D03*
D20*
X113212500Y-118250000D03*
X115287500Y-118250000D03*
D21*
X124500000Y-114000000D03*
X124500000Y-112000000D03*
D22*
X123819999Y-103245000D03*
X123819999Y-105320000D03*
D23*
X125975000Y-115874996D03*
D24*
X124825000Y-115874993D03*
D25*
X106662500Y-117250000D03*
X106662500Y-115350000D03*
X108537501Y-116300000D03*
D23*
X133225000Y-119775004D03*
D24*
X134375000Y-119775007D03*
D25*
X106412500Y-111150000D03*
X106412500Y-109250000D03*
X108287501Y-110200000D03*
D26*
X136000000Y-119850000D03*
X136000000Y-121850000D03*
D27*
X118197000Y-114957500D03*
D28*
X115657000Y-114957500D03*
D27*
X113117001Y-114957500D03*
D29*
X113250000Y-120250000D03*
X115250000Y-120250000D03*
D30*
X117875000Y-106000000D03*
X115125000Y-106000000D03*
D31*
X127987500Y-119320001D03*
X129687500Y-119320001D03*
X129687500Y-120120001D03*
X127987500Y-120120001D03*
D18*
X136820000Y-115890002D03*
X140250000Y-115890002D03*
X136820000Y-114620001D03*
X140250000Y-114620001D03*
X136819999Y-113350001D03*
X140250001Y-113350001D03*
X136820000Y-112080001D03*
X140250000Y-112080001D03*
X136820000Y-110810001D03*
X140250000Y-110810001D03*
X136819999Y-109540001D03*
X140250001Y-109540001D03*
X136820000Y-108270001D03*
X140250000Y-108270001D03*
X136820000Y-107000000D03*
X140250000Y-107000000D03*
D19*
X120250000Y-107037500D03*
X120250000Y-104962500D03*
D20*
X123925000Y-118779999D03*
X126000000Y-118779999D03*
D32*
X125219999Y-107482500D03*
X125219999Y-109182500D03*
X124419999Y-109182500D03*
X124419999Y-107482500D03*
D33*
X126000000Y-120750000D03*
X123925000Y-120750000D03*
%LPD*%
M02*
