G04 #@! TF.GenerationSoftware,KiCad,Pcbnew,8.0.9-8.0.9-0~ubuntu20.04.1*
G04 #@! TF.CreationDate,2025-08-07T15:34:15-05:00*
G04 #@! TF.ProjectId,PLATO_JUNCTION_BOARD,504c4154-4f5f-44a5-954e-4354494f4e5f,rev?*
G04 #@! TF.SameCoordinates,Original*
G04 #@! TF.FileFunction,Legend,Top*
G04 #@! TF.FilePolarity,Positive*
%FSLAX46Y46*%
G04 Gerber Fmt 4.6, Leading zero omitted, Abs format (unit mm)*
G04 Created by KiCad (PCBNEW 8.0.9-8.0.9-0~ubuntu20.04.1) date 2025-08-07 15:34:15*
%MOMM*%
%LPD*%
G01*
G04 APERTURE LIST*
G04 Aperture macros list*
%AMRoundRect*
0 Rectangle with rounded corners*
0 $1 Rounding radius*
0 $2 $3 $4 $5 $6 $7 $8 $9 X,Y pos of 4 corners*
0 Add a 4 corners polygon primitive as box body*
4,1,4,$2,$3,$4,$5,$6,$7,$8,$9,$2,$3,0*
0 Add four circle primitives for the rounded corners*
1,1,$1+$1,$2,$3*
1,1,$1+$1,$4,$5*
1,1,$1+$1,$6,$7*
1,1,$1+$1,$8,$9*
0 Add four rect primitives between the rounded corners*
20,1,$1+$1,$2,$3,$4,$5,0*
20,1,$1+$1,$4,$5,$6,$7,0*
20,1,$1+$1,$6,$7,$8,$9,0*
20,1,$1+$1,$8,$9,$2,$3,0*%
G04 Aperture macros list end*
%ADD10C,0.100000*%
%ADD11C,0.150000*%
%ADD12C,0.200000*%
%ADD13C,0.120000*%
%ADD14C,0.127000*%
%ADD15RoundRect,0.250000X-0.550000X0.550000X-0.550000X-0.550000X0.550000X-0.550000X0.550000X0.550000X0*%
%ADD16C,1.600000*%
%ADD17R,3.810000X4.240000*%
%ADD18RoundRect,0.249997X-2.950003X-2.650003X2.950003X-2.650003X2.950003X2.650003X-2.950003X2.650003X0*%
%ADD19RoundRect,0.250000X-0.850000X-0.350000X0.850000X-0.350000X0.850000X0.350000X-0.850000X0.350000X0*%
%ADD20RoundRect,0.250000X0.350000X0.450000X-0.350000X0.450000X-0.350000X-0.450000X0.350000X-0.450000X0*%
%ADD21RoundRect,0.125000X0.125000X0.125000X-0.125000X0.125000X-0.125000X-0.125000X0.125000X-0.125000X0*%
%ADD22RoundRect,0.102000X0.200000X0.750000X-0.200000X0.750000X-0.200000X-0.750000X0.200000X-0.750000X0*%
%ADD23RoundRect,0.102000X0.550000X0.750000X-0.550000X0.750000X-0.550000X-0.750000X0.550000X-0.750000X0*%
%ADD24RoundRect,0.250000X-1.500000X-0.900000X1.500000X-0.900000X1.500000X0.900000X-1.500000X0.900000X0*%
%ADD25O,1.500000X2.300000*%
%ADD26RoundRect,0.250000X0.500000X0.900000X-0.500000X0.900000X-0.500000X-0.900000X0.500000X-0.900000X0*%
G04 APERTURE END LIST*
D10*
X105600000Y-115800000D02*
X105600000Y-112900000D01*
X102990000Y-104810000D02*
X105190000Y-104810000D01*
X105190000Y-109780000D01*
X102990000Y-109780000D01*
X102990000Y-104810000D01*
X102150000Y-113790000D02*
X102150000Y-114095193D01*
X102860000Y-117900000D02*
X102860000Y-114500000D01*
X102860000Y-114500000D02*
X102150000Y-113790000D01*
X104130000Y-106970000D02*
X104130000Y-107620000D01*
X102150000Y-113790000D02*
X102455193Y-113790000D01*
X102860000Y-117900000D02*
X102200000Y-117900000D01*
X105100000Y-112400000D02*
X105100000Y-112700000D01*
X105100000Y-112400000D02*
X105400000Y-112400000D01*
X105600000Y-112900000D02*
X105100000Y-112400000D01*
X106200000Y-117900000D02*
X106200000Y-116400000D01*
X106200000Y-116400000D02*
X105600000Y-115800000D01*
G36*
X105755218Y-118061130D02*
G01*
X105791362Y-118097275D01*
X105832898Y-118180347D01*
X105877693Y-118359526D01*
X105877693Y-118585311D01*
X105832898Y-118764489D01*
X105791362Y-118847561D01*
X105755216Y-118883708D01*
X105677795Y-118922419D01*
X105606164Y-118922419D01*
X105528741Y-118883708D01*
X105492595Y-118847561D01*
X105451060Y-118764491D01*
X105406265Y-118585311D01*
X105406265Y-118359526D01*
X105451060Y-118180346D01*
X105492595Y-118097274D01*
X105528740Y-118061130D01*
X105606164Y-118022419D01*
X105677795Y-118022419D01*
X105755218Y-118061130D01*
G37*
G36*
X107088804Y-119133530D02*
G01*
X105195154Y-119133530D01*
X105195154Y-118353371D01*
X105306265Y-118353371D01*
X105306265Y-118591466D01*
X105307460Y-118597475D01*
X105307758Y-118603593D01*
X105355377Y-118794069D01*
X105357716Y-118799021D01*
X105359163Y-118804303D01*
X105406781Y-118899540D01*
X105411692Y-118905868D01*
X105416147Y-118912535D01*
X105463766Y-118960155D01*
X105470432Y-118964609D01*
X105476761Y-118969521D01*
X105571999Y-119017140D01*
X105574414Y-119017801D01*
X105575226Y-119018613D01*
X105583087Y-119020176D01*
X105590815Y-119022293D01*
X105591903Y-119021930D01*
X105594360Y-119022419D01*
X105689598Y-119022419D01*
X105692054Y-119021930D01*
X105693143Y-119022293D01*
X105700870Y-119020176D01*
X105708732Y-119018613D01*
X105709543Y-119017801D01*
X105711959Y-119017140D01*
X105807196Y-118969522D01*
X105813523Y-118964611D01*
X105820192Y-118960155D01*
X105867811Y-118912535D01*
X105872264Y-118905869D01*
X105877176Y-118899541D01*
X105924795Y-118804303D01*
X105926241Y-118799021D01*
X105928581Y-118794069D01*
X105976200Y-118603593D01*
X105976497Y-118597475D01*
X105977693Y-118591466D01*
X105977693Y-118353371D01*
X105976497Y-118347361D01*
X105976200Y-118341244D01*
X105928581Y-118150768D01*
X105926241Y-118145815D01*
X105924795Y-118140534D01*
X105877176Y-118045296D01*
X105872264Y-118038967D01*
X105867810Y-118032301D01*
X105820191Y-117984683D01*
X105813529Y-117980231D01*
X105807196Y-117975316D01*
X105801402Y-117972419D01*
X106306265Y-117972419D01*
X106306265Y-118972419D01*
X106310071Y-118991553D01*
X106337131Y-119018613D01*
X106375399Y-119018613D01*
X106402459Y-118991553D01*
X106406265Y-118972419D01*
X106406265Y-118498609D01*
X106877693Y-118498609D01*
X106877693Y-118972419D01*
X106881499Y-118991553D01*
X106908559Y-119018613D01*
X106946827Y-119018613D01*
X106973887Y-118991553D01*
X106977693Y-118972419D01*
X106977693Y-117972419D01*
X106973887Y-117953285D01*
X106946827Y-117926225D01*
X106908559Y-117926225D01*
X106881499Y-117953285D01*
X106877693Y-117972419D01*
X106877693Y-118398609D01*
X106406265Y-118398609D01*
X106406265Y-117972419D01*
X106402459Y-117953285D01*
X106375399Y-117926225D01*
X106337131Y-117926225D01*
X106310071Y-117953285D01*
X106306265Y-117972419D01*
X105801402Y-117972419D01*
X105711959Y-117927698D01*
X105709543Y-117927036D01*
X105708732Y-117926225D01*
X105700870Y-117924661D01*
X105693143Y-117922545D01*
X105692054Y-117922907D01*
X105689598Y-117922419D01*
X105594360Y-117922419D01*
X105591903Y-117922907D01*
X105590815Y-117922545D01*
X105583087Y-117924661D01*
X105575226Y-117926225D01*
X105574414Y-117927036D01*
X105571999Y-117927698D01*
X105476761Y-117975317D01*
X105470432Y-117980228D01*
X105463766Y-117984683D01*
X105416148Y-118032302D01*
X105411696Y-118038963D01*
X105406781Y-118045297D01*
X105359163Y-118140534D01*
X105357716Y-118145815D01*
X105355377Y-118150768D01*
X105307758Y-118341244D01*
X105307460Y-118347361D01*
X105306265Y-118353371D01*
X105195154Y-118353371D01*
X105195154Y-117811308D01*
X107088804Y-117811308D01*
X107088804Y-119133530D01*
G37*
G36*
X101055218Y-117861130D02*
G01*
X101091362Y-117897275D01*
X101132898Y-117980347D01*
X101177693Y-118159526D01*
X101177693Y-118385311D01*
X101132898Y-118564489D01*
X101091362Y-118647561D01*
X101055216Y-118683708D01*
X100977795Y-118722419D01*
X100906164Y-118722419D01*
X100828741Y-118683708D01*
X100792595Y-118647561D01*
X100751060Y-118564491D01*
X100706265Y-118385311D01*
X100706265Y-118159526D01*
X100751060Y-117980346D01*
X100792595Y-117897274D01*
X100828740Y-117861130D01*
X100906164Y-117822419D01*
X100977795Y-117822419D01*
X101055218Y-117861130D01*
G37*
G36*
X102289760Y-118933530D02*
G01*
X100495154Y-118933530D01*
X100495154Y-118153371D01*
X100606265Y-118153371D01*
X100606265Y-118391466D01*
X100607460Y-118397475D01*
X100607758Y-118403593D01*
X100655377Y-118594069D01*
X100657716Y-118599021D01*
X100659163Y-118604303D01*
X100706781Y-118699540D01*
X100711692Y-118705868D01*
X100716147Y-118712535D01*
X100763766Y-118760155D01*
X100770432Y-118764609D01*
X100776761Y-118769521D01*
X100871999Y-118817140D01*
X100874414Y-118817801D01*
X100875226Y-118818613D01*
X100883087Y-118820176D01*
X100890815Y-118822293D01*
X100891903Y-118821930D01*
X100894360Y-118822419D01*
X100989598Y-118822419D01*
X100992054Y-118821930D01*
X100993143Y-118822293D01*
X101000870Y-118820176D01*
X101008732Y-118818613D01*
X101009543Y-118817801D01*
X101011959Y-118817140D01*
X101107196Y-118769522D01*
X101113523Y-118764611D01*
X101120192Y-118760155D01*
X101167811Y-118712535D01*
X101172264Y-118705869D01*
X101177176Y-118699541D01*
X101224795Y-118604303D01*
X101226241Y-118599021D01*
X101228581Y-118594069D01*
X101276200Y-118403593D01*
X101276497Y-118397475D01*
X101277693Y-118391466D01*
X101277693Y-118153371D01*
X101276497Y-118147361D01*
X101276200Y-118141244D01*
X101228581Y-117950768D01*
X101226241Y-117945815D01*
X101224795Y-117940534D01*
X101177176Y-117845296D01*
X101172264Y-117838967D01*
X101167810Y-117832301D01*
X101120191Y-117784683D01*
X101113529Y-117780231D01*
X101107196Y-117775316D01*
X101101402Y-117772419D01*
X101606265Y-117772419D01*
X101606265Y-118772419D01*
X101610071Y-118791553D01*
X101637131Y-118818613D01*
X101656265Y-118822419D01*
X102132455Y-118822419D01*
X102151589Y-118818613D01*
X102178649Y-118791553D01*
X102178649Y-118753285D01*
X102151589Y-118726225D01*
X102132455Y-118722419D01*
X101706265Y-118722419D01*
X101706265Y-117772419D01*
X101702459Y-117753285D01*
X101675399Y-117726225D01*
X101637131Y-117726225D01*
X101610071Y-117753285D01*
X101606265Y-117772419D01*
X101101402Y-117772419D01*
X101011959Y-117727698D01*
X101009543Y-117727036D01*
X101008732Y-117726225D01*
X101000870Y-117724661D01*
X100993143Y-117722545D01*
X100992054Y-117722907D01*
X100989598Y-117722419D01*
X100894360Y-117722419D01*
X100891903Y-117722907D01*
X100890815Y-117722545D01*
X100883087Y-117724661D01*
X100875226Y-117726225D01*
X100874414Y-117727036D01*
X100871999Y-117727698D01*
X100776761Y-117775317D01*
X100770432Y-117780228D01*
X100763766Y-117784683D01*
X100716148Y-117832302D01*
X100711696Y-117838963D01*
X100706781Y-117845297D01*
X100659163Y-117940534D01*
X100657716Y-117945815D01*
X100655377Y-117950768D01*
X100607758Y-118141244D01*
X100607460Y-118147361D01*
X100606265Y-118153371D01*
X100495154Y-118153371D01*
X100495154Y-117611308D01*
X102289760Y-117611308D01*
X102289760Y-118933530D01*
G37*
D11*
X111430180Y-107260588D02*
X111430180Y-106689160D01*
X111430180Y-106974874D02*
X112430180Y-106974874D01*
X112430180Y-106974874D02*
X112287323Y-106879636D01*
X112287323Y-106879636D02*
X112192085Y-106784398D01*
X112192085Y-106784398D02*
X112144466Y-106689160D01*
X112334942Y-107641541D02*
X112382561Y-107689160D01*
X112382561Y-107689160D02*
X112430180Y-107784398D01*
X112430180Y-107784398D02*
X112430180Y-108022493D01*
X112430180Y-108022493D02*
X112382561Y-108117731D01*
X112382561Y-108117731D02*
X112334942Y-108165350D01*
X112334942Y-108165350D02*
X112239704Y-108212969D01*
X112239704Y-108212969D02*
X112144466Y-108212969D01*
X112144466Y-108212969D02*
X112001609Y-108165350D01*
X112001609Y-108165350D02*
X111430180Y-107593922D01*
X111430180Y-107593922D02*
X111430180Y-108212969D01*
X111811133Y-108641541D02*
X111811133Y-109403446D01*
X112334942Y-109832017D02*
X112382561Y-109879636D01*
X112382561Y-109879636D02*
X112430180Y-109974874D01*
X112430180Y-109974874D02*
X112430180Y-110212969D01*
X112430180Y-110212969D02*
X112382561Y-110308207D01*
X112382561Y-110308207D02*
X112334942Y-110355826D01*
X112334942Y-110355826D02*
X112239704Y-110403445D01*
X112239704Y-110403445D02*
X112144466Y-110403445D01*
X112144466Y-110403445D02*
X112001609Y-110355826D01*
X112001609Y-110355826D02*
X111430180Y-109784398D01*
X111430180Y-109784398D02*
X111430180Y-110403445D01*
X112430180Y-110736779D02*
X112430180Y-111403445D01*
X112430180Y-111403445D02*
X111430180Y-110974874D01*
X112430180Y-111641541D02*
X111430180Y-111974874D01*
X111430180Y-111974874D02*
X112430180Y-112308207D01*
X111430180Y-112641541D02*
X112430180Y-112641541D01*
X111430180Y-113117731D02*
X112430180Y-113117731D01*
X112430180Y-113117731D02*
X111430180Y-113689159D01*
X111430180Y-113689159D02*
X112430180Y-113689159D01*
G36*
X102940497Y-106055341D02*
G01*
X100808400Y-106055341D01*
X100808400Y-104879199D01*
X100919511Y-104879199D01*
X100922771Y-104893536D01*
X101256104Y-105893536D01*
X101262098Y-105906961D01*
X101265608Y-105911008D01*
X101268005Y-105915802D01*
X101275113Y-105921967D01*
X101281272Y-105929068D01*
X101286061Y-105931462D01*
X101290112Y-105934976D01*
X101299037Y-105937950D01*
X101307445Y-105942155D01*
X101312789Y-105942534D01*
X101317875Y-105944230D01*
X101327255Y-105943563D01*
X101336635Y-105944230D01*
X101341720Y-105942534D01*
X101347065Y-105942155D01*
X101355475Y-105937949D01*
X101364397Y-105934976D01*
X101368444Y-105931465D01*
X101373238Y-105929069D01*
X101379401Y-105921963D01*
X101386505Y-105915802D01*
X101388900Y-105911010D01*
X101392412Y-105906962D01*
X101398406Y-105893536D01*
X101538173Y-105474234D01*
X101920363Y-105474234D01*
X101920363Y-105503498D01*
X101931562Y-105530534D01*
X101952254Y-105551226D01*
X101979290Y-105562425D01*
X101993922Y-105563866D01*
X102299874Y-105563866D01*
X102299874Y-105869819D01*
X102301315Y-105884451D01*
X102312514Y-105911487D01*
X102333206Y-105932179D01*
X102360242Y-105943378D01*
X102389506Y-105943378D01*
X102416542Y-105932179D01*
X102437234Y-105911487D01*
X102448433Y-105884451D01*
X102449874Y-105869819D01*
X102449874Y-105563866D01*
X102755827Y-105563866D01*
X102770459Y-105562425D01*
X102797495Y-105551226D01*
X102818187Y-105530534D01*
X102829386Y-105503498D01*
X102829386Y-105474234D01*
X102818187Y-105447198D01*
X102797495Y-105426506D01*
X102770459Y-105415307D01*
X102755827Y-105413866D01*
X102449874Y-105413866D01*
X102449874Y-105107914D01*
X102448433Y-105093282D01*
X102437234Y-105066246D01*
X102416542Y-105045554D01*
X102389506Y-105034355D01*
X102360242Y-105034355D01*
X102333206Y-105045554D01*
X102312514Y-105066246D01*
X102301315Y-105093282D01*
X102299874Y-105107914D01*
X102299874Y-105413866D01*
X101993922Y-105413866D01*
X101979290Y-105415307D01*
X101952254Y-105426506D01*
X101931562Y-105447198D01*
X101920363Y-105474234D01*
X101538173Y-105474234D01*
X101731739Y-104893536D01*
X101734999Y-104879200D01*
X101732924Y-104850010D01*
X101719838Y-104823836D01*
X101697730Y-104804662D01*
X101669968Y-104795408D01*
X101640778Y-104797483D01*
X101614605Y-104810570D01*
X101595431Y-104832677D01*
X101589437Y-104846102D01*
X101327255Y-105632648D01*
X101065073Y-104846102D01*
X101059079Y-104832676D01*
X101039905Y-104810569D01*
X101013732Y-104797483D01*
X100984542Y-104795408D01*
X100956779Y-104804662D01*
X100934672Y-104823836D01*
X100921586Y-104850009D01*
X100919511Y-104879199D01*
X100808400Y-104879199D01*
X100808400Y-104684297D01*
X102940497Y-104684297D01*
X102940497Y-106055341D01*
G37*
D12*
X128785714Y-116665314D02*
X130214286Y-116665314D01*
X128500000Y-117522457D02*
X129500000Y-114522457D01*
X129500000Y-114522457D02*
X130500000Y-117522457D01*
X133214286Y-117522457D02*
X132214286Y-116093885D01*
X131500000Y-117522457D02*
X131500000Y-114522457D01*
X131500000Y-114522457D02*
X132642857Y-114522457D01*
X132642857Y-114522457D02*
X132928572Y-114665314D01*
X132928572Y-114665314D02*
X133071429Y-114808171D01*
X133071429Y-114808171D02*
X133214286Y-115093885D01*
X133214286Y-115093885D02*
X133214286Y-115522457D01*
X133214286Y-115522457D02*
X133071429Y-115808171D01*
X133071429Y-115808171D02*
X132928572Y-115951028D01*
X132928572Y-115951028D02*
X132642857Y-116093885D01*
X132642857Y-116093885D02*
X131500000Y-116093885D01*
X134500000Y-117522457D02*
X134500000Y-114522457D01*
X135785714Y-117379600D02*
X136214286Y-117522457D01*
X136214286Y-117522457D02*
X136928571Y-117522457D01*
X136928571Y-117522457D02*
X137214286Y-117379600D01*
X137214286Y-117379600D02*
X137357143Y-117236742D01*
X137357143Y-117236742D02*
X137500000Y-116951028D01*
X137500000Y-116951028D02*
X137500000Y-116665314D01*
X137500000Y-116665314D02*
X137357143Y-116379600D01*
X137357143Y-116379600D02*
X137214286Y-116236742D01*
X137214286Y-116236742D02*
X136928571Y-116093885D01*
X136928571Y-116093885D02*
X136357143Y-115951028D01*
X136357143Y-115951028D02*
X136071428Y-115808171D01*
X136071428Y-115808171D02*
X135928571Y-115665314D01*
X135928571Y-115665314D02*
X135785714Y-115379600D01*
X135785714Y-115379600D02*
X135785714Y-115093885D01*
X135785714Y-115093885D02*
X135928571Y-114808171D01*
X135928571Y-114808171D02*
X136071428Y-114665314D01*
X136071428Y-114665314D02*
X136357143Y-114522457D01*
X136357143Y-114522457D02*
X137071428Y-114522457D01*
X137071428Y-114522457D02*
X137500000Y-114665314D01*
X138357143Y-114522457D02*
X140071429Y-114522457D01*
X139214286Y-117522457D02*
X139214286Y-114522457D01*
X141642857Y-114522457D02*
X142214285Y-114522457D01*
X142214285Y-114522457D02*
X142500000Y-114665314D01*
X142500000Y-114665314D02*
X142785714Y-114951028D01*
X142785714Y-114951028D02*
X142928571Y-115522457D01*
X142928571Y-115522457D02*
X142928571Y-116522457D01*
X142928571Y-116522457D02*
X142785714Y-117093885D01*
X142785714Y-117093885D02*
X142500000Y-117379600D01*
X142500000Y-117379600D02*
X142214285Y-117522457D01*
X142214285Y-117522457D02*
X141642857Y-117522457D01*
X141642857Y-117522457D02*
X141357143Y-117379600D01*
X141357143Y-117379600D02*
X141071428Y-117093885D01*
X141071428Y-117093885D02*
X140928571Y-116522457D01*
X140928571Y-116522457D02*
X140928571Y-115522457D01*
X140928571Y-115522457D02*
X141071428Y-114951028D01*
X141071428Y-114951028D02*
X141357143Y-114665314D01*
X141357143Y-114665314D02*
X141642857Y-114522457D01*
X114272054Y-109001504D02*
X114748244Y-109001504D01*
X114176816Y-109287219D02*
X114510149Y-108287219D01*
X114510149Y-108287219D02*
X114843482Y-109287219D01*
X115748244Y-109287219D02*
X115414911Y-108811028D01*
X115176816Y-109287219D02*
X115176816Y-108287219D01*
X115176816Y-108287219D02*
X115557768Y-108287219D01*
X115557768Y-108287219D02*
X115653006Y-108334838D01*
X115653006Y-108334838D02*
X115700625Y-108382457D01*
X115700625Y-108382457D02*
X115748244Y-108477695D01*
X115748244Y-108477695D02*
X115748244Y-108620552D01*
X115748244Y-108620552D02*
X115700625Y-108715790D01*
X115700625Y-108715790D02*
X115653006Y-108763409D01*
X115653006Y-108763409D02*
X115557768Y-108811028D01*
X115557768Y-108811028D02*
X115176816Y-108811028D01*
X116176816Y-109287219D02*
X116176816Y-108287219D01*
X116605387Y-109239600D02*
X116748244Y-109287219D01*
X116748244Y-109287219D02*
X116986339Y-109287219D01*
X116986339Y-109287219D02*
X117081577Y-109239600D01*
X117081577Y-109239600D02*
X117129196Y-109191980D01*
X117129196Y-109191980D02*
X117176815Y-109096742D01*
X117176815Y-109096742D02*
X117176815Y-109001504D01*
X117176815Y-109001504D02*
X117129196Y-108906266D01*
X117129196Y-108906266D02*
X117081577Y-108858647D01*
X117081577Y-108858647D02*
X116986339Y-108811028D01*
X116986339Y-108811028D02*
X116795863Y-108763409D01*
X116795863Y-108763409D02*
X116700625Y-108715790D01*
X116700625Y-108715790D02*
X116653006Y-108668171D01*
X116653006Y-108668171D02*
X116605387Y-108572933D01*
X116605387Y-108572933D02*
X116605387Y-108477695D01*
X116605387Y-108477695D02*
X116653006Y-108382457D01*
X116653006Y-108382457D02*
X116700625Y-108334838D01*
X116700625Y-108334838D02*
X116795863Y-108287219D01*
X116795863Y-108287219D02*
X117033958Y-108287219D01*
X117033958Y-108287219D02*
X117176815Y-108334838D01*
X117462530Y-108287219D02*
X118033958Y-108287219D01*
X117748244Y-109287219D02*
X117748244Y-108287219D01*
X118557768Y-108287219D02*
X118748244Y-108287219D01*
X118748244Y-108287219D02*
X118843482Y-108334838D01*
X118843482Y-108334838D02*
X118938720Y-108430076D01*
X118938720Y-108430076D02*
X118986339Y-108620552D01*
X118986339Y-108620552D02*
X118986339Y-108953885D01*
X118986339Y-108953885D02*
X118938720Y-109144361D01*
X118938720Y-109144361D02*
X118843482Y-109239600D01*
X118843482Y-109239600D02*
X118748244Y-109287219D01*
X118748244Y-109287219D02*
X118557768Y-109287219D01*
X118557768Y-109287219D02*
X118462530Y-109239600D01*
X118462530Y-109239600D02*
X118367292Y-109144361D01*
X118367292Y-109144361D02*
X118319673Y-108953885D01*
X118319673Y-108953885D02*
X118319673Y-108620552D01*
X118319673Y-108620552D02*
X118367292Y-108430076D01*
X118367292Y-108430076D02*
X118462530Y-108334838D01*
X118462530Y-108334838D02*
X118557768Y-108287219D01*
X114891101Y-110801924D02*
X114843482Y-110849544D01*
X114843482Y-110849544D02*
X114700625Y-110897163D01*
X114700625Y-110897163D02*
X114605387Y-110897163D01*
X114605387Y-110897163D02*
X114462530Y-110849544D01*
X114462530Y-110849544D02*
X114367292Y-110754305D01*
X114367292Y-110754305D02*
X114319673Y-110659067D01*
X114319673Y-110659067D02*
X114272054Y-110468591D01*
X114272054Y-110468591D02*
X114272054Y-110325734D01*
X114272054Y-110325734D02*
X114319673Y-110135258D01*
X114319673Y-110135258D02*
X114367292Y-110040020D01*
X114367292Y-110040020D02*
X114462530Y-109944782D01*
X114462530Y-109944782D02*
X114605387Y-109897163D01*
X114605387Y-109897163D02*
X114700625Y-109897163D01*
X114700625Y-109897163D02*
X114843482Y-109944782D01*
X114843482Y-109944782D02*
X114891101Y-109992401D01*
X115272054Y-110611448D02*
X115748244Y-110611448D01*
X115176816Y-110897163D02*
X115510149Y-109897163D01*
X115510149Y-109897163D02*
X115843482Y-110897163D01*
X116176816Y-110897163D02*
X116176816Y-109897163D01*
X116176816Y-109897163D02*
X116748244Y-110897163D01*
X116748244Y-110897163D02*
X116748244Y-109897163D01*
X117938720Y-109849544D02*
X117081578Y-111135258D01*
X118272054Y-110897163D02*
X118272054Y-109897163D01*
X118272054Y-109897163D02*
X118653006Y-109897163D01*
X118653006Y-109897163D02*
X118748244Y-109944782D01*
X118748244Y-109944782D02*
X118795863Y-109992401D01*
X118795863Y-109992401D02*
X118843482Y-110087639D01*
X118843482Y-110087639D02*
X118843482Y-110230496D01*
X118843482Y-110230496D02*
X118795863Y-110325734D01*
X118795863Y-110325734D02*
X118748244Y-110373353D01*
X118748244Y-110373353D02*
X118653006Y-110420972D01*
X118653006Y-110420972D02*
X118272054Y-110420972D01*
X119176816Y-109897163D02*
X119414911Y-110897163D01*
X119414911Y-110897163D02*
X119605387Y-110182877D01*
X119605387Y-110182877D02*
X119795863Y-110897163D01*
X119795863Y-110897163D02*
X120033959Y-109897163D01*
X120986339Y-110897163D02*
X120653006Y-110420972D01*
X120414911Y-110897163D02*
X120414911Y-109897163D01*
X120414911Y-109897163D02*
X120795863Y-109897163D01*
X120795863Y-109897163D02*
X120891101Y-109944782D01*
X120891101Y-109944782D02*
X120938720Y-109992401D01*
X120938720Y-109992401D02*
X120986339Y-110087639D01*
X120986339Y-110087639D02*
X120986339Y-110230496D01*
X120986339Y-110230496D02*
X120938720Y-110325734D01*
X120938720Y-110325734D02*
X120891101Y-110373353D01*
X120891101Y-110373353D02*
X120795863Y-110420972D01*
X120795863Y-110420972D02*
X120414911Y-110420972D01*
X114653006Y-111983297D02*
X114795863Y-112030916D01*
X114795863Y-112030916D02*
X114843482Y-112078535D01*
X114843482Y-112078535D02*
X114891101Y-112173773D01*
X114891101Y-112173773D02*
X114891101Y-112316630D01*
X114891101Y-112316630D02*
X114843482Y-112411868D01*
X114843482Y-112411868D02*
X114795863Y-112459488D01*
X114795863Y-112459488D02*
X114700625Y-112507107D01*
X114700625Y-112507107D02*
X114319673Y-112507107D01*
X114319673Y-112507107D02*
X114319673Y-111507107D01*
X114319673Y-111507107D02*
X114653006Y-111507107D01*
X114653006Y-111507107D02*
X114748244Y-111554726D01*
X114748244Y-111554726D02*
X114795863Y-111602345D01*
X114795863Y-111602345D02*
X114843482Y-111697583D01*
X114843482Y-111697583D02*
X114843482Y-111792821D01*
X114843482Y-111792821D02*
X114795863Y-111888059D01*
X114795863Y-111888059D02*
X114748244Y-111935678D01*
X114748244Y-111935678D02*
X114653006Y-111983297D01*
X114653006Y-111983297D02*
X114319673Y-111983297D01*
X115510149Y-111507107D02*
X115700625Y-111507107D01*
X115700625Y-111507107D02*
X115795863Y-111554726D01*
X115795863Y-111554726D02*
X115891101Y-111649964D01*
X115891101Y-111649964D02*
X115938720Y-111840440D01*
X115938720Y-111840440D02*
X115938720Y-112173773D01*
X115938720Y-112173773D02*
X115891101Y-112364249D01*
X115891101Y-112364249D02*
X115795863Y-112459488D01*
X115795863Y-112459488D02*
X115700625Y-112507107D01*
X115700625Y-112507107D02*
X115510149Y-112507107D01*
X115510149Y-112507107D02*
X115414911Y-112459488D01*
X115414911Y-112459488D02*
X115319673Y-112364249D01*
X115319673Y-112364249D02*
X115272054Y-112173773D01*
X115272054Y-112173773D02*
X115272054Y-111840440D01*
X115272054Y-111840440D02*
X115319673Y-111649964D01*
X115319673Y-111649964D02*
X115414911Y-111554726D01*
X115414911Y-111554726D02*
X115510149Y-111507107D01*
X116319673Y-112221392D02*
X116795863Y-112221392D01*
X116224435Y-112507107D02*
X116557768Y-111507107D01*
X116557768Y-111507107D02*
X116891101Y-112507107D01*
X117795863Y-112507107D02*
X117462530Y-112030916D01*
X117224435Y-112507107D02*
X117224435Y-111507107D01*
X117224435Y-111507107D02*
X117605387Y-111507107D01*
X117605387Y-111507107D02*
X117700625Y-111554726D01*
X117700625Y-111554726D02*
X117748244Y-111602345D01*
X117748244Y-111602345D02*
X117795863Y-111697583D01*
X117795863Y-111697583D02*
X117795863Y-111840440D01*
X117795863Y-111840440D02*
X117748244Y-111935678D01*
X117748244Y-111935678D02*
X117700625Y-111983297D01*
X117700625Y-111983297D02*
X117605387Y-112030916D01*
X117605387Y-112030916D02*
X117224435Y-112030916D01*
X118224435Y-112507107D02*
X118224435Y-111507107D01*
X118224435Y-111507107D02*
X118462530Y-111507107D01*
X118462530Y-111507107D02*
X118605387Y-111554726D01*
X118605387Y-111554726D02*
X118700625Y-111649964D01*
X118700625Y-111649964D02*
X118748244Y-111745202D01*
X118748244Y-111745202D02*
X118795863Y-111935678D01*
X118795863Y-111935678D02*
X118795863Y-112078535D01*
X118795863Y-112078535D02*
X118748244Y-112269011D01*
X118748244Y-112269011D02*
X118700625Y-112364249D01*
X118700625Y-112364249D02*
X118605387Y-112459488D01*
X118605387Y-112459488D02*
X118462530Y-112507107D01*
X118462530Y-112507107D02*
X118224435Y-112507107D01*
X119843483Y-111507107D02*
X120176816Y-112507107D01*
X120176816Y-112507107D02*
X120510149Y-111507107D01*
X121367292Y-112507107D02*
X120795864Y-112507107D01*
X121081578Y-112507107D02*
X121081578Y-111507107D01*
X121081578Y-111507107D02*
X120986340Y-111649964D01*
X120986340Y-111649964D02*
X120891102Y-111745202D01*
X120891102Y-111745202D02*
X120795864Y-111792821D01*
D10*
X113200000Y-107500000D02*
X123200000Y-107500000D01*
X123200000Y-113300000D01*
X113200000Y-113300000D01*
X113200000Y-107500000D01*
D11*
X109968990Y-109966666D02*
X109968990Y-109633333D01*
X109445180Y-109633333D02*
X110445180Y-109633333D01*
X110445180Y-109633333D02*
X110445180Y-110109523D01*
X109445180Y-111014285D02*
X109445180Y-110442857D01*
X109445180Y-110728571D02*
X110445180Y-110728571D01*
X110445180Y-110728571D02*
X110302323Y-110633333D01*
X110302323Y-110633333D02*
X110207085Y-110538095D01*
X110207085Y-110538095D02*
X110159466Y-110442857D01*
X120101905Y-115527318D02*
X120101905Y-114527318D01*
X120101905Y-114527318D02*
X120340000Y-114527318D01*
X120340000Y-114527318D02*
X120482857Y-114574937D01*
X120482857Y-114574937D02*
X120578095Y-114670175D01*
X120578095Y-114670175D02*
X120625714Y-114765413D01*
X120625714Y-114765413D02*
X120673333Y-114955889D01*
X120673333Y-114955889D02*
X120673333Y-115098746D01*
X120673333Y-115098746D02*
X120625714Y-115289222D01*
X120625714Y-115289222D02*
X120578095Y-115384460D01*
X120578095Y-115384460D02*
X120482857Y-115479699D01*
X120482857Y-115479699D02*
X120340000Y-115527318D01*
X120340000Y-115527318D02*
X120101905Y-115527318D01*
X121006667Y-114527318D02*
X121625714Y-114527318D01*
X121625714Y-114527318D02*
X121292381Y-114908270D01*
X121292381Y-114908270D02*
X121435238Y-114908270D01*
X121435238Y-114908270D02*
X121530476Y-114955889D01*
X121530476Y-114955889D02*
X121578095Y-115003508D01*
X121578095Y-115003508D02*
X121625714Y-115098746D01*
X121625714Y-115098746D02*
X121625714Y-115336841D01*
X121625714Y-115336841D02*
X121578095Y-115432079D01*
X121578095Y-115432079D02*
X121530476Y-115479699D01*
X121530476Y-115479699D02*
X121435238Y-115527318D01*
X121435238Y-115527318D02*
X121149524Y-115527318D01*
X121149524Y-115527318D02*
X121054286Y-115479699D01*
X121054286Y-115479699D02*
X121006667Y-115432079D01*
X106083333Y-121454819D02*
X105750000Y-120978628D01*
X105511905Y-121454819D02*
X105511905Y-120454819D01*
X105511905Y-120454819D02*
X105892857Y-120454819D01*
X105892857Y-120454819D02*
X105988095Y-120502438D01*
X105988095Y-120502438D02*
X106035714Y-120550057D01*
X106035714Y-120550057D02*
X106083333Y-120645295D01*
X106083333Y-120645295D02*
X106083333Y-120788152D01*
X106083333Y-120788152D02*
X106035714Y-120883390D01*
X106035714Y-120883390D02*
X105988095Y-120931009D01*
X105988095Y-120931009D02*
X105892857Y-120978628D01*
X105892857Y-120978628D02*
X105511905Y-120978628D01*
X107035714Y-121454819D02*
X106464286Y-121454819D01*
X106750000Y-121454819D02*
X106750000Y-120454819D01*
X106750000Y-120454819D02*
X106654762Y-120597676D01*
X106654762Y-120597676D02*
X106559524Y-120692914D01*
X106559524Y-120692914D02*
X106464286Y-120740533D01*
X111761905Y-121304819D02*
X111761905Y-120304819D01*
X111761905Y-120304819D02*
X112000000Y-120304819D01*
X112000000Y-120304819D02*
X112142857Y-120352438D01*
X112142857Y-120352438D02*
X112238095Y-120447676D01*
X112238095Y-120447676D02*
X112285714Y-120542914D01*
X112285714Y-120542914D02*
X112333333Y-120733390D01*
X112333333Y-120733390D02*
X112333333Y-120876247D01*
X112333333Y-120876247D02*
X112285714Y-121066723D01*
X112285714Y-121066723D02*
X112238095Y-121161961D01*
X112238095Y-121161961D02*
X112142857Y-121257200D01*
X112142857Y-121257200D02*
X112000000Y-121304819D01*
X112000000Y-121304819D02*
X111761905Y-121304819D01*
X112714286Y-120400057D02*
X112761905Y-120352438D01*
X112761905Y-120352438D02*
X112857143Y-120304819D01*
X112857143Y-120304819D02*
X113095238Y-120304819D01*
X113095238Y-120304819D02*
X113190476Y-120352438D01*
X113190476Y-120352438D02*
X113238095Y-120400057D01*
X113238095Y-120400057D02*
X113285714Y-120495295D01*
X113285714Y-120495295D02*
X113285714Y-120590533D01*
X113285714Y-120590533D02*
X113238095Y-120733390D01*
X113238095Y-120733390D02*
X112666667Y-121304819D01*
X112666667Y-121304819D02*
X113285714Y-121304819D01*
X140035714Y-110181009D02*
X139702381Y-110181009D01*
X139702381Y-110704819D02*
X139702381Y-109704819D01*
X139702381Y-109704819D02*
X140178571Y-109704819D01*
X140416667Y-109704819D02*
X140988095Y-109704819D01*
X140702381Y-110704819D02*
X140702381Y-109704819D01*
X141226191Y-109704819D02*
X141845238Y-109704819D01*
X141845238Y-109704819D02*
X141511905Y-110085771D01*
X141511905Y-110085771D02*
X141654762Y-110085771D01*
X141654762Y-110085771D02*
X141750000Y-110133390D01*
X141750000Y-110133390D02*
X141797619Y-110181009D01*
X141797619Y-110181009D02*
X141845238Y-110276247D01*
X141845238Y-110276247D02*
X141845238Y-110514342D01*
X141845238Y-110514342D02*
X141797619Y-110609580D01*
X141797619Y-110609580D02*
X141750000Y-110657200D01*
X141750000Y-110657200D02*
X141654762Y-110704819D01*
X141654762Y-110704819D02*
X141369048Y-110704819D01*
X141369048Y-110704819D02*
X141273810Y-110657200D01*
X141273810Y-110657200D02*
X141226191Y-110609580D01*
X138285714Y-99931009D02*
X137952381Y-99931009D01*
X137952381Y-100454819D02*
X137952381Y-99454819D01*
X137952381Y-99454819D02*
X138428571Y-99454819D01*
X138666667Y-99454819D02*
X139238095Y-99454819D01*
X138952381Y-100454819D02*
X138952381Y-99454819D01*
X139523810Y-99550057D02*
X139571429Y-99502438D01*
X139571429Y-99502438D02*
X139666667Y-99454819D01*
X139666667Y-99454819D02*
X139904762Y-99454819D01*
X139904762Y-99454819D02*
X140000000Y-99502438D01*
X140000000Y-99502438D02*
X140047619Y-99550057D01*
X140047619Y-99550057D02*
X140095238Y-99645295D01*
X140095238Y-99645295D02*
X140095238Y-99740533D01*
X140095238Y-99740533D02*
X140047619Y-99883390D01*
X140047619Y-99883390D02*
X139476191Y-100454819D01*
X139476191Y-100454819D02*
X140095238Y-100454819D01*
X115285714Y-99931009D02*
X114952381Y-99931009D01*
X114952381Y-100454819D02*
X114952381Y-99454819D01*
X114952381Y-99454819D02*
X115428571Y-99454819D01*
X115666667Y-99454819D02*
X116238095Y-99454819D01*
X115952381Y-100454819D02*
X115952381Y-99454819D01*
X117095238Y-100454819D02*
X116523810Y-100454819D01*
X116809524Y-100454819D02*
X116809524Y-99454819D01*
X116809524Y-99454819D02*
X116714286Y-99597676D01*
X116714286Y-99597676D02*
X116619048Y-99692914D01*
X116619048Y-99692914D02*
X116523810Y-99740533D01*
X106161905Y-100054819D02*
X106161905Y-99054819D01*
X106161905Y-99054819D02*
X106400000Y-99054819D01*
X106400000Y-99054819D02*
X106542857Y-99102438D01*
X106542857Y-99102438D02*
X106638095Y-99197676D01*
X106638095Y-99197676D02*
X106685714Y-99292914D01*
X106685714Y-99292914D02*
X106733333Y-99483390D01*
X106733333Y-99483390D02*
X106733333Y-99626247D01*
X106733333Y-99626247D02*
X106685714Y-99816723D01*
X106685714Y-99816723D02*
X106638095Y-99911961D01*
X106638095Y-99911961D02*
X106542857Y-100007200D01*
X106542857Y-100007200D02*
X106400000Y-100054819D01*
X106400000Y-100054819D02*
X106161905Y-100054819D01*
X107685714Y-100054819D02*
X107114286Y-100054819D01*
X107400000Y-100054819D02*
X107400000Y-99054819D01*
X107400000Y-99054819D02*
X107304762Y-99197676D01*
X107304762Y-99197676D02*
X107209524Y-99292914D01*
X107209524Y-99292914D02*
X107114286Y-99340533D01*
D13*
X105431656Y-117040001D02*
X105864669Y-116790001D01*
X105864669Y-116790001D02*
X105864669Y-117290001D01*
X105864669Y-117290001D02*
X105431656Y-117040001D01*
X110825000Y-105325000D02*
X110365000Y-105325000D01*
X110825000Y-105325000D02*
X110825000Y-115275000D01*
X110825000Y-115275000D02*
X110365000Y-115275000D01*
X117530000Y-116122500D02*
X117530000Y-116392500D01*
X117530000Y-123022500D02*
X117530000Y-122752500D01*
X123950000Y-116122501D02*
X117530000Y-116122500D01*
X123950000Y-123022499D02*
X117530000Y-123022500D01*
X116270001Y-118822500D02*
X115590000Y-118822500D01*
X115930001Y-118352500D01*
X116270001Y-118822500D01*
G36*
X116270001Y-118822500D02*
G01*
X115590000Y-118822500D01*
X115930001Y-118352500D01*
X116270001Y-118822500D01*
G37*
X109227064Y-120265000D02*
X108772936Y-120265000D01*
X109227064Y-121735000D02*
X108772936Y-121735000D01*
X114110000Y-118400000D02*
X111450000Y-118400000D01*
X114110000Y-120100000D02*
X111450000Y-120100000D01*
X114110000Y-120100000D02*
X114110000Y-118400000D01*
D14*
X128199999Y-107585000D02*
X128199999Y-110675000D01*
X128199999Y-110675000D02*
X129880000Y-110675000D01*
X129880000Y-107585000D02*
X128199999Y-107585000D01*
X137620000Y-110675000D02*
X139300001Y-110675000D01*
X139300001Y-107585000D02*
X137620000Y-107585000D01*
X139300001Y-110675000D02*
X139300001Y-107585000D01*
D12*
X132100000Y-112279999D02*
G75*
G02*
X131900000Y-112279999I-100000J0D01*
G01*
X131900000Y-112279999D02*
G75*
G02*
X132100000Y-112279999I100000J0D01*
G01*
D14*
X128200000Y-100985000D02*
X128200000Y-104075000D01*
X128200000Y-104075000D02*
X129880000Y-104075000D01*
X129880000Y-100985000D02*
X128200000Y-100985000D01*
X137620000Y-104075000D02*
X139300000Y-104075000D01*
X139300000Y-100985000D02*
X137620000Y-100985000D01*
X139300000Y-104075000D02*
X139300000Y-100985000D01*
D12*
X132100000Y-105680000D02*
G75*
G02*
X131900000Y-105680000I-100000J0D01*
G01*
X131900000Y-105680000D02*
G75*
G02*
X132100000Y-105680000I100000J0D01*
G01*
D14*
X116450000Y-100985000D02*
X116450000Y-104075000D01*
X116450000Y-104075000D02*
X118130000Y-104075000D01*
X118130000Y-100985000D02*
X116450000Y-100985000D01*
X125870000Y-104075000D02*
X127550000Y-104075000D01*
X127550000Y-100985000D02*
X125870000Y-100985000D01*
X127550000Y-104075000D02*
X127550000Y-100985000D01*
D12*
X120350000Y-105680000D02*
G75*
G02*
X120150000Y-105680000I-100000J0D01*
G01*
X120150000Y-105680000D02*
G75*
G02*
X120350000Y-105680000I100000J0D01*
G01*
D13*
X105290000Y-100350000D02*
X105290000Y-104650000D01*
X105290000Y-100350000D02*
X112700000Y-100350000D01*
X105290000Y-104650000D02*
X112700000Y-104650000D01*
%LPC*%
D15*
X104110331Y-117040001D03*
D16*
X104110331Y-114270001D03*
X104110331Y-111500000D03*
X104110331Y-108730001D03*
X104110331Y-105960001D03*
X101570331Y-115655001D03*
X101570331Y-112885001D03*
D15*
X101570331Y-110115001D03*
D16*
X101570331Y-107345001D03*
D17*
X108200000Y-107115000D03*
X108200000Y-113485000D03*
D18*
X122100001Y-119572500D03*
D19*
X115800000Y-121852500D03*
X115800000Y-117292500D03*
D20*
X110000000Y-121000000D03*
X108000000Y-121000000D03*
D21*
X113599999Y-119250000D03*
X111400001Y-119250000D03*
D22*
X132000000Y-110900000D03*
X132500001Y-108100000D03*
X133000000Y-110900000D03*
X133500000Y-108100000D03*
X134000000Y-110900000D03*
X134500000Y-108100000D03*
X134999999Y-110900000D03*
X135500000Y-108100000D03*
D23*
X130750000Y-110900000D03*
X130750000Y-108100000D03*
X136750000Y-110900000D03*
X136750000Y-108100000D03*
D22*
X132000000Y-104300000D03*
X132500000Y-101500000D03*
X133000000Y-104300000D03*
X133500000Y-101500000D03*
X134000000Y-104300000D03*
X134500000Y-101500000D03*
X135000000Y-104300000D03*
X135500000Y-101500000D03*
D23*
X130750000Y-104300000D03*
X130750000Y-101500000D03*
X136750000Y-104300000D03*
X136750000Y-101500000D03*
D22*
X120250000Y-104300000D03*
X120750000Y-101500000D03*
X121250000Y-104300000D03*
X121750000Y-101500000D03*
X122250000Y-104300000D03*
X122750000Y-101500000D03*
X123250000Y-104300000D03*
X123750000Y-101500000D03*
D23*
X119000000Y-104300000D03*
X119000000Y-101500000D03*
X125000000Y-104300000D03*
X125000000Y-101500000D03*
D24*
X107300000Y-102500000D03*
X112700000Y-102500000D03*
D25*
X118197000Y-114957500D03*
D26*
X115657000Y-114957500D03*
D25*
X113117001Y-114957500D03*
%LPD*%
M02*
