G04 #@! TF.GenerationSoftware,KiCad,Pcbnew,8.0.9-8.0.9-0~ubuntu20.04.1*
G04 #@! TF.CreationDate,2025-08-07T15:34:14-05:00*
G04 #@! TF.ProjectId,PLATO_JUNCTION_BOARD,504c4154-4f5f-44a5-954e-4354494f4e5f,rev?*
G04 #@! TF.SameCoordinates,Original*
G04 #@! TF.FileFunction,Copper,L1,Top*
G04 #@! TF.FilePolarity,Positive*
%FSLAX46Y46*%
G04 Gerber Fmt 4.6, Leading zero omitted, Abs format (unit mm)*
G04 Created by KiCad (PCBNEW 8.0.9-8.0.9-0~ubuntu20.04.1) date 2025-08-07 15:34:14*
%MOMM*%
%LPD*%
G01*
G04 APERTURE LIST*
G04 Aperture macros list*
%AMRoundRect*
0 Rectangle with rounded corners*
0 $1 Rounding radius*
0 $2 $3 $4 $5 $6 $7 $8 $9 X,Y pos of 4 corners*
0 Add a 4 corners polygon primitive as box body*
4,1,4,$2,$3,$4,$5,$6,$7,$8,$9,$2,$3,0*
0 Add four circle primitives for the rounded corners*
1,1,$1+$1,$2,$3*
1,1,$1+$1,$4,$5*
1,1,$1+$1,$6,$7*
1,1,$1+$1,$8,$9*
0 Add four rect primitives between the rounded corners*
20,1,$1+$1,$2,$3,$4,$5,0*
20,1,$1+$1,$4,$5,$6,$7,0*
20,1,$1+$1,$6,$7,$8,$9,0*
20,1,$1+$1,$8,$9,$2,$3,0*%
G04 Aperture macros list end*
G04 #@! TA.AperFunction,ComponentPad*
%ADD10RoundRect,0.250000X-0.550000X0.550000X-0.550000X-0.550000X0.550000X-0.550000X0.550000X0.550000X0*%
G04 #@! TD*
G04 #@! TA.AperFunction,ComponentPad*
%ADD11C,1.600000*%
G04 #@! TD*
G04 #@! TA.AperFunction,SMDPad,CuDef*
%ADD12R,3.810000X4.240000*%
G04 #@! TD*
G04 #@! TA.AperFunction,SMDPad,CuDef*
%ADD13RoundRect,0.249997X-2.950003X-2.650003X2.950003X-2.650003X2.950003X2.650003X-2.950003X2.650003X0*%
G04 #@! TD*
G04 #@! TA.AperFunction,SMDPad,CuDef*
%ADD14RoundRect,0.250000X-0.850000X-0.350000X0.850000X-0.350000X0.850000X0.350000X-0.850000X0.350000X0*%
G04 #@! TD*
G04 #@! TA.AperFunction,SMDPad,CuDef*
%ADD15RoundRect,0.250000X0.350000X0.450000X-0.350000X0.450000X-0.350000X-0.450000X0.350000X-0.450000X0*%
G04 #@! TD*
G04 #@! TA.AperFunction,SMDPad,CuDef*
%ADD16RoundRect,0.125000X0.125000X0.125000X-0.125000X0.125000X-0.125000X-0.125000X0.125000X-0.125000X0*%
G04 #@! TD*
G04 #@! TA.AperFunction,SMDPad,CuDef*
%ADD17R,0.400000X1.500000*%
G04 #@! TD*
G04 #@! TA.AperFunction,SMDPad,CuDef*
%ADD18R,1.100000X1.500000*%
G04 #@! TD*
G04 #@! TA.AperFunction,SMDPad,CuDef*
%ADD19RoundRect,0.250000X-1.500000X-0.900000X1.500000X-0.900000X1.500000X0.900000X-1.500000X0.900000X0*%
G04 #@! TD*
G04 #@! TA.AperFunction,ComponentPad*
%ADD20O,1.500000X2.300000*%
G04 #@! TD*
G04 #@! TA.AperFunction,ComponentPad*
%ADD21RoundRect,0.250000X0.500000X0.900000X-0.500000X0.900000X-0.500000X-0.900000X0.500000X-0.900000X0*%
G04 #@! TD*
G04 #@! TA.AperFunction,ViaPad*
%ADD22C,0.635000*%
G04 #@! TD*
G04 #@! TA.AperFunction,ViaPad*
%ADD23C,0.558800*%
G04 #@! TD*
G04 #@! TA.AperFunction,ViaPad*
%ADD24C,0.762000*%
G04 #@! TD*
G04 #@! TA.AperFunction,ViaPad*
%ADD25C,1.524000*%
G04 #@! TD*
G04 #@! TA.AperFunction,ViaPad*
%ADD26C,0.889000*%
G04 #@! TD*
G04 #@! TA.AperFunction,Conductor*
%ADD27C,0.304800*%
G04 #@! TD*
G04 #@! TA.AperFunction,Conductor*
%ADD28C,0.152400*%
G04 #@! TD*
G04 #@! TA.AperFunction,Conductor*
%ADD29C,0.381000*%
G04 #@! TD*
G04 #@! TA.AperFunction,Conductor*
%ADD30C,1.270000*%
G04 #@! TD*
G04 #@! TA.AperFunction,Conductor*
%ADD31C,1.016000*%
G04 #@! TD*
G04 #@! TA.AperFunction,Conductor*
%ADD32C,0.762000*%
G04 #@! TD*
G04 #@! TA.AperFunction,Conductor*
%ADD33C,2.032000*%
G04 #@! TD*
G04 #@! TA.AperFunction,Conductor*
%ADD34C,0.508000*%
G04 #@! TD*
G04 #@! TA.AperFunction,Conductor*
%ADD35C,0.203200*%
G04 #@! TD*
G04 #@! TA.AperFunction,Conductor*
%ADD36C,0.254000*%
G04 #@! TD*
G04 #@! TA.AperFunction,Conductor*
%ADD37C,0.200000*%
G04 #@! TD*
G04 APERTURE END LIST*
D10*
X104110331Y-117040001D03*
D11*
X104110331Y-114270001D03*
X104110331Y-111500000D03*
X104110331Y-108730001D03*
X104110331Y-105960001D03*
X101570331Y-115655001D03*
X101570331Y-112885001D03*
D10*
X101570331Y-110115001D03*
D11*
X101570331Y-107345001D03*
D12*
X108200000Y-107115000D03*
X108200000Y-113485000D03*
D13*
X122100001Y-119572500D03*
D14*
X115800000Y-121852500D03*
X115800000Y-117292500D03*
D15*
X110000000Y-121000000D03*
X108000000Y-121000000D03*
D16*
X113599999Y-119250000D03*
X111400001Y-119250000D03*
D17*
X132000000Y-110900000D03*
X132500001Y-108100000D03*
X133000000Y-110900000D03*
X133500000Y-108100000D03*
X134000000Y-110900000D03*
X134500000Y-108100000D03*
X134999999Y-110900000D03*
X135500000Y-108100000D03*
D18*
X130750000Y-110900000D03*
X130750000Y-108100000D03*
X136750000Y-110900000D03*
X136750000Y-108100000D03*
D17*
X132000000Y-104300000D03*
X132500000Y-101500000D03*
X133000000Y-104300000D03*
X133500000Y-101500000D03*
X134000000Y-104300000D03*
X134500000Y-101500000D03*
X135000000Y-104300000D03*
X135500000Y-101500000D03*
D18*
X130750000Y-104300000D03*
X130750000Y-101500000D03*
X136750000Y-104300000D03*
X136750000Y-101500000D03*
D17*
X120250000Y-104300000D03*
X120750000Y-101500000D03*
X121250000Y-104300000D03*
X121750000Y-101500000D03*
X122250000Y-104300000D03*
X122750000Y-101500000D03*
X123250000Y-104300000D03*
X123750000Y-101500000D03*
D18*
X119000000Y-104300000D03*
X119000000Y-101500000D03*
X125000000Y-104300000D03*
X125000000Y-101500000D03*
D19*
X107300000Y-102500000D03*
X112700000Y-102500000D03*
D20*
X118197000Y-114957500D03*
D21*
X115657000Y-114957500D03*
D20*
X113117001Y-114957500D03*
D22*
X141301730Y-121600013D03*
D23*
X127600000Y-117300000D03*
D22*
X103600074Y-100113051D03*
X102927079Y-119844646D03*
X102200000Y-119700000D03*
X142417613Y-103110662D03*
D23*
X123760000Y-103900000D03*
D22*
X143201741Y-119700104D03*
X143144692Y-103255309D03*
D24*
X112700000Y-104300000D03*
D22*
X104011876Y-102183621D03*
D25*
X117250000Y-117750000D03*
D22*
X103955262Y-122327091D03*
D23*
X135000000Y-112080001D03*
D22*
X104011916Y-100729453D03*
X104156522Y-101456542D03*
X141858252Y-120256554D03*
X103955302Y-120872925D03*
D23*
X127520000Y-101610000D03*
D22*
X141389429Y-100628217D03*
X141801305Y-100011837D03*
X103543386Y-122943471D03*
D23*
X125989402Y-102150000D03*
X135650000Y-103750000D03*
D22*
X142474654Y-119844711D03*
X141244784Y-101355296D03*
X104099908Y-121600012D03*
X141389389Y-102082384D03*
X102983598Y-103211843D03*
X103600000Y-102800000D03*
X141446336Y-122327100D03*
X102256511Y-103356449D03*
D23*
X126000000Y-119700000D03*
D26*
X126000000Y-111700000D03*
D22*
X141858178Y-122943504D03*
D26*
X127850000Y-107016096D03*
D22*
X103543459Y-120256522D03*
X141801232Y-102698786D03*
X141446375Y-120872934D03*
D23*
X137100000Y-106100000D03*
X140100000Y-104051420D03*
X120100000Y-102700000D03*
X135500000Y-102550000D03*
D25*
X120300000Y-108900000D03*
D24*
X141978968Y-113700000D03*
D26*
X127900000Y-108270001D03*
X128100000Y-113350001D03*
D23*
X132000000Y-105450000D03*
X143500000Y-112800000D03*
X139200000Y-104050000D03*
X131633359Y-120905000D03*
X131633359Y-120095000D03*
X142500000Y-112800000D03*
X127600000Y-110810001D03*
X127850000Y-114650000D03*
X127850000Y-115900000D03*
X127567500Y-109567500D03*
D27*
X137100000Y-106100000D02*
X135950000Y-106100000D01*
X135950000Y-106100000D02*
X135500000Y-106550000D01*
X135500000Y-106550000D02*
X135500000Y-108100000D01*
D28*
X132901962Y-122000000D02*
X131806962Y-120905000D01*
X143225000Y-113075000D02*
X143225000Y-118379785D01*
X140862375Y-120742410D02*
X139604785Y-122000000D01*
X143700000Y-112600000D02*
X143700000Y-108550000D01*
X140862375Y-120426530D02*
X140862375Y-120742410D01*
X143500000Y-112800000D02*
X143700000Y-112600000D01*
X142028194Y-119260711D02*
X140862375Y-120426530D01*
X142344074Y-119260711D02*
X142028194Y-119260711D01*
X139604785Y-122000000D02*
X132901962Y-122000000D01*
X143225000Y-118379785D02*
X142344074Y-119260711D01*
X143500000Y-112800000D02*
X143225000Y-113075000D01*
X131806962Y-120905000D02*
X131633359Y-120905000D01*
X143700000Y-108550000D02*
X139200000Y-104050000D01*
X132218359Y-120662685D02*
X131875674Y-120320000D01*
X132218359Y-120680000D02*
X132218359Y-120662685D01*
X132838359Y-121300000D02*
X132218359Y-120680000D01*
X131875674Y-120320000D02*
X131858359Y-120320000D01*
X142775000Y-117925000D02*
X139400000Y-121300000D01*
X142300000Y-107950000D02*
X140825000Y-106475000D01*
X142300000Y-112600000D02*
X142300000Y-107950000D01*
X142775000Y-113075000D02*
X142775000Y-117925000D01*
X142500000Y-112800000D02*
X142775000Y-113075000D01*
X142500000Y-112800000D02*
X142300000Y-112600000D01*
X139400000Y-121300000D02*
X132838359Y-121300000D01*
X131858359Y-120320000D02*
X131633359Y-120095000D01*
D29*
X125989402Y-102150000D02*
X126980000Y-102150000D01*
X126980000Y-102150000D02*
X127520000Y-101610000D01*
D30*
X107045001Y-105960001D02*
X108200000Y-107115000D01*
D31*
X107300000Y-106215000D02*
X108200000Y-107115000D01*
D30*
X104110331Y-105960001D02*
X104110331Y-108730001D01*
X104110331Y-108730001D02*
X106584999Y-108730001D01*
X106584999Y-108730001D02*
X108200000Y-107115000D01*
D31*
X107300000Y-102500000D02*
X107300000Y-106215000D01*
D30*
X104110331Y-105960001D02*
X107045001Y-105960001D01*
X117250000Y-117750000D02*
X116257500Y-117750000D01*
D32*
X126000000Y-108200000D02*
X127183904Y-107016096D01*
X127850000Y-107000000D02*
X127850000Y-107016096D01*
D31*
X112700000Y-104300000D02*
X112700000Y-102500000D01*
D28*
X123250000Y-104300000D02*
X123360000Y-104300000D01*
D27*
X134999999Y-112080000D02*
X135000000Y-112080001D01*
D30*
X116257500Y-117750000D02*
X115800000Y-117292500D01*
D33*
X115657000Y-117149500D02*
X115800000Y-117292500D01*
D30*
X117250000Y-117750000D02*
X117250000Y-117000000D01*
D33*
X115657000Y-114957500D02*
X115657000Y-117149500D01*
D34*
X126000000Y-119700000D02*
X127600000Y-118100000D01*
D27*
X134999999Y-110900000D02*
X134999999Y-112080000D01*
D32*
X126000000Y-111700000D02*
X126000000Y-108200000D01*
D30*
X117250000Y-117000000D02*
X115657000Y-115407000D01*
X115657000Y-115407000D02*
X115657000Y-114957500D01*
D35*
X135550000Y-103750000D02*
X135000000Y-104300000D01*
D32*
X127183904Y-107016096D02*
X127850000Y-107016096D01*
D28*
X123360000Y-104300000D02*
X123760000Y-103900000D01*
D34*
X104699920Y-121000000D02*
X104099908Y-121600012D01*
X108000000Y-121000000D02*
X104699920Y-121000000D01*
X127600000Y-118100000D02*
X127600000Y-117300000D01*
D35*
X135650000Y-103750000D02*
X135550000Y-103750000D01*
D27*
X111400001Y-119599999D02*
X110000000Y-121000000D01*
D29*
X110852500Y-121852500D02*
X110000000Y-121000000D01*
D27*
X111400001Y-119250000D02*
X111400001Y-119599999D01*
D29*
X115800000Y-121852500D02*
X110852500Y-121852500D01*
D27*
X124245200Y-100250000D02*
X123750000Y-100745200D01*
X120100000Y-100546000D02*
X120396000Y-100250000D01*
X138845820Y-102794400D02*
X140100000Y-104048580D01*
X135500000Y-100845200D02*
X134904800Y-100250000D01*
X140100000Y-104048580D02*
X140100000Y-104051420D01*
X123750000Y-100745200D02*
X123750000Y-101500000D01*
X120396000Y-100250000D02*
X124245200Y-100250000D01*
X135500000Y-102550000D02*
X135744400Y-102794400D01*
X135744400Y-102794400D02*
X138845820Y-102794400D01*
X135500000Y-101500000D02*
X135500000Y-100845200D01*
X135500000Y-102550000D02*
X135500000Y-101500000D01*
X120100000Y-102700000D02*
X120100000Y-100546000D01*
D32*
X113112500Y-115612001D02*
X113117001Y-115607500D01*
D27*
X134904800Y-100250000D02*
X124245200Y-100250000D01*
D32*
X128349999Y-113350001D02*
X129000000Y-112700000D01*
X129000000Y-112700000D02*
X129000000Y-109100000D01*
X128170001Y-108270001D02*
X127900000Y-108270001D01*
D36*
X121777501Y-119250000D02*
X122100001Y-119572500D01*
D32*
X129000000Y-109100000D02*
X128170001Y-108270001D01*
X128100000Y-113350001D02*
X128349999Y-113350001D01*
D36*
X113599999Y-119250000D02*
X121777501Y-119250000D01*
D28*
X132000000Y-103750000D02*
X131500000Y-103250000D01*
X120400000Y-103250000D02*
X120250000Y-103400000D01*
X131500000Y-103250000D02*
X120400000Y-103250000D01*
X131800000Y-108200000D02*
X132000000Y-108000000D01*
X132000000Y-110350000D02*
X131800000Y-110150000D01*
X120250000Y-103400000D02*
X120250000Y-104300000D01*
X132000000Y-104300000D02*
X132000000Y-103750000D01*
X131800000Y-110150000D02*
X131800000Y-108200000D01*
X132000000Y-108000000D02*
X132000000Y-105450000D01*
X132000000Y-110900000D02*
X132000000Y-110350000D01*
X132000000Y-105450000D02*
X132000000Y-104300000D01*
X133200000Y-102850000D02*
X132500000Y-102150000D01*
X139700000Y-105350000D02*
X140825000Y-106475000D01*
X133500000Y-103150000D02*
X133200000Y-102850000D01*
X132500000Y-102150000D02*
X132500000Y-101500000D01*
X121550000Y-102850000D02*
X133200000Y-102850000D01*
X132500001Y-107550000D02*
X134700001Y-105350000D01*
X137500000Y-103150000D02*
X133500000Y-103150000D01*
X140825000Y-106475000D02*
X137500000Y-103150000D01*
X132500001Y-108100000D02*
X132500001Y-107550000D01*
X120750000Y-101500000D02*
X120750000Y-102050000D01*
X120750000Y-102050000D02*
X121550000Y-102850000D01*
X134700001Y-105350000D02*
X139700000Y-105350000D01*
D37*
X127289999Y-110810001D02*
X127600000Y-110810001D01*
X127200000Y-110900000D02*
X127289999Y-110810001D01*
X127236397Y-114650000D02*
X127200000Y-114613603D01*
X127200000Y-114613603D02*
X127200000Y-110900000D01*
X127850000Y-114650000D02*
X127236397Y-114650000D01*
D35*
X127567500Y-109567500D02*
X126800000Y-110335000D01*
D37*
X127850000Y-115900000D02*
X126800000Y-114850000D01*
D35*
X126800000Y-110335000D02*
X126800000Y-114850000D01*
G04 #@! TA.AperFunction,Conductor*
G36*
X144257373Y-98828222D02*
G01*
X144261739Y-98832157D01*
X144641228Y-99199766D01*
X144999812Y-99547125D01*
X145024188Y-99597301D01*
X145024583Y-99603176D01*
X145026420Y-99662525D01*
X145026449Y-99663787D01*
X145049990Y-101186129D01*
X145050000Y-101187390D01*
X145050000Y-123454220D01*
X145030921Y-123506639D01*
X145026115Y-123511885D01*
X144316385Y-124221615D01*
X144265828Y-124245190D01*
X144258720Y-124245500D01*
X104041318Y-124245500D01*
X103988899Y-124226421D01*
X103983619Y-124221579D01*
X103297248Y-123534252D01*
X103273709Y-123483681D01*
X103288185Y-123429808D01*
X103333902Y-123397844D01*
X103377927Y-123398382D01*
X103473927Y-123426571D01*
X103473929Y-123426571D01*
X103612844Y-123426571D01*
X103612845Y-123426571D01*
X103746137Y-123387433D01*
X103863003Y-123312328D01*
X103953975Y-123207340D01*
X104011684Y-123080976D01*
X104031454Y-122943471D01*
X104022851Y-122883636D01*
X104034276Y-122829036D01*
X104078125Y-122794553D01*
X104080559Y-122793795D01*
X104158013Y-122771053D01*
X104274879Y-122695948D01*
X104365851Y-122590960D01*
X104423560Y-122464596D01*
X104443330Y-122327091D01*
X104423560Y-122189586D01*
X104412541Y-122165458D01*
X104374072Y-122081222D01*
X104369651Y-122025614D01*
X104402008Y-121980174D01*
X104404117Y-121978770D01*
X104419525Y-121968869D01*
X104510497Y-121863881D01*
X104558902Y-121757890D01*
X104570629Y-121732212D01*
X104571770Y-121732733D01*
X104588076Y-121705246D01*
X104849839Y-121443485D01*
X104900396Y-121419910D01*
X104907503Y-121419600D01*
X107154754Y-121419600D01*
X107207173Y-121438679D01*
X107235065Y-121486989D01*
X107235300Y-121488393D01*
X107249812Y-121580025D01*
X107249812Y-121580026D01*
X107249813Y-121580028D01*
X107309581Y-121697329D01*
X107402671Y-121790419D01*
X107519972Y-121850187D01*
X107617288Y-121865600D01*
X107617290Y-121865600D01*
X108382710Y-121865600D01*
X108382712Y-121865600D01*
X108480028Y-121850187D01*
X108597329Y-121790419D01*
X108690419Y-121697329D01*
X108750187Y-121580028D01*
X108765600Y-121482712D01*
X108765600Y-120517288D01*
X109234400Y-120517288D01*
X109234400Y-121482712D01*
X109235300Y-121488393D01*
X109249812Y-121580025D01*
X109249812Y-121580026D01*
X109249813Y-121580028D01*
X109309581Y-121697329D01*
X109402671Y-121790419D01*
X109519972Y-121850187D01*
X109617288Y-121865600D01*
X110328218Y-121865600D01*
X110380637Y-121884679D01*
X110385883Y-121889485D01*
X110567549Y-122071151D01*
X110567548Y-122071151D01*
X110633367Y-122136969D01*
X110633849Y-122137451D01*
X110715050Y-122184333D01*
X110715054Y-122184334D01*
X110805611Y-122208598D01*
X110805612Y-122208598D01*
X110805619Y-122208600D01*
X114460535Y-122208600D01*
X114512954Y-122227679D01*
X114540846Y-122275989D01*
X114541081Y-122277393D01*
X114549812Y-122332525D01*
X114549812Y-122332526D01*
X114549813Y-122332528D01*
X114609581Y-122449829D01*
X114702671Y-122542919D01*
X114819972Y-122602687D01*
X114917288Y-122618100D01*
X114917290Y-122618100D01*
X116682710Y-122618100D01*
X116682712Y-122618100D01*
X116780028Y-122602687D01*
X116897329Y-122542919D01*
X116990419Y-122449829D01*
X117050187Y-122332528D01*
X117065600Y-122235212D01*
X117065600Y-121469788D01*
X117050187Y-121372472D01*
X116990419Y-121255171D01*
X116897329Y-121162081D01*
X116780028Y-121102313D01*
X116780026Y-121102312D01*
X116780025Y-121102312D01*
X116743335Y-121096501D01*
X118646002Y-121096501D01*
X118646002Y-122270711D01*
X118652453Y-122330734D01*
X118652454Y-122330738D01*
X118703100Y-122466525D01*
X118703102Y-122466530D01*
X118789949Y-122582543D01*
X118789957Y-122582551D01*
X118905970Y-122669398D01*
X118905975Y-122669400D01*
X119041760Y-122720045D01*
X119101791Y-122726499D01*
X120575999Y-122726499D01*
X120576001Y-122726498D01*
X120576001Y-121096501D01*
X120576000Y-121096500D01*
X118646003Y-121096500D01*
X118646002Y-121096501D01*
X116743335Y-121096501D01*
X116719336Y-121092700D01*
X116682712Y-121086900D01*
X114917288Y-121086900D01*
X114886464Y-121091781D01*
X114819974Y-121102312D01*
X114702672Y-121162080D01*
X114609580Y-121255172D01*
X114549812Y-121372474D01*
X114541081Y-121427607D01*
X114514037Y-121476396D01*
X114461959Y-121496388D01*
X114460535Y-121496400D01*
X111033782Y-121496400D01*
X110981363Y-121477321D01*
X110976117Y-121472515D01*
X110789485Y-121285883D01*
X110765910Y-121235326D01*
X110765600Y-121228218D01*
X110765600Y-120717899D01*
X110784679Y-120665480D01*
X110789474Y-120660245D01*
X111654464Y-119795256D01*
X111655832Y-119792887D01*
X111657053Y-119790773D01*
X111699786Y-119754917D01*
X111727676Y-119750000D01*
X113749998Y-119750000D01*
X113750000Y-119750000D01*
X113751352Y-119748647D01*
X113801907Y-119725071D01*
X113848836Y-119736325D01*
X113948272Y-119687713D01*
X114037712Y-119598273D01*
X114085756Y-119500000D01*
X114081550Y-119500000D01*
X114029131Y-119480921D01*
X114001239Y-119432611D01*
X114000000Y-119418450D01*
X114000000Y-119081550D01*
X114019079Y-119029131D01*
X114067389Y-119001239D01*
X114081550Y-119000000D01*
X114085755Y-119000000D01*
X114037712Y-118901726D01*
X113948271Y-118812285D01*
X113848702Y-118763608D01*
X113797629Y-118774439D01*
X113751356Y-118751355D01*
X113750002Y-118750001D01*
X113750000Y-118750000D01*
X111000000Y-118750000D01*
X111000000Y-118750001D01*
X111000000Y-119011166D01*
X110993053Y-119044103D01*
X110987220Y-119057314D01*
X110984401Y-119081614D01*
X110984401Y-119418382D01*
X110984402Y-119418388D01*
X110987219Y-119442683D01*
X110987221Y-119442690D01*
X110993051Y-119455892D01*
X111000000Y-119488832D01*
X111000000Y-119516499D01*
X110980921Y-119568918D01*
X110976115Y-119574164D01*
X110439764Y-120110515D01*
X110389207Y-120134090D01*
X110382099Y-120134400D01*
X109617288Y-120134400D01*
X109588661Y-120138934D01*
X109519974Y-120149812D01*
X109402672Y-120209580D01*
X109309580Y-120302672D01*
X109249812Y-120419974D01*
X109247469Y-120434771D01*
X109234400Y-120517288D01*
X108765600Y-120517288D01*
X108750187Y-120419972D01*
X108690419Y-120302671D01*
X108597329Y-120209581D01*
X108480028Y-120149813D01*
X108480026Y-120149812D01*
X108480025Y-120149812D01*
X108411339Y-120138934D01*
X108382712Y-120134400D01*
X107617288Y-120134400D01*
X107588661Y-120138934D01*
X107519974Y-120149812D01*
X107402672Y-120209580D01*
X107309580Y-120302672D01*
X107249812Y-120419974D01*
X107247469Y-120434771D01*
X107236461Y-120504279D01*
X107235300Y-120511607D01*
X107208256Y-120560396D01*
X107156178Y-120580388D01*
X107154754Y-120580400D01*
X104760170Y-120580400D01*
X104760154Y-120580399D01*
X104755161Y-120580399D01*
X104644679Y-120580399D01*
X104644677Y-120580399D01*
X104644671Y-120580400D01*
X104560514Y-120602949D01*
X104560515Y-120602950D01*
X104537964Y-120608993D01*
X104537958Y-120608996D01*
X104479459Y-120642770D01*
X104424523Y-120652456D01*
X104376213Y-120624564D01*
X104369380Y-120613742D01*
X104369042Y-120613960D01*
X104365893Y-120609061D01*
X104365891Y-120609056D01*
X104274919Y-120504068D01*
X104268589Y-120500000D01*
X104158058Y-120428965D01*
X104158056Y-120428964D01*
X104132234Y-120421382D01*
X104080663Y-120406239D01*
X104035743Y-120373165D01*
X104022591Y-120318954D01*
X104022911Y-120316441D01*
X104031527Y-120256522D01*
X104011757Y-120119017D01*
X103954048Y-119992653D01*
X103863076Y-119887665D01*
X103863073Y-119887663D01*
X103746215Y-119812562D01*
X103746213Y-119812561D01*
X103746210Y-119812560D01*
X103612918Y-119773422D01*
X103475570Y-119773422D01*
X103423151Y-119754343D01*
X103398825Y-119712210D01*
X103397021Y-119712740D01*
X103395377Y-119707146D01*
X103395377Y-119707141D01*
X103337668Y-119580777D01*
X103331224Y-119573340D01*
X103276592Y-119510290D01*
X103256684Y-119458180D01*
X103256675Y-119456921D01*
X103258654Y-118035687D01*
X103277805Y-117983299D01*
X103326154Y-117955474D01*
X103377223Y-117963142D01*
X103430303Y-117990188D01*
X103527619Y-118005601D01*
X103527621Y-118005601D01*
X104693041Y-118005601D01*
X104693043Y-118005601D01*
X104790359Y-117990188D01*
X104907660Y-117930420D01*
X105000750Y-117837330D01*
X105060518Y-117720029D01*
X105075931Y-117622713D01*
X105075931Y-116457289D01*
X105060518Y-116359973D01*
X105000750Y-116242672D01*
X104907660Y-116149582D01*
X104790359Y-116089814D01*
X104790357Y-116089813D01*
X104790356Y-116089813D01*
X104729667Y-116080201D01*
X104693043Y-116074401D01*
X103527619Y-116074401D01*
X103496795Y-116079282D01*
X103430305Y-116089813D01*
X103430302Y-116089814D01*
X103379291Y-116115805D01*
X103323923Y-116122603D01*
X103277139Y-116092220D01*
X103260720Y-116043089D01*
X103261072Y-115538000D01*
X103261072Y-114985177D01*
X103280151Y-114932758D01*
X103328461Y-114904866D01*
X103383397Y-114914553D01*
X103405660Y-114933441D01*
X103424245Y-114956087D01*
X103571277Y-115076753D01*
X103739024Y-115166415D01*
X103921040Y-115221629D01*
X103962727Y-115225734D01*
X104110328Y-115240273D01*
X104110331Y-115240273D01*
X104110334Y-115240273D01*
X104227482Y-115228734D01*
X104299622Y-115221629D01*
X104481638Y-115166415D01*
X104649385Y-115076753D01*
X104731941Y-115009001D01*
X106041001Y-115009001D01*
X106041001Y-115630012D01*
X106041002Y-115630022D01*
X106055736Y-115704104D01*
X106055739Y-115704109D01*
X106111873Y-115788120D01*
X106111879Y-115788126D01*
X106195893Y-115844262D01*
X106195892Y-115844262D01*
X106269981Y-115858999D01*
X106675998Y-115858999D01*
X106676000Y-115858998D01*
X106676000Y-115009001D01*
X109724000Y-115009001D01*
X109724000Y-115858998D01*
X109724001Y-115858999D01*
X110130012Y-115858999D01*
X110130022Y-115858997D01*
X110204104Y-115844263D01*
X110204109Y-115844260D01*
X110288120Y-115788126D01*
X110288126Y-115788120D01*
X110344262Y-115704106D01*
X110358999Y-115630021D01*
X110359000Y-115630014D01*
X110359000Y-115009001D01*
X110358999Y-115009000D01*
X109724001Y-115009000D01*
X109724000Y-115009001D01*
X106676000Y-115009001D01*
X106675999Y-115009000D01*
X106041002Y-115009000D01*
X106041001Y-115009001D01*
X104731941Y-115009001D01*
X104796417Y-114956087D01*
X104917083Y-114809055D01*
X105006745Y-114641308D01*
X105059525Y-114467316D01*
X112201401Y-114467316D01*
X112201401Y-115447683D01*
X112210028Y-115491051D01*
X112236587Y-115624571D01*
X112236588Y-115624574D01*
X112236589Y-115624577D01*
X112305605Y-115791196D01*
X112305606Y-115791198D01*
X112305607Y-115791199D01*
X112405808Y-115941161D01*
X112533340Y-116068693D01*
X112683302Y-116168894D01*
X112683303Y-116168894D01*
X112683304Y-116168895D01*
X112768813Y-116204314D01*
X112849930Y-116237914D01*
X113026822Y-116273100D01*
X113026824Y-116273100D01*
X113207178Y-116273100D01*
X113207180Y-116273100D01*
X113384072Y-116237914D01*
X113550700Y-116168894D01*
X113700662Y-116068693D01*
X113828194Y-115941161D01*
X113928395Y-115791199D01*
X113997415Y-115624571D01*
X114032601Y-115447679D01*
X114032601Y-114864506D01*
X114475400Y-114864506D01*
X114475400Y-117242492D01*
X114504492Y-117426187D01*
X114504493Y-117426189D01*
X114504494Y-117426192D01*
X114513016Y-117452421D01*
X114530409Y-117505948D01*
X114534400Y-117531149D01*
X114534400Y-117675210D01*
X114549812Y-117772525D01*
X114549812Y-117772526D01*
X114549813Y-117772528D01*
X114609581Y-117889829D01*
X114702671Y-117982919D01*
X114819972Y-118042687D01*
X114856678Y-118048500D01*
X114864116Y-118049678D01*
X114909024Y-118072559D01*
X114991705Y-118155239D01*
X115030240Y-118193774D01*
X115111495Y-118252809D01*
X115180698Y-118303089D01*
X115180701Y-118303090D01*
X115180707Y-118303095D01*
X115346423Y-118387532D01*
X115523309Y-118445006D01*
X115523311Y-118445006D01*
X115523313Y-118445007D01*
X115651573Y-118465321D01*
X115707007Y-118474101D01*
X115707008Y-118474101D01*
X115896198Y-118474101D01*
X115896198Y-118475142D01*
X115928368Y-118480233D01*
X116023973Y-118519834D01*
X116178648Y-118550601D01*
X116178650Y-118550601D01*
X116340371Y-118550601D01*
X116340391Y-118550600D01*
X116750252Y-118550600D01*
X116783421Y-118557650D01*
X116783644Y-118557749D01*
X116783645Y-118557750D01*
X116961777Y-118637059D01*
X117152505Y-118677600D01*
X117152510Y-118677600D01*
X117347490Y-118677600D01*
X117347495Y-118677600D01*
X117538223Y-118637059D01*
X117716355Y-118557750D01*
X117874104Y-118443138D01*
X118004577Y-118298233D01*
X118102072Y-118129367D01*
X118162327Y-117943921D01*
X118168013Y-117889829D01*
X118182709Y-117750003D01*
X118182709Y-117749996D01*
X118162328Y-117556084D01*
X118162327Y-117556081D01*
X118162327Y-117556079D01*
X118102072Y-117370633D01*
X118061526Y-117300405D01*
X118050600Y-117259630D01*
X118050600Y-116921150D01*
X118050599Y-116921143D01*
X118041280Y-116874290D01*
X118646001Y-116874290D01*
X118646001Y-118048499D01*
X118646002Y-118048500D01*
X120576000Y-118048500D01*
X120576001Y-118048499D01*
X120576001Y-116418501D01*
X123624001Y-116418501D01*
X123624001Y-122726498D01*
X123624002Y-122726499D01*
X125098207Y-122726499D01*
X125098212Y-122726498D01*
X125158235Y-122720047D01*
X125158239Y-122720046D01*
X125294026Y-122669400D01*
X125294031Y-122669398D01*
X125410044Y-122582551D01*
X125410052Y-122582543D01*
X125496899Y-122466530D01*
X125496901Y-122466525D01*
X125547546Y-122330740D01*
X125554000Y-122270709D01*
X125554000Y-120083467D01*
X125573079Y-120031048D01*
X125621389Y-120003156D01*
X125676325Y-120012843D01*
X125697182Y-120030063D01*
X125705590Y-120039767D01*
X125813235Y-120108947D01*
X125813236Y-120108947D01*
X125813239Y-120108949D01*
X125936019Y-120145000D01*
X126063981Y-120145000D01*
X126186761Y-120108949D01*
X126294410Y-120039767D01*
X126378207Y-119943059D01*
X126395513Y-119905162D01*
X126412026Y-119881376D01*
X127935764Y-118357641D01*
X127991006Y-118261959D01*
X127991007Y-118261956D01*
X128019600Y-118155246D01*
X128019601Y-118155239D01*
X128019601Y-118039766D01*
X128019600Y-118039748D01*
X128019600Y-117470161D01*
X128026970Y-117436283D01*
X128031365Y-117426660D01*
X128049576Y-117300000D01*
X128031365Y-117173340D01*
X127978207Y-117056941D01*
X127894410Y-116960233D01*
X127894409Y-116960232D01*
X127786764Y-116891052D01*
X127729677Y-116874290D01*
X127663981Y-116855000D01*
X127536019Y-116855000D01*
X127413235Y-116891052D01*
X127305590Y-116960232D01*
X127221792Y-117056942D01*
X127168634Y-117173342D01*
X127150424Y-117300000D01*
X127168634Y-117426658D01*
X127168635Y-117426660D01*
X127173030Y-117436283D01*
X127180400Y-117470161D01*
X127180400Y-117892415D01*
X127161321Y-117944834D01*
X127156515Y-117950080D01*
X125825888Y-119280706D01*
X125812313Y-119291645D01*
X125705591Y-119360232D01*
X125697182Y-119369937D01*
X125648435Y-119397059D01*
X125593660Y-119386502D01*
X125558485Y-119343206D01*
X125554000Y-119316533D01*
X125554000Y-116874294D01*
X125553999Y-116874288D01*
X125547548Y-116814265D01*
X125547547Y-116814261D01*
X125496901Y-116678474D01*
X125496899Y-116678469D01*
X125410052Y-116562456D01*
X125410044Y-116562448D01*
X125294031Y-116475601D01*
X125294026Y-116475599D01*
X125158241Y-116424954D01*
X125098210Y-116418500D01*
X123624002Y-116418500D01*
X123624001Y-116418501D01*
X120576001Y-116418501D01*
X120576000Y-116418500D01*
X119101795Y-116418500D01*
X119101789Y-116418501D01*
X119041766Y-116424952D01*
X119041762Y-116424953D01*
X118905975Y-116475599D01*
X118905970Y-116475601D01*
X118789957Y-116562448D01*
X118789949Y-116562456D01*
X118703102Y-116678469D01*
X118703100Y-116678474D01*
X118652455Y-116814259D01*
X118646001Y-116874290D01*
X118041280Y-116874290D01*
X118019834Y-116766474D01*
X117984480Y-116681124D01*
X117959483Y-116620773D01*
X117898968Y-116530207D01*
X117871867Y-116489647D01*
X117871865Y-116489644D01*
X117758307Y-116376087D01*
X117758306Y-116376087D01*
X117690973Y-116308754D01*
X117667398Y-116258197D01*
X117681836Y-116204314D01*
X117727531Y-116172318D01*
X117779845Y-116175746D01*
X117929929Y-116237914D01*
X118106821Y-116273100D01*
X118106823Y-116273100D01*
X118287177Y-116273100D01*
X118287179Y-116273100D01*
X118464071Y-116237914D01*
X118630699Y-116168894D01*
X118780661Y-116068693D01*
X118908193Y-115941161D01*
X119008394Y-115791199D01*
X119077414Y-115624571D01*
X119112600Y-115447679D01*
X119112600Y-114467321D01*
X119077414Y-114290429D01*
X119008394Y-114123801D01*
X118908193Y-113973839D01*
X118780661Y-113846307D01*
X118630699Y-113746106D01*
X118630698Y-113746105D01*
X118630696Y-113746104D01*
X118464077Y-113677088D01*
X118464074Y-113677087D01*
X118464071Y-113677086D01*
X118388260Y-113662006D01*
X118287183Y-113641900D01*
X118287179Y-113641900D01*
X118106821Y-113641900D01*
X118106816Y-113641900D01*
X117980469Y-113667032D01*
X117929929Y-113677086D01*
X117929926Y-113677086D01*
X117929922Y-113677088D01*
X117763303Y-113746104D01*
X117613341Y-113846305D01*
X117485805Y-113973841D01*
X117385604Y-114123803D01*
X117316588Y-114290422D01*
X117316586Y-114290431D01*
X117281400Y-114467316D01*
X117281400Y-115447683D01*
X117290027Y-115491051D01*
X117316586Y-115624571D01*
X117316587Y-115624574D01*
X117316588Y-115624577D01*
X117378752Y-115774653D01*
X117381186Y-115830384D01*
X117347227Y-115874640D01*
X117292766Y-115886713D01*
X117245745Y-115863526D01*
X116862485Y-115480266D01*
X116838910Y-115429709D01*
X116838600Y-115422601D01*
X116838600Y-114864506D01*
X116809506Y-114680812D01*
X116809504Y-114680806D01*
X116796670Y-114641308D01*
X116752032Y-114503923D01*
X116667595Y-114338206D01*
X116667590Y-114338200D01*
X116667589Y-114338197D01*
X116588175Y-114228893D01*
X116572600Y-114180959D01*
X116572600Y-114024789D01*
X116564531Y-113973841D01*
X116557187Y-113927472D01*
X116497419Y-113810171D01*
X116404329Y-113717081D01*
X116287028Y-113657313D01*
X116287026Y-113657312D01*
X116287025Y-113657312D01*
X116226336Y-113647700D01*
X116189712Y-113641900D01*
X115124288Y-113641900D01*
X115093464Y-113646781D01*
X115026974Y-113657312D01*
X114909672Y-113717080D01*
X114816580Y-113810172D01*
X114756812Y-113927474D01*
X114741400Y-114024789D01*
X114741400Y-114180959D01*
X114725825Y-114228893D01*
X114646410Y-114338197D01*
X114646406Y-114338204D01*
X114561966Y-114503926D01*
X114504495Y-114680806D01*
X114504493Y-114680812D01*
X114475400Y-114864506D01*
X114032601Y-114864506D01*
X114032601Y-114467321D01*
X113997415Y-114290429D01*
X113928395Y-114123801D01*
X113828194Y-113973839D01*
X113700662Y-113846307D01*
X113550700Y-113746106D01*
X113550699Y-113746105D01*
X113550697Y-113746104D01*
X113384078Y-113677088D01*
X113384075Y-113677087D01*
X113384072Y-113677086D01*
X113308261Y-113662006D01*
X113207184Y-113641900D01*
X113207180Y-113641900D01*
X113026822Y-113641900D01*
X113026817Y-113641900D01*
X112900470Y-113667032D01*
X112849930Y-113677086D01*
X112849927Y-113677086D01*
X112849923Y-113677088D01*
X112683304Y-113746104D01*
X112533342Y-113846305D01*
X112405806Y-113973841D01*
X112305605Y-114123803D01*
X112236589Y-114290422D01*
X112236587Y-114290431D01*
X112201401Y-114467316D01*
X105059525Y-114467316D01*
X105061959Y-114459292D01*
X105073885Y-114338206D01*
X105080603Y-114270004D01*
X105080603Y-114269997D01*
X105061960Y-114080721D01*
X105061959Y-114080710D01*
X105006745Y-113898694D01*
X104917083Y-113730947D01*
X104905703Y-113717081D01*
X104844004Y-113641900D01*
X104796417Y-113583915D01*
X104740600Y-113538107D01*
X104649388Y-113463251D01*
X104649386Y-113463250D01*
X104649385Y-113463249D01*
X104481638Y-113373587D01*
X104481637Y-113373586D01*
X104481636Y-113373586D01*
X104426709Y-113356924D01*
X104299622Y-113318373D01*
X104299616Y-113318372D01*
X104299610Y-113318371D01*
X104110334Y-113299729D01*
X104110328Y-113299729D01*
X103921051Y-113318371D01*
X103921043Y-113318372D01*
X103921040Y-113318373D01*
X103836315Y-113344074D01*
X103739025Y-113373586D01*
X103571273Y-113463251D01*
X103424248Y-113583912D01*
X103424240Y-113583920D01*
X103405660Y-113606560D01*
X103357657Y-113634976D01*
X103302618Y-113625888D01*
X103266298Y-113583548D01*
X103261072Y-113554824D01*
X103261072Y-112215176D01*
X103280151Y-112162757D01*
X103328461Y-112134865D01*
X103383397Y-112144552D01*
X103405660Y-112163440D01*
X103424245Y-112186086D01*
X103571277Y-112306752D01*
X103739024Y-112396414D01*
X103921040Y-112451628D01*
X103962727Y-112455733D01*
X104110328Y-112470272D01*
X104110331Y-112470272D01*
X104110334Y-112470272D01*
X104227482Y-112458733D01*
X104299622Y-112451628D01*
X104481638Y-112396414D01*
X104649385Y-112306752D01*
X104796417Y-112186086D01*
X104917083Y-112039054D01*
X105006745Y-111871307D01*
X105061959Y-111689291D01*
X105069064Y-111617151D01*
X105080603Y-111500003D01*
X105080603Y-111499996D01*
X105064842Y-111339978D01*
X106041000Y-111339978D01*
X106041000Y-111960999D01*
X106041001Y-111961000D01*
X106675999Y-111961000D01*
X106676000Y-111960999D01*
X106676000Y-111111001D01*
X109724000Y-111111001D01*
X109724000Y-111960999D01*
X109724001Y-111961000D01*
X110358998Y-111961000D01*
X110358999Y-111960999D01*
X110358999Y-111699996D01*
X125385419Y-111699996D01*
X125385419Y-111700003D01*
X125403277Y-111847079D01*
X125403277Y-111847080D01*
X125455815Y-111985610D01*
X125455817Y-111985612D01*
X125539981Y-112107545D01*
X125628632Y-112186082D01*
X125650878Y-112205790D01*
X125782067Y-112274643D01*
X125782069Y-112274643D01*
X125782070Y-112274644D01*
X125833982Y-112287439D01*
X125925920Y-112310100D01*
X125925922Y-112310100D01*
X126074078Y-112310100D01*
X126074080Y-112310100D01*
X126217933Y-112274643D01*
X126349122Y-112205790D01*
X126397174Y-112163218D01*
X126449060Y-112142740D01*
X126501973Y-112160405D01*
X126531152Y-112207948D01*
X126532800Y-112224261D01*
X126532800Y-114903150D01*
X126573477Y-115001354D01*
X126573478Y-115001355D01*
X126573479Y-115001357D01*
X126648643Y-115076521D01*
X126648646Y-115076522D01*
X126648779Y-115076611D01*
X126661139Y-115086754D01*
X127380856Y-115806471D01*
X127404431Y-115857028D01*
X127403911Y-115875739D01*
X127400424Y-115899996D01*
X127400424Y-115899999D01*
X127418634Y-116026657D01*
X127418634Y-116026658D01*
X127418635Y-116026660D01*
X127471793Y-116143059D01*
X127494179Y-116168894D01*
X127555590Y-116239767D01*
X127663235Y-116308947D01*
X127663236Y-116308947D01*
X127663239Y-116308949D01*
X127786019Y-116345000D01*
X127913981Y-116345000D01*
X128036761Y-116308949D01*
X128144410Y-116239767D01*
X128228207Y-116143059D01*
X128281365Y-116026660D01*
X128299576Y-115900000D01*
X128281365Y-115773340D01*
X128228207Y-115656941D01*
X128144410Y-115560233D01*
X128144409Y-115560232D01*
X128036764Y-115491052D01*
X127913981Y-115455000D01*
X127814396Y-115455000D01*
X127761977Y-115435921D01*
X127756732Y-115431115D01*
X127380431Y-115054815D01*
X127356855Y-115004258D01*
X127371293Y-114950375D01*
X127416988Y-114918379D01*
X127438095Y-114915600D01*
X127454082Y-114915600D01*
X127506501Y-114934679D01*
X127515713Y-114943746D01*
X127555590Y-114989767D01*
X127663235Y-115058947D01*
X127663236Y-115058947D01*
X127663239Y-115058949D01*
X127786019Y-115095000D01*
X127913981Y-115095000D01*
X128036761Y-115058949D01*
X128144410Y-114989767D01*
X128228207Y-114893059D01*
X128281365Y-114776660D01*
X128299576Y-114650000D01*
X128281365Y-114523340D01*
X128228207Y-114406941D01*
X128144410Y-114310233D01*
X128144409Y-114310232D01*
X128036764Y-114241052D01*
X127973911Y-114222597D01*
X127913981Y-114205000D01*
X127786019Y-114205000D01*
X127663239Y-114241051D01*
X127663238Y-114241051D01*
X127663233Y-114241053D01*
X127591239Y-114287321D01*
X127536826Y-114299611D01*
X127487244Y-114274049D01*
X127465692Y-114222597D01*
X127465600Y-114218717D01*
X127465600Y-111336551D01*
X127484679Y-111284132D01*
X127532989Y-111256240D01*
X127547150Y-111255001D01*
X127663981Y-111255001D01*
X127786761Y-111218950D01*
X127894410Y-111149768D01*
X127978207Y-111053060D01*
X128031365Y-110936661D01*
X128049576Y-110810001D01*
X128031365Y-110683341D01*
X127978207Y-110566942D01*
X127894410Y-110470234D01*
X127894409Y-110470233D01*
X127786764Y-110401053D01*
X127663981Y-110365001D01*
X127536019Y-110365001D01*
X127413235Y-110401053D01*
X127305590Y-110470233D01*
X127256271Y-110527151D01*
X127225850Y-110549089D01*
X127211558Y-110555009D01*
X127195839Y-110561520D01*
X127195834Y-110561522D01*
X127179953Y-110568099D01*
X127124223Y-110570529D01*
X127079969Y-110536568D01*
X127067200Y-110492755D01*
X127067200Y-110479456D01*
X127086279Y-110427037D01*
X127091063Y-110421814D01*
X127476492Y-110036384D01*
X127527048Y-110012810D01*
X127534156Y-110012500D01*
X127631481Y-110012500D01*
X127754261Y-109976449D01*
X127861910Y-109907267D01*
X127945707Y-109810559D01*
X127998865Y-109694160D01*
X128017076Y-109567500D01*
X127998865Y-109440840D01*
X127945707Y-109324441D01*
X127861910Y-109227733D01*
X127861909Y-109227732D01*
X127754264Y-109158552D01*
X127631481Y-109122500D01*
X127503519Y-109122500D01*
X127380735Y-109158552D01*
X127273090Y-109227732D01*
X127189292Y-109324442D01*
X127136134Y-109440842D01*
X127117924Y-109567500D01*
X127121127Y-109589779D01*
X127109702Y-109644380D01*
X127098072Y-109659048D01*
X126685815Y-110071306D01*
X126635258Y-110094882D01*
X126581375Y-110080444D01*
X126549379Y-110034749D01*
X126546600Y-110013642D01*
X126546600Y-108460189D01*
X126565679Y-108407770D01*
X126570485Y-108402524D01*
X127386429Y-107586581D01*
X127436986Y-107563006D01*
X127444094Y-107562696D01*
X127558535Y-107562696D01*
X127596432Y-107572037D01*
X127632067Y-107590739D01*
X127632070Y-107590740D01*
X127702099Y-107608000D01*
X127775920Y-107626196D01*
X127775922Y-107626196D01*
X127924078Y-107626196D01*
X127924080Y-107626196D01*
X128067933Y-107590739D01*
X128199122Y-107521886D01*
X128310020Y-107423639D01*
X128394184Y-107301706D01*
X128446722Y-107163175D01*
X128464581Y-107016096D01*
X128446722Y-106869017D01*
X128446722Y-106869016D01*
X128446722Y-106869015D01*
X128394184Y-106730485D01*
X128394182Y-106730483D01*
X128310018Y-106608550D01*
X128199121Y-106510305D01*
X128067929Y-106441451D01*
X127924086Y-106405997D01*
X127924082Y-106405996D01*
X127924080Y-106405996D01*
X127775920Y-106405996D01*
X127775918Y-106405996D01*
X127775913Y-106405997D01*
X127632070Y-106441451D01*
X127632067Y-106441452D01*
X127596432Y-106460155D01*
X127558535Y-106469496D01*
X127260874Y-106469496D01*
X127260858Y-106469495D01*
X127255865Y-106469495D01*
X127111943Y-106469495D01*
X127111937Y-106469495D01*
X126972927Y-106506744D01*
X126848284Y-106578706D01*
X126848283Y-106578707D01*
X125664381Y-107762609D01*
X125664379Y-107762611D01*
X125664378Y-107762610D01*
X125562612Y-107864377D01*
X125490650Y-107989020D01*
X125488219Y-107998095D01*
X125488218Y-107998098D01*
X125453399Y-108128035D01*
X125453399Y-108278528D01*
X125453400Y-108278541D01*
X125453400Y-111405814D01*
X125448101Y-111434732D01*
X125403277Y-111552923D01*
X125385419Y-111699996D01*
X110358999Y-111699996D01*
X110358999Y-111339987D01*
X110358997Y-111339977D01*
X110344263Y-111265895D01*
X110344260Y-111265890D01*
X110288126Y-111181879D01*
X110288120Y-111181873D01*
X110204106Y-111125737D01*
X110204107Y-111125737D01*
X110130021Y-111111000D01*
X109724001Y-111111000D01*
X109724000Y-111111001D01*
X106676000Y-111111001D01*
X106675999Y-111111000D01*
X106269987Y-111111000D01*
X106269977Y-111111002D01*
X106195895Y-111125736D01*
X106195890Y-111125739D01*
X106111879Y-111181873D01*
X106111873Y-111181879D01*
X106055737Y-111265893D01*
X106041000Y-111339978D01*
X105064842Y-111339978D01*
X105061960Y-111310720D01*
X105061959Y-111310709D01*
X105006745Y-111128693D01*
X104917083Y-110960946D01*
X104897150Y-110936658D01*
X104796419Y-110813917D01*
X104796417Y-110813914D01*
X104711279Y-110744043D01*
X104649388Y-110693250D01*
X104649386Y-110693249D01*
X104649385Y-110693248D01*
X104481638Y-110603586D01*
X104481637Y-110603585D01*
X104481636Y-110603585D01*
X104426709Y-110586923D01*
X104299622Y-110548372D01*
X104299616Y-110548371D01*
X104299610Y-110548370D01*
X104110334Y-110529728D01*
X104110328Y-110529728D01*
X103921051Y-110548370D01*
X103921043Y-110548371D01*
X103921040Y-110548372D01*
X103836315Y-110574073D01*
X103739025Y-110603585D01*
X103571270Y-110693251D01*
X103507987Y-110745187D01*
X103455363Y-110763693D01*
X103403155Y-110744043D01*
X103375792Y-110695432D01*
X103386078Y-110640605D01*
X103398584Y-110624487D01*
X103999187Y-110023885D01*
X104049745Y-110000310D01*
X104056852Y-110000000D01*
X116742497Y-110000000D01*
X116742498Y-110000000D01*
X117504191Y-109238000D01*
X117501893Y-103533686D01*
X118284400Y-103533686D01*
X118284400Y-105066306D01*
X118294008Y-105114614D01*
X118294008Y-105114615D01*
X118330606Y-105169387D01*
X118330609Y-105169391D01*
X118330612Y-105169393D01*
X118385385Y-105205991D01*
X118385384Y-105205991D01*
X118385386Y-105205992D01*
X118433691Y-105215600D01*
X119566308Y-105215599D01*
X119614614Y-105205992D01*
X119669391Y-105169391D01*
X119705992Y-105114614D01*
X119715600Y-105066309D01*
X119715599Y-103533692D01*
X119705992Y-103485386D01*
X119702072Y-103479520D01*
X119669393Y-103430612D01*
X119669391Y-103430609D01*
X119614614Y-103394008D01*
X119614615Y-103394008D01*
X119566310Y-103384400D01*
X118433693Y-103384400D01*
X118385385Y-103394008D01*
X118385384Y-103394008D01*
X118330612Y-103430606D01*
X118330606Y-103430612D01*
X118294008Y-103485385D01*
X118284400Y-103533686D01*
X117501893Y-103533686D01*
X117500765Y-100733686D01*
X118284400Y-100733686D01*
X118284400Y-102266306D01*
X118294008Y-102314614D01*
X118294008Y-102314615D01*
X118330606Y-102369387D01*
X118330609Y-102369391D01*
X118380453Y-102402696D01*
X118385385Y-102405991D01*
X118385384Y-102405991D01*
X118385386Y-102405992D01*
X118433691Y-102415600D01*
X119566308Y-102415599D01*
X119601810Y-102408538D01*
X119656944Y-102417024D01*
X119693724Y-102458965D01*
X119694940Y-102514735D01*
X119691899Y-102522397D01*
X119668635Y-102573339D01*
X119668634Y-102573341D01*
X119650424Y-102700000D01*
X119668634Y-102826657D01*
X119668634Y-102826658D01*
X119668635Y-102826660D01*
X119691122Y-102875899D01*
X119719256Y-102937505D01*
X119721793Y-102943059D01*
X119805590Y-103039767D01*
X119913239Y-103108949D01*
X120002975Y-103135297D01*
X120047894Y-103168371D01*
X120061046Y-103222582D01*
X120047808Y-103258844D01*
X120045012Y-103263028D01*
X120005126Y-103359324D01*
X120003282Y-103358560D01*
X119979687Y-103397443D01*
X119973953Y-103401647D01*
X119930610Y-103430608D01*
X119930606Y-103430612D01*
X119894008Y-103485385D01*
X119884400Y-103533686D01*
X119884400Y-105066306D01*
X119894008Y-105114614D01*
X119894008Y-105114615D01*
X119930606Y-105169387D01*
X119930609Y-105169391D01*
X119930612Y-105169393D01*
X119985385Y-105205991D01*
X119985384Y-105205991D01*
X119985386Y-105205992D01*
X120033691Y-105215600D01*
X120466308Y-105215599D01*
X120514614Y-105205992D01*
X120569391Y-105169391D01*
X120605992Y-105114614D01*
X120615600Y-105066309D01*
X120615599Y-103573349D01*
X120634678Y-103520931D01*
X120682988Y-103493039D01*
X120697149Y-103491800D01*
X120802850Y-103491800D01*
X120855269Y-103510879D01*
X120883161Y-103559189D01*
X120884400Y-103573350D01*
X120884400Y-105066306D01*
X120894008Y-105114614D01*
X120894008Y-105114615D01*
X120930606Y-105169387D01*
X120930609Y-105169391D01*
X120930612Y-105169393D01*
X120985385Y-105205991D01*
X120985384Y-105205991D01*
X120985386Y-105205992D01*
X121033691Y-105215600D01*
X121466308Y-105215599D01*
X121514614Y-105205992D01*
X121569391Y-105169391D01*
X121605992Y-105114614D01*
X121615600Y-105066309D01*
X121615599Y-103573349D01*
X121634678Y-103520931D01*
X121682988Y-103493039D01*
X121697149Y-103491800D01*
X121802850Y-103491800D01*
X121855269Y-103510879D01*
X121883161Y-103559189D01*
X121884400Y-103573350D01*
X121884400Y-105066306D01*
X121894008Y-105114614D01*
X121894008Y-105114615D01*
X121930606Y-105169387D01*
X121930609Y-105169391D01*
X121930612Y-105169393D01*
X121985385Y-105205991D01*
X121985384Y-105205991D01*
X121985386Y-105205992D01*
X122033691Y-105215600D01*
X122466308Y-105215599D01*
X122514614Y-105205992D01*
X122569391Y-105169391D01*
X122605992Y-105114614D01*
X122615600Y-105066309D01*
X122615599Y-103573349D01*
X122634678Y-103520931D01*
X122682988Y-103493039D01*
X122697149Y-103491800D01*
X122802850Y-103491800D01*
X122855269Y-103510879D01*
X122883161Y-103559189D01*
X122884400Y-103573350D01*
X122884400Y-105066306D01*
X122894008Y-105114614D01*
X122894008Y-105114615D01*
X122930606Y-105169387D01*
X122930609Y-105169391D01*
X122930612Y-105169393D01*
X122985385Y-105205991D01*
X122985384Y-105205991D01*
X122985386Y-105205992D01*
X123033691Y-105215600D01*
X123466308Y-105215599D01*
X123514614Y-105205992D01*
X123569391Y-105169391D01*
X123605992Y-105114614D01*
X123615600Y-105066309D01*
X123615599Y-104426549D01*
X123634678Y-104374131D01*
X123682988Y-104346239D01*
X123697149Y-104345000D01*
X123823981Y-104345000D01*
X123946761Y-104308949D01*
X124054410Y-104239767D01*
X124138207Y-104143059D01*
X124138208Y-104143056D01*
X124141218Y-104139583D01*
X124189964Y-104112461D01*
X124244739Y-104123017D01*
X124279914Y-104166313D01*
X124284400Y-104192986D01*
X124284400Y-105066306D01*
X124294008Y-105114614D01*
X124294008Y-105114615D01*
X124330606Y-105169387D01*
X124330609Y-105169391D01*
X124330612Y-105169393D01*
X124385385Y-105205991D01*
X124385384Y-105205991D01*
X124385386Y-105205992D01*
X124433691Y-105215600D01*
X125566308Y-105215599D01*
X125614614Y-105205992D01*
X125669391Y-105169391D01*
X125705992Y-105114614D01*
X125715600Y-105066309D01*
X125715599Y-103573349D01*
X125734678Y-103520931D01*
X125782988Y-103493039D01*
X125797149Y-103491800D01*
X129668450Y-103491800D01*
X129720869Y-103510879D01*
X129748761Y-103559189D01*
X129750000Y-103573350D01*
X129750000Y-111500000D01*
X130250000Y-112000000D01*
X134468874Y-112000000D01*
X134521293Y-112019079D01*
X134549185Y-112067389D01*
X134550077Y-112077592D01*
X134568634Y-112206658D01*
X134568634Y-112206659D01*
X134568635Y-112206661D01*
X134621793Y-112323060D01*
X134680707Y-112391051D01*
X134705590Y-112419768D01*
X134813235Y-112488948D01*
X134813236Y-112488948D01*
X134813239Y-112488950D01*
X134936019Y-112525001D01*
X135063981Y-112525001D01*
X135186761Y-112488950D01*
X135294410Y-112419768D01*
X135378207Y-112323060D01*
X135431365Y-112206661D01*
X135449576Y-112080001D01*
X135449575Y-112080000D01*
X135450406Y-112074228D01*
X135452149Y-112074478D01*
X135468655Y-112029131D01*
X135516965Y-112001239D01*
X135531126Y-112000000D01*
X137249998Y-112000000D01*
X137250000Y-112000000D01*
X137750000Y-111500000D01*
X137750000Y-105673350D01*
X137769079Y-105620931D01*
X137817389Y-105593039D01*
X137831550Y-105591800D01*
X139566063Y-105591800D01*
X139618482Y-105610879D01*
X139623728Y-105615685D01*
X142034315Y-108026272D01*
X142057890Y-108076829D01*
X142058200Y-108083937D01*
X142058200Y-112648098D01*
X142060079Y-112652635D01*
X142065456Y-112695446D01*
X142050424Y-112799999D01*
X142068634Y-112926657D01*
X142068634Y-112926658D01*
X142068635Y-112926660D01*
X142121793Y-113043059D01*
X142205590Y-113139767D01*
X142313235Y-113208947D01*
X142313236Y-113208947D01*
X142313239Y-113208949D01*
X142436019Y-113245000D01*
X142451650Y-113245000D01*
X142504069Y-113264079D01*
X142531961Y-113312389D01*
X142533200Y-113326550D01*
X142533200Y-117791063D01*
X142514121Y-117843482D01*
X142509315Y-117848728D01*
X139323728Y-121034315D01*
X139273171Y-121057890D01*
X139266063Y-121058200D01*
X132972296Y-121058200D01*
X132919877Y-121039121D01*
X132914631Y-121034315D01*
X132447059Y-120566743D01*
X132429381Y-120540284D01*
X132423347Y-120525716D01*
X132355328Y-120457696D01*
X132355328Y-120457697D01*
X132100447Y-120202816D01*
X132076872Y-120152259D01*
X132077391Y-120133552D01*
X132082935Y-120095000D01*
X132064724Y-119968340D01*
X132011566Y-119851941D01*
X131927769Y-119755233D01*
X131927768Y-119755232D01*
X131820123Y-119686052D01*
X131697340Y-119650000D01*
X131569378Y-119650000D01*
X131446594Y-119686052D01*
X131338949Y-119755232D01*
X131255151Y-119851942D01*
X131201993Y-119968342D01*
X131183783Y-120095000D01*
X131201993Y-120221657D01*
X131201993Y-120221658D01*
X131201994Y-120221660D01*
X131255152Y-120338059D01*
X131338949Y-120434767D01*
X131338950Y-120434767D01*
X131338953Y-120434771D01*
X131343106Y-120438370D01*
X131370227Y-120487116D01*
X131359669Y-120541892D01*
X131343106Y-120561630D01*
X131338953Y-120565228D01*
X131255151Y-120661942D01*
X131201993Y-120778342D01*
X131183783Y-120905000D01*
X131201993Y-121031657D01*
X131201993Y-121031658D01*
X131201994Y-121031660D01*
X131227999Y-121088603D01*
X131250011Y-121136803D01*
X131255152Y-121148059D01*
X131324609Y-121228218D01*
X131338949Y-121244767D01*
X131446594Y-121313947D01*
X131446595Y-121313947D01*
X131446598Y-121313949D01*
X131569378Y-121350000D01*
X131697339Y-121350000D01*
X131697340Y-121350000D01*
X131815310Y-121315361D01*
X131870979Y-121318899D01*
X131895948Y-121335943D01*
X132696974Y-122136969D01*
X132696973Y-122136969D01*
X132738075Y-122178070D01*
X132764993Y-122204988D01*
X132853865Y-122241800D01*
X139652882Y-122241800D01*
X139741754Y-122204988D01*
X140881929Y-121064812D01*
X140932484Y-121041238D01*
X140986367Y-121055676D01*
X141013773Y-121088603D01*
X141027565Y-121118805D01*
X141031985Y-121174413D01*
X140999626Y-121219852D01*
X140997476Y-121221282D01*
X140982113Y-121231155D01*
X140891141Y-121336144D01*
X140891139Y-121336147D01*
X140833433Y-121462504D01*
X140833431Y-121462509D01*
X140813662Y-121600013D01*
X140833431Y-121737516D01*
X140833433Y-121737521D01*
X140891139Y-121863877D01*
X140891141Y-121863882D01*
X140982113Y-121968870D01*
X140997445Y-121978723D01*
X141031229Y-122023113D01*
X141028575Y-122078833D01*
X141027538Y-122081205D01*
X140978037Y-122189597D01*
X140958268Y-122327100D01*
X140978037Y-122464603D01*
X140978039Y-122464608D01*
X141035741Y-122590956D01*
X141035747Y-122590969D01*
X141126719Y-122695957D01*
X141126721Y-122695958D01*
X141243579Y-122771059D01*
X141243581Y-122771060D01*
X141243582Y-122771060D01*
X141243585Y-122771062D01*
X141320973Y-122793785D01*
X141365893Y-122826859D01*
X141379045Y-122881070D01*
X141378717Y-122883636D01*
X141370110Y-122943502D01*
X141370110Y-122943503D01*
X141389879Y-123081007D01*
X141389881Y-123081012D01*
X141414149Y-123134151D01*
X141447589Y-123207373D01*
X141538561Y-123312361D01*
X141538563Y-123312362D01*
X141655421Y-123387463D01*
X141655423Y-123387464D01*
X141655424Y-123387464D01*
X141655427Y-123387466D01*
X141788719Y-123426604D01*
X141788720Y-123426604D01*
X141927636Y-123426604D01*
X141927637Y-123426604D01*
X142060929Y-123387466D01*
X142060981Y-123387433D01*
X142082773Y-123373427D01*
X142177795Y-123312361D01*
X142268767Y-123207373D01*
X142326476Y-123081009D01*
X142338802Y-122995277D01*
X142365145Y-122946109D01*
X142416933Y-122925376D01*
X142462130Y-122937351D01*
X142514859Y-122969664D01*
X142514864Y-122969666D01*
X142733640Y-123060287D01*
X142733641Y-123060288D01*
X142963913Y-123115571D01*
X142963917Y-123115572D01*
X143200000Y-123134152D01*
X143436083Y-123115572D01*
X143666354Y-123060289D01*
X143666354Y-123060288D01*
X143666358Y-123060288D01*
X143666359Y-123060287D01*
X143694308Y-123048709D01*
X143885141Y-122969664D01*
X144087057Y-122845930D01*
X144267132Y-122692132D01*
X144420930Y-122512057D01*
X144544664Y-122310141D01*
X144635287Y-122091359D01*
X144635288Y-122091358D01*
X144689901Y-121863880D01*
X144690572Y-121861083D01*
X144709152Y-121625000D01*
X144690572Y-121388917D01*
X144686625Y-121372474D01*
X144635288Y-121158641D01*
X144635287Y-121158640D01*
X144544666Y-120939864D01*
X144544662Y-120939856D01*
X144420931Y-120737945D01*
X144420926Y-120737938D01*
X144267140Y-120557877D01*
X144267137Y-120557874D01*
X144267132Y-120557868D01*
X144267125Y-120557862D01*
X144267122Y-120557859D01*
X144087061Y-120404073D01*
X144087054Y-120404068D01*
X143885143Y-120280337D01*
X143885135Y-120280333D01*
X143666359Y-120189712D01*
X143666358Y-120189711D01*
X143590158Y-120171418D01*
X143543641Y-120140629D01*
X143527797Y-120087143D01*
X143547564Y-120038717D01*
X143612330Y-119963973D01*
X143670039Y-119837609D01*
X143689809Y-119700104D01*
X143670039Y-119562599D01*
X143612330Y-119436235D01*
X143521358Y-119331247D01*
X143498463Y-119316533D01*
X143404497Y-119256144D01*
X143404495Y-119256143D01*
X143404492Y-119256142D01*
X143271200Y-119217004D01*
X143132282Y-119217004D01*
X143048674Y-119241553D01*
X142998986Y-119256143D01*
X142998984Y-119256144D01*
X142882124Y-119331245D01*
X142882122Y-119331247D01*
X142816490Y-119406991D01*
X142767743Y-119434113D01*
X142712968Y-119423555D01*
X142710789Y-119422203D01*
X142682537Y-119404047D01*
X142648754Y-119359656D01*
X142651409Y-119303936D01*
X142668959Y-119277781D01*
X143429988Y-118516754D01*
X143466800Y-118427882D01*
X143466800Y-118331689D01*
X143466800Y-113326550D01*
X143485879Y-113274131D01*
X143534189Y-113246239D01*
X143548350Y-113245000D01*
X143563981Y-113245000D01*
X143686761Y-113208949D01*
X143794410Y-113139767D01*
X143878207Y-113043059D01*
X143931365Y-112926660D01*
X143949576Y-112800000D01*
X143934543Y-112695444D01*
X143939923Y-112652626D01*
X143941800Y-112648097D01*
X143941800Y-112648096D01*
X143941800Y-112551903D01*
X143941800Y-108501903D01*
X143904988Y-108413031D01*
X143894481Y-108402524D01*
X143836969Y-108345011D01*
X143836969Y-108345012D01*
X140125424Y-104633467D01*
X140101849Y-104582910D01*
X140116287Y-104529027D01*
X140160114Y-104497555D01*
X140163979Y-104496420D01*
X140163981Y-104496420D01*
X140286761Y-104460369D01*
X140394410Y-104391187D01*
X140478207Y-104294479D01*
X140531365Y-104178080D01*
X140549576Y-104051420D01*
X140531365Y-103924760D01*
X140478207Y-103808361D01*
X140394410Y-103711653D01*
X140394409Y-103711652D01*
X140286764Y-103642472D01*
X140281924Y-103641051D01*
X140163981Y-103606420D01*
X140141340Y-103606420D01*
X140088921Y-103587341D01*
X140083675Y-103582535D01*
X139565009Y-103063869D01*
X139041077Y-102539937D01*
X139041074Y-102539935D01*
X139041073Y-102539934D01*
X138968568Y-102498073D01*
X138968559Y-102498069D01*
X138887692Y-102476401D01*
X138887686Y-102476400D01*
X138887685Y-102476400D01*
X138887682Y-102476400D01*
X137500459Y-102476400D01*
X137448040Y-102457321D01*
X137420148Y-102409011D01*
X137429835Y-102354075D01*
X137432653Y-102349543D01*
X137448468Y-102325874D01*
X137455992Y-102314614D01*
X137465600Y-102266309D01*
X137465599Y-101355296D01*
X140756716Y-101355296D01*
X140776485Y-101492799D01*
X140776487Y-101492804D01*
X140810503Y-101567288D01*
X140834195Y-101619165D01*
X140925167Y-101724153D01*
X140937966Y-101732378D01*
X140940499Y-101734006D01*
X140974283Y-101778396D01*
X140971629Y-101834116D01*
X140970592Y-101836488D01*
X140921090Y-101944881D01*
X140901321Y-102082384D01*
X140921090Y-102219887D01*
X140921092Y-102219892D01*
X140961781Y-102308988D01*
X140978800Y-102346253D01*
X141069772Y-102451241D01*
X141079233Y-102457321D01*
X141186632Y-102526343D01*
X141186634Y-102526344D01*
X141186635Y-102526344D01*
X141186638Y-102526346D01*
X141264028Y-102549069D01*
X141308947Y-102582142D01*
X141322099Y-102636353D01*
X141321771Y-102638920D01*
X141316345Y-102676660D01*
X141313164Y-102698786D01*
X141316166Y-102719664D01*
X141332933Y-102836289D01*
X141332935Y-102836294D01*
X141359207Y-102893821D01*
X141390643Y-102962655D01*
X141481615Y-103067643D01*
X141481617Y-103067644D01*
X141598475Y-103142745D01*
X141598477Y-103142746D01*
X141598478Y-103142746D01*
X141598481Y-103142748D01*
X141731773Y-103181886D01*
X141731774Y-103181886D01*
X141869122Y-103181886D01*
X141921541Y-103200965D01*
X141945866Y-103243097D01*
X141947671Y-103242568D01*
X141949316Y-103248170D01*
X141995523Y-103349348D01*
X142007024Y-103374531D01*
X142097996Y-103479519D01*
X142114415Y-103490071D01*
X142214856Y-103554621D01*
X142214858Y-103554622D01*
X142214859Y-103554622D01*
X142214862Y-103554624D01*
X142348154Y-103593762D01*
X142348155Y-103593762D01*
X142487071Y-103593762D01*
X142487072Y-103593762D01*
X142620364Y-103554624D01*
X142653700Y-103533199D01*
X142708113Y-103520909D01*
X142757696Y-103546469D01*
X142759422Y-103548399D01*
X142825074Y-103624165D01*
X142825075Y-103624167D01*
X142941935Y-103699268D01*
X142941937Y-103699269D01*
X142941938Y-103699269D01*
X142941941Y-103699271D01*
X143075233Y-103738409D01*
X143075234Y-103738409D01*
X143214150Y-103738409D01*
X143214151Y-103738409D01*
X143347443Y-103699271D01*
X143464309Y-103624166D01*
X143555281Y-103519178D01*
X143612990Y-103392814D01*
X143632760Y-103255309D01*
X143612990Y-103117804D01*
X143555281Y-102991440D01*
X143532319Y-102964940D01*
X143512412Y-102912832D01*
X143530657Y-102860116D01*
X143574913Y-102832241D01*
X143666354Y-102810289D01*
X143885141Y-102719664D01*
X144087057Y-102595930D01*
X144267132Y-102442132D01*
X144420930Y-102262057D01*
X144544664Y-102060141D01*
X144635287Y-101841359D01*
X144635288Y-101841358D01*
X144690571Y-101611087D01*
X144690570Y-101611087D01*
X144690572Y-101611083D01*
X144709152Y-101375000D01*
X144690572Y-101138917D01*
X144679172Y-101091430D01*
X144635288Y-100908641D01*
X144635287Y-100908640D01*
X144544666Y-100689864D01*
X144544662Y-100689856D01*
X144539088Y-100680760D01*
X144420930Y-100487943D01*
X144405723Y-100470138D01*
X144267140Y-100307877D01*
X144267137Y-100307874D01*
X144267132Y-100307868D01*
X144267125Y-100307862D01*
X144267122Y-100307859D01*
X144087061Y-100154073D01*
X144087054Y-100154068D01*
X143885143Y-100030337D01*
X143885135Y-100030333D01*
X143666359Y-99939712D01*
X143666358Y-99939711D01*
X143436086Y-99884428D01*
X143436088Y-99884428D01*
X143200000Y-99865848D01*
X142963912Y-99884428D01*
X142733641Y-99939711D01*
X142733640Y-99939712D01*
X142514864Y-100030333D01*
X142514850Y-100030341D01*
X142412708Y-100092933D01*
X142358045Y-100104054D01*
X142309021Y-100077436D01*
X142288577Y-100025534D01*
X142289373Y-100011894D01*
X142289373Y-100011837D01*
X142277894Y-99932000D01*
X142269603Y-99874332D01*
X142211894Y-99747968D01*
X142120922Y-99642980D01*
X142120919Y-99642978D01*
X142004061Y-99567877D01*
X142004059Y-99567876D01*
X142004056Y-99567875D01*
X141870764Y-99528737D01*
X141731846Y-99528737D01*
X141669222Y-99547125D01*
X141598550Y-99567876D01*
X141598548Y-99567877D01*
X141481690Y-99642978D01*
X141390716Y-99747968D01*
X141390714Y-99747971D01*
X141333008Y-99874328D01*
X141333006Y-99874333D01*
X141313237Y-100011838D01*
X141321839Y-100071671D01*
X141310414Y-100126272D01*
X141266564Y-100160755D01*
X141264095Y-100161522D01*
X141186679Y-100184254D01*
X141186672Y-100184257D01*
X141069814Y-100259358D01*
X140978840Y-100364348D01*
X140978838Y-100364351D01*
X140921132Y-100490708D01*
X140921130Y-100490713D01*
X140901361Y-100628217D01*
X140921130Y-100765719D01*
X140921130Y-100765720D01*
X140921131Y-100765722D01*
X140936664Y-100799734D01*
X140970619Y-100874086D01*
X140975039Y-100929694D01*
X140942681Y-100975134D01*
X140940530Y-100976565D01*
X140925167Y-100986438D01*
X140834195Y-101091427D01*
X140834193Y-101091430D01*
X140776487Y-101217787D01*
X140776485Y-101217792D01*
X140756716Y-101355296D01*
X137465599Y-101355296D01*
X137465599Y-100733692D01*
X137455992Y-100685386D01*
X137452900Y-100680759D01*
X137419393Y-100630612D01*
X137419391Y-100630609D01*
X137415811Y-100628217D01*
X137364614Y-100594008D01*
X137364615Y-100594008D01*
X137316310Y-100584400D01*
X136183693Y-100584400D01*
X136135385Y-100594008D01*
X136135384Y-100594008D01*
X136080612Y-100630606D01*
X136080606Y-100630612D01*
X136044008Y-100685385D01*
X136034400Y-100733686D01*
X136034400Y-102266309D01*
X136034482Y-102267133D01*
X136034400Y-102267448D01*
X136034401Y-102270314D01*
X136033666Y-102270314D01*
X136020624Y-102321168D01*
X135975275Y-102353654D01*
X135919655Y-102349390D01*
X135879788Y-102310371D01*
X135879176Y-102309063D01*
X135878207Y-102306941D01*
X135878205Y-102306939D01*
X135875782Y-102301632D01*
X135876709Y-102301208D01*
X135865599Y-102263382D01*
X135865599Y-100733692D01*
X135855992Y-100685386D01*
X135852900Y-100680759D01*
X135819393Y-100630612D01*
X135819391Y-100630609D01*
X135815811Y-100628217D01*
X135764614Y-100594008D01*
X135764615Y-100594008D01*
X135716305Y-100584399D01*
X135714965Y-100584267D01*
X135714473Y-100584034D01*
X135712379Y-100583618D01*
X135712483Y-100583093D01*
X135665295Y-100560775D01*
X135390011Y-100285491D01*
X135100057Y-99995537D01*
X135100054Y-99995535D01*
X135100053Y-99995534D01*
X135027548Y-99953673D01*
X135027539Y-99953669D01*
X134946672Y-99932001D01*
X134946666Y-99932000D01*
X134946665Y-99932000D01*
X124287065Y-99932000D01*
X120437865Y-99932000D01*
X120354135Y-99932000D01*
X120354133Y-99932000D01*
X120354127Y-99932001D01*
X120273260Y-99953669D01*
X120273251Y-99953673D01*
X120200746Y-99995534D01*
X119845534Y-100350746D01*
X119803673Y-100423251D01*
X119803669Y-100423260D01*
X119791109Y-100470137D01*
X119791109Y-100470138D01*
X119782000Y-100504129D01*
X119782000Y-100553282D01*
X119762921Y-100605701D01*
X119714611Y-100633593D01*
X119659675Y-100623906D01*
X119655144Y-100621089D01*
X119614614Y-100594008D01*
X119566310Y-100584400D01*
X118433693Y-100584400D01*
X118385385Y-100594008D01*
X118385384Y-100594008D01*
X118330612Y-100630606D01*
X118330606Y-100630612D01*
X118294008Y-100685385D01*
X118284400Y-100733686D01*
X117500765Y-100733686D01*
X117500320Y-99628339D01*
X117519378Y-99575914D01*
X117524152Y-99570697D01*
X118238138Y-98855798D01*
X118288680Y-98832192D01*
X118295758Y-98831877D01*
X144204939Y-98809189D01*
X144257373Y-98828222D01*
G37*
G04 #@! TD.AperFunction*
G04 #@! TA.AperFunction,Conductor*
G36*
X105987066Y-98853458D02*
G01*
X108976864Y-98857827D01*
X108993163Y-98857852D01*
X116966257Y-98869504D01*
X117018648Y-98888660D01*
X117023844Y-98893432D01*
X117434056Y-99304244D01*
X117457594Y-99354818D01*
X117443117Y-99408690D01*
X117434051Y-99419493D01*
X117403444Y-99450139D01*
X117398300Y-99455519D01*
X117393519Y-99460745D01*
X117359045Y-99517624D01*
X117339986Y-99570053D01*
X117329720Y-99628405D01*
X117330165Y-100733754D01*
X117330174Y-100755000D01*
X117330174Y-100755002D01*
X117331293Y-103533755D01*
X117331902Y-105044999D01*
X117333548Y-109133594D01*
X117314490Y-109186021D01*
X117309674Y-109191280D01*
X116695700Y-109805503D01*
X116645148Y-109829088D01*
X116638024Y-109829400D01*
X104056852Y-109829400D01*
X104050657Y-109829535D01*
X104049414Y-109829562D01*
X104042306Y-109829872D01*
X103977648Y-109845692D01*
X103927088Y-109869268D01*
X103927087Y-109869269D01*
X103878560Y-109903248D01*
X103878553Y-109903253D01*
X103805691Y-109976115D01*
X103755134Y-109999690D01*
X103748027Y-110000000D01*
X103431523Y-110000000D01*
X103379104Y-109980921D01*
X103376672Y-109978797D01*
X103373721Y-109976115D01*
X102875724Y-109523473D01*
X102849766Y-109474097D01*
X102849398Y-109470916D01*
X102842398Y-109397729D01*
X102294795Y-108900000D01*
X101033780Y-108900000D01*
X100981361Y-108880921D01*
X100976115Y-108876115D01*
X100764175Y-108664175D01*
X103610331Y-108664175D01*
X103610331Y-108795827D01*
X103644406Y-108922994D01*
X103710232Y-109037008D01*
X103803324Y-109130100D01*
X103917338Y-109195926D01*
X104044505Y-109230001D01*
X104176157Y-109230001D01*
X104303324Y-109195926D01*
X104417338Y-109130100D01*
X104510430Y-109037008D01*
X104576256Y-108922994D01*
X104610331Y-108795827D01*
X104610331Y-108664175D01*
X104603586Y-108639001D01*
X106041001Y-108639001D01*
X106041001Y-109260012D01*
X106041002Y-109260022D01*
X106055736Y-109334104D01*
X106055739Y-109334109D01*
X106111873Y-109418120D01*
X106111879Y-109418126D01*
X106195893Y-109474262D01*
X106195892Y-109474262D01*
X106269981Y-109488999D01*
X106675998Y-109488999D01*
X106676000Y-109488998D01*
X106676000Y-108639001D01*
X109724000Y-108639001D01*
X109724000Y-109488998D01*
X109724001Y-109488999D01*
X110130012Y-109488999D01*
X110130022Y-109488997D01*
X110204104Y-109474263D01*
X110204109Y-109474260D01*
X110288120Y-109418126D01*
X110288126Y-109418120D01*
X110344262Y-109334106D01*
X110358999Y-109260021D01*
X110359000Y-109260014D01*
X110359000Y-108639001D01*
X110358999Y-108639000D01*
X109724001Y-108639000D01*
X109724000Y-108639001D01*
X106676000Y-108639001D01*
X106675999Y-108639000D01*
X106041002Y-108639000D01*
X106041001Y-108639001D01*
X104603586Y-108639001D01*
X104576256Y-108537008D01*
X104510430Y-108422994D01*
X104417338Y-108329902D01*
X104303324Y-108264076D01*
X104176157Y-108230001D01*
X104044505Y-108230001D01*
X103917338Y-108264076D01*
X103803324Y-108329902D01*
X103710232Y-108422994D01*
X103644406Y-108537008D01*
X103610331Y-108664175D01*
X100764175Y-108664175D01*
X100523885Y-108423885D01*
X100500310Y-108373328D01*
X100500000Y-108366220D01*
X100500000Y-107692746D01*
X100519079Y-107640327D01*
X100567389Y-107612435D01*
X100622325Y-107622122D01*
X100658182Y-107664854D01*
X100659589Y-107669074D01*
X100666769Y-107692746D01*
X100673917Y-107716308D01*
X100763579Y-107884055D01*
X100884245Y-108031087D01*
X101031277Y-108151753D01*
X101199024Y-108241415D01*
X101381040Y-108296629D01*
X101422727Y-108300734D01*
X101570328Y-108315273D01*
X101570331Y-108315273D01*
X101570334Y-108315273D01*
X101687482Y-108303734D01*
X101759622Y-108296629D01*
X101941638Y-108241415D01*
X102109385Y-108151753D01*
X102256417Y-108031087D01*
X102377083Y-107884055D01*
X102466745Y-107716308D01*
X102521959Y-107534292D01*
X102535918Y-107392568D01*
X102540603Y-107345004D01*
X102540603Y-107344997D01*
X102521960Y-107155721D01*
X102521959Y-107155710D01*
X102466745Y-106973694D01*
X102377083Y-106805947D01*
X102256417Y-106658915D01*
X102156111Y-106576596D01*
X102109388Y-106538251D01*
X102109386Y-106538250D01*
X102109385Y-106538249D01*
X101941638Y-106448587D01*
X101941637Y-106448586D01*
X101941636Y-106448586D01*
X101886709Y-106431924D01*
X101759622Y-106393373D01*
X101759616Y-106393372D01*
X101759610Y-106393371D01*
X101570334Y-106374729D01*
X101570328Y-106374729D01*
X101381051Y-106393371D01*
X101381043Y-106393372D01*
X101381040Y-106393373D01*
X101296315Y-106419074D01*
X101199025Y-106448586D01*
X101031273Y-106538251D01*
X100884248Y-106658912D01*
X100884242Y-106658918D01*
X100763581Y-106805943D01*
X100673914Y-106973698D01*
X100659588Y-107020928D01*
X100626114Y-107065552D01*
X100571788Y-107078219D01*
X100522030Y-107053002D01*
X100500121Y-107001701D01*
X100500000Y-106997255D01*
X100500000Y-105894175D01*
X103610331Y-105894175D01*
X103610331Y-106025827D01*
X103644406Y-106152994D01*
X103710232Y-106267008D01*
X103803324Y-106360100D01*
X103917338Y-106425926D01*
X104044505Y-106460001D01*
X104176157Y-106460001D01*
X104303324Y-106425926D01*
X104417338Y-106360100D01*
X104510430Y-106267008D01*
X104576256Y-106152994D01*
X104610331Y-106025827D01*
X104610331Y-105894175D01*
X104576256Y-105767008D01*
X104510430Y-105652994D01*
X104417338Y-105559902D01*
X104303324Y-105494076D01*
X104176157Y-105460001D01*
X104044505Y-105460001D01*
X103917338Y-105494076D01*
X103803324Y-105559902D01*
X103710232Y-105652994D01*
X103644406Y-105767008D01*
X103610331Y-105894175D01*
X100500000Y-105894175D01*
X100500000Y-104969978D01*
X106041000Y-104969978D01*
X106041000Y-105590999D01*
X106041001Y-105591000D01*
X106675999Y-105591000D01*
X106676000Y-105590999D01*
X106676000Y-104741001D01*
X109724000Y-104741001D01*
X109724000Y-105590999D01*
X109724001Y-105591000D01*
X110358998Y-105591000D01*
X110358999Y-105590999D01*
X110358999Y-104969987D01*
X110358997Y-104969977D01*
X110344263Y-104895895D01*
X110344260Y-104895890D01*
X110288126Y-104811879D01*
X110288120Y-104811873D01*
X110204106Y-104755737D01*
X110204107Y-104755737D01*
X110130021Y-104741000D01*
X109724001Y-104741000D01*
X109724000Y-104741001D01*
X106676000Y-104741001D01*
X106675999Y-104741000D01*
X106269987Y-104741000D01*
X106269977Y-104741002D01*
X106195895Y-104755736D01*
X106195890Y-104755739D01*
X106111879Y-104811873D01*
X106111873Y-104811879D01*
X106055737Y-104895893D01*
X106041000Y-104969978D01*
X100500000Y-104969978D01*
X100500000Y-104010557D01*
X100499844Y-103903998D01*
X100498535Y-103010500D01*
X100493741Y-101375000D01*
X100690848Y-101375000D01*
X100709428Y-101611087D01*
X100764711Y-101841358D01*
X100764712Y-101841359D01*
X100855333Y-102060135D01*
X100855337Y-102060143D01*
X100979068Y-102262054D01*
X100979073Y-102262061D01*
X101124464Y-102432293D01*
X101132868Y-102442132D01*
X101132874Y-102442137D01*
X101132877Y-102442140D01*
X101291562Y-102577669D01*
X101312943Y-102595930D01*
X101514859Y-102719664D01*
X101526401Y-102724445D01*
X101652200Y-102776553D01*
X101733646Y-102810289D01*
X101898759Y-102849929D01*
X101945275Y-102880717D01*
X101961119Y-102934203D01*
X101940066Y-102982622D01*
X101940714Y-102983184D01*
X101938923Y-102985249D01*
X101938876Y-102985360D01*
X101938598Y-102985625D01*
X101845922Y-103092580D01*
X101845920Y-103092583D01*
X101788214Y-103218940D01*
X101788212Y-103218945D01*
X101768443Y-103356449D01*
X101788212Y-103493952D01*
X101788214Y-103493957D01*
X101832641Y-103591238D01*
X101845922Y-103620318D01*
X101936894Y-103725306D01*
X101957695Y-103738674D01*
X102053754Y-103800408D01*
X102053756Y-103800409D01*
X102053757Y-103800409D01*
X102053760Y-103800411D01*
X102187052Y-103839549D01*
X102187053Y-103839549D01*
X102325969Y-103839549D01*
X102325970Y-103839549D01*
X102459262Y-103800411D01*
X102459611Y-103800187D01*
X102576127Y-103725307D01*
X102576127Y-103725306D01*
X102576128Y-103725306D01*
X102641761Y-103649560D01*
X102690505Y-103622440D01*
X102745280Y-103632996D01*
X102747449Y-103634341D01*
X102780847Y-103655805D01*
X102914139Y-103694943D01*
X102914140Y-103694943D01*
X103053056Y-103694943D01*
X103053057Y-103694943D01*
X103186349Y-103655805D01*
X103196064Y-103649562D01*
X103210377Y-103640363D01*
X103303215Y-103580700D01*
X103394187Y-103475712D01*
X103451896Y-103349348D01*
X103453540Y-103343750D01*
X103455966Y-103344462D01*
X103477695Y-103303886D01*
X103529478Y-103283142D01*
X103532084Y-103283100D01*
X103669458Y-103283100D01*
X103669459Y-103283100D01*
X103802751Y-103243962D01*
X103919617Y-103168857D01*
X104010589Y-103063869D01*
X104068298Y-102937505D01*
X104088068Y-102800000D01*
X104079465Y-102740165D01*
X104090890Y-102685566D01*
X104134739Y-102651083D01*
X104137173Y-102650325D01*
X104214627Y-102627583D01*
X104216918Y-102626111D01*
X104263567Y-102596131D01*
X104331493Y-102552478D01*
X104422465Y-102447490D01*
X104480174Y-102321126D01*
X104499944Y-102183621D01*
X104480174Y-102046116D01*
X104442827Y-101964338D01*
X104430686Y-101937752D01*
X104426265Y-101882144D01*
X104458622Y-101836704D01*
X104460731Y-101835300D01*
X104476139Y-101825399D01*
X104567111Y-101720411D01*
X104624820Y-101594047D01*
X104644590Y-101456542D01*
X104624820Y-101319037D01*
X104593292Y-101250000D01*
X105300000Y-101250000D01*
X105300000Y-103750000D01*
X105400000Y-103850000D01*
X105400001Y-103850000D01*
X105549576Y-103850000D01*
X105578075Y-103855142D01*
X105691761Y-103897545D01*
X105751793Y-103903999D01*
X106149998Y-103903999D01*
X106165766Y-103888231D01*
X106169079Y-103879131D01*
X106217389Y-103851239D01*
X106231550Y-103850000D01*
X108368450Y-103850000D01*
X108420869Y-103869079D01*
X108428775Y-103882773D01*
X108450001Y-103903999D01*
X108848204Y-103903999D01*
X108848209Y-103903998D01*
X108908232Y-103897547D01*
X108908236Y-103897546D01*
X109021925Y-103855142D01*
X109050424Y-103850000D01*
X109249999Y-103850000D01*
X109250000Y-103850000D01*
X109250000Y-101567288D01*
X110784400Y-101567288D01*
X110784400Y-103432712D01*
X110786673Y-103447063D01*
X110799812Y-103530025D01*
X110799812Y-103530026D01*
X110799813Y-103530028D01*
X110859581Y-103647329D01*
X110952671Y-103740419D01*
X111069972Y-103800187D01*
X111167288Y-103815600D01*
X111944850Y-103815600D01*
X111997269Y-103834679D01*
X112025161Y-103882989D01*
X112026400Y-103897150D01*
X112026400Y-104366348D01*
X112052285Y-104496479D01*
X112052288Y-104496488D01*
X112103063Y-104619068D01*
X112176777Y-104729390D01*
X112176778Y-104729391D01*
X112176781Y-104729395D01*
X112270605Y-104823219D01*
X112380931Y-104896936D01*
X112503518Y-104947714D01*
X112633656Y-104973600D01*
X112633658Y-104973600D01*
X112766342Y-104973600D01*
X112766344Y-104973600D01*
X112896482Y-104947714D01*
X113019069Y-104896936D01*
X113129395Y-104823219D01*
X113223219Y-104729395D01*
X113296936Y-104619069D01*
X113347714Y-104496482D01*
X113373600Y-104366344D01*
X113373600Y-103897150D01*
X113392679Y-103844731D01*
X113440989Y-103816839D01*
X113455150Y-103815600D01*
X114232710Y-103815600D01*
X114232712Y-103815600D01*
X114330028Y-103800187D01*
X114447329Y-103740419D01*
X114540419Y-103647329D01*
X114600187Y-103530028D01*
X114615600Y-103432712D01*
X114615600Y-101567288D01*
X114600187Y-101469972D01*
X114540419Y-101352671D01*
X114447329Y-101259581D01*
X114330028Y-101199813D01*
X114330026Y-101199812D01*
X114330025Y-101199812D01*
X114269336Y-101190200D01*
X114232712Y-101184400D01*
X111167288Y-101184400D01*
X111136464Y-101189281D01*
X111069974Y-101199812D01*
X110952672Y-101259580D01*
X110859580Y-101352672D01*
X110799812Y-101469974D01*
X110790942Y-101525983D01*
X110784400Y-101567288D01*
X109250000Y-101567288D01*
X109250000Y-101250000D01*
X109200000Y-101200000D01*
X109133817Y-101200000D01*
X109084946Y-101183734D01*
X109044024Y-101153101D01*
X109044022Y-101153099D01*
X108908238Y-101102454D01*
X108848207Y-101096000D01*
X108450001Y-101096000D01*
X108450000Y-101096001D01*
X108450000Y-101118450D01*
X108430921Y-101170869D01*
X108382611Y-101198761D01*
X108368450Y-101200000D01*
X106231550Y-101200000D01*
X106179131Y-101180921D01*
X106151239Y-101132611D01*
X106150000Y-101118450D01*
X106150000Y-101096001D01*
X106149999Y-101096000D01*
X105751796Y-101096000D01*
X105751790Y-101096001D01*
X105691767Y-101102452D01*
X105691763Y-101102453D01*
X105555977Y-101153099D01*
X105555975Y-101153101D01*
X105515054Y-101183734D01*
X105466183Y-101200000D01*
X105350000Y-101200000D01*
X105300000Y-101250000D01*
X104593292Y-101250000D01*
X104567111Y-101192673D01*
X104476139Y-101087685D01*
X104476138Y-101087684D01*
X104460803Y-101077829D01*
X104427021Y-101033438D01*
X104429675Y-100977718D01*
X104430690Y-100975398D01*
X104480214Y-100866958D01*
X104499984Y-100729453D01*
X104480214Y-100591948D01*
X104422505Y-100465584D01*
X104331533Y-100360596D01*
X104331530Y-100360594D01*
X104214672Y-100285493D01*
X104214668Y-100285491D01*
X104214667Y-100285491D01*
X104137277Y-100262767D01*
X104092358Y-100229693D01*
X104079207Y-100175482D01*
X104079526Y-100172973D01*
X104088142Y-100113051D01*
X104068372Y-99975546D01*
X104010663Y-99849182D01*
X103919691Y-99744194D01*
X103919688Y-99744192D01*
X103802830Y-99669091D01*
X103802828Y-99669090D01*
X103802825Y-99669089D01*
X103669533Y-99629951D01*
X103530615Y-99629951D01*
X103447007Y-99654500D01*
X103397319Y-99669090D01*
X103397317Y-99669091D01*
X103280459Y-99744192D01*
X103189485Y-99849182D01*
X103189483Y-99849185D01*
X103131777Y-99975542D01*
X103131775Y-99975547D01*
X103122206Y-100042105D01*
X103095861Y-100091275D01*
X103044073Y-100112008D01*
X102998877Y-100100032D01*
X102885149Y-100030341D01*
X102885141Y-100030336D01*
X102885138Y-100030334D01*
X102885135Y-100030333D01*
X102666359Y-99939712D01*
X102666358Y-99939711D01*
X102436086Y-99884428D01*
X102436088Y-99884428D01*
X102200000Y-99865848D01*
X101963912Y-99884428D01*
X101733641Y-99939711D01*
X101733640Y-99939712D01*
X101514864Y-100030333D01*
X101514856Y-100030337D01*
X101312945Y-100154068D01*
X101312938Y-100154073D01*
X101132877Y-100307859D01*
X101132859Y-100307877D01*
X100979073Y-100487938D01*
X100979068Y-100487945D01*
X100855337Y-100689856D01*
X100855333Y-100689864D01*
X100764712Y-100908640D01*
X100764711Y-100908641D01*
X100709428Y-101138912D01*
X100690848Y-101375000D01*
X100493741Y-101375000D01*
X100487891Y-99379299D01*
X100506817Y-99326825D01*
X100511725Y-99321448D01*
X100962385Y-98870125D01*
X101012923Y-98846515D01*
X101020197Y-98846199D01*
X105987066Y-98853458D01*
G37*
G04 #@! TD.AperFunction*
M02*
