M48
; DRILL file {KiCad 8.0.9-8.0.9-0~ubuntu20.04.1} date 2025-08-07T15:34:17-0500
; FORMAT={-:-/ absolute / metric / decimal}
; #@! TF.CreationDate,2025-08-07T15:34:17-05:00
; #@! TF.GenerationSoftware,Kicad,Pcbnew,8.0.9-8.0.9-0~ubuntu20.04.1
; #@! TF.FileFunction,Plated,1,2,PTH
FMAT,2
METRIC
; #@! TA.AperFunction,Plated,PTH,ViaDrill
T1C0.305
; #@! TA.AperFunction,Plated,PTH,ViaDrill
T2C0.356
; #@! TA.AperFunction,Plated,PTH,ViaDrill
T3C0.381
; #@! TA.AperFunction,Plated,PTH,ViaDrill
T4C0.508
; #@! TA.AperFunction,Plated,PTH,ComponentDrill
T5C1.000
%
G90
G05
T1
X120.1Y-102.7
X123.76Y-103.9
X125.989Y-102.15
X126.0Y-119.7
X127.52Y-101.61
X127.567Y-109.567
X127.6Y-110.81
X127.6Y-117.3
X127.85Y-114.65
X127.85Y-115.9
X131.633Y-120.095
X131.633Y-120.905
X132.0Y-105.45
X135.0Y-112.08
X135.5Y-102.55
X135.65Y-103.75
X137.1Y-106.1
X139.2Y-104.05
X140.1Y-104.051
X142.5Y-112.8
X143.5Y-112.8
T2
X102.2Y-119.7
X102.257Y-103.356
X102.927Y-119.845
X102.984Y-103.212
X103.543Y-122.943
X103.543Y-120.257
X103.6Y-102.8
X103.6Y-100.113
X103.955Y-122.327
X103.955Y-120.873
X104.012Y-102.184
X104.012Y-100.729
X104.1Y-121.6
X104.157Y-101.457
X141.245Y-101.355
X141.302Y-121.6
X141.389Y-102.082
X141.389Y-100.628
X141.446Y-122.327
X141.446Y-120.873
X141.801Y-102.699
X141.801Y-100.012
X141.858Y-122.944
X141.858Y-120.257
X142.418Y-103.111
X142.475Y-119.845
X143.145Y-103.255
X143.202Y-119.7
T3
X112.7Y-104.3
X117.25Y-117.75
X120.3Y-108.9
X141.979Y-113.7
T4
X126.0Y-111.7
X127.85Y-107.016
X127.9Y-108.27
X128.1Y-113.35
T5
X101.57Y-107.345
X101.57Y-110.115
X101.57Y-112.885
X101.57Y-115.655
X104.11Y-105.96
X104.11Y-108.73
X104.11Y-111.5
X104.11Y-114.27
X104.11Y-117.04
X113.117Y-114.957
X115.657Y-114.957
X118.197Y-114.957
M30
