G04 #@! TF.GenerationSoftware,KiCad,Pcbnew,8.0.9-8.0.9-0~ubuntu20.04.1*
G04 #@! TF.CreationDate,2025-08-07T15:34:15-05:00*
G04 #@! TF.ProjectId,PLATO_JUNCTION_BOARD,504c4154-4f5f-44a5-954e-4354494f4e5f,rev?*
G04 #@! TF.SameCoordinates,Original*
G04 #@! TF.FileFunction,Soldermask,Top*
G04 #@! TF.FilePolarity,Negative*
%FSLAX46Y46*%
G04 Gerber Fmt 4.6, Leading zero omitted, Abs format (unit mm)*
G04 Created by KiCad (PCBNEW 8.0.9-8.0.9-0~ubuntu20.04.1) date 2025-08-07 15:34:15*
%MOMM*%
%LPD*%
G01*
G04 APERTURE LIST*
G04 Aperture macros list*
%AMRoundRect*
0 Rectangle with rounded corners*
0 $1 Rounding radius*
0 $2 $3 $4 $5 $6 $7 $8 $9 X,Y pos of 4 corners*
0 Add a 4 corners polygon primitive as box body*
4,1,4,$2,$3,$4,$5,$6,$7,$8,$9,$2,$3,0*
0 Add four circle primitives for the rounded corners*
1,1,$1+$1,$2,$3*
1,1,$1+$1,$4,$5*
1,1,$1+$1,$6,$7*
1,1,$1+$1,$8,$9*
0 Add four rect primitives between the rounded corners*
20,1,$1+$1,$2,$3,$4,$5,0*
20,1,$1+$1,$4,$5,$6,$7,0*
20,1,$1+$1,$6,$7,$8,$9,0*
20,1,$1+$1,$8,$9,$2,$3,0*%
G04 Aperture macros list end*
%ADD10RoundRect,0.250000X-0.550000X0.550000X-0.550000X-0.550000X0.550000X-0.550000X0.550000X0.550000X0*%
%ADD11C,1.600000*%
%ADD12R,3.810000X4.240000*%
%ADD13RoundRect,0.249997X-2.950003X-2.650003X2.950003X-2.650003X2.950003X2.650003X-2.950003X2.650003X0*%
%ADD14RoundRect,0.250000X-0.850000X-0.350000X0.850000X-0.350000X0.850000X0.350000X-0.850000X0.350000X0*%
%ADD15RoundRect,0.250000X0.350000X0.450000X-0.350000X0.450000X-0.350000X-0.450000X0.350000X-0.450000X0*%
%ADD16RoundRect,0.125000X0.125000X0.125000X-0.125000X0.125000X-0.125000X-0.125000X0.125000X-0.125000X0*%
%ADD17RoundRect,0.102000X0.200000X0.750000X-0.200000X0.750000X-0.200000X-0.750000X0.200000X-0.750000X0*%
%ADD18RoundRect,0.102000X0.550000X0.750000X-0.550000X0.750000X-0.550000X-0.750000X0.550000X-0.750000X0*%
%ADD19RoundRect,0.250000X-1.500000X-0.900000X1.500000X-0.900000X1.500000X0.900000X-1.500000X0.900000X0*%
%ADD20O,1.500000X2.300000*%
%ADD21RoundRect,0.250000X0.500000X0.900000X-0.500000X0.900000X-0.500000X-0.900000X0.500000X-0.900000X0*%
G04 APERTURE END LIST*
D10*
X104110331Y-117040001D03*
D11*
X104110331Y-114270001D03*
X104110331Y-111500000D03*
X104110331Y-108730001D03*
X104110331Y-105960001D03*
X101570331Y-115655001D03*
X101570331Y-112885001D03*
D10*
X101570331Y-110115001D03*
D11*
X101570331Y-107345001D03*
D12*
X108200000Y-107115000D03*
X108200000Y-113485000D03*
D13*
X122100001Y-119572500D03*
D14*
X115800000Y-121852500D03*
X115800000Y-117292500D03*
D15*
X110000000Y-121000000D03*
X108000000Y-121000000D03*
D16*
X113599999Y-119250000D03*
X111400001Y-119250000D03*
D17*
X132000000Y-110900000D03*
X132500001Y-108100000D03*
X133000000Y-110900000D03*
X133500000Y-108100000D03*
X134000000Y-110900000D03*
X134500000Y-108100000D03*
X134999999Y-110900000D03*
X135500000Y-108100000D03*
D18*
X130750000Y-110900000D03*
X130750000Y-108100000D03*
X136750000Y-110900000D03*
X136750000Y-108100000D03*
D17*
X132000000Y-104300000D03*
X132500000Y-101500000D03*
X133000000Y-104300000D03*
X133500000Y-101500000D03*
X134000000Y-104300000D03*
X134500000Y-101500000D03*
X135000000Y-104300000D03*
X135500000Y-101500000D03*
D18*
X130750000Y-104300000D03*
X130750000Y-101500000D03*
X136750000Y-104300000D03*
X136750000Y-101500000D03*
D17*
X120250000Y-104300000D03*
X120750000Y-101500000D03*
X121250000Y-104300000D03*
X121750000Y-101500000D03*
X122250000Y-104300000D03*
X122750000Y-101500000D03*
X123250000Y-104300000D03*
X123750000Y-101500000D03*
D18*
X119000000Y-104300000D03*
X119000000Y-101500000D03*
X125000000Y-104300000D03*
X125000000Y-101500000D03*
D19*
X107300000Y-102500000D03*
X112700000Y-102500000D03*
D20*
X118197000Y-114957500D03*
D21*
X115657000Y-114957500D03*
D20*
X113117001Y-114957500D03*
M02*
