G04 #@! TF.GenerationSoftware,KiCad,Pcbnew,8.0.9-8.0.9-0~ubuntu20.04.1*
G04 #@! TF.CreationDate,2025-08-07T15:34:15-05:00*
G04 #@! TF.ProjectId,PLATO_JUNCTION_BOARD,504c4154-4f5f-44a5-954e-4354494f4e5f,rev?*
G04 #@! TF.SameCoordinates,Original*
G04 #@! TF.FileFunction,Soldermask,Bot*
G04 #@! TF.FilePolarity,Negative*
%FSLAX46Y46*%
G04 Gerber Fmt 4.6, Leading zero omitted, Abs format (unit mm)*
G04 Created by KiCad (PCBNEW 8.0.9-8.0.9-0~ubuntu20.04.1) date 2025-08-07 15:34:15*
%MOMM*%
%LPD*%
G01*
G04 APERTURE LIST*
G04 Aperture macros list*
%AMRoundRect*
0 Rectangle with rounded corners*
0 $1 Rounding radius*
0 $2 $3 $4 $5 $6 $7 $8 $9 X,Y pos of 4 corners*
0 Add a 4 corners polygon primitive as box body*
4,1,4,$2,$3,$4,$5,$6,$7,$8,$9,$2,$3,0*
0 Add four circle primitives for the rounded corners*
1,1,$1+$1,$2,$3*
1,1,$1+$1,$4,$5*
1,1,$1+$1,$6,$7*
1,1,$1+$1,$8,$9*
0 Add four rect primitives between the rounded corners*
20,1,$1+$1,$2,$3,$4,$5,0*
20,1,$1+$1,$4,$5,$6,$7,0*
20,1,$1+$1,$6,$7,$8,$9,0*
20,1,$1+$1,$8,$9,$2,$3,0*%
G04 Aperture macros list end*
%ADD10RoundRect,0.250000X-0.550000X0.550000X-0.550000X-0.550000X0.550000X-0.550000X0.550000X0.550000X0*%
%ADD11C,1.600000*%
%ADD12RoundRect,0.102000X1.460000X-0.370000X1.460000X0.370000X-1.460000X0.370000X-1.460000X-0.370000X0*%
%ADD13RoundRect,0.250000X0.475000X-0.337500X0.475000X0.337500X-0.475000X0.337500X-0.475000X-0.337500X0*%
%ADD14RoundRect,0.250000X-0.337500X-0.475000X0.337500X-0.475000X0.337500X0.475000X-0.337500X0.475000X0*%
%ADD15RoundRect,0.250000X0.450000X-0.350000X0.450000X0.350000X-0.450000X0.350000X-0.450000X-0.350000X0*%
%ADD16RoundRect,0.250000X-0.475000X0.337500X-0.475000X-0.337500X0.475000X-0.337500X0.475000X0.337500X0*%
%ADD17R,0.850000X0.949992*%
%ADD18R,0.850000X0.949986*%
%ADD19RoundRect,0.150000X-0.587500X-0.150000X0.587500X-0.150000X0.587500X0.150000X-0.587500X0.150000X0*%
%ADD20RoundRect,0.250000X-0.450000X0.350000X-0.450000X-0.350000X0.450000X-0.350000X0.450000X0.350000X0*%
%ADD21O,1.500000X2.300000*%
%ADD22RoundRect,0.250000X0.500000X0.900000X-0.500000X0.900000X-0.500000X-0.900000X0.500000X-0.900000X0*%
%ADD23RoundRect,0.250000X-0.350000X-0.450000X0.350000X-0.450000X0.350000X0.450000X-0.350000X0.450000X0*%
%ADD24RoundRect,0.102000X1.025000X1.750000X-1.025000X1.750000X-1.025000X-1.750000X1.025000X-1.750000X0*%
%ADD25RoundRect,0.102000X-0.450000X-0.200000X0.450000X-0.200000X0.450000X0.200000X-0.450000X0.200000X0*%
%ADD26RoundRect,0.102000X-0.200000X0.450000X-0.200000X-0.450000X0.200000X-0.450000X0.200000X0.450000X0*%
%ADD27RoundRect,0.250000X0.337500X0.475000X-0.337500X0.475000X-0.337500X-0.475000X0.337500X-0.475000X0*%
G04 APERTURE END LIST*
D10*
X104110331Y-117040001D03*
D11*
X104110331Y-114270001D03*
X104110331Y-111500000D03*
X104110331Y-108730001D03*
X104110331Y-105960001D03*
X101570331Y-115655001D03*
X101570331Y-112885001D03*
D10*
X101570331Y-110115001D03*
D11*
X101570331Y-107345001D03*
D12*
X129785000Y-115890001D03*
X133215000Y-115890001D03*
X129785000Y-114620001D03*
X133215000Y-114620001D03*
X129785000Y-113350001D03*
X133215000Y-113350001D03*
X129785000Y-112080001D03*
X133215000Y-112080001D03*
X129785000Y-110810001D03*
X133215000Y-110810001D03*
X129785000Y-109540001D03*
X133215000Y-109540001D03*
X129785000Y-108270001D03*
X133215000Y-108270001D03*
X129785000Y-107000001D03*
X133215000Y-107000001D03*
D13*
X125820000Y-105320000D03*
X125820000Y-103245000D03*
D14*
X113212500Y-118250000D03*
X115287500Y-118250000D03*
D15*
X124500000Y-114000000D03*
X124500000Y-112000000D03*
D16*
X123819999Y-103245000D03*
X123819999Y-105320000D03*
D17*
X125975000Y-115874996D03*
D18*
X124825000Y-115874993D03*
D19*
X106662500Y-117250000D03*
X106662500Y-115350000D03*
X108537501Y-116300000D03*
D17*
X133225000Y-119775004D03*
D18*
X134375000Y-119775007D03*
D19*
X106412500Y-111150000D03*
X106412500Y-109250000D03*
X108287501Y-110200000D03*
D20*
X136000000Y-119850000D03*
X136000000Y-121850000D03*
D21*
X118197000Y-114957500D03*
D22*
X115657000Y-114957500D03*
D21*
X113117001Y-114957500D03*
D23*
X113250000Y-120250000D03*
X115250000Y-120250000D03*
D24*
X117875000Y-106000000D03*
X115125000Y-106000000D03*
D25*
X127987500Y-119320001D03*
X129687500Y-119320001D03*
X129687500Y-120120001D03*
X127987500Y-120120001D03*
D12*
X136820000Y-115890002D03*
X140250000Y-115890002D03*
X136820000Y-114620001D03*
X140250000Y-114620001D03*
X136819999Y-113350001D03*
X140250001Y-113350001D03*
X136820000Y-112080001D03*
X140250000Y-112080001D03*
X136820000Y-110810001D03*
X140250000Y-110810001D03*
X136819999Y-109540001D03*
X140250001Y-109540001D03*
X136820000Y-108270001D03*
X140250000Y-108270001D03*
X136820000Y-107000000D03*
X140250000Y-107000000D03*
D13*
X120250000Y-107037500D03*
X120250000Y-104962500D03*
D14*
X123925000Y-118779999D03*
X126000000Y-118779999D03*
D26*
X125219999Y-107482500D03*
X125219999Y-109182500D03*
X124419999Y-109182500D03*
X124419999Y-107482500D03*
D27*
X126000000Y-120750000D03*
X123925000Y-120750000D03*
M02*
