G04 #@! TF.GenerationSoftware,KiCad,Pcbnew,8.0.9-8.0.9-0~ubuntu20.04.1*
G04 #@! TF.CreationDate,2025-08-07T15:34:15-05:00*
G04 #@! TF.ProjectId,PLATO_JUNCTION_BOARD,504c4154-4f5f-44a5-954e-4354494f4e5f,rev?*
G04 #@! TF.SameCoordinates,Original*
G04 #@! TF.FileFunction,Copper,L2,Bot*
G04 #@! TF.FilePolarity,Positive*
%FSLAX46Y46*%
G04 Gerber Fmt 4.6, Leading zero omitted, Abs format (unit mm)*
G04 Created by KiCad (PCBNEW 8.0.9-8.0.9-0~ubuntu20.04.1) date 2025-08-07 15:34:15*
%MOMM*%
%LPD*%
G01*
G04 APERTURE LIST*
G04 Aperture macros list*
%AMRoundRect*
0 Rectangle with rounded corners*
0 $1 Rounding radius*
0 $2 $3 $4 $5 $6 $7 $8 $9 X,Y pos of 4 corners*
0 Add a 4 corners polygon primitive as box body*
4,1,4,$2,$3,$4,$5,$6,$7,$8,$9,$2,$3,0*
0 Add four circle primitives for the rounded corners*
1,1,$1+$1,$2,$3*
1,1,$1+$1,$4,$5*
1,1,$1+$1,$6,$7*
1,1,$1+$1,$8,$9*
0 Add four rect primitives between the rounded corners*
20,1,$1+$1,$2,$3,$4,$5,0*
20,1,$1+$1,$4,$5,$6,$7,0*
20,1,$1+$1,$6,$7,$8,$9,0*
20,1,$1+$1,$8,$9,$2,$3,0*%
G04 Aperture macros list end*
G04 #@! TA.AperFunction,ComponentPad*
%ADD10RoundRect,0.250000X-0.550000X0.550000X-0.550000X-0.550000X0.550000X-0.550000X0.550000X0.550000X0*%
G04 #@! TD*
G04 #@! TA.AperFunction,ComponentPad*
%ADD11C,1.600000*%
G04 #@! TD*
G04 #@! TA.AperFunction,SMDPad,CuDef*
%ADD12R,2.920000X0.740000*%
G04 #@! TD*
G04 #@! TA.AperFunction,SMDPad,CuDef*
%ADD13RoundRect,0.250000X0.475000X-0.337500X0.475000X0.337500X-0.475000X0.337500X-0.475000X-0.337500X0*%
G04 #@! TD*
G04 #@! TA.AperFunction,SMDPad,CuDef*
%ADD14RoundRect,0.250000X-0.337500X-0.475000X0.337500X-0.475000X0.337500X0.475000X-0.337500X0.475000X0*%
G04 #@! TD*
G04 #@! TA.AperFunction,SMDPad,CuDef*
%ADD15RoundRect,0.250000X0.450000X-0.350000X0.450000X0.350000X-0.450000X0.350000X-0.450000X-0.350000X0*%
G04 #@! TD*
G04 #@! TA.AperFunction,SMDPad,CuDef*
%ADD16RoundRect,0.250000X-0.475000X0.337500X-0.475000X-0.337500X0.475000X-0.337500X0.475000X0.337500X0*%
G04 #@! TD*
G04 #@! TA.AperFunction,SMDPad,CuDef*
%ADD17R,0.850000X0.949992*%
G04 #@! TD*
G04 #@! TA.AperFunction,SMDPad,CuDef*
%ADD18R,0.850000X0.949986*%
G04 #@! TD*
G04 #@! TA.AperFunction,SMDPad,CuDef*
%ADD19RoundRect,0.150000X-0.587500X-0.150000X0.587500X-0.150000X0.587500X0.150000X-0.587500X0.150000X0*%
G04 #@! TD*
G04 #@! TA.AperFunction,SMDPad,CuDef*
%ADD20RoundRect,0.250000X-0.450000X0.350000X-0.450000X-0.350000X0.450000X-0.350000X0.450000X0.350000X0*%
G04 #@! TD*
G04 #@! TA.AperFunction,ComponentPad*
%ADD21O,1.500000X2.300000*%
G04 #@! TD*
G04 #@! TA.AperFunction,ComponentPad*
%ADD22RoundRect,0.250000X0.500000X0.900000X-0.500000X0.900000X-0.500000X-0.900000X0.500000X-0.900000X0*%
G04 #@! TD*
G04 #@! TA.AperFunction,SMDPad,CuDef*
%ADD23RoundRect,0.250000X-0.350000X-0.450000X0.350000X-0.450000X0.350000X0.450000X-0.350000X0.450000X0*%
G04 #@! TD*
G04 #@! TA.AperFunction,SMDPad,CuDef*
%ADD24R,2.050000X3.500000*%
G04 #@! TD*
G04 #@! TA.AperFunction,SMDPad,CuDef*
%ADD25R,0.900000X0.400000*%
G04 #@! TD*
G04 #@! TA.AperFunction,SMDPad,CuDef*
%ADD26R,0.400000X0.900000*%
G04 #@! TD*
G04 #@! TA.AperFunction,SMDPad,CuDef*
%ADD27RoundRect,0.250000X0.337500X0.475000X-0.337500X0.475000X-0.337500X-0.475000X0.337500X-0.475000X0*%
G04 #@! TD*
G04 #@! TA.AperFunction,ViaPad*
%ADD28C,0.635000*%
G04 #@! TD*
G04 #@! TA.AperFunction,ViaPad*
%ADD29C,0.558800*%
G04 #@! TD*
G04 #@! TA.AperFunction,ViaPad*
%ADD30C,0.762000*%
G04 #@! TD*
G04 #@! TA.AperFunction,ViaPad*
%ADD31C,1.524000*%
G04 #@! TD*
G04 #@! TA.AperFunction,ViaPad*
%ADD32C,0.889000*%
G04 #@! TD*
G04 #@! TA.AperFunction,Conductor*
%ADD33C,0.304800*%
G04 #@! TD*
G04 #@! TA.AperFunction,Conductor*
%ADD34C,0.152400*%
G04 #@! TD*
G04 #@! TA.AperFunction,Conductor*
%ADD35C,0.762000*%
G04 #@! TD*
G04 #@! TA.AperFunction,Conductor*
%ADD36C,0.381000*%
G04 #@! TD*
G04 #@! TA.AperFunction,Conductor*
%ADD37C,0.508000*%
G04 #@! TD*
G04 #@! TA.AperFunction,Conductor*
%ADD38C,0.254000*%
G04 #@! TD*
G04 #@! TA.AperFunction,Conductor*
%ADD39C,0.203200*%
G04 #@! TD*
G04 #@! TA.AperFunction,Conductor*
%ADD40C,0.200000*%
G04 #@! TD*
G04 APERTURE END LIST*
D10*
X104110331Y-117040001D03*
D11*
X104110331Y-114270001D03*
X104110331Y-111500000D03*
X104110331Y-108730001D03*
X104110331Y-105960001D03*
X101570331Y-115655001D03*
X101570331Y-112885001D03*
D10*
X101570331Y-110115001D03*
D11*
X101570331Y-107345001D03*
D12*
X129785000Y-115890001D03*
X133215000Y-115890001D03*
X129785000Y-114620001D03*
X133215000Y-114620001D03*
X129785000Y-113350001D03*
X133215000Y-113350001D03*
X129785000Y-112080001D03*
X133215000Y-112080001D03*
X129785000Y-110810001D03*
X133215000Y-110810001D03*
X129785000Y-109540001D03*
X133215000Y-109540001D03*
X129785000Y-108270001D03*
X133215000Y-108270001D03*
X129785000Y-107000001D03*
X133215000Y-107000001D03*
D13*
X125820000Y-105320000D03*
X125820000Y-103245000D03*
D14*
X113212500Y-118250000D03*
X115287500Y-118250000D03*
D15*
X124500000Y-114000000D03*
X124500000Y-112000000D03*
D16*
X123819999Y-103245000D03*
X123819999Y-105320000D03*
D17*
X125975000Y-115874996D03*
D18*
X124825000Y-115874993D03*
D19*
X106662500Y-117250000D03*
X106662500Y-115350000D03*
X108537501Y-116300000D03*
D17*
X133225000Y-119775004D03*
D18*
X134375000Y-119775007D03*
D19*
X106412500Y-111150000D03*
X106412500Y-109250000D03*
X108287501Y-110200000D03*
D20*
X136000000Y-119850000D03*
X136000000Y-121850000D03*
D21*
X118197000Y-114957500D03*
D22*
X115657000Y-114957500D03*
D21*
X113117001Y-114957500D03*
D23*
X113250000Y-120250000D03*
X115250000Y-120250000D03*
D24*
X117875000Y-106000000D03*
X115125000Y-106000000D03*
D25*
X127987500Y-119320001D03*
X129687500Y-119320001D03*
X129687500Y-120120001D03*
X127987500Y-120120001D03*
D12*
X136820000Y-115890002D03*
X140250000Y-115890002D03*
X136820000Y-114620001D03*
X140250000Y-114620001D03*
X136819999Y-113350001D03*
X140250001Y-113350001D03*
X136820000Y-112080001D03*
X140250000Y-112080001D03*
X136820000Y-110810001D03*
X140250000Y-110810001D03*
X136819999Y-109540001D03*
X140250001Y-109540001D03*
X136820000Y-108270001D03*
X140250000Y-108270001D03*
X136820000Y-107000000D03*
X140250000Y-107000000D03*
D13*
X120250000Y-107037500D03*
X120250000Y-104962500D03*
D14*
X123925000Y-118779999D03*
X126000000Y-118779999D03*
D26*
X125219999Y-107482500D03*
X125219999Y-109182500D03*
X124419999Y-109182500D03*
X124419999Y-107482500D03*
D27*
X126000000Y-120750000D03*
X123925000Y-120750000D03*
D28*
X141301730Y-121600013D03*
D29*
X127600000Y-117300000D03*
D28*
X103600074Y-100113051D03*
X102927079Y-119844646D03*
X102200000Y-119700000D03*
X142417613Y-103110662D03*
D29*
X123760000Y-103900000D03*
D28*
X143201741Y-119700104D03*
X143144692Y-103255309D03*
D30*
X112700000Y-104300000D03*
D28*
X104011876Y-102183621D03*
D31*
X117250000Y-117750000D03*
D28*
X103955262Y-122327091D03*
D29*
X135000000Y-112080001D03*
D28*
X104011916Y-100729453D03*
X104156522Y-101456542D03*
X141858252Y-120256554D03*
X103955302Y-120872925D03*
D29*
X127520000Y-101610000D03*
D28*
X141389429Y-100628217D03*
X141801305Y-100011837D03*
X103543386Y-122943471D03*
D29*
X125989402Y-102150000D03*
X135650000Y-103750000D03*
D28*
X142474654Y-119844711D03*
X141244784Y-101355296D03*
X104099908Y-121600012D03*
X141389389Y-102082384D03*
X102983598Y-103211843D03*
X103600000Y-102800000D03*
X141446336Y-122327100D03*
X102256511Y-103356449D03*
D29*
X126000000Y-119700000D03*
D32*
X126000000Y-111700000D03*
D28*
X141858178Y-122943504D03*
D32*
X127850000Y-107016096D03*
D28*
X103543459Y-120256522D03*
X141801232Y-102698786D03*
X141446375Y-120872934D03*
D29*
X137100000Y-106100000D03*
X140100000Y-104051420D03*
X120100000Y-102700000D03*
X135500000Y-102550000D03*
D31*
X120300000Y-108900000D03*
D30*
X141978968Y-113700000D03*
D32*
X127900000Y-108270001D03*
X128100000Y-113350001D03*
D29*
X132000000Y-105450000D03*
X143500000Y-112800000D03*
X139200000Y-104050000D03*
X131633359Y-120905000D03*
X131633359Y-120095000D03*
X142500000Y-112800000D03*
X127600000Y-110810001D03*
X127850000Y-114650000D03*
X127850000Y-115900000D03*
X127567500Y-109567500D03*
D33*
X137100000Y-106100000D02*
X138051420Y-106100000D01*
X138051420Y-106100000D02*
X140100000Y-104051420D01*
D34*
X143225000Y-112800000D02*
X143500000Y-112800000D01*
X142775000Y-112800000D02*
X142500000Y-112800000D01*
D35*
X141978968Y-113700000D02*
X141628969Y-113350001D01*
X141628969Y-113350001D02*
X140250001Y-113350001D01*
D36*
X126120000Y-102280598D02*
X126120000Y-102945000D01*
X125989402Y-102150000D02*
X126120000Y-102280598D01*
D34*
X125025000Y-101090460D02*
X125025000Y-101461800D01*
X125025000Y-101461800D02*
X125016800Y-101470000D01*
X124622600Y-101257140D02*
X124622600Y-101461800D01*
X124622600Y-101461800D02*
X124614400Y-101470000D01*
X123165600Y-101470000D02*
X123165600Y-101716800D01*
X123165600Y-101716800D02*
X123173800Y-101725000D01*
X125016800Y-101470000D02*
X126465600Y-101470000D01*
X126465600Y-101470000D02*
X126465600Y-101716800D01*
X126465600Y-101716800D02*
X127123800Y-102375000D01*
X127123800Y-102375000D02*
X127123800Y-104175000D01*
X127123800Y-104175000D02*
X125986300Y-105312500D01*
D35*
X140250000Y-107000000D02*
X136820000Y-107000000D01*
X126400000Y-112100000D02*
X127900000Y-112100000D01*
X140250000Y-112080001D02*
X136820000Y-112080001D01*
X127900000Y-112100000D02*
X127919999Y-112080001D01*
X133215001Y-107000000D02*
X133215000Y-107000001D01*
X133215000Y-107000001D02*
X129785000Y-107000001D01*
X127919999Y-112080001D02*
X129785000Y-112080001D01*
D34*
X126120000Y-102945000D02*
X125820000Y-103245000D01*
D35*
X126000000Y-111700000D02*
X126400000Y-112100000D01*
X129785000Y-107000001D02*
X127866095Y-107000001D01*
D37*
X126000000Y-119700000D02*
X126000000Y-118779999D01*
D35*
X136820000Y-107000000D02*
X133215001Y-107000000D01*
X133215000Y-112080001D02*
X129785000Y-112080001D01*
X127866095Y-107000001D02*
X127850000Y-107016096D01*
X135000000Y-112080001D02*
X133215000Y-112080001D01*
D36*
X123819999Y-103245000D02*
X123819999Y-103840001D01*
X123819999Y-103840001D02*
X123760000Y-103900000D01*
D35*
X136820000Y-112080001D02*
X135000000Y-112080001D01*
D37*
X125820000Y-103245000D02*
X123819999Y-103245000D01*
X126000000Y-120750000D02*
X126000000Y-119700000D01*
X115125000Y-109375000D02*
X118250000Y-112500000D01*
X118250000Y-112500000D02*
X118250000Y-113000000D01*
X115125000Y-106000000D02*
X115125000Y-109375000D01*
X118197000Y-113053000D02*
X118197000Y-114957500D01*
X118250000Y-113000000D02*
X118197000Y-113053000D01*
D35*
X113212500Y-120212500D02*
X113250000Y-120250000D01*
D38*
X120100000Y-102700000D02*
X120150000Y-102750000D01*
D33*
X118700000Y-119200000D02*
X122499000Y-115401000D01*
X140100000Y-104050000D02*
X140100000Y-104051420D01*
X122499000Y-105099000D02*
X120100000Y-102700000D01*
D35*
X113117001Y-114957500D02*
X113117001Y-118154501D01*
D33*
X113250000Y-120250000D02*
X114400000Y-121400000D01*
D35*
X113117001Y-118154501D02*
X113212500Y-118250000D01*
D33*
X122499000Y-115401000D02*
X122499000Y-105099000D01*
D35*
X113212500Y-118250000D02*
X113212500Y-120212500D01*
D33*
X114400000Y-121400000D02*
X116500000Y-121400000D01*
X116500000Y-121400000D02*
X118700000Y-119200000D01*
D35*
X140250000Y-108270001D02*
X136820000Y-108270001D01*
X136819999Y-113350001D02*
X133215000Y-113350001D01*
D37*
X117875000Y-106000000D02*
X117875000Y-106125000D01*
X120300000Y-108900000D02*
X120300000Y-107087500D01*
X120300000Y-107087500D02*
X120250000Y-107037500D01*
D35*
X129785000Y-113350001D02*
X133215000Y-113350001D01*
X140250001Y-113350001D02*
X136819999Y-113350001D01*
D37*
X118787500Y-107037500D02*
X120250000Y-107037500D01*
X117875000Y-106125000D02*
X118787500Y-107037500D01*
D35*
X136820000Y-108270001D02*
X133215000Y-108270001D01*
X128100000Y-113350001D02*
X129785000Y-113350001D01*
X127900000Y-108270001D02*
X133215000Y-108270001D01*
D34*
X143225000Y-112800000D02*
X143225000Y-114693200D01*
X132578359Y-121850000D02*
X131633359Y-120905000D01*
X130848360Y-120120001D02*
X131633359Y-120905000D01*
X142161137Y-109950003D02*
X142768203Y-109950003D01*
X140250001Y-109540001D02*
X140660000Y-109950000D01*
X142768203Y-109950003D02*
X143225000Y-110406800D01*
X139200000Y-104050000D02*
X138300000Y-103150000D01*
X140660000Y-115480002D02*
X140250000Y-115890002D01*
X136000000Y-121850000D02*
X132578359Y-121850000D01*
X140660000Y-109950000D02*
X142161134Y-109950000D01*
X132000000Y-103150000D02*
X132000000Y-105450000D01*
X129687500Y-120120001D02*
X130848360Y-120120001D01*
X143225000Y-114693200D02*
X142438198Y-115480002D01*
X142438198Y-115480002D02*
X140660000Y-115480002D01*
X138300000Y-103150000D02*
X132000000Y-103150000D01*
X142161134Y-109950000D02*
X142161137Y-109950003D01*
X143225000Y-110406800D02*
X143225000Y-112800000D01*
X130858360Y-119320001D02*
X131633359Y-120095000D01*
X142775000Y-114506800D02*
X142251798Y-115030002D01*
X140250000Y-110810001D02*
X140660000Y-110400001D01*
X142775000Y-110593200D02*
X142775000Y-112800000D01*
X140660001Y-115030002D02*
X140250000Y-114620001D01*
X142161137Y-110400003D02*
X142581803Y-110400003D01*
X129687500Y-119320001D02*
X130858360Y-119320001D01*
X131633359Y-120095000D02*
X131953355Y-119775004D01*
X142161135Y-110400001D02*
X142161137Y-110400003D01*
X140660000Y-110400001D02*
X142161135Y-110400001D01*
X142251798Y-115030002D02*
X140660001Y-115030002D01*
X142775000Y-112800000D02*
X142775000Y-114506800D01*
X131953355Y-119775004D02*
X133225000Y-119775004D01*
X142581803Y-110400003D02*
X142775000Y-110593200D01*
D39*
X135319999Y-115030002D02*
X135730000Y-114620001D01*
X136410000Y-110400001D02*
X136820000Y-110810001D01*
X133215000Y-114620001D02*
X134305000Y-114620001D01*
X132125000Y-114620001D02*
X133215000Y-114620001D01*
X135730000Y-114620001D02*
X136820000Y-114620001D01*
X125637500Y-110400001D02*
X127184999Y-110400001D01*
X124500000Y-111537501D02*
X125637500Y-110400001D01*
X132125000Y-110810001D02*
X133215000Y-110810001D01*
X131715000Y-110400001D02*
X132125000Y-110810001D01*
X127879999Y-114620001D02*
X129785000Y-114620001D01*
X131285000Y-110400001D02*
X131715000Y-110400001D01*
X124400000Y-109850000D02*
X124650000Y-110100000D01*
X124500000Y-112000000D02*
X124500000Y-111537501D01*
X124650000Y-110100000D02*
X125337499Y-110100000D01*
X124419999Y-109182500D02*
X124400000Y-109202499D01*
X130875000Y-110810001D02*
X131285000Y-110400001D01*
X133215000Y-110810001D02*
X133625000Y-110400001D01*
X129785000Y-114620001D02*
X130875000Y-114620001D01*
X131285000Y-115030001D02*
X131715000Y-115030001D01*
X131715000Y-115030001D02*
X132125000Y-114620001D01*
X134305000Y-114620001D02*
X134715001Y-115030002D01*
X125337499Y-110100000D02*
X125637500Y-110400001D01*
X127594999Y-110810001D02*
X127600000Y-110810001D01*
X127184999Y-110400001D02*
X127594999Y-110810001D01*
X124400000Y-109202499D02*
X124400000Y-109850000D01*
X129785000Y-110810001D02*
X130875000Y-110810001D01*
X127600000Y-110810001D02*
X129785000Y-110810001D01*
X133625000Y-110400001D02*
X136410000Y-110400001D01*
X127850000Y-114650000D02*
X127879999Y-114620001D01*
X130875000Y-114620001D02*
X131285000Y-115030001D01*
X134715001Y-115030002D02*
X135319999Y-115030002D01*
X125823897Y-109950001D02*
X127184999Y-109950001D01*
X130875000Y-115890001D02*
X131285000Y-115480001D01*
X127184999Y-109950001D02*
X127567500Y-109567500D01*
X129785000Y-115890001D02*
X130875000Y-115890001D01*
X131285000Y-109950001D02*
X131715000Y-109950001D01*
X131715000Y-109950001D02*
X132125000Y-109540001D01*
X128695000Y-115890001D02*
X128685001Y-115900000D01*
X135730000Y-115890002D02*
X136820000Y-115890002D01*
X131715000Y-115480001D02*
X132125000Y-115890001D01*
X132125000Y-115890001D02*
X133215000Y-115890001D01*
X127850000Y-115900000D02*
X127900000Y-115900000D01*
X132125000Y-109540001D02*
X133215000Y-109540001D01*
D40*
X126000004Y-115900000D02*
X125975000Y-115874996D01*
D39*
X129785000Y-109540001D02*
X130875000Y-109540001D01*
X134715000Y-115480001D02*
X135319999Y-115480001D01*
X127909999Y-115890001D02*
X129785000Y-115890001D01*
X136410000Y-109950000D02*
X136819999Y-109540001D01*
X125219999Y-109182500D02*
X125219999Y-109346103D01*
X133215000Y-115890001D02*
X134305000Y-115890001D01*
X131285000Y-115480001D02*
X131715000Y-115480001D01*
X127567500Y-109567500D02*
X127594999Y-109540001D01*
X133215000Y-109540001D02*
X133624999Y-109950000D01*
X129785000Y-115890001D02*
X128695000Y-115890001D01*
D40*
X127850000Y-115900000D02*
X126000004Y-115900000D01*
D39*
X134305000Y-115890001D02*
X134715000Y-115480001D01*
X135319999Y-115480001D02*
X135730000Y-115890002D01*
X127594999Y-109540001D02*
X129785000Y-109540001D01*
X133624999Y-109950000D02*
X136410000Y-109950000D01*
X127900000Y-115900000D02*
X127909999Y-115890001D01*
X125219999Y-109346103D02*
X125823897Y-109950001D01*
X130875000Y-109540001D02*
X131285000Y-109950001D01*
X124825000Y-114325000D02*
X124500000Y-114000000D01*
X124825000Y-115874993D02*
X124825000Y-114325000D01*
D34*
X135925007Y-119775007D02*
X136000000Y-119850000D01*
D33*
X134375000Y-119775007D02*
X135925007Y-119775007D01*
D34*
X105250000Y-110425000D02*
X105975000Y-111150000D01*
X124316660Y-100951200D02*
X124622600Y-101257140D01*
X106412500Y-111150000D02*
X107273801Y-110288699D01*
X124614400Y-101470000D02*
X123165600Y-101470000D01*
X104110331Y-110981398D02*
X104666729Y-110425000D01*
X124419999Y-107482500D02*
X123819999Y-106882500D01*
X108401200Y-108741907D02*
X108401200Y-102183340D01*
X107273801Y-109869306D02*
X108401200Y-108741907D01*
X104110331Y-111500000D02*
X104110331Y-110981398D01*
X109633340Y-100951200D02*
X124316660Y-100951200D01*
X123173800Y-101725000D02*
X122523800Y-102375000D01*
X107273801Y-110288699D02*
X107273801Y-109869306D01*
X122523800Y-102375000D02*
X122523800Y-104175000D01*
X122523800Y-104175000D02*
X123661300Y-105312500D01*
X105975000Y-111150000D02*
X106412500Y-111150000D01*
X123819999Y-106882500D02*
X123819999Y-105320000D01*
X108401200Y-102183340D02*
X109633340Y-100951200D01*
X104666729Y-110425000D02*
X105250000Y-110425000D01*
X104055332Y-110400000D02*
X104480332Y-109975000D01*
X103654696Y-110400000D02*
X104055332Y-110400000D01*
X107998800Y-108575255D02*
X107998800Y-102016660D01*
X124483340Y-100548800D02*
X125025000Y-101090460D01*
X105975000Y-109250000D02*
X106412500Y-109250000D01*
X105250000Y-109975000D02*
X105975000Y-109250000D01*
X106412500Y-109250000D02*
X107324055Y-109250000D01*
X101570331Y-112885001D02*
X103010331Y-111445001D01*
X109466660Y-100548800D02*
X124483340Y-100548800D01*
X103010331Y-111044365D02*
X103654696Y-110400000D01*
X107324055Y-109250000D02*
X107998800Y-108575255D01*
X103010331Y-111445001D02*
X103010331Y-111044365D01*
X125200000Y-107500000D02*
X125800000Y-106900000D01*
X125800000Y-106900000D02*
X125800000Y-105337500D01*
X104480332Y-109975000D02*
X105250000Y-109975000D01*
X107998800Y-102016660D02*
X109466660Y-100548800D01*
X122863990Y-119562253D02*
X122865537Y-119563800D01*
X123787500Y-118779999D02*
X123925000Y-118779999D01*
X104263550Y-115490021D02*
X106084979Y-115490021D01*
X110701200Y-121416660D02*
X111333340Y-122048800D01*
X104110331Y-115336802D02*
X104263550Y-115490021D01*
X106084979Y-115490021D02*
X106225000Y-115350000D01*
X123003699Y-119563800D02*
X123787500Y-118779999D01*
X106662500Y-115769393D02*
X107769307Y-116876200D01*
X108126200Y-116876200D02*
X109401200Y-118151200D01*
X118944532Y-119562253D02*
X122863990Y-119562253D01*
X122865537Y-119563800D02*
X123003699Y-119563800D01*
X109401200Y-119316660D02*
X110701200Y-120616660D01*
X106225000Y-115350000D02*
X106662500Y-115350000D01*
X104110331Y-114270001D02*
X104110331Y-115336802D01*
X111333340Y-122048800D02*
X116457985Y-122048800D01*
X106662500Y-115350000D02*
X106662500Y-115769393D01*
X116457985Y-122048800D02*
X118944532Y-119562253D01*
X109401200Y-118151200D02*
X109401200Y-119316660D01*
X126578799Y-117778799D02*
X127987500Y-119187500D01*
X107769307Y-116876200D02*
X108126200Y-116876200D01*
X110701200Y-120616660D02*
X110701200Y-121416660D01*
X124926200Y-117778799D02*
X126578799Y-117778799D01*
X123925000Y-118779999D02*
X124926200Y-117778799D01*
X127987500Y-119187500D02*
X127987500Y-119320001D01*
X107602635Y-117278580D02*
X108022000Y-117278580D01*
X119111212Y-119964653D02*
X122710000Y-119964653D01*
X106662500Y-117250000D02*
X107574055Y-117250000D01*
X108998800Y-119483340D02*
X110298800Y-120783340D01*
X124926200Y-121751200D02*
X126562386Y-121751200D01*
X110298800Y-120783340D02*
X110298800Y-121583340D01*
X122710000Y-119964653D02*
X122711546Y-119966199D01*
X101570331Y-115655001D02*
X103792132Y-115655001D01*
X106662500Y-116962500D02*
X106662500Y-117250000D01*
X108022000Y-117278580D02*
X108998800Y-118255380D01*
X103792132Y-115655001D02*
X103987131Y-115850000D01*
X105550000Y-115850000D02*
X106662500Y-116962500D01*
X122711546Y-119966199D02*
X123003699Y-119966199D01*
X126562386Y-121751200D02*
X127987500Y-120326086D01*
X103987131Y-115850000D02*
X105550000Y-115850000D01*
X123787500Y-120750000D02*
X123925000Y-120750000D01*
X107574055Y-117250000D02*
X107602635Y-117278580D01*
X127987500Y-120326086D02*
X127987500Y-120120001D01*
X111166660Y-122451200D02*
X116624665Y-122451200D01*
X108998800Y-118255380D02*
X108998800Y-119483340D01*
X110298800Y-121583340D02*
X111166660Y-122451200D01*
X123003699Y-119966199D02*
X123787500Y-120750000D01*
X123925000Y-120750000D02*
X124926200Y-121751200D01*
X116624665Y-122451200D02*
X119111212Y-119964653D01*
G04 #@! TA.AperFunction,Conductor*
G36*
X126558369Y-120769079D02*
G01*
X126586261Y-120817389D01*
X126587500Y-120831550D01*
X126587500Y-121350349D01*
X126568421Y-121402768D01*
X126563615Y-121408014D01*
X126486114Y-121485515D01*
X126435557Y-121509090D01*
X126428449Y-121509400D01*
X125687480Y-121509400D01*
X125635061Y-121490321D01*
X125607169Y-121442011D01*
X125616856Y-121387075D01*
X125629815Y-121370185D01*
X126226115Y-120773885D01*
X126276672Y-120750310D01*
X126283780Y-120750000D01*
X126505950Y-120750000D01*
X126558369Y-120769079D01*
G37*
G04 #@! TD.AperFunction*
G04 #@! TA.AperFunction,Conductor*
G36*
X126497281Y-118039678D02*
G01*
X126502527Y-118044484D01*
X126563615Y-118105572D01*
X126587190Y-118156129D01*
X126587500Y-118163237D01*
X126587500Y-118668450D01*
X126568421Y-118720869D01*
X126520111Y-118748761D01*
X126505950Y-118750000D01*
X125783780Y-118750000D01*
X125731361Y-118730921D01*
X125726115Y-118726115D01*
X125523885Y-118523885D01*
X125500310Y-118473328D01*
X125500000Y-118466220D01*
X125500000Y-118102149D01*
X125519079Y-118049730D01*
X125567389Y-118021838D01*
X125581550Y-118020599D01*
X126444862Y-118020599D01*
X126497281Y-118039678D01*
G37*
G04 #@! TD.AperFunction*
G04 #@! TA.AperFunction,Conductor*
G36*
X144568639Y-98824079D02*
G01*
X144573885Y-98828885D01*
X145026115Y-99281115D01*
X145049690Y-99331672D01*
X145050000Y-99338780D01*
X145050000Y-123571220D01*
X145030921Y-123623639D01*
X145026115Y-123628885D01*
X144573885Y-124081115D01*
X144523328Y-124104690D01*
X144516220Y-124105000D01*
X100843780Y-124105000D01*
X100791361Y-124085921D01*
X100786115Y-124081115D01*
X100333885Y-123628885D01*
X100310310Y-123578328D01*
X100310000Y-123571220D01*
X100310000Y-121625000D01*
X100690848Y-121625000D01*
X100709428Y-121861087D01*
X100764711Y-122091358D01*
X100764712Y-122091359D01*
X100855333Y-122310135D01*
X100855337Y-122310143D01*
X100979068Y-122512054D01*
X100979073Y-122512061D01*
X101102169Y-122656189D01*
X101132868Y-122692132D01*
X101312943Y-122845930D01*
X101514859Y-122969664D01*
X101514864Y-122969666D01*
X101733640Y-123060287D01*
X101733641Y-123060288D01*
X101963913Y-123115571D01*
X101963917Y-123115572D01*
X102200000Y-123134152D01*
X102436083Y-123115572D01*
X102666354Y-123060289D01*
X102666354Y-123060288D01*
X102666358Y-123060288D01*
X102666359Y-123060287D01*
X102694308Y-123048709D01*
X102885141Y-122969664D01*
X103087057Y-122845930D01*
X103267132Y-122692132D01*
X103420930Y-122512057D01*
X103544664Y-122310141D01*
X103635287Y-122091359D01*
X103635288Y-122091358D01*
X103690571Y-121861087D01*
X103690570Y-121861087D01*
X103690572Y-121861083D01*
X103709152Y-121625000D01*
X103690572Y-121388917D01*
X103685810Y-121369079D01*
X103635288Y-121158641D01*
X103635287Y-121158640D01*
X103544666Y-120939864D01*
X103544662Y-120939856D01*
X103491250Y-120852695D01*
X103420930Y-120737943D01*
X103420926Y-120737938D01*
X103267140Y-120557877D01*
X103267137Y-120557874D01*
X103267132Y-120557868D01*
X103267125Y-120557862D01*
X103267122Y-120557859D01*
X103087061Y-120404073D01*
X103087054Y-120404068D01*
X102885143Y-120280337D01*
X102885135Y-120280333D01*
X102666359Y-120189712D01*
X102666358Y-120189711D01*
X102436086Y-120134428D01*
X102436088Y-120134428D01*
X102200000Y-120115848D01*
X101963912Y-120134428D01*
X101733641Y-120189711D01*
X101733640Y-120189712D01*
X101514864Y-120280333D01*
X101514856Y-120280337D01*
X101312945Y-120404068D01*
X101312938Y-120404073D01*
X101132877Y-120557859D01*
X101132859Y-120557877D01*
X100979073Y-120737938D01*
X100979068Y-120737945D01*
X100855337Y-120939856D01*
X100855333Y-120939864D01*
X100764712Y-121158640D01*
X100764711Y-121158641D01*
X100709428Y-121388912D01*
X100690848Y-121625000D01*
X100310000Y-121625000D01*
X100310000Y-117840001D01*
X102853068Y-117840001D01*
X102875972Y-117909121D01*
X102968014Y-118058344D01*
X103091987Y-118182317D01*
X103241210Y-118274359D01*
X103310331Y-118297263D01*
X103310331Y-117840002D01*
X104910331Y-117840002D01*
X104910331Y-118297262D01*
X104979451Y-118274359D01*
X105128674Y-118182317D01*
X105252647Y-118058344D01*
X105344689Y-117909121D01*
X105367594Y-117840001D01*
X104910332Y-117840001D01*
X104910331Y-117840002D01*
X103310331Y-117840002D01*
X103310330Y-117840001D01*
X102853068Y-117840001D01*
X100310000Y-117840001D01*
X100310000Y-116974175D01*
X103610331Y-116974175D01*
X103610331Y-117105827D01*
X103644406Y-117232994D01*
X103710232Y-117347008D01*
X103803324Y-117440100D01*
X103917338Y-117505926D01*
X104044505Y-117540001D01*
X104176157Y-117540001D01*
X104303324Y-117505926D01*
X104417338Y-117440100D01*
X104510430Y-117347008D01*
X104576256Y-117232994D01*
X104610331Y-117105827D01*
X104610331Y-116974175D01*
X104576256Y-116847008D01*
X104510430Y-116732994D01*
X104417338Y-116639902D01*
X104303324Y-116574076D01*
X104176157Y-116540001D01*
X104044505Y-116540001D01*
X103917338Y-116574076D01*
X103803324Y-116639902D01*
X103710232Y-116732994D01*
X103644406Y-116847008D01*
X103610331Y-116974175D01*
X100310000Y-116974175D01*
X100310000Y-112884997D01*
X100600059Y-112884997D01*
X100600059Y-112885004D01*
X100618701Y-113074280D01*
X100618702Y-113074286D01*
X100618703Y-113074292D01*
X100657254Y-113201379D01*
X100671946Y-113249813D01*
X100673917Y-113256308D01*
X100736603Y-113373587D01*
X100763581Y-113424058D01*
X100795746Y-113463251D01*
X100884245Y-113571087D01*
X100953641Y-113628039D01*
X101013407Y-113677088D01*
X101031277Y-113691753D01*
X101199024Y-113781415D01*
X101381040Y-113836629D01*
X101422727Y-113840734D01*
X101570328Y-113855273D01*
X101570331Y-113855273D01*
X101570334Y-113855273D01*
X101698075Y-113842691D01*
X101759622Y-113836629D01*
X101941638Y-113781415D01*
X102109385Y-113691753D01*
X102256417Y-113571087D01*
X102377083Y-113424055D01*
X102466745Y-113256308D01*
X102521959Y-113074292D01*
X102536500Y-112926657D01*
X102540603Y-112885004D01*
X102540603Y-112884997D01*
X102525218Y-112728799D01*
X102521959Y-112695710D01*
X102466745Y-112513694D01*
X102431458Y-112447677D01*
X102423575Y-112392456D01*
X102445713Y-112351574D01*
X103050695Y-111746592D01*
X103101250Y-111723018D01*
X103155133Y-111737456D01*
X103186396Y-111780585D01*
X103213914Y-111871302D01*
X103213916Y-111871305D01*
X103213917Y-111871307D01*
X103303579Y-112039054D01*
X103424245Y-112186086D01*
X103492814Y-112242359D01*
X103547953Y-112287611D01*
X103571277Y-112306752D01*
X103739024Y-112396414D01*
X103921040Y-112451628D01*
X103962727Y-112455733D01*
X104110328Y-112470272D01*
X104110331Y-112470272D01*
X104110334Y-112470272D01*
X104227482Y-112458733D01*
X104299622Y-112451628D01*
X104481638Y-112396414D01*
X104649385Y-112306752D01*
X104796417Y-112186086D01*
X104917083Y-112039054D01*
X105006745Y-111871307D01*
X105061959Y-111689291D01*
X105080603Y-111500000D01*
X105069073Y-111382941D01*
X105061960Y-111310720D01*
X105061959Y-111310709D01*
X105006745Y-111128693D01*
X104917083Y-110960946D01*
X104908244Y-110950176D01*
X104796419Y-110813917D01*
X104796417Y-110813914D01*
X104793338Y-110811387D01*
X104764923Y-110763385D01*
X104774011Y-110708347D01*
X104816350Y-110672027D01*
X104845075Y-110666800D01*
X105116063Y-110666800D01*
X105168482Y-110685879D01*
X105173728Y-110690685D01*
X105485515Y-111002472D01*
X105509090Y-111053029D01*
X105509400Y-111060137D01*
X105509400Y-111336975D01*
X105509402Y-111336996D01*
X105515449Y-111382937D01*
X105515450Y-111382939D01*
X105515451Y-111382943D01*
X105562487Y-111483813D01*
X105641187Y-111562513D01*
X105742057Y-111609549D01*
X105788017Y-111615600D01*
X107036982Y-111615599D01*
X107056648Y-111613010D01*
X107082937Y-111609550D01*
X107082937Y-111609549D01*
X107082943Y-111609549D01*
X107183813Y-111562513D01*
X107262513Y-111483813D01*
X107309549Y-111382943D01*
X107313971Y-111349359D01*
X107315599Y-111336994D01*
X107315599Y-111336990D01*
X107315600Y-111336983D01*
X107315599Y-111020799D01*
X107334678Y-110968381D01*
X107382988Y-110940489D01*
X107434926Y-110949647D01*
X107435100Y-110949247D01*
X107436780Y-110949974D01*
X107437924Y-110950176D01*
X107438661Y-110950607D01*
X107439804Y-110951282D01*
X107597509Y-110997099D01*
X107597513Y-110997100D01*
X107634365Y-110999999D01*
X107634366Y-111000000D01*
X107987500Y-111000000D01*
X107987501Y-110999999D01*
X107987501Y-110500001D01*
X108587501Y-110500001D01*
X108587501Y-110999999D01*
X108587502Y-111000000D01*
X108940636Y-111000000D01*
X108940636Y-110999999D01*
X108977488Y-110997100D01*
X108977492Y-110997099D01*
X109135194Y-110951283D01*
X109276554Y-110867684D01*
X109392685Y-110751553D01*
X109476281Y-110610198D01*
X109476285Y-110610190D01*
X109508298Y-110500000D01*
X108587502Y-110500000D01*
X108587501Y-110500001D01*
X107987501Y-110500001D01*
X107987500Y-110500000D01*
X107570048Y-110500000D01*
X107517629Y-110480921D01*
X107489737Y-110432611D01*
X107494704Y-110387243D01*
X107515601Y-110336796D01*
X107515601Y-110003243D01*
X107534680Y-109950824D01*
X107539486Y-109945578D01*
X107561179Y-109923885D01*
X107611736Y-109900310D01*
X107618844Y-109900000D01*
X107987500Y-109900000D01*
X107987501Y-109899999D01*
X107987501Y-109531342D01*
X108006580Y-109478923D01*
X108011375Y-109473688D01*
X108085062Y-109400001D01*
X108587501Y-109400001D01*
X108587501Y-109899999D01*
X108587502Y-109900000D01*
X109508298Y-109900000D01*
X109476285Y-109789809D01*
X109476281Y-109789801D01*
X109392685Y-109648446D01*
X109276554Y-109532315D01*
X109135194Y-109448716D01*
X108977492Y-109402900D01*
X108977488Y-109402899D01*
X108940637Y-109400000D01*
X108587502Y-109400000D01*
X108587501Y-109400001D01*
X108085062Y-109400001D01*
X108606188Y-108878876D01*
X108643000Y-108790004D01*
X108643000Y-108693810D01*
X108643000Y-104233686D01*
X113934400Y-104233686D01*
X113934400Y-107766306D01*
X113944008Y-107814614D01*
X113944008Y-107814615D01*
X113975974Y-107862455D01*
X113980609Y-107869391D01*
X114002013Y-107883693D01*
X114035385Y-107905991D01*
X114035384Y-107905991D01*
X114035386Y-107905992D01*
X114083691Y-107915600D01*
X114623850Y-107915599D01*
X114676269Y-107934678D01*
X114704161Y-107982988D01*
X114705400Y-107997149D01*
X114705400Y-109314749D01*
X114705399Y-109314767D01*
X114705399Y-109430243D01*
X114721922Y-109491903D01*
X114721922Y-109491905D01*
X114733993Y-109536955D01*
X114733993Y-109536956D01*
X114733994Y-109536959D01*
X114733995Y-109536960D01*
X114789236Y-109632641D01*
X114867359Y-109710764D01*
X114867361Y-109710765D01*
X117806515Y-112649919D01*
X117830090Y-112700476D01*
X117830400Y-112707584D01*
X117830400Y-112826917D01*
X117819475Y-112867691D01*
X117805995Y-112891038D01*
X117803217Y-112901410D01*
X117803216Y-112901412D01*
X117777399Y-112997755D01*
X117777399Y-113114808D01*
X117777400Y-113114821D01*
X117777400Y-113693095D01*
X117758321Y-113745514D01*
X117741157Y-113760901D01*
X117613344Y-113846302D01*
X117485805Y-113973841D01*
X117385604Y-114123803D01*
X117316588Y-114290422D01*
X117316586Y-114290431D01*
X117281400Y-114467316D01*
X117281400Y-115447683D01*
X117292542Y-115503693D01*
X117316586Y-115624571D01*
X117316587Y-115624574D01*
X117316588Y-115624577D01*
X117385604Y-115791196D01*
X117385605Y-115791198D01*
X117385606Y-115791199D01*
X117485807Y-115941161D01*
X117613339Y-116068693D01*
X117763301Y-116168894D01*
X117763302Y-116168894D01*
X117763303Y-116168895D01*
X117868378Y-116212418D01*
X117929929Y-116237914D01*
X118106821Y-116273100D01*
X118106823Y-116273100D01*
X118287177Y-116273100D01*
X118287179Y-116273100D01*
X118464071Y-116237914D01*
X118630699Y-116168894D01*
X118780661Y-116068693D01*
X118908193Y-115941161D01*
X119008394Y-115791199D01*
X119077414Y-115624571D01*
X119112600Y-115447679D01*
X119112600Y-114467321D01*
X119077414Y-114290429D01*
X119043829Y-114209348D01*
X119008395Y-114123803D01*
X119000405Y-114111844D01*
X118908193Y-113973839D01*
X118780661Y-113846307D01*
X118780657Y-113846304D01*
X118780655Y-113846302D01*
X118652843Y-113760901D01*
X118619858Y-113715915D01*
X118616600Y-113693095D01*
X118616600Y-113226081D01*
X118627525Y-113185307D01*
X118641005Y-113161960D01*
X118662847Y-113080445D01*
X118669600Y-113055242D01*
X118669600Y-112944759D01*
X118669600Y-112444759D01*
X118669599Y-112444757D01*
X118669599Y-112444753D01*
X118645217Y-112353761D01*
X118641005Y-112338040D01*
X118585764Y-112242359D01*
X118585762Y-112242357D01*
X118504809Y-112161403D01*
X118504787Y-112161383D01*
X115568485Y-109225081D01*
X115544910Y-109174524D01*
X115544600Y-109167416D01*
X115544600Y-107997149D01*
X115563679Y-107944730D01*
X115611989Y-107916838D01*
X115626150Y-107915599D01*
X116166306Y-107915599D01*
X116166308Y-107915599D01*
X116214614Y-107905992D01*
X116269391Y-107869391D01*
X116305992Y-107814614D01*
X116315600Y-107766309D01*
X116315599Y-104233692D01*
X116315598Y-104233686D01*
X116684400Y-104233686D01*
X116684400Y-107766306D01*
X116694008Y-107814614D01*
X116694008Y-107814615D01*
X116725974Y-107862455D01*
X116730609Y-107869391D01*
X116752013Y-107883693D01*
X116785385Y-107905991D01*
X116785384Y-107905991D01*
X116785386Y-107905992D01*
X116833691Y-107915600D01*
X118916308Y-107915599D01*
X118964614Y-107905992D01*
X119019391Y-107869391D01*
X119055992Y-107814614D01*
X119065600Y-107766309D01*
X119065600Y-107538650D01*
X119084679Y-107486231D01*
X119132989Y-107458339D01*
X119147150Y-107457100D01*
X119300419Y-107457100D01*
X119352838Y-107476179D01*
X119373081Y-107501627D01*
X119374812Y-107505025D01*
X119374813Y-107505028D01*
X119434581Y-107622329D01*
X119527671Y-107715419D01*
X119642718Y-107774038D01*
X119680762Y-107814834D01*
X119683682Y-107870541D01*
X119682298Y-107874670D01*
X119439593Y-108539360D01*
X119439592Y-108539366D01*
X119438237Y-108547516D01*
X119435351Y-108559337D01*
X119387672Y-108706081D01*
X119387671Y-108706087D01*
X119367291Y-108899996D01*
X119367291Y-108900003D01*
X119387671Y-109093915D01*
X119447928Y-109279367D01*
X119447929Y-109279369D01*
X119473952Y-109324442D01*
X119545423Y-109448233D01*
X119672752Y-109589646D01*
X119675897Y-109593139D01*
X119752516Y-109648806D01*
X119833645Y-109707750D01*
X120011777Y-109787059D01*
X120202505Y-109827600D01*
X120202510Y-109827600D01*
X120397490Y-109827600D01*
X120397495Y-109827600D01*
X120588223Y-109787059D01*
X120766355Y-109707750D01*
X120924104Y-109593138D01*
X121054577Y-109448233D01*
X121152072Y-109279367D01*
X121212327Y-109093921D01*
X121213308Y-109084594D01*
X121232709Y-108900003D01*
X121232709Y-108899996D01*
X121212328Y-108706084D01*
X121212327Y-108706081D01*
X121212327Y-108706079D01*
X121164479Y-108558819D01*
X121161452Y-108546113D01*
X121160406Y-108539362D01*
X120902013Y-107831709D01*
X120901956Y-107775927D01*
X120937769Y-107733158D01*
X120941584Y-107731083D01*
X120972329Y-107715419D01*
X121065419Y-107622329D01*
X121125187Y-107505028D01*
X121140600Y-107407712D01*
X121140600Y-106667288D01*
X121125187Y-106569972D01*
X121065419Y-106452671D01*
X120972329Y-106359581D01*
X120855028Y-106299813D01*
X120855026Y-106299812D01*
X120855025Y-106299812D01*
X120794336Y-106290200D01*
X120757712Y-106284400D01*
X119742288Y-106284400D01*
X119711464Y-106289281D01*
X119644974Y-106299812D01*
X119527672Y-106359580D01*
X119527671Y-106359581D01*
X119434581Y-106452671D01*
X119374813Y-106569972D01*
X119374812Y-106569974D01*
X119373081Y-106573373D01*
X119332283Y-106611417D01*
X119300419Y-106617900D01*
X119147150Y-106617900D01*
X119094731Y-106598821D01*
X119066839Y-106550511D01*
X119065600Y-106536350D01*
X119065600Y-106225230D01*
X119065599Y-105848137D01*
X119084678Y-105795720D01*
X119132988Y-105767828D01*
X119187924Y-105777515D01*
X119204814Y-105790474D01*
X119306656Y-105892316D01*
X119455881Y-105984359D01*
X119622300Y-106039504D01*
X119622306Y-106039505D01*
X119662499Y-106043611D01*
X119662500Y-106043611D01*
X119662500Y-105550001D01*
X120837500Y-105550001D01*
X120837500Y-106043611D01*
X120877693Y-106039505D01*
X120877699Y-106039504D01*
X121044118Y-105984359D01*
X121193343Y-105892316D01*
X121317316Y-105768343D01*
X121409358Y-105619120D01*
X121432263Y-105550000D01*
X120837501Y-105550000D01*
X120837500Y-105550001D01*
X119662500Y-105550001D01*
X119662500Y-103881387D01*
X119622303Y-103885494D01*
X119455881Y-103940640D01*
X119306656Y-104032683D01*
X119182680Y-104156659D01*
X119182680Y-104156660D01*
X119179316Y-104162113D01*
X119135556Y-104196709D01*
X119079796Y-104195082D01*
X119042105Y-104164603D01*
X119019393Y-104130612D01*
X119019391Y-104130609D01*
X118964614Y-104094008D01*
X118964615Y-104094008D01*
X118916310Y-104084400D01*
X116833693Y-104084400D01*
X116785385Y-104094008D01*
X116785384Y-104094008D01*
X116730612Y-104130606D01*
X116730606Y-104130612D01*
X116694008Y-104185385D01*
X116684400Y-104233686D01*
X116315598Y-104233686D01*
X116305992Y-104185386D01*
X116301110Y-104178080D01*
X116269393Y-104130612D01*
X116269391Y-104130609D01*
X116214614Y-104094008D01*
X116214615Y-104094008D01*
X116166310Y-104084400D01*
X114083693Y-104084400D01*
X114035385Y-104094008D01*
X114035384Y-104094008D01*
X113980612Y-104130606D01*
X113980606Y-104130612D01*
X113944008Y-104185385D01*
X113934400Y-104233686D01*
X108643000Y-104233686D01*
X108643000Y-102317277D01*
X108662079Y-102264858D01*
X108666885Y-102259612D01*
X109709612Y-101216885D01*
X109760169Y-101193310D01*
X109767277Y-101193000D01*
X122903764Y-101193000D01*
X122956183Y-101212079D01*
X122984075Y-101260389D01*
X122974388Y-101315325D01*
X122961432Y-101332210D01*
X122960612Y-101333031D01*
X122960610Y-101333033D01*
X122923800Y-101421901D01*
X122923800Y-101599263D01*
X122904721Y-101651682D01*
X122899915Y-101656928D01*
X122386831Y-102170012D01*
X122386830Y-102170011D01*
X122318811Y-102238031D01*
X122318811Y-102238032D01*
X122282000Y-102326901D01*
X122282000Y-104231129D01*
X122279866Y-104231129D01*
X122273004Y-104275690D01*
X122231061Y-104312467D01*
X122175291Y-104313680D01*
X122143845Y-104294125D01*
X120568743Y-102719023D01*
X120545688Y-102672963D01*
X120531365Y-102573342D01*
X120531365Y-102573340D01*
X120478207Y-102456941D01*
X120394410Y-102360233D01*
X120394409Y-102360232D01*
X120286764Y-102291052D01*
X120163981Y-102255000D01*
X120036019Y-102255000D01*
X119913235Y-102291052D01*
X119805590Y-102360232D01*
X119721792Y-102456942D01*
X119668634Y-102573342D01*
X119650424Y-102700000D01*
X119668634Y-102826657D01*
X119668634Y-102826658D01*
X119668635Y-102826660D01*
X119721793Y-102943059D01*
X119782425Y-103013033D01*
X119805590Y-103039767D01*
X119913235Y-103108947D01*
X119913236Y-103108947D01*
X119913239Y-103108949D01*
X120036019Y-103145000D01*
X120061500Y-103145000D01*
X120113919Y-103164079D01*
X120119165Y-103168885D01*
X120813615Y-103863335D01*
X120837190Y-103913892D01*
X120837500Y-103921000D01*
X120837500Y-104374999D01*
X120837501Y-104375000D01*
X121291500Y-104375000D01*
X121343919Y-104394079D01*
X121349165Y-104398885D01*
X122157115Y-105206835D01*
X122180690Y-105257392D01*
X122181000Y-105264500D01*
X122181000Y-115235500D01*
X122161921Y-115287919D01*
X122157115Y-115293165D01*
X118504743Y-118945537D01*
X116454913Y-120995366D01*
X116404356Y-121018941D01*
X116350473Y-121004503D01*
X116318477Y-120958808D01*
X116319838Y-120912049D01*
X116339505Y-120852697D01*
X116339506Y-120852695D01*
X116339781Y-120850000D01*
X115331550Y-120850000D01*
X115279131Y-120830921D01*
X115251239Y-120782611D01*
X115250000Y-120768450D01*
X115250000Y-120250001D01*
X115249999Y-120250000D01*
X114731550Y-120250000D01*
X114679131Y-120230921D01*
X114651239Y-120182611D01*
X114650000Y-120168450D01*
X114650000Y-119562551D01*
X115850000Y-119562551D01*
X115850000Y-119649999D01*
X115850001Y-119650000D01*
X116339781Y-119650000D01*
X116339781Y-119649999D01*
X116339506Y-119647306D01*
X116284359Y-119480881D01*
X116192313Y-119331652D01*
X116189370Y-119327929D01*
X116190646Y-119326920D01*
X116169750Y-119282108D01*
X116184188Y-119228225D01*
X116193325Y-119217335D01*
X116217316Y-119193343D01*
X116309359Y-119044118D01*
X116364505Y-118877696D01*
X116368613Y-118837500D01*
X115875001Y-118837500D01*
X115875000Y-118837501D01*
X115875000Y-119503771D01*
X115855921Y-119556190D01*
X115851115Y-119561436D01*
X115850000Y-119562551D01*
X114650000Y-119562551D01*
X114650000Y-119044000D01*
X114669079Y-118991581D01*
X114676864Y-118987085D01*
X114676114Y-118986335D01*
X114700000Y-118962449D01*
X114700000Y-118837501D01*
X114699999Y-118837500D01*
X114206388Y-118837500D01*
X114210494Y-118877693D01*
X114210495Y-118877699D01*
X114265640Y-119044118D01*
X114357523Y-119193083D01*
X114368803Y-119247714D01*
X114345779Y-119293559D01*
X114307685Y-119331653D01*
X114215640Y-119480881D01*
X114160494Y-119647303D01*
X114159659Y-119655480D01*
X114135349Y-119705689D01*
X114084454Y-119728525D01*
X114030788Y-119713303D01*
X114003301Y-119675588D01*
X114003100Y-119675691D01*
X114002456Y-119674427D01*
X114000972Y-119672391D01*
X114000188Y-119669982D01*
X114000187Y-119669972D01*
X113940419Y-119552671D01*
X113847329Y-119459581D01*
X113803625Y-119437312D01*
X113765582Y-119396513D01*
X113759100Y-119364651D01*
X113759100Y-119134745D01*
X113778179Y-119082326D01*
X113792719Y-119068767D01*
X113797319Y-119065423D01*
X113797329Y-119065419D01*
X113890419Y-118972329D01*
X113950187Y-118855028D01*
X113965600Y-118757712D01*
X113965600Y-117742288D01*
X113952963Y-117662500D01*
X114206387Y-117662500D01*
X114699999Y-117662500D01*
X114700000Y-117662499D01*
X115875000Y-117662499D01*
X115875001Y-117662500D01*
X116368611Y-117662500D01*
X116368611Y-117662499D01*
X116364505Y-117622306D01*
X116364504Y-117622300D01*
X116309359Y-117455881D01*
X116217316Y-117306656D01*
X116093343Y-117182683D01*
X115944120Y-117090641D01*
X115875000Y-117067737D01*
X115875000Y-117662499D01*
X114700000Y-117662499D01*
X114700000Y-117067737D01*
X114630879Y-117090641D01*
X114481656Y-117182683D01*
X114357683Y-117306656D01*
X114265640Y-117455881D01*
X114210494Y-117622303D01*
X114206387Y-117662500D01*
X113952963Y-117662500D01*
X113950187Y-117644972D01*
X113890419Y-117527671D01*
X113797329Y-117434581D01*
X113708127Y-117389130D01*
X113670084Y-117348333D01*
X113663601Y-117316469D01*
X113663601Y-116137046D01*
X113682680Y-116084627D01*
X113697589Y-116071261D01*
X113697567Y-116071234D01*
X113698198Y-116070715D01*
X113699847Y-116069238D01*
X113700313Y-116068925D01*
X113700662Y-116068693D01*
X113828194Y-115941161D01*
X113928395Y-115791199D01*
X113963064Y-115707501D01*
X114407001Y-115707501D01*
X114407001Y-115907482D01*
X114417494Y-116010193D01*
X114417495Y-116010199D01*
X114472640Y-116176618D01*
X114564683Y-116325843D01*
X114688656Y-116449816D01*
X114837879Y-116541858D01*
X114907000Y-116564762D01*
X114907000Y-115707501D01*
X116407000Y-115707501D01*
X116407000Y-116564761D01*
X116476120Y-116541858D01*
X116625343Y-116449816D01*
X116749316Y-116325843D01*
X116841359Y-116176618D01*
X116896505Y-116010196D01*
X116906999Y-115907481D01*
X116907000Y-115907474D01*
X116907000Y-115707501D01*
X116906999Y-115707500D01*
X116407001Y-115707500D01*
X116407000Y-115707501D01*
X114907000Y-115707501D01*
X114906999Y-115707500D01*
X114407002Y-115707500D01*
X114407001Y-115707501D01*
X113963064Y-115707501D01*
X113997415Y-115624571D01*
X114032601Y-115447679D01*
X114032601Y-114891674D01*
X115157000Y-114891674D01*
X115157000Y-115023326D01*
X115191075Y-115150493D01*
X115256901Y-115264507D01*
X115349993Y-115357599D01*
X115464007Y-115423425D01*
X115591174Y-115457500D01*
X115722826Y-115457500D01*
X115849993Y-115423425D01*
X115964007Y-115357599D01*
X116057099Y-115264507D01*
X116122925Y-115150493D01*
X116157000Y-115023326D01*
X116157000Y-114891674D01*
X116122925Y-114764507D01*
X116057099Y-114650493D01*
X115964007Y-114557401D01*
X115849993Y-114491575D01*
X115722826Y-114457500D01*
X115591174Y-114457500D01*
X115464007Y-114491575D01*
X115349993Y-114557401D01*
X115256901Y-114650493D01*
X115191075Y-114764507D01*
X115157000Y-114891674D01*
X114032601Y-114891674D01*
X114032601Y-114467321D01*
X113997415Y-114290429D01*
X113963830Y-114209348D01*
X113928396Y-114123803D01*
X113920406Y-114111844D01*
X113850698Y-114007518D01*
X114407000Y-114007518D01*
X114407000Y-114207499D01*
X114407001Y-114207500D01*
X114906999Y-114207500D01*
X114907000Y-114207499D01*
X116407000Y-114207499D01*
X116407001Y-114207500D01*
X116906998Y-114207500D01*
X116906999Y-114207499D01*
X116906999Y-114007527D01*
X116906998Y-114007517D01*
X116896505Y-113904806D01*
X116896504Y-113904800D01*
X116841359Y-113738381D01*
X116749316Y-113589156D01*
X116625343Y-113465183D01*
X116476120Y-113373141D01*
X116407000Y-113350237D01*
X116407000Y-114207499D01*
X114907000Y-114207499D01*
X114907000Y-113350237D01*
X114837879Y-113373141D01*
X114688656Y-113465183D01*
X114564683Y-113589156D01*
X114472640Y-113738381D01*
X114417494Y-113904803D01*
X114407000Y-114007518D01*
X113850698Y-114007518D01*
X113828194Y-113973839D01*
X113700662Y-113846307D01*
X113550700Y-113746106D01*
X113550699Y-113746105D01*
X113550697Y-113746104D01*
X113384078Y-113677088D01*
X113384075Y-113677087D01*
X113384072Y-113677086D01*
X113308261Y-113662006D01*
X113207184Y-113641900D01*
X113207180Y-113641900D01*
X113026822Y-113641900D01*
X113026817Y-113641900D01*
X112914858Y-113664171D01*
X112849930Y-113677086D01*
X112849927Y-113677086D01*
X112849923Y-113677088D01*
X112683304Y-113746104D01*
X112533342Y-113846305D01*
X112405806Y-113973841D01*
X112305605Y-114123803D01*
X112236589Y-114290422D01*
X112236587Y-114290431D01*
X112201401Y-114467316D01*
X112201401Y-115447683D01*
X112212543Y-115503693D01*
X112236587Y-115624571D01*
X112236588Y-115624574D01*
X112236589Y-115624577D01*
X112305605Y-115791196D01*
X112405808Y-115941162D01*
X112533338Y-116068692D01*
X112534155Y-116069238D01*
X112534385Y-116069551D01*
X112536435Y-116071234D01*
X112536003Y-116071759D01*
X112567142Y-116114222D01*
X112570401Y-116137046D01*
X112570401Y-117458071D01*
X112551322Y-117510490D01*
X112546517Y-117515734D01*
X112534581Y-117527670D01*
X112474812Y-117644974D01*
X112459400Y-117742289D01*
X112459400Y-118757710D01*
X112474812Y-118855025D01*
X112474812Y-118855026D01*
X112474813Y-118855028D01*
X112534581Y-118972329D01*
X112627671Y-119065419D01*
X112627676Y-119065421D01*
X112632281Y-119068767D01*
X112663477Y-119115012D01*
X112665900Y-119134745D01*
X112665900Y-119412573D01*
X112646821Y-119464992D01*
X112642025Y-119470226D01*
X112580815Y-119531437D01*
X112559580Y-119552672D01*
X112499812Y-119669974D01*
X112497091Y-119687157D01*
X112484400Y-119767288D01*
X112484400Y-120732712D01*
X112485229Y-120737945D01*
X112499812Y-120830025D01*
X112499812Y-120830026D01*
X112499813Y-120830028D01*
X112559581Y-120947329D01*
X112652671Y-121040419D01*
X112769972Y-121100187D01*
X112867288Y-121115600D01*
X112867290Y-121115600D01*
X113632100Y-121115600D01*
X113684519Y-121134679D01*
X113689765Y-121139485D01*
X114204743Y-121654463D01*
X114204745Y-121654464D01*
X114205370Y-121654825D01*
X114205650Y-121655159D01*
X114208985Y-121657718D01*
X114208417Y-121658457D01*
X114241227Y-121697557D01*
X114241228Y-121753340D01*
X114205372Y-121796074D01*
X114164596Y-121807000D01*
X111467277Y-121807000D01*
X111414858Y-121787921D01*
X111409612Y-121783115D01*
X110966885Y-121340388D01*
X110943310Y-121289831D01*
X110943000Y-121282723D01*
X110943000Y-120568563D01*
X110942999Y-120568561D01*
X110906189Y-120479693D01*
X110906188Y-120479692D01*
X110906188Y-120479691D01*
X110838169Y-120411672D01*
X110838167Y-120411671D01*
X109666885Y-119240388D01*
X109643310Y-119189831D01*
X109643000Y-119182723D01*
X109643000Y-118103103D01*
X109642999Y-118103101D01*
X109609339Y-118021838D01*
X109606188Y-118014231D01*
X109538169Y-117946211D01*
X109538169Y-117946212D01*
X108831172Y-117239215D01*
X108807597Y-117188658D01*
X108822035Y-117134775D01*
X108867730Y-117102779D01*
X108888837Y-117100000D01*
X109190636Y-117100000D01*
X109190636Y-117099999D01*
X109227488Y-117097100D01*
X109227492Y-117097099D01*
X109385194Y-117051283D01*
X109526554Y-116967684D01*
X109642685Y-116851553D01*
X109726281Y-116710198D01*
X109726285Y-116710190D01*
X109758298Y-116600000D01*
X108619051Y-116600000D01*
X108566632Y-116580921D01*
X108538740Y-116532611D01*
X108537501Y-116518450D01*
X108537501Y-116300001D01*
X108537500Y-116300000D01*
X108319051Y-116300000D01*
X108266632Y-116280921D01*
X108238740Y-116232611D01*
X108237501Y-116218450D01*
X108237501Y-115500001D01*
X108837501Y-115500001D01*
X108837501Y-115999999D01*
X108837502Y-116000000D01*
X109758298Y-116000000D01*
X109726285Y-115889809D01*
X109726281Y-115889801D01*
X109642685Y-115748446D01*
X109526554Y-115632315D01*
X109385194Y-115548716D01*
X109227492Y-115502900D01*
X109227488Y-115502899D01*
X109190637Y-115500000D01*
X108837502Y-115500000D01*
X108837501Y-115500001D01*
X108237501Y-115500001D01*
X108237500Y-115500000D01*
X107884365Y-115500000D01*
X107847513Y-115502899D01*
X107847509Y-115502900D01*
X107689803Y-115548717D01*
X107688652Y-115549398D01*
X107687909Y-115549536D01*
X107685100Y-115550753D01*
X107684823Y-115550113D01*
X107633819Y-115559652D01*
X107585223Y-115532261D01*
X107565603Y-115480042D01*
X107565599Y-115479377D01*
X107565599Y-115163018D01*
X107559549Y-115117057D01*
X107512513Y-115016187D01*
X107433813Y-114937487D01*
X107332943Y-114890451D01*
X107332941Y-114890450D01*
X107332940Y-114890450D01*
X107286986Y-114884400D01*
X106038024Y-114884400D01*
X106038003Y-114884402D01*
X105992062Y-114890449D01*
X105992058Y-114890450D01*
X105992057Y-114890451D01*
X105941622Y-114913969D01*
X105891186Y-114937487D01*
X105812487Y-115016186D01*
X105765450Y-115117058D01*
X105765450Y-115117060D01*
X105759400Y-115163005D01*
X105759400Y-115166671D01*
X105740321Y-115219090D01*
X105692011Y-115246982D01*
X105677850Y-115248221D01*
X104654156Y-115248221D01*
X104601737Y-115229142D01*
X104573845Y-115180832D01*
X104583532Y-115125896D01*
X104615713Y-115094750D01*
X104649385Y-115076753D01*
X104796417Y-114956087D01*
X104917083Y-114809055D01*
X105006745Y-114641308D01*
X105061959Y-114459292D01*
X105074937Y-114327532D01*
X105080603Y-114270004D01*
X105080603Y-114269997D01*
X105064483Y-114106340D01*
X105061959Y-114080710D01*
X105006745Y-113898694D01*
X104917083Y-113730947D01*
X104891685Y-113700000D01*
X104838843Y-113635611D01*
X104796417Y-113583915D01*
X104718502Y-113519972D01*
X104649388Y-113463251D01*
X104649386Y-113463250D01*
X104649385Y-113463249D01*
X104481638Y-113373587D01*
X104481637Y-113373586D01*
X104481636Y-113373586D01*
X104403872Y-113349997D01*
X104299622Y-113318373D01*
X104299616Y-113318372D01*
X104299610Y-113318371D01*
X104110334Y-113299729D01*
X104110328Y-113299729D01*
X103921051Y-113318371D01*
X103921043Y-113318372D01*
X103921040Y-113318373D01*
X103853599Y-113338831D01*
X103739025Y-113373586D01*
X103571273Y-113463251D01*
X103424248Y-113583912D01*
X103424242Y-113583918D01*
X103303581Y-113730943D01*
X103213916Y-113898695D01*
X103195289Y-113960101D01*
X103158703Y-114080710D01*
X103158703Y-114080712D01*
X103158701Y-114080721D01*
X103140059Y-114269997D01*
X103140059Y-114270004D01*
X103158701Y-114459280D01*
X103158702Y-114459286D01*
X103158703Y-114459292D01*
X103213917Y-114641308D01*
X103292267Y-114787892D01*
X103303581Y-114809058D01*
X103335746Y-114848251D01*
X103424245Y-114956087D01*
X103571277Y-115076753D01*
X103739024Y-115166415D01*
X103810653Y-115188143D01*
X103855277Y-115221617D01*
X103868531Y-115266182D01*
X103868531Y-115331651D01*
X103849452Y-115384070D01*
X103801142Y-115411962D01*
X103786981Y-115413201D01*
X102566512Y-115413201D01*
X102514093Y-115394122D01*
X102488474Y-115355324D01*
X102484746Y-115343034D01*
X102466745Y-115283694D01*
X102377083Y-115115947D01*
X102371703Y-115109392D01*
X102330304Y-115058947D01*
X102256417Y-114968915D01*
X102162299Y-114891674D01*
X102109388Y-114848251D01*
X102109386Y-114848250D01*
X102109385Y-114848249D01*
X101941638Y-114758587D01*
X101941637Y-114758586D01*
X101941636Y-114758586D01*
X101884637Y-114741296D01*
X101759622Y-114703373D01*
X101759616Y-114703372D01*
X101759610Y-114703371D01*
X101570334Y-114684729D01*
X101570328Y-114684729D01*
X101381051Y-114703371D01*
X101381043Y-114703372D01*
X101381040Y-114703373D01*
X101321953Y-114721297D01*
X101199025Y-114758586D01*
X101031273Y-114848251D01*
X100884248Y-114968912D01*
X100884242Y-114968918D01*
X100763581Y-115115943D01*
X100673916Y-115283695D01*
X100652188Y-115355324D01*
X100618703Y-115465710D01*
X100618703Y-115465712D01*
X100618701Y-115465721D01*
X100600059Y-115654997D01*
X100600059Y-115655004D01*
X100618701Y-115844280D01*
X100618702Y-115844286D01*
X100618703Y-115844292D01*
X100638652Y-115910054D01*
X100669028Y-116010193D01*
X100673917Y-116026308D01*
X100758567Y-116184679D01*
X100763581Y-116194058D01*
X100831081Y-116276307D01*
X100884245Y-116341087D01*
X100973821Y-116414600D01*
X101016731Y-116449816D01*
X101031277Y-116461753D01*
X101199024Y-116551415D01*
X101381040Y-116606629D01*
X101422727Y-116610734D01*
X101570328Y-116625273D01*
X101570331Y-116625273D01*
X101570334Y-116625273D01*
X101687482Y-116613734D01*
X101759622Y-116606629D01*
X101941638Y-116551415D01*
X102109385Y-116461753D01*
X102256417Y-116341087D01*
X102377083Y-116194055D01*
X102466745Y-116026308D01*
X102488474Y-115954678D01*
X102521948Y-115910054D01*
X102566512Y-115896801D01*
X102898911Y-115896801D01*
X102951330Y-115915880D01*
X102979222Y-115964190D01*
X102969535Y-116019126D01*
X102968320Y-116021163D01*
X102875972Y-116170881D01*
X102853068Y-116240001D01*
X105367593Y-116240001D01*
X105361618Y-116221968D01*
X105363240Y-116166208D01*
X105400325Y-116124536D01*
X105455519Y-116116451D01*
X105496694Y-116138651D01*
X106016391Y-116658348D01*
X106039966Y-116708905D01*
X106025528Y-116762788D01*
X105993190Y-116789923D01*
X105992057Y-116790450D01*
X105992057Y-116790451D01*
X105975836Y-116798015D01*
X105891186Y-116837487D01*
X105812487Y-116916186D01*
X105765450Y-117017058D01*
X105765450Y-117017060D01*
X105759400Y-117063005D01*
X105759400Y-117436975D01*
X105759402Y-117436996D01*
X105765449Y-117482937D01*
X105765450Y-117482940D01*
X105765451Y-117482943D01*
X105812487Y-117583813D01*
X105891187Y-117662513D01*
X105992057Y-117709549D01*
X106038017Y-117715600D01*
X107286982Y-117715599D01*
X107306648Y-117713010D01*
X107332937Y-117709550D01*
X107332937Y-117709549D01*
X107332943Y-117709549D01*
X107433813Y-117662513D01*
X107512513Y-117583813D01*
X107517177Y-117573811D01*
X107520135Y-117567468D01*
X107559578Y-117528022D01*
X107594045Y-117520380D01*
X107650732Y-117520380D01*
X107888063Y-117520380D01*
X107940482Y-117539459D01*
X107945728Y-117544265D01*
X108733115Y-118331652D01*
X108756690Y-118382209D01*
X108757000Y-118389317D01*
X108757000Y-119531438D01*
X108793810Y-119620306D01*
X108793811Y-119620307D01*
X108793812Y-119620309D01*
X109439810Y-120266306D01*
X110033115Y-120859611D01*
X110056690Y-120910168D01*
X110057000Y-120917276D01*
X110057000Y-121631438D01*
X110093810Y-121720306D01*
X110093811Y-121720307D01*
X110093812Y-121720309D01*
X111029691Y-122656188D01*
X111118563Y-122693000D01*
X116672762Y-122693000D01*
X116761634Y-122656188D01*
X119187484Y-120230338D01*
X119238041Y-120206763D01*
X119245149Y-120206453D01*
X122418450Y-120206453D01*
X122470869Y-120225532D01*
X122498761Y-120273842D01*
X122500000Y-120288003D01*
X122500000Y-121500000D01*
X123000000Y-122000000D01*
X123000001Y-122000000D01*
X124999999Y-122000000D01*
X125000000Y-122000000D01*
X125000000Y-121999999D01*
X125001914Y-121999207D01*
X125033121Y-121993000D01*
X126610483Y-121993000D01*
X126699355Y-121956188D01*
X128112999Y-120542541D01*
X128113002Y-120542540D01*
X128124468Y-120531074D01*
X128124469Y-120531074D01*
X128146056Y-120509485D01*
X128196612Y-120485910D01*
X128203721Y-120485600D01*
X128453806Y-120485600D01*
X128453808Y-120485600D01*
X128502114Y-120475993D01*
X128556891Y-120439392D01*
X128593492Y-120384615D01*
X128603100Y-120336310D01*
X128603099Y-119903693D01*
X128593492Y-119855387D01*
X128556891Y-119800610D01*
X128537729Y-119787806D01*
X128504745Y-119742821D01*
X128508393Y-119687157D01*
X128537730Y-119652195D01*
X128541015Y-119650000D01*
X128556891Y-119639392D01*
X128593492Y-119584615D01*
X128603100Y-119536310D01*
X128603099Y-119103693D01*
X128603098Y-119103687D01*
X129071900Y-119103687D01*
X129071900Y-119536307D01*
X129081508Y-119584615D01*
X129081508Y-119584616D01*
X129117202Y-119638035D01*
X129118109Y-119639392D01*
X129133985Y-119650000D01*
X129137270Y-119652195D01*
X129170254Y-119697182D01*
X129166605Y-119752846D01*
X129137270Y-119787807D01*
X129118110Y-119800609D01*
X129118106Y-119800613D01*
X129081508Y-119855386D01*
X129071900Y-119903687D01*
X129071900Y-120336307D01*
X129081508Y-120384615D01*
X129081508Y-120384616D01*
X129115019Y-120434768D01*
X129118109Y-120439392D01*
X129146125Y-120458112D01*
X129172885Y-120475992D01*
X129172884Y-120475992D01*
X129172886Y-120475993D01*
X129221191Y-120485601D01*
X130153808Y-120485600D01*
X130202114Y-120475993D01*
X130256891Y-120439392D01*
X130284520Y-120398043D01*
X130329507Y-120365059D01*
X130352326Y-120361801D01*
X130714423Y-120361801D01*
X130766842Y-120380880D01*
X130772088Y-120385686D01*
X131168446Y-120782044D01*
X131192021Y-120832601D01*
X131191501Y-120851314D01*
X131183783Y-120904998D01*
X131183783Y-120905000D01*
X131185548Y-120917276D01*
X131201993Y-121031657D01*
X131201993Y-121031658D01*
X131201994Y-121031660D01*
X131238257Y-121111065D01*
X131249041Y-121134679D01*
X131255152Y-121148059D01*
X131265136Y-121159581D01*
X131338949Y-121244767D01*
X131446594Y-121313947D01*
X131446595Y-121313947D01*
X131446598Y-121313949D01*
X131569378Y-121350000D01*
X131702622Y-121350000D01*
X131755041Y-121369079D01*
X131760287Y-121373885D01*
X132373371Y-121986969D01*
X132373370Y-121986969D01*
X132441390Y-122054988D01*
X132530262Y-122091800D01*
X135052850Y-122091800D01*
X135105269Y-122110879D01*
X135133161Y-122159189D01*
X135134400Y-122173350D01*
X135134400Y-122232710D01*
X135149812Y-122330025D01*
X135149812Y-122330026D01*
X135149813Y-122330028D01*
X135209581Y-122447329D01*
X135302671Y-122540419D01*
X135419972Y-122600187D01*
X135517288Y-122615600D01*
X135517290Y-122615600D01*
X136482710Y-122615600D01*
X136482712Y-122615600D01*
X136580028Y-122600187D01*
X136697329Y-122540419D01*
X136790419Y-122447329D01*
X136850187Y-122330028D01*
X136865600Y-122232712D01*
X136865600Y-121625000D01*
X141690848Y-121625000D01*
X141709428Y-121861087D01*
X141764711Y-122091358D01*
X141764712Y-122091359D01*
X141855333Y-122310135D01*
X141855337Y-122310143D01*
X141979068Y-122512054D01*
X141979073Y-122512061D01*
X142102169Y-122656189D01*
X142132868Y-122692132D01*
X142312943Y-122845930D01*
X142514859Y-122969664D01*
X142514864Y-122969666D01*
X142733640Y-123060287D01*
X142733641Y-123060288D01*
X142963913Y-123115571D01*
X142963917Y-123115572D01*
X143200000Y-123134152D01*
X143436083Y-123115572D01*
X143666354Y-123060289D01*
X143666354Y-123060288D01*
X143666358Y-123060288D01*
X143666359Y-123060287D01*
X143694308Y-123048709D01*
X143885141Y-122969664D01*
X144087057Y-122845930D01*
X144267132Y-122692132D01*
X144420930Y-122512057D01*
X144544664Y-122310141D01*
X144635287Y-122091359D01*
X144635288Y-122091358D01*
X144690571Y-121861087D01*
X144690570Y-121861087D01*
X144690572Y-121861083D01*
X144709152Y-121625000D01*
X144690572Y-121388917D01*
X144685810Y-121369079D01*
X144635288Y-121158641D01*
X144635287Y-121158640D01*
X144544666Y-120939864D01*
X144544662Y-120939856D01*
X144491250Y-120852695D01*
X144420930Y-120737943D01*
X144420926Y-120737938D01*
X144267140Y-120557877D01*
X144267137Y-120557874D01*
X144267132Y-120557868D01*
X144267125Y-120557862D01*
X144267122Y-120557859D01*
X144087061Y-120404073D01*
X144087054Y-120404068D01*
X143885143Y-120280337D01*
X143885135Y-120280333D01*
X143666359Y-120189712D01*
X143666358Y-120189711D01*
X143436086Y-120134428D01*
X143436088Y-120134428D01*
X143200000Y-120115848D01*
X142963912Y-120134428D01*
X142733641Y-120189711D01*
X142733640Y-120189712D01*
X142514864Y-120280333D01*
X142514856Y-120280337D01*
X142312945Y-120404068D01*
X142312938Y-120404073D01*
X142132877Y-120557859D01*
X142132859Y-120557877D01*
X141979073Y-120737938D01*
X141979068Y-120737945D01*
X141855337Y-120939856D01*
X141855333Y-120939864D01*
X141764712Y-121158640D01*
X141764711Y-121158641D01*
X141709428Y-121388912D01*
X141690848Y-121625000D01*
X136865600Y-121625000D01*
X136865600Y-121467288D01*
X136850187Y-121369972D01*
X136790419Y-121252671D01*
X136697329Y-121159581D01*
X136580028Y-121099813D01*
X136580026Y-121099812D01*
X136580025Y-121099812D01*
X136519336Y-121090200D01*
X136482712Y-121084400D01*
X135517288Y-121084400D01*
X135486464Y-121089281D01*
X135419974Y-121099812D01*
X135302672Y-121159580D01*
X135209580Y-121252672D01*
X135149812Y-121369974D01*
X135134400Y-121467289D01*
X135134400Y-121526650D01*
X135115321Y-121579069D01*
X135067011Y-121606961D01*
X135052850Y-121608200D01*
X132712296Y-121608200D01*
X132659877Y-121589121D01*
X132654631Y-121584315D01*
X132098270Y-121027954D01*
X132074695Y-120977397D01*
X132075214Y-120958692D01*
X132082935Y-120905000D01*
X132064724Y-120778340D01*
X132011566Y-120661941D01*
X131927769Y-120565233D01*
X131927768Y-120565232D01*
X131927767Y-120565231D01*
X131923615Y-120561634D01*
X131896491Y-120512888D01*
X131907046Y-120458112D01*
X131923615Y-120438366D01*
X131927767Y-120434768D01*
X131927766Y-120434768D01*
X131927769Y-120434767D01*
X132011566Y-120338059D01*
X132064724Y-120221660D01*
X132082935Y-120095000D01*
X132082934Y-120094999D01*
X132083765Y-120089227D01*
X132086133Y-120089567D01*
X132102014Y-120045935D01*
X132150324Y-120018043D01*
X132164485Y-120016804D01*
X132552851Y-120016804D01*
X132605270Y-120035883D01*
X132633162Y-120084193D01*
X132634401Y-120098354D01*
X132634401Y-120266308D01*
X132637191Y-120280336D01*
X132644008Y-120314614D01*
X132644008Y-120314615D01*
X132680606Y-120369387D01*
X132680609Y-120369391D01*
X132697803Y-120380880D01*
X132735385Y-120405991D01*
X132735384Y-120405991D01*
X132735386Y-120405992D01*
X132783691Y-120415600D01*
X133666308Y-120415599D01*
X133714614Y-120405992D01*
X133754693Y-120379212D01*
X133808878Y-120365953D01*
X133845307Y-120379212D01*
X133885386Y-120405992D01*
X133933691Y-120415600D01*
X134816308Y-120415599D01*
X134864614Y-120405992D01*
X134919391Y-120369391D01*
X134955992Y-120314614D01*
X134965600Y-120266309D01*
X134965600Y-120174557D01*
X134984679Y-120122138D01*
X135032989Y-120094246D01*
X135047150Y-120093007D01*
X135052850Y-120093007D01*
X135105269Y-120112086D01*
X135133161Y-120160396D01*
X135134400Y-120174557D01*
X135134400Y-120232710D01*
X135149812Y-120330025D01*
X135149812Y-120330026D01*
X135149813Y-120330028D01*
X135209581Y-120447329D01*
X135302671Y-120540419D01*
X135419972Y-120600187D01*
X135517288Y-120615600D01*
X135517290Y-120615600D01*
X136482710Y-120615600D01*
X136482712Y-120615600D01*
X136580028Y-120600187D01*
X136697329Y-120540419D01*
X136790419Y-120447329D01*
X136850187Y-120330028D01*
X136865600Y-120232712D01*
X136865600Y-119467288D01*
X136850187Y-119369972D01*
X136790419Y-119252671D01*
X136697329Y-119159581D01*
X136580028Y-119099813D01*
X136580026Y-119099812D01*
X136580025Y-119099812D01*
X136519336Y-119090200D01*
X136482712Y-119084400D01*
X135517288Y-119084400D01*
X135486464Y-119089281D01*
X135419974Y-119099812D01*
X135302672Y-119159580D01*
X135209580Y-119252672D01*
X135149812Y-119369974D01*
X135149812Y-119369975D01*
X135146924Y-119388213D01*
X135119880Y-119437003D01*
X135067802Y-119456995D01*
X135066378Y-119457007D01*
X135047149Y-119457007D01*
X134994730Y-119437928D01*
X134966838Y-119389618D01*
X134965599Y-119375457D01*
X134965599Y-119283707D01*
X134965599Y-119283706D01*
X134955992Y-119235400D01*
X134955987Y-119235393D01*
X134919393Y-119180626D01*
X134919391Y-119180623D01*
X134919382Y-119180617D01*
X134864614Y-119144022D01*
X134864615Y-119144022D01*
X134816310Y-119134414D01*
X133933693Y-119134414D01*
X133885385Y-119144022D01*
X133885384Y-119144022D01*
X133845310Y-119170799D01*
X133791125Y-119184057D01*
X133754698Y-119170799D01*
X133714614Y-119144016D01*
X133666310Y-119134408D01*
X132783693Y-119134408D01*
X132735385Y-119144016D01*
X132735384Y-119144016D01*
X132680612Y-119180614D01*
X132680606Y-119180620D01*
X132644008Y-119235393D01*
X132634400Y-119283694D01*
X132634400Y-119451654D01*
X132615321Y-119504073D01*
X132567011Y-119531965D01*
X132552850Y-119533204D01*
X131905256Y-119533204D01*
X131816387Y-119570015D01*
X131816386Y-119570015D01*
X131760286Y-119626115D01*
X131709729Y-119649690D01*
X131702622Y-119650000D01*
X131564096Y-119650000D01*
X131511677Y-119630921D01*
X131506431Y-119626115D01*
X131255773Y-119375457D01*
X130995329Y-119115013D01*
X130995327Y-119115012D01*
X130995326Y-119115011D01*
X130906458Y-119078201D01*
X130906457Y-119078201D01*
X130352325Y-119078201D01*
X130299906Y-119059122D01*
X130284519Y-119041958D01*
X130256893Y-119000613D01*
X130256891Y-119000610D01*
X130243378Y-118991581D01*
X130202114Y-118964009D01*
X130202115Y-118964009D01*
X130153810Y-118954401D01*
X129221193Y-118954401D01*
X129172885Y-118964009D01*
X129172884Y-118964009D01*
X129118112Y-119000607D01*
X129118106Y-119000613D01*
X129081508Y-119055386D01*
X129071900Y-119103687D01*
X128603098Y-119103687D01*
X128593492Y-119055387D01*
X128585962Y-119044118D01*
X128556893Y-119000613D01*
X128556891Y-119000610D01*
X128543378Y-118991581D01*
X128502114Y-118964009D01*
X128502115Y-118964009D01*
X128453813Y-118954401D01*
X128453809Y-118954401D01*
X128130138Y-118954401D01*
X128077719Y-118935322D01*
X128072473Y-118930516D01*
X127416316Y-118274359D01*
X126715768Y-117573811D01*
X126715766Y-117573810D01*
X126715765Y-117573809D01*
X126626897Y-117536999D01*
X126626896Y-117536999D01*
X124878103Y-117536999D01*
X124878101Y-117536999D01*
X124789232Y-117573810D01*
X124789231Y-117573810D01*
X124721213Y-117641827D01*
X124721211Y-117641831D01*
X124636929Y-117726114D01*
X124586372Y-117749690D01*
X124579264Y-117750000D01*
X123000000Y-117750000D01*
X122500000Y-118250000D01*
X122500000Y-118250001D01*
X122500000Y-119238903D01*
X122480921Y-119291322D01*
X122432611Y-119319214D01*
X122418450Y-119320453D01*
X119226147Y-119320453D01*
X119173728Y-119301374D01*
X119145836Y-119253064D01*
X119155523Y-119198128D01*
X119168482Y-119181238D01*
X120052458Y-118297262D01*
X122753463Y-115596257D01*
X122771853Y-115564405D01*
X122795329Y-115523743D01*
X122800914Y-115502899D01*
X122816999Y-115442870D01*
X122817000Y-115442863D01*
X122817000Y-113617288D01*
X123634400Y-113617288D01*
X123634400Y-114382712D01*
X123638238Y-114406942D01*
X123649812Y-114480025D01*
X123649812Y-114480026D01*
X123649813Y-114480028D01*
X123709581Y-114597329D01*
X123802671Y-114690419D01*
X123919972Y-114750187D01*
X124017288Y-114765600D01*
X124476250Y-114765600D01*
X124528669Y-114784679D01*
X124556561Y-114832989D01*
X124557800Y-114847150D01*
X124557800Y-115152850D01*
X124538721Y-115205269D01*
X124490411Y-115233161D01*
X124476251Y-115234400D01*
X124383694Y-115234400D01*
X124335385Y-115244008D01*
X124335384Y-115244008D01*
X124280612Y-115280606D01*
X124280606Y-115280612D01*
X124244008Y-115335385D01*
X124234400Y-115383686D01*
X124234400Y-116366292D01*
X124244008Y-116414600D01*
X124244008Y-116414601D01*
X124280606Y-116469373D01*
X124280609Y-116469377D01*
X124280612Y-116469379D01*
X124335385Y-116505977D01*
X124335384Y-116505977D01*
X124335386Y-116505978D01*
X124383691Y-116515586D01*
X125266308Y-116515585D01*
X125314614Y-116505978D01*
X125354688Y-116479200D01*
X125408872Y-116465942D01*
X125445302Y-116479201D01*
X125467292Y-116493894D01*
X125485377Y-116505978D01*
X125485385Y-116505983D01*
X125485384Y-116505983D01*
X125485386Y-116505984D01*
X125533691Y-116515592D01*
X126416308Y-116515591D01*
X126464614Y-116505984D01*
X126519391Y-116469383D01*
X126555992Y-116414606D01*
X126565600Y-116366301D01*
X126565600Y-116247150D01*
X126584679Y-116194731D01*
X126632989Y-116166839D01*
X126647150Y-116165600D01*
X127454082Y-116165600D01*
X127506501Y-116184679D01*
X127515713Y-116193746D01*
X127555590Y-116239767D01*
X127663235Y-116308947D01*
X127663236Y-116308947D01*
X127663239Y-116308949D01*
X127786019Y-116345000D01*
X127913981Y-116345000D01*
X128036761Y-116308949D01*
X128054565Y-116297506D01*
X128108977Y-116285217D01*
X128158560Y-116310778D01*
X128166461Y-116320804D01*
X128205606Y-116379388D01*
X128205609Y-116379392D01*
X128258310Y-116414606D01*
X128260385Y-116415992D01*
X128260384Y-116415992D01*
X128260386Y-116415993D01*
X128308691Y-116425601D01*
X131261308Y-116425600D01*
X131309614Y-116415993D01*
X131364391Y-116379392D01*
X131400992Y-116324615D01*
X131410600Y-116276310D01*
X131410599Y-115828750D01*
X131429678Y-115776332D01*
X131477988Y-115748440D01*
X131492149Y-115747201D01*
X131507850Y-115747201D01*
X131560269Y-115766280D01*
X131588161Y-115814590D01*
X131589400Y-115828751D01*
X131589400Y-116276307D01*
X131599008Y-116324615D01*
X131599008Y-116324616D01*
X131635606Y-116379388D01*
X131635609Y-116379392D01*
X131688310Y-116414606D01*
X131690385Y-116415992D01*
X131690384Y-116415992D01*
X131690386Y-116415993D01*
X131738691Y-116425601D01*
X134691308Y-116425600D01*
X134739614Y-116415993D01*
X134794391Y-116379392D01*
X134830992Y-116324615D01*
X134840600Y-116276310D01*
X134840599Y-115828750D01*
X134859678Y-115776332D01*
X134907988Y-115748440D01*
X134922149Y-115747201D01*
X135112850Y-115747201D01*
X135165269Y-115766280D01*
X135193161Y-115814590D01*
X135194400Y-115828751D01*
X135194400Y-116276308D01*
X135204008Y-116324616D01*
X135204008Y-116324617D01*
X135240606Y-116379389D01*
X135240609Y-116379393D01*
X135295383Y-116415992D01*
X135295385Y-116415993D01*
X135295384Y-116415993D01*
X135295386Y-116415994D01*
X135343691Y-116425602D01*
X138296308Y-116425601D01*
X138344614Y-116415994D01*
X138399391Y-116379393D01*
X138435992Y-116324616D01*
X138445600Y-116276311D01*
X138445599Y-115503694D01*
X138435992Y-115455388D01*
X138427624Y-115442865D01*
X138399393Y-115400614D01*
X138399392Y-115400613D01*
X138399391Y-115400611D01*
X138399385Y-115400607D01*
X138344614Y-115364010D01*
X138344615Y-115364010D01*
X138296313Y-115354402D01*
X138296309Y-115354402D01*
X135606058Y-115354402D01*
X135553639Y-115335323D01*
X135548393Y-115330517D01*
X135530542Y-115312666D01*
X135506967Y-115262109D01*
X135521405Y-115208226D01*
X135530542Y-115197336D01*
X135548393Y-115179485D01*
X135598950Y-115155910D01*
X135606058Y-115155600D01*
X138296306Y-115155600D01*
X138296308Y-115155600D01*
X138344614Y-115145993D01*
X138399391Y-115109392D01*
X138435992Y-115054615D01*
X138445600Y-115006310D01*
X138445599Y-114233693D01*
X138435992Y-114185387D01*
X138430691Y-114177454D01*
X138399393Y-114130613D01*
X138399391Y-114130610D01*
X138399385Y-114130606D01*
X138344614Y-114094009D01*
X138344615Y-114094009D01*
X138296310Y-114084401D01*
X135343693Y-114084401D01*
X135295385Y-114094009D01*
X135295384Y-114094009D01*
X135240612Y-114130607D01*
X135240606Y-114130613D01*
X135204008Y-114185386D01*
X135194400Y-114233687D01*
X135194400Y-114233692D01*
X135194400Y-114491575D01*
X135194401Y-114681252D01*
X135175322Y-114733671D01*
X135127012Y-114761563D01*
X135112851Y-114762802D01*
X134922150Y-114762802D01*
X134869731Y-114743723D01*
X134841839Y-114695413D01*
X134840600Y-114681252D01*
X134840599Y-114233694D01*
X134840368Y-114232531D01*
X134830992Y-114185387D01*
X134825691Y-114177454D01*
X134794393Y-114130613D01*
X134794391Y-114130610D01*
X134794385Y-114130606D01*
X134739614Y-114094009D01*
X134739615Y-114094009D01*
X134691310Y-114084401D01*
X131738693Y-114084401D01*
X131690385Y-114094009D01*
X131690384Y-114094009D01*
X131635612Y-114130607D01*
X131635606Y-114130613D01*
X131599008Y-114185386D01*
X131589400Y-114233687D01*
X131589400Y-114233692D01*
X131589400Y-114491575D01*
X131589401Y-114681251D01*
X131570322Y-114733670D01*
X131522012Y-114761562D01*
X131507851Y-114762801D01*
X131492150Y-114762801D01*
X131439731Y-114743722D01*
X131411839Y-114695412D01*
X131410600Y-114681251D01*
X131410599Y-114233694D01*
X131410368Y-114232531D01*
X131400992Y-114185387D01*
X131395691Y-114177454D01*
X131364393Y-114130613D01*
X131364391Y-114130610D01*
X131364385Y-114130606D01*
X131309614Y-114094009D01*
X131309615Y-114094009D01*
X131261313Y-114084401D01*
X128341395Y-114084401D01*
X128288976Y-114065322D01*
X128273415Y-114038370D01*
X128274954Y-114061214D01*
X128242050Y-114106260D01*
X128241929Y-114106340D01*
X128205613Y-114130606D01*
X128205606Y-114130613D01*
X128169008Y-114185386D01*
X128169007Y-114185388D01*
X128167556Y-114192682D01*
X128138614Y-114240370D01*
X128085789Y-114258297D01*
X128043485Y-114245372D01*
X128036763Y-114241052D01*
X128036762Y-114241051D01*
X128036761Y-114241051D01*
X127913981Y-114205000D01*
X127786019Y-114205000D01*
X127663235Y-114241052D01*
X127555590Y-114310232D01*
X127471792Y-114406942D01*
X127418634Y-114523342D01*
X127400424Y-114650000D01*
X127418634Y-114776657D01*
X127418634Y-114776658D01*
X127418635Y-114776660D01*
X127433431Y-114809058D01*
X127470601Y-114890450D01*
X127471793Y-114893059D01*
X127540599Y-114972466D01*
X127555590Y-114989767D01*
X127663235Y-115058947D01*
X127663236Y-115058947D01*
X127663239Y-115058949D01*
X127786019Y-115095000D01*
X127913981Y-115095000D01*
X128036761Y-115058949D01*
X128063914Y-115041498D01*
X128118325Y-115029208D01*
X128167908Y-115054768D01*
X128175810Y-115064795D01*
X128195992Y-115095000D01*
X128205609Y-115109392D01*
X128217080Y-115117057D01*
X128260385Y-115145992D01*
X128260384Y-115145992D01*
X128260386Y-115145993D01*
X128308691Y-115155601D01*
X130998941Y-115155600D01*
X131051360Y-115174679D01*
X131056606Y-115179485D01*
X131074457Y-115197336D01*
X131098032Y-115247893D01*
X131083594Y-115301776D01*
X131074460Y-115312662D01*
X131056605Y-115330516D01*
X131006050Y-115354091D01*
X130998942Y-115354401D01*
X128308693Y-115354401D01*
X128260385Y-115364009D01*
X128260384Y-115364009D01*
X128205612Y-115400607D01*
X128205606Y-115400613D01*
X128169007Y-115455386D01*
X128166880Y-115460524D01*
X128129193Y-115501651D01*
X128073887Y-115508932D01*
X128047448Y-115497919D01*
X128036764Y-115491052D01*
X127913981Y-115455000D01*
X127786019Y-115455000D01*
X127663235Y-115491052D01*
X127555590Y-115560232D01*
X127515713Y-115606254D01*
X127466967Y-115633376D01*
X127454082Y-115634400D01*
X126647149Y-115634400D01*
X126594730Y-115615321D01*
X126566838Y-115567011D01*
X126565599Y-115552850D01*
X126565599Y-115383693D01*
X126565598Y-115383686D01*
X126555992Y-115335386D01*
X126555949Y-115335322D01*
X126519393Y-115280612D01*
X126519391Y-115280609D01*
X126491702Y-115262108D01*
X126464614Y-115244008D01*
X126464615Y-115244008D01*
X126416310Y-115234400D01*
X125533693Y-115234400D01*
X125485385Y-115244008D01*
X125445306Y-115270788D01*
X125391121Y-115284046D01*
X125354694Y-115270788D01*
X125314614Y-115244008D01*
X125266313Y-115234400D01*
X125266309Y-115234400D01*
X125173750Y-115234400D01*
X125121331Y-115215321D01*
X125093439Y-115167011D01*
X125092200Y-115152850D01*
X125092200Y-114793959D01*
X125111279Y-114741540D01*
X125136725Y-114721297D01*
X125197329Y-114690419D01*
X125290419Y-114597329D01*
X125350187Y-114480028D01*
X125365600Y-114382712D01*
X125365600Y-113617288D01*
X125350187Y-113519972D01*
X125290419Y-113402671D01*
X125197329Y-113309581D01*
X125080028Y-113249813D01*
X125080026Y-113249812D01*
X125080025Y-113249812D01*
X125019336Y-113240200D01*
X124982712Y-113234400D01*
X124017288Y-113234400D01*
X123986464Y-113239281D01*
X123919974Y-113249812D01*
X123802672Y-113309580D01*
X123709580Y-113402672D01*
X123649812Y-113519974D01*
X123638225Y-113593136D01*
X123634400Y-113617288D01*
X122817000Y-113617288D01*
X122817000Y-111617288D01*
X123634400Y-111617288D01*
X123634400Y-112382712D01*
X123636570Y-112396414D01*
X123649812Y-112480025D01*
X123649812Y-112480026D01*
X123649813Y-112480028D01*
X123709581Y-112597329D01*
X123802671Y-112690419D01*
X123919972Y-112750187D01*
X124017288Y-112765600D01*
X124017290Y-112765600D01*
X124982710Y-112765600D01*
X124982712Y-112765600D01*
X125080028Y-112750187D01*
X125197329Y-112690419D01*
X125290419Y-112597329D01*
X125350187Y-112480028D01*
X125365600Y-112382712D01*
X125365600Y-111617288D01*
X125350187Y-111519972D01*
X125290419Y-111402671D01*
X125209226Y-111321478D01*
X125185652Y-111270923D01*
X125200090Y-111217040D01*
X125209228Y-111206150D01*
X125724294Y-110691086D01*
X125774851Y-110667511D01*
X125781958Y-110667201D01*
X127040541Y-110667201D01*
X127092960Y-110686280D01*
X127098206Y-110691086D01*
X127129943Y-110722823D01*
X127153518Y-110773380D01*
X127152998Y-110792091D01*
X127150424Y-110809997D01*
X127150424Y-110810000D01*
X127150424Y-110810001D01*
X127154098Y-110835560D01*
X127168634Y-110936658D01*
X127168634Y-110936659D01*
X127168635Y-110936661D01*
X127221793Y-111053060D01*
X127290107Y-111131899D01*
X127305590Y-111149768D01*
X127413235Y-111218948D01*
X127413236Y-111218948D01*
X127413239Y-111218950D01*
X127536019Y-111255001D01*
X127663981Y-111255001D01*
X127786761Y-111218950D01*
X127894410Y-111149768D01*
X127932900Y-111105348D01*
X127981646Y-111078225D01*
X127994532Y-111077201D01*
X128077851Y-111077201D01*
X128130270Y-111096280D01*
X128158162Y-111144590D01*
X128159401Y-111158751D01*
X128159401Y-111181497D01*
X128140322Y-111233916D01*
X128106351Y-111257905D01*
X128082912Y-111266647D01*
X128082911Y-111266648D01*
X127967814Y-111352808D01*
X127967807Y-111352815D01*
X127881647Y-111467912D01*
X127881645Y-111467914D01*
X127831403Y-111602621D01*
X127825000Y-111662177D01*
X127825000Y-111710000D01*
X127825001Y-111710001D01*
X142209999Y-111710001D01*
X142210000Y-111710000D01*
X142210000Y-111662177D01*
X142203596Y-111602621D01*
X142153354Y-111467914D01*
X142153352Y-111467912D01*
X142067192Y-111352815D01*
X142067185Y-111352808D01*
X141952088Y-111266648D01*
X141952087Y-111266647D01*
X141928649Y-111257905D01*
X141886203Y-111221710D01*
X141875599Y-111181500D01*
X141875599Y-110723350D01*
X141894678Y-110670932D01*
X141942988Y-110643040D01*
X141957149Y-110641801D01*
X142105249Y-110641801D01*
X142105269Y-110641803D01*
X142113040Y-110641803D01*
X142209234Y-110641803D01*
X142447866Y-110641803D01*
X142500285Y-110660882D01*
X142505531Y-110665688D01*
X142509315Y-110669472D01*
X142532890Y-110720029D01*
X142533200Y-110727137D01*
X142533200Y-112273450D01*
X142514121Y-112325869D01*
X142465811Y-112353761D01*
X142451650Y-112355000D01*
X142436019Y-112355000D01*
X142313237Y-112391051D01*
X142241654Y-112437055D01*
X142197565Y-112450001D01*
X127825001Y-112450001D01*
X127825000Y-112450002D01*
X127825000Y-112497824D01*
X127831403Y-112557382D01*
X127882579Y-112694593D01*
X127883022Y-112750375D01*
X127847504Y-112793390D01*
X127844069Y-112795300D01*
X127750878Y-112844210D01*
X127639981Y-112942455D01*
X127555817Y-113064388D01*
X127555815Y-113064390D01*
X127503277Y-113202920D01*
X127503277Y-113202921D01*
X127485419Y-113349997D01*
X127485419Y-113350004D01*
X127503277Y-113497080D01*
X127503277Y-113497081D01*
X127555815Y-113635611D01*
X127555817Y-113635613D01*
X127639981Y-113757546D01*
X127740173Y-113846307D01*
X127750878Y-113855791D01*
X127882067Y-113924644D01*
X127882069Y-113924644D01*
X127882070Y-113924645D01*
X127952099Y-113941905D01*
X128025920Y-113960101D01*
X128025922Y-113960101D01*
X128174078Y-113960101D01*
X128174080Y-113960101D01*
X128177097Y-113959357D01*
X128178743Y-113959534D01*
X128178979Y-113959506D01*
X128178985Y-113959560D01*
X128232558Y-113965330D01*
X128264360Y-113998432D01*
X128270771Y-113962076D01*
X128313503Y-113926219D01*
X128314899Y-113925795D01*
X128317930Y-113924644D01*
X128317933Y-113924644D01*
X128343970Y-113910979D01*
X128353568Y-113905942D01*
X128391465Y-113896601D01*
X129713039Y-113896601D01*
X133143039Y-113896601D01*
X136748038Y-113896601D01*
X140178040Y-113896601D01*
X141368780Y-113896601D01*
X141421199Y-113915680D01*
X141426445Y-113920486D01*
X141451145Y-113945186D01*
X141474720Y-113995743D01*
X141460282Y-114049626D01*
X141414587Y-114081622D01*
X141393480Y-114084401D01*
X138773693Y-114084401D01*
X138725385Y-114094009D01*
X138725384Y-114094009D01*
X138670612Y-114130607D01*
X138670606Y-114130613D01*
X138634008Y-114185386D01*
X138624400Y-114233687D01*
X138624400Y-115006307D01*
X138634008Y-115054615D01*
X138634008Y-115054616D01*
X138670606Y-115109388D01*
X138670609Y-115109392D01*
X138682080Y-115117057D01*
X138725385Y-115145992D01*
X138725384Y-115145992D01*
X138725386Y-115145993D01*
X138773691Y-115155601D01*
X140409862Y-115155600D01*
X140462281Y-115174679D01*
X140467527Y-115179485D01*
X140485378Y-115197336D01*
X140508953Y-115247893D01*
X140494515Y-115301776D01*
X140485379Y-115312664D01*
X140467529Y-115330515D01*
X140416973Y-115354091D01*
X140409863Y-115354402D01*
X138773693Y-115354402D01*
X138725385Y-115364010D01*
X138725384Y-115364010D01*
X138670612Y-115400608D01*
X138670606Y-115400614D01*
X138634008Y-115455387D01*
X138624400Y-115503688D01*
X138624400Y-116276308D01*
X138634008Y-116324616D01*
X138634008Y-116324617D01*
X138670606Y-116379389D01*
X138670609Y-116379393D01*
X138725383Y-116415992D01*
X138725385Y-116415993D01*
X138725384Y-116415993D01*
X138725386Y-116415994D01*
X138773691Y-116425602D01*
X141726308Y-116425601D01*
X141774614Y-116415994D01*
X141829391Y-116379393D01*
X141865992Y-116324616D01*
X141875600Y-116276311D01*
X141875599Y-115803351D01*
X141894678Y-115750933D01*
X141942988Y-115723041D01*
X141957149Y-115721802D01*
X142486295Y-115721802D01*
X142575167Y-115684990D01*
X143429988Y-114830169D01*
X143466800Y-114741297D01*
X143466800Y-114645103D01*
X143466800Y-113326550D01*
X143485879Y-113274131D01*
X143534189Y-113246239D01*
X143548350Y-113245000D01*
X143563981Y-113245000D01*
X143686761Y-113208949D01*
X143794410Y-113139767D01*
X143878207Y-113043059D01*
X143931365Y-112926660D01*
X143949576Y-112800000D01*
X143931365Y-112673340D01*
X143878207Y-112556941D01*
X143794410Y-112460233D01*
X143794409Y-112460232D01*
X143686764Y-112391052D01*
X143658360Y-112382712D01*
X143563981Y-112355000D01*
X143548350Y-112355000D01*
X143495931Y-112335921D01*
X143468039Y-112287611D01*
X143466800Y-112273450D01*
X143466800Y-110358703D01*
X143466799Y-110358701D01*
X143457724Y-110336793D01*
X143435861Y-110284009D01*
X143429989Y-110269833D01*
X143429988Y-110269832D01*
X143429988Y-110269831D01*
X143361969Y-110201812D01*
X143361967Y-110201811D01*
X143357320Y-110197163D01*
X143357316Y-110197160D01*
X142905171Y-109745014D01*
X142816301Y-109708203D01*
X142816300Y-109708203D01*
X142217529Y-109708203D01*
X142217499Y-109708200D01*
X142209231Y-109708200D01*
X141957151Y-109708200D01*
X141904732Y-109689121D01*
X141876840Y-109640811D01*
X141875601Y-109626650D01*
X141875600Y-109153694D01*
X141869396Y-109122500D01*
X141865993Y-109105387D01*
X141863267Y-109101308D01*
X141829394Y-109050613D01*
X141829392Y-109050610D01*
X141811865Y-109038899D01*
X141774615Y-109014009D01*
X141774616Y-109014009D01*
X141726311Y-109004401D01*
X138773694Y-109004401D01*
X138725386Y-109014009D01*
X138725385Y-109014009D01*
X138670613Y-109050607D01*
X138670607Y-109050613D01*
X138634009Y-109105386D01*
X138624401Y-109153687D01*
X138624401Y-109926307D01*
X138634009Y-109974615D01*
X138634009Y-109974616D01*
X138659323Y-110012500D01*
X138670610Y-110029392D01*
X138670613Y-110029394D01*
X138725386Y-110065992D01*
X138725385Y-110065992D01*
X138725387Y-110065993D01*
X138773692Y-110075601D01*
X140409863Y-110075600D01*
X140462282Y-110094679D01*
X140467528Y-110099485D01*
X140485378Y-110117335D01*
X140508953Y-110167892D01*
X140494515Y-110221775D01*
X140485379Y-110232663D01*
X140467529Y-110250514D01*
X140416973Y-110274090D01*
X140409863Y-110274401D01*
X138773693Y-110274401D01*
X138725385Y-110284009D01*
X138725384Y-110284009D01*
X138670612Y-110320607D01*
X138670606Y-110320613D01*
X138634008Y-110375386D01*
X138624400Y-110423687D01*
X138624400Y-111181497D01*
X138605321Y-111233916D01*
X138571346Y-111257906D01*
X138563495Y-111260834D01*
X138507714Y-111261275D01*
X138506499Y-111260833D01*
X138498649Y-111257905D01*
X138456203Y-111221710D01*
X138445599Y-111181500D01*
X138445599Y-110423693D01*
X138435992Y-110375387D01*
X138429052Y-110365001D01*
X138399393Y-110320613D01*
X138399391Y-110320610D01*
X138344614Y-110284009D01*
X138344615Y-110284009D01*
X138296313Y-110274401D01*
X138296309Y-110274401D01*
X136696058Y-110274401D01*
X136643639Y-110255322D01*
X136638393Y-110250516D01*
X136620542Y-110232665D01*
X136596967Y-110182108D01*
X136611405Y-110128225D01*
X136620542Y-110117335D01*
X136638392Y-110099485D01*
X136688949Y-110075910D01*
X136696057Y-110075600D01*
X138296305Y-110075600D01*
X138296307Y-110075600D01*
X138344613Y-110065993D01*
X138399390Y-110029392D01*
X138435991Y-109974615D01*
X138445599Y-109926310D01*
X138445598Y-109153693D01*
X138435991Y-109105387D01*
X138433265Y-109101308D01*
X138399392Y-109050613D01*
X138399390Y-109050610D01*
X138381863Y-109038899D01*
X138344613Y-109014009D01*
X138344614Y-109014009D01*
X138296309Y-109004401D01*
X135343692Y-109004401D01*
X135295384Y-109014009D01*
X135295383Y-109014009D01*
X135240611Y-109050607D01*
X135240605Y-109050613D01*
X135204007Y-109105386D01*
X135194399Y-109153687D01*
X135194399Y-109153692D01*
X135194399Y-109416089D01*
X135194400Y-109601250D01*
X135175321Y-109653669D01*
X135127011Y-109681561D01*
X135112850Y-109682800D01*
X134922150Y-109682800D01*
X134869731Y-109663721D01*
X134841839Y-109615411D01*
X134840600Y-109601250D01*
X134840599Y-109153694D01*
X134834395Y-109122500D01*
X134830992Y-109105387D01*
X134828266Y-109101308D01*
X134794393Y-109050613D01*
X134794391Y-109050610D01*
X134776864Y-109038899D01*
X134739614Y-109014009D01*
X134739615Y-109014009D01*
X134691310Y-109004401D01*
X131738693Y-109004401D01*
X131690385Y-109014009D01*
X131690384Y-109014009D01*
X131635612Y-109050607D01*
X131635606Y-109050613D01*
X131599008Y-109105386D01*
X131589400Y-109153687D01*
X131589400Y-109153692D01*
X131589400Y-109416089D01*
X131589401Y-109601251D01*
X131570322Y-109653670D01*
X131522012Y-109681562D01*
X131507851Y-109682801D01*
X131492150Y-109682801D01*
X131439731Y-109663722D01*
X131411839Y-109615412D01*
X131410600Y-109601251D01*
X131410599Y-109153694D01*
X131404395Y-109122500D01*
X131400992Y-109105387D01*
X131398266Y-109101308D01*
X131364393Y-109050613D01*
X131364391Y-109050610D01*
X131346864Y-109038899D01*
X131309614Y-109014009D01*
X131309615Y-109014009D01*
X131261310Y-109004401D01*
X128308693Y-109004401D01*
X128260385Y-109014009D01*
X128260384Y-109014009D01*
X128205612Y-109050607D01*
X128205606Y-109050613D01*
X128169008Y-109105386D01*
X128159400Y-109153687D01*
X128159400Y-109191251D01*
X128140321Y-109243670D01*
X128092011Y-109271562D01*
X128077850Y-109272801D01*
X127938204Y-109272801D01*
X127885785Y-109253722D01*
X127876573Y-109244655D01*
X127861909Y-109227732D01*
X127754264Y-109158552D01*
X127737712Y-109153692D01*
X127631481Y-109122500D01*
X127503519Y-109122500D01*
X127380735Y-109158552D01*
X127273090Y-109227732D01*
X127189292Y-109324442D01*
X127136134Y-109440842D01*
X127117924Y-109567500D01*
X127121108Y-109589646D01*
X127109683Y-109644247D01*
X127065834Y-109678729D01*
X127040388Y-109682801D01*
X125968355Y-109682801D01*
X125915936Y-109663722D01*
X125910690Y-109658916D01*
X125609483Y-109357709D01*
X125585908Y-109307152D01*
X125585598Y-109300044D01*
X125585598Y-108716193D01*
X125583588Y-108706087D01*
X125575991Y-108667886D01*
X125574232Y-108665254D01*
X125539392Y-108613112D01*
X125539390Y-108613109D01*
X125484613Y-108576508D01*
X125484614Y-108576508D01*
X125436309Y-108566900D01*
X125003692Y-108566900D01*
X124955384Y-108576508D01*
X124955383Y-108576508D01*
X124900611Y-108613106D01*
X124900607Y-108613110D01*
X124887805Y-108632270D01*
X124842818Y-108665254D01*
X124787154Y-108661605D01*
X124752193Y-108632270D01*
X124739390Y-108613109D01*
X124684613Y-108576508D01*
X124684614Y-108576508D01*
X124636309Y-108566900D01*
X124203692Y-108566900D01*
X124155384Y-108576508D01*
X124155383Y-108576508D01*
X124100611Y-108613106D01*
X124100605Y-108613112D01*
X124064007Y-108667885D01*
X124054399Y-108716186D01*
X124054399Y-109648806D01*
X124064007Y-109697114D01*
X124064007Y-109697115D01*
X124098493Y-109748726D01*
X124100608Y-109751891D01*
X124100611Y-109751893D01*
X124106288Y-109757570D01*
X124104220Y-109759637D01*
X124129540Y-109794164D01*
X124132800Y-109816990D01*
X124132800Y-109903150D01*
X124173478Y-110001355D01*
X124173478Y-110001356D01*
X124423478Y-110251357D01*
X124480116Y-110307994D01*
X124498643Y-110326521D01*
X124596851Y-110367200D01*
X125095543Y-110367200D01*
X125147962Y-110386279D01*
X125175854Y-110434589D01*
X125166167Y-110489525D01*
X125153208Y-110506415D01*
X124449108Y-111210515D01*
X124398551Y-111234090D01*
X124391443Y-111234400D01*
X124017288Y-111234400D01*
X123986464Y-111239281D01*
X123919974Y-111249812D01*
X123802672Y-111309580D01*
X123709580Y-111402672D01*
X123649812Y-111519974D01*
X123643075Y-111562512D01*
X123634400Y-111617288D01*
X122817000Y-111617288D01*
X122817000Y-108269997D01*
X127285419Y-108269997D01*
X127285419Y-108270004D01*
X127303277Y-108417080D01*
X127303277Y-108417081D01*
X127355815Y-108555611D01*
X127355817Y-108555613D01*
X127439981Y-108677546D01*
X127550878Y-108775791D01*
X127682067Y-108844644D01*
X127682069Y-108844644D01*
X127682070Y-108844645D01*
X127735191Y-108857738D01*
X127825920Y-108880101D01*
X127825922Y-108880101D01*
X127974078Y-108880101D01*
X127974080Y-108880101D01*
X128117933Y-108844644D01*
X128136074Y-108835122D01*
X128153568Y-108825942D01*
X128191465Y-108816601D01*
X140321961Y-108816601D01*
X140336713Y-108812647D01*
X140352645Y-108808379D01*
X140373753Y-108805600D01*
X141726306Y-108805600D01*
X141726308Y-108805600D01*
X141774614Y-108795993D01*
X141829391Y-108759392D01*
X141865992Y-108704615D01*
X141875600Y-108656310D01*
X141875599Y-107898502D01*
X141894678Y-107846084D01*
X141928651Y-107822095D01*
X141952087Y-107813353D01*
X142067185Y-107727192D01*
X142067192Y-107727185D01*
X142153352Y-107612088D01*
X142153354Y-107612086D01*
X142203596Y-107477379D01*
X142210000Y-107417823D01*
X142210000Y-107370001D01*
X142209999Y-107370000D01*
X135228793Y-107370000D01*
X135228770Y-107370001D01*
X127825001Y-107370001D01*
X127825000Y-107370002D01*
X127825000Y-107417824D01*
X127831403Y-107477380D01*
X127861295Y-107557524D01*
X127861738Y-107613306D01*
X127826221Y-107656322D01*
X127804404Y-107665203D01*
X127682070Y-107695356D01*
X127550878Y-107764210D01*
X127439981Y-107862455D01*
X127355817Y-107984388D01*
X127355815Y-107984390D01*
X127303277Y-108122920D01*
X127303277Y-108122921D01*
X127285419Y-108269997D01*
X122817000Y-108269997D01*
X122817000Y-105876362D01*
X122836079Y-105823943D01*
X122884389Y-105796051D01*
X122939325Y-105805738D01*
X122971211Y-105839339D01*
X123004580Y-105904829D01*
X123097670Y-105997919D01*
X123214971Y-106057687D01*
X123312287Y-106073100D01*
X123496649Y-106073100D01*
X123549068Y-106092179D01*
X123576960Y-106140489D01*
X123578199Y-106154650D01*
X123578199Y-106930598D01*
X123615010Y-107019467D01*
X123615010Y-107019468D01*
X124030514Y-107434973D01*
X124054089Y-107485530D01*
X124054399Y-107492637D01*
X124054399Y-107948806D01*
X124064007Y-107997114D01*
X124064007Y-107997115D01*
X124100605Y-108051887D01*
X124100608Y-108051891D01*
X124100611Y-108051893D01*
X124155384Y-108088491D01*
X124155383Y-108088491D01*
X124155385Y-108088492D01*
X124203690Y-108098100D01*
X124636307Y-108098099D01*
X124684613Y-108088492D01*
X124739390Y-108051891D01*
X124752193Y-108032729D01*
X124797179Y-107999745D01*
X124852843Y-108003393D01*
X124887805Y-108032730D01*
X124895280Y-108043918D01*
X124900608Y-108051891D01*
X124900611Y-108051893D01*
X124955384Y-108088491D01*
X124955383Y-108088491D01*
X124955385Y-108088492D01*
X125003690Y-108098100D01*
X125436307Y-108098099D01*
X125484613Y-108088492D01*
X125539390Y-108051891D01*
X125575991Y-107997114D01*
X125585599Y-107948809D01*
X125585598Y-107490135D01*
X125604677Y-107437717D01*
X125609472Y-107432483D01*
X126004988Y-107036969D01*
X126041800Y-106948097D01*
X126041800Y-106851903D01*
X126041800Y-106582177D01*
X127825000Y-106582177D01*
X127825000Y-106630000D01*
X127825001Y-106630001D01*
X129414999Y-106630001D01*
X129415000Y-106630000D01*
X129415000Y-106130002D01*
X130155000Y-106130002D01*
X130155000Y-106630000D01*
X130155001Y-106630001D01*
X132844999Y-106630001D01*
X132845000Y-106630000D01*
X132845000Y-106130002D01*
X132844999Y-106130001D01*
X131707177Y-106130001D01*
X131647620Y-106136404D01*
X131528499Y-106180834D01*
X131472717Y-106181277D01*
X131471501Y-106180834D01*
X131352379Y-106136404D01*
X131292823Y-106130001D01*
X130155001Y-106130001D01*
X130155000Y-106130002D01*
X129415000Y-106130002D01*
X129414999Y-106130001D01*
X128277177Y-106130001D01*
X128217620Y-106136404D01*
X128082913Y-106186646D01*
X128082911Y-106186648D01*
X127967814Y-106272808D01*
X127967807Y-106272815D01*
X127881647Y-106387912D01*
X127881645Y-106387914D01*
X127831403Y-106522621D01*
X127825000Y-106582177D01*
X126041800Y-106582177D01*
X126041800Y-106154650D01*
X126060879Y-106102231D01*
X126109189Y-106074339D01*
X126123350Y-106073100D01*
X126327710Y-106073100D01*
X126327712Y-106073100D01*
X126425028Y-106057687D01*
X126542329Y-105997919D01*
X126635419Y-105904829D01*
X126695187Y-105787528D01*
X126710600Y-105690212D01*
X126710600Y-105450000D01*
X131550424Y-105450000D01*
X131568634Y-105576657D01*
X131568634Y-105576658D01*
X131568635Y-105576660D01*
X131621793Y-105693059D01*
X131682328Y-105762921D01*
X131705590Y-105789767D01*
X131813235Y-105858947D01*
X131813236Y-105858947D01*
X131813239Y-105858949D01*
X131936019Y-105895000D01*
X132063981Y-105895000D01*
X132186761Y-105858949D01*
X132294410Y-105789767D01*
X132378207Y-105693059D01*
X132431365Y-105576660D01*
X132449576Y-105450000D01*
X132431365Y-105323340D01*
X132378207Y-105206941D01*
X132294410Y-105110233D01*
X132294409Y-105110232D01*
X132294408Y-105110231D01*
X132279259Y-105100495D01*
X132245477Y-105056104D01*
X132241800Y-105031892D01*
X132241800Y-103473350D01*
X132260879Y-103420931D01*
X132309189Y-103393039D01*
X132323350Y-103391800D01*
X138166063Y-103391800D01*
X138218482Y-103410879D01*
X138223728Y-103415685D01*
X138735087Y-103927044D01*
X138758662Y-103977601D01*
X138758142Y-103996314D01*
X138750424Y-104049999D01*
X138768634Y-104176657D01*
X138768634Y-104176658D01*
X138768635Y-104176660D01*
X138821793Y-104293059D01*
X138905590Y-104389767D01*
X139013235Y-104458947D01*
X139013236Y-104458947D01*
X139013239Y-104458949D01*
X139058779Y-104472320D01*
X139103699Y-104505393D01*
X139116851Y-104559604D01*
X139093468Y-104608231D01*
X137943585Y-105758115D01*
X137893028Y-105781690D01*
X137885920Y-105782000D01*
X137449947Y-105782000D01*
X137397528Y-105762921D01*
X137396542Y-105762080D01*
X137394412Y-105760234D01*
X137286764Y-105691052D01*
X137283903Y-105690212D01*
X137163981Y-105655000D01*
X137036019Y-105655000D01*
X136913235Y-105691052D01*
X136805590Y-105760232D01*
X136721792Y-105856942D01*
X136668634Y-105973342D01*
X136656167Y-106060056D01*
X136629822Y-106109226D01*
X136578034Y-106129959D01*
X136575447Y-106130000D01*
X135312177Y-106130000D01*
X135252620Y-106136403D01*
X135117913Y-106186645D01*
X135117911Y-106186647D01*
X135066370Y-106225230D01*
X135012972Y-106241370D01*
X134968628Y-106225230D01*
X134917088Y-106186648D01*
X134917086Y-106186646D01*
X134782379Y-106136404D01*
X134722823Y-106130001D01*
X133585001Y-106130001D01*
X133585000Y-106130002D01*
X133585000Y-106630000D01*
X133585001Y-106630001D01*
X134806207Y-106630001D01*
X134806230Y-106630000D01*
X139879999Y-106630000D01*
X139880000Y-106629999D01*
X139880000Y-106130001D01*
X140620000Y-106130001D01*
X140620000Y-106629999D01*
X140620001Y-106630000D01*
X142209999Y-106630000D01*
X142210000Y-106629999D01*
X142210000Y-106582176D01*
X142203596Y-106522620D01*
X142153354Y-106387913D01*
X142153352Y-106387911D01*
X142067192Y-106272814D01*
X142067185Y-106272807D01*
X141952088Y-106186647D01*
X141952086Y-106186645D01*
X141817379Y-106136403D01*
X141757823Y-106130000D01*
X140620001Y-106130000D01*
X140620000Y-106130001D01*
X139880000Y-106130001D01*
X139879999Y-106130000D01*
X138742177Y-106130000D01*
X138682618Y-106136403D01*
X138677655Y-106137576D01*
X138677067Y-106135091D01*
X138630530Y-106135425D01*
X138587542Y-106099874D01*
X138577463Y-106045009D01*
X138600205Y-106000934D01*
X140080835Y-104520305D01*
X140131393Y-104496730D01*
X140138500Y-104496420D01*
X140163981Y-104496420D01*
X140286761Y-104460369D01*
X140394410Y-104391187D01*
X140478207Y-104294479D01*
X140531365Y-104178080D01*
X140549576Y-104051420D01*
X140531365Y-103924760D01*
X140478207Y-103808361D01*
X140394410Y-103711653D01*
X140394409Y-103711652D01*
X140286764Y-103642472D01*
X140281924Y-103641051D01*
X140163981Y-103606420D01*
X140036019Y-103606420D01*
X139913235Y-103642472D01*
X139805590Y-103711652D01*
X139721788Y-103808366D01*
X139718973Y-103812747D01*
X139674579Y-103846526D01*
X139618859Y-103843866D01*
X139583038Y-103810773D01*
X139581363Y-103811850D01*
X139578211Y-103806947D01*
X139578208Y-103806943D01*
X139578207Y-103806941D01*
X139494410Y-103710233D01*
X139494409Y-103710232D01*
X139386764Y-103641052D01*
X139263981Y-103605000D01*
X139136019Y-103605000D01*
X139130737Y-103605000D01*
X139078318Y-103585921D01*
X139073072Y-103581115D01*
X138883757Y-103391800D01*
X138436969Y-102945012D01*
X138436967Y-102945011D01*
X138436966Y-102945010D01*
X138348098Y-102908200D01*
X138348097Y-102908200D01*
X135952519Y-102908200D01*
X135900100Y-102889121D01*
X135872208Y-102840811D01*
X135878338Y-102792773D01*
X135890024Y-102767182D01*
X135931365Y-102676660D01*
X135949576Y-102550000D01*
X135931365Y-102423340D01*
X135878207Y-102306941D01*
X135794410Y-102210233D01*
X135794409Y-102210232D01*
X135686764Y-102141052D01*
X135563981Y-102105000D01*
X135436019Y-102105000D01*
X135313235Y-102141052D01*
X135205590Y-102210232D01*
X135121792Y-102306942D01*
X135068634Y-102423342D01*
X135050424Y-102550000D01*
X135068634Y-102676657D01*
X135068634Y-102676658D01*
X135068635Y-102676660D01*
X135088274Y-102719664D01*
X135121662Y-102792773D01*
X135126082Y-102848381D01*
X135093724Y-102893821D01*
X135047481Y-102908200D01*
X131951901Y-102908200D01*
X131863033Y-102945010D01*
X131795010Y-103013033D01*
X131758200Y-103101901D01*
X131758200Y-105031892D01*
X131739121Y-105084311D01*
X131720741Y-105100495D01*
X131705591Y-105110231D01*
X131621793Y-105206940D01*
X131568634Y-105323342D01*
X131550424Y-105450000D01*
X126710600Y-105450000D01*
X126710600Y-104963936D01*
X126729679Y-104911517D01*
X126734485Y-104906271D01*
X126796219Y-104844537D01*
X127328788Y-104311969D01*
X127365600Y-104223097D01*
X127365600Y-104126903D01*
X127365600Y-102326903D01*
X127328788Y-102238031D01*
X127300989Y-102210232D01*
X127260769Y-102170011D01*
X127260769Y-102170012D01*
X126731285Y-101640528D01*
X126707710Y-101589971D01*
X126707400Y-101582863D01*
X126707400Y-101421903D01*
X126707399Y-101421901D01*
X126687972Y-101375000D01*
X141690848Y-101375000D01*
X141709428Y-101611087D01*
X141764711Y-101841358D01*
X141764712Y-101841359D01*
X141855333Y-102060135D01*
X141855337Y-102060143D01*
X141979068Y-102262054D01*
X141979073Y-102262061D01*
X142116819Y-102423342D01*
X142132868Y-102442132D01*
X142132874Y-102442137D01*
X142132877Y-102442140D01*
X142312938Y-102595926D01*
X142312943Y-102595930D01*
X142514859Y-102719664D01*
X142514864Y-102719666D01*
X142733640Y-102810287D01*
X142733641Y-102810288D01*
X142963913Y-102865571D01*
X142963917Y-102865572D01*
X143200000Y-102884152D01*
X143436083Y-102865572D01*
X143666354Y-102810289D01*
X143666354Y-102810288D01*
X143666358Y-102810288D01*
X143666359Y-102810287D01*
X143708641Y-102792773D01*
X143885141Y-102719664D01*
X144087057Y-102595930D01*
X144267132Y-102442132D01*
X144420930Y-102262057D01*
X144544664Y-102060141D01*
X144635287Y-101841359D01*
X144635288Y-101841358D01*
X144690571Y-101611087D01*
X144690570Y-101611087D01*
X144690572Y-101611083D01*
X144709152Y-101375000D01*
X144690572Y-101138917D01*
X144635289Y-100908646D01*
X144635288Y-100908641D01*
X144635287Y-100908640D01*
X144544666Y-100689864D01*
X144544662Y-100689856D01*
X144420931Y-100487945D01*
X144420926Y-100487938D01*
X144267140Y-100307877D01*
X144267137Y-100307874D01*
X144267132Y-100307868D01*
X144267125Y-100307862D01*
X144267122Y-100307859D01*
X144087061Y-100154073D01*
X144087054Y-100154068D01*
X143885143Y-100030337D01*
X143885135Y-100030333D01*
X143666359Y-99939712D01*
X143666358Y-99939711D01*
X143436086Y-99884428D01*
X143436088Y-99884428D01*
X143200000Y-99865848D01*
X142963912Y-99884428D01*
X142733641Y-99939711D01*
X142733640Y-99939712D01*
X142514864Y-100030333D01*
X142514856Y-100030337D01*
X142312945Y-100154068D01*
X142312938Y-100154073D01*
X142132877Y-100307859D01*
X142132859Y-100307877D01*
X141979073Y-100487938D01*
X141979068Y-100487945D01*
X141855337Y-100689856D01*
X141855333Y-100689864D01*
X141764712Y-100908640D01*
X141764711Y-100908641D01*
X141709428Y-101138912D01*
X141690848Y-101375000D01*
X126687972Y-101375000D01*
X126670589Y-101333033D01*
X126670588Y-101333032D01*
X126670588Y-101333031D01*
X126602569Y-101265012D01*
X126602567Y-101265011D01*
X126602566Y-101265010D01*
X126513698Y-101228200D01*
X126513697Y-101228200D01*
X125348350Y-101228200D01*
X125295931Y-101209121D01*
X125268039Y-101160811D01*
X125266800Y-101146650D01*
X125266800Y-101042363D01*
X125266799Y-101042361D01*
X125229988Y-100953491D01*
X125161969Y-100885471D01*
X125161969Y-100885472D01*
X124620309Y-100343812D01*
X124620307Y-100343811D01*
X124620306Y-100343810D01*
X124531438Y-100307000D01*
X124531437Y-100307000D01*
X109418563Y-100307000D01*
X109418561Y-100307000D01*
X109329692Y-100343811D01*
X109329691Y-100343811D01*
X109261671Y-100411830D01*
X109261672Y-100411831D01*
X109261671Y-100411832D01*
X107861831Y-101811671D01*
X107861831Y-101811672D01*
X107861830Y-101811671D01*
X107793811Y-101879691D01*
X107793811Y-101879692D01*
X107757000Y-101968561D01*
X107757000Y-108441318D01*
X107737921Y-108493737D01*
X107733115Y-108498982D01*
X107346875Y-108885221D01*
X107296320Y-108908796D01*
X107242437Y-108894358D01*
X107231547Y-108885221D01*
X107183813Y-108837487D01*
X107115430Y-108805600D01*
X107082943Y-108790451D01*
X107082941Y-108790450D01*
X107082940Y-108790450D01*
X107036986Y-108784400D01*
X105788024Y-108784400D01*
X105788003Y-108784402D01*
X105742062Y-108790449D01*
X105742058Y-108790450D01*
X105742057Y-108790451D01*
X105709570Y-108805600D01*
X105641186Y-108837487D01*
X105562487Y-108916186D01*
X105515450Y-109017058D01*
X105515450Y-109017060D01*
X105509400Y-109063005D01*
X105509400Y-109339863D01*
X105490321Y-109392282D01*
X105485515Y-109397527D01*
X105173729Y-109709314D01*
X105123172Y-109732890D01*
X105116064Y-109733200D01*
X104607423Y-109733200D01*
X104555004Y-109714121D01*
X104527112Y-109665811D01*
X104536799Y-109610875D01*
X104568979Y-109579730D01*
X104649385Y-109536753D01*
X104796417Y-109416087D01*
X104917083Y-109269055D01*
X105006745Y-109101308D01*
X105061959Y-108919292D01*
X105071153Y-108825942D01*
X105080603Y-108730004D01*
X105080603Y-108729997D01*
X105061960Y-108540721D01*
X105061959Y-108540710D01*
X105006745Y-108358694D01*
X104917083Y-108190947D01*
X104796417Y-108043915D01*
X104680529Y-107948808D01*
X104649388Y-107923251D01*
X104649386Y-107923250D01*
X104649385Y-107923249D01*
X104481638Y-107833587D01*
X104481637Y-107833586D01*
X104481636Y-107833586D01*
X104419092Y-107814614D01*
X104299622Y-107778373D01*
X104299616Y-107778372D01*
X104299610Y-107778371D01*
X104110334Y-107759729D01*
X104110328Y-107759729D01*
X103921051Y-107778371D01*
X103921043Y-107778372D01*
X103921040Y-107778373D01*
X103836315Y-107804074D01*
X103739025Y-107833586D01*
X103571273Y-107923251D01*
X103424248Y-108043912D01*
X103424242Y-108043918D01*
X103303581Y-108190943D01*
X103213916Y-108358695D01*
X103196206Y-108417080D01*
X103158703Y-108540710D01*
X103158703Y-108540712D01*
X103158701Y-108540721D01*
X103140059Y-108729997D01*
X103140059Y-108730004D01*
X103158701Y-108919280D01*
X103158702Y-108919286D01*
X103158703Y-108919292D01*
X103184521Y-109004401D01*
X103213226Y-109099032D01*
X103213917Y-109101308D01*
X103295383Y-109253722D01*
X103303581Y-109269058D01*
X103376335Y-109357709D01*
X103424245Y-109416087D01*
X103454407Y-109440840D01*
X103564683Y-109531342D01*
X103571277Y-109536753D01*
X103739024Y-109626415D01*
X103921040Y-109681629D01*
X103962727Y-109685734D01*
X104110328Y-109700273D01*
X104110331Y-109700273D01*
X104110333Y-109700273D01*
X104152391Y-109696130D01*
X104219360Y-109689534D01*
X104273397Y-109703383D01*
X104305890Y-109748726D01*
X104301635Y-109804347D01*
X104285019Y-109828356D01*
X103979060Y-110134315D01*
X103928503Y-110157890D01*
X103921395Y-110158200D01*
X103606597Y-110158200D01*
X103525474Y-110191802D01*
X103525474Y-110191803D01*
X103517727Y-110195012D01*
X102873362Y-110839377D01*
X102873361Y-110839376D01*
X102821624Y-110891115D01*
X102771067Y-110914691D01*
X102763959Y-110915001D01*
X102370332Y-110915001D01*
X102370331Y-110915002D01*
X102370331Y-111372262D01*
X102439451Y-111349359D01*
X102588674Y-111257317D01*
X102629316Y-111216676D01*
X102679873Y-111193101D01*
X102733756Y-111207539D01*
X102765752Y-111253234D01*
X102768531Y-111274341D01*
X102768531Y-111311063D01*
X102749452Y-111363482D01*
X102744646Y-111368728D01*
X102103758Y-112009615D01*
X102053200Y-112033190D01*
X102007651Y-112023871D01*
X101941636Y-111988586D01*
X101886709Y-111971924D01*
X101759622Y-111933373D01*
X101759616Y-111933372D01*
X101759610Y-111933371D01*
X101570334Y-111914729D01*
X101570328Y-111914729D01*
X101381051Y-111933371D01*
X101381043Y-111933372D01*
X101381040Y-111933373D01*
X101296315Y-111959074D01*
X101199025Y-111988586D01*
X101031273Y-112078251D01*
X100884248Y-112198912D01*
X100884242Y-112198918D01*
X100763581Y-112345943D01*
X100673916Y-112513695D01*
X100644404Y-112610985D01*
X100618703Y-112695710D01*
X100618703Y-112695712D01*
X100618701Y-112695721D01*
X100600059Y-112884997D01*
X100310000Y-112884997D01*
X100310000Y-111212210D01*
X100329079Y-111159791D01*
X100377389Y-111131899D01*
X100432325Y-111141586D01*
X100449215Y-111154545D01*
X100551987Y-111257317D01*
X100701210Y-111349359D01*
X100770331Y-111372263D01*
X100770331Y-110049175D01*
X101070331Y-110049175D01*
X101070331Y-110180827D01*
X101104406Y-110307994D01*
X101170232Y-110422008D01*
X101263324Y-110515100D01*
X101377338Y-110580926D01*
X101504505Y-110615001D01*
X101636157Y-110615001D01*
X101763324Y-110580926D01*
X101877338Y-110515100D01*
X101970430Y-110422008D01*
X102036256Y-110307994D01*
X102070331Y-110180827D01*
X102070331Y-110049175D01*
X102036256Y-109922008D01*
X101970430Y-109807994D01*
X101877338Y-109714902D01*
X101763324Y-109649076D01*
X101636157Y-109615001D01*
X101504505Y-109615001D01*
X101377338Y-109649076D01*
X101263324Y-109714902D01*
X101170232Y-109807994D01*
X101104406Y-109922008D01*
X101070331Y-110049175D01*
X100770331Y-110049175D01*
X100770331Y-109315000D01*
X102370331Y-109315000D01*
X102370332Y-109315001D01*
X102827593Y-109315001D01*
X102804689Y-109245880D01*
X102712647Y-109096657D01*
X102588674Y-108972684D01*
X102439451Y-108880642D01*
X102370331Y-108857738D01*
X102370331Y-109315000D01*
X100770331Y-109315000D01*
X100770331Y-108857738D01*
X100701210Y-108880642D01*
X100551987Y-108972684D01*
X100449215Y-109075457D01*
X100398658Y-109099032D01*
X100344775Y-109084594D01*
X100312779Y-109038899D01*
X100310000Y-109017792D01*
X100310000Y-107344997D01*
X100600059Y-107344997D01*
X100600059Y-107345004D01*
X100618701Y-107534280D01*
X100618702Y-107534286D01*
X100618703Y-107534292D01*
X100642672Y-107613306D01*
X100673647Y-107715420D01*
X100673917Y-107716308D01*
X100752035Y-107862458D01*
X100763581Y-107884058D01*
X100795746Y-107923251D01*
X100884245Y-108031087D01*
X101031277Y-108151753D01*
X101199024Y-108241415D01*
X101381040Y-108296629D01*
X101422727Y-108300734D01*
X101570328Y-108315273D01*
X101570331Y-108315273D01*
X101570334Y-108315273D01*
X101687482Y-108303734D01*
X101759622Y-108296629D01*
X101941638Y-108241415D01*
X102109385Y-108151753D01*
X102256417Y-108031087D01*
X102377083Y-107884055D01*
X102466745Y-107716308D01*
X102521959Y-107534292D01*
X102533430Y-107417824D01*
X102540603Y-107345004D01*
X102540603Y-107344997D01*
X102521960Y-107155721D01*
X102521959Y-107155710D01*
X102466745Y-106973694D01*
X102377083Y-106805947D01*
X102256417Y-106658915D01*
X102200600Y-106613107D01*
X102109388Y-106538251D01*
X102109386Y-106538250D01*
X102109385Y-106538249D01*
X101941638Y-106448587D01*
X101941637Y-106448586D01*
X101941636Y-106448586D01*
X101886709Y-106431924D01*
X101759622Y-106393373D01*
X101759616Y-106393372D01*
X101759610Y-106393371D01*
X101570334Y-106374729D01*
X101570328Y-106374729D01*
X101381051Y-106393371D01*
X101381043Y-106393372D01*
X101381040Y-106393373D01*
X101299856Y-106418000D01*
X101199025Y-106448586D01*
X101031273Y-106538251D01*
X100884248Y-106658912D01*
X100884242Y-106658918D01*
X100763581Y-106805943D01*
X100673916Y-106973695D01*
X100644404Y-107070985D01*
X100618703Y-107155710D01*
X100618703Y-107155712D01*
X100618701Y-107155721D01*
X100600059Y-107344997D01*
X100310000Y-107344997D01*
X100310000Y-105959997D01*
X103140059Y-105959997D01*
X103140059Y-105960004D01*
X103158701Y-106149280D01*
X103158702Y-106149286D01*
X103158703Y-106149292D01*
X103213917Y-106331308D01*
X103278786Y-106452671D01*
X103303581Y-106499058D01*
X103335746Y-106538251D01*
X103424245Y-106646087D01*
X103571277Y-106766753D01*
X103739024Y-106856415D01*
X103921040Y-106911629D01*
X103962727Y-106915734D01*
X104110328Y-106930273D01*
X104110331Y-106930273D01*
X104110334Y-106930273D01*
X104227482Y-106918734D01*
X104299622Y-106911629D01*
X104481638Y-106856415D01*
X104649385Y-106766753D01*
X104796417Y-106646087D01*
X104917083Y-106499055D01*
X105006745Y-106331308D01*
X105061959Y-106149292D01*
X105072772Y-106039505D01*
X105080603Y-105960004D01*
X105080603Y-105959997D01*
X105061960Y-105770721D01*
X105061959Y-105770710D01*
X105006745Y-105588694D01*
X104917083Y-105420947D01*
X104796417Y-105273915D01*
X104714680Y-105206835D01*
X104649388Y-105153251D01*
X104649386Y-105153250D01*
X104649385Y-105153249D01*
X104481638Y-105063587D01*
X104481637Y-105063586D01*
X104481636Y-105063586D01*
X104426709Y-105046924D01*
X104299622Y-105008373D01*
X104299616Y-105008372D01*
X104299610Y-105008371D01*
X104110334Y-104989729D01*
X104110328Y-104989729D01*
X103921051Y-105008371D01*
X103921043Y-105008372D01*
X103921040Y-105008373D01*
X103843508Y-105031892D01*
X103739025Y-105063586D01*
X103571273Y-105153251D01*
X103424248Y-105273912D01*
X103424242Y-105273918D01*
X103303581Y-105420943D01*
X103213916Y-105588695D01*
X103204687Y-105619120D01*
X103158703Y-105770710D01*
X103158703Y-105770712D01*
X103158701Y-105770721D01*
X103140059Y-105959997D01*
X100310000Y-105959997D01*
X100310000Y-101375000D01*
X100690848Y-101375000D01*
X100709428Y-101611087D01*
X100764711Y-101841358D01*
X100764712Y-101841359D01*
X100855333Y-102060135D01*
X100855337Y-102060143D01*
X100979068Y-102262054D01*
X100979073Y-102262061D01*
X101116819Y-102423342D01*
X101132868Y-102442132D01*
X101132874Y-102442137D01*
X101132877Y-102442140D01*
X101312938Y-102595926D01*
X101312943Y-102595930D01*
X101514859Y-102719664D01*
X101514864Y-102719666D01*
X101733640Y-102810287D01*
X101733641Y-102810288D01*
X101963913Y-102865571D01*
X101963917Y-102865572D01*
X102200000Y-102884152D01*
X102436083Y-102865572D01*
X102666354Y-102810289D01*
X102666354Y-102810288D01*
X102666358Y-102810288D01*
X102666359Y-102810287D01*
X102708641Y-102792773D01*
X102885141Y-102719664D01*
X103087057Y-102595930D01*
X103267132Y-102442132D01*
X103420930Y-102262057D01*
X103544664Y-102060141D01*
X103635287Y-101841359D01*
X103635288Y-101841358D01*
X103690571Y-101611087D01*
X103690570Y-101611087D01*
X103690572Y-101611083D01*
X103709152Y-101375000D01*
X103690572Y-101138917D01*
X103635289Y-100908646D01*
X103635288Y-100908641D01*
X103635287Y-100908640D01*
X103544666Y-100689864D01*
X103544662Y-100689856D01*
X103420931Y-100487945D01*
X103420926Y-100487938D01*
X103267140Y-100307877D01*
X103267137Y-100307874D01*
X103267132Y-100307868D01*
X103267125Y-100307862D01*
X103267122Y-100307859D01*
X103087061Y-100154073D01*
X103087054Y-100154068D01*
X102885143Y-100030337D01*
X102885135Y-100030333D01*
X102666359Y-99939712D01*
X102666358Y-99939711D01*
X102436086Y-99884428D01*
X102436088Y-99884428D01*
X102200000Y-99865848D01*
X101963912Y-99884428D01*
X101733641Y-99939711D01*
X101733640Y-99939712D01*
X101514864Y-100030333D01*
X101514856Y-100030337D01*
X101312945Y-100154068D01*
X101312938Y-100154073D01*
X101132877Y-100307859D01*
X101132859Y-100307877D01*
X100979073Y-100487938D01*
X100979068Y-100487945D01*
X100855337Y-100689856D01*
X100855333Y-100689864D01*
X100764712Y-100908640D01*
X100764711Y-100908641D01*
X100709428Y-101138912D01*
X100690848Y-101375000D01*
X100310000Y-101375000D01*
X100310000Y-99338780D01*
X100329079Y-99286361D01*
X100333885Y-99281115D01*
X100786115Y-98828885D01*
X100836672Y-98805310D01*
X100843780Y-98805000D01*
X144516220Y-98805000D01*
X144568639Y-98824079D01*
G37*
G04 #@! TD.AperFunction*
G04 #@! TA.AperFunction,Conductor*
G36*
X120554090Y-107379427D02*
G01*
X120556807Y-107383687D01*
X121000155Y-108597876D01*
X120999774Y-108606823D01*
X120993655Y-108612693D01*
X120304490Y-108899133D01*
X120295536Y-108899144D01*
X120295510Y-108899133D01*
X119811507Y-108697965D01*
X119606343Y-108612692D01*
X119600019Y-108606353D01*
X119599844Y-108597878D01*
X120043193Y-107383686D01*
X120049249Y-107377091D01*
X120054183Y-107376000D01*
X120545817Y-107376000D01*
X120554090Y-107379427D01*
G37*
G04 #@! TD.AperFunction*
M02*
